<?xml version="1.0" encoding="UTF-8" standalone="no"?><svg xmlns="http://www.w3.org/2000/svg" xmlns:xlink="http://www.w3.org/1999/xlink" fill="#000000" height="60" preserveAspectRatio="xMidYMid meet" version="1" viewBox="2.0 2.0 60.0 60.0" width="60" zoomAndPan="magnify"><g><g><linearGradient gradientUnits="userSpaceOnUse" id="a" x1="-1.955" x2="62.61" xlink:actuate="onLoad" xlink:show="other" xlink:type="simple" y1="2.358" y2="67.706"><stop offset="0.161" stop-color="#333333"/><stop offset="0.859" stop-color="#1b1c1f"/></linearGradient><path d="M10.316,27.051l-0.727-0.242l2.482-1.655l5.481,2.741C17.693,27.965,17.847,28,18,28 s0.307-0.035,0.447-0.105l5.481-2.741l2.482,1.655l-0.727,0.242c-0.523,0.175-0.807,0.741-0.632,1.265 C25.191,28.735,25.581,29,26,29c0.104,0,0.211-0.017,0.316-0.052l3-1c0.523-0.175,0.807-0.741,0.632-1.265l-1-3 c-0.175-0.523-0.735-0.809-1.265-0.632c-0.523,0.175-0.807,0.741-0.632,1.265l0.221,0.664L25,23.465V16 c0-0.379-0.214-0.725-0.553-0.895L19,12.382V9.414l0.293,0.293C19.488,9.902,19.744,10,20,10s0.512-0.098,0.707-0.293 c0.391-0.391,0.391-1.023,0-1.414l-2-2c-0.391-0.391-1.023-0.391-1.414,0l-2,2c-0.391,0.391-0.391,1.023,0,1.414 s1.023,0.391,1.414,0L17,9.414v2.968l-5.447,2.724C11.214,15.275,11,15.621,11,16v7.465L8.727,24.98l0.221-0.664 c0.175-0.524-0.108-1.09-0.632-1.265c-0.527-0.177-1.091,0.109-1.265,0.632l-1,3c-0.175,0.524,0.108,1.09,0.632,1.265l3,1 C9.789,28.984,9.896,29,10,29c0.419,0,0.809-0.265,0.948-0.684C11.123,27.792,10.84,27.226,10.316,27.051z M13,17.618l4,2v5.764 l-4-2V17.618z M18,14.118L21.764,16L18,17.882L14.236,16L18,14.118z M19,25.382v-5.764l4-2v5.764L19,25.382z" fill="url(#a)"/><linearGradient gradientUnits="userSpaceOnUse" id="b" x1="9.39" x2="73.956" xlink:actuate="onLoad" xlink:show="other" xlink:type="simple" y1="-8.852" y2="56.496"><stop offset="0.161" stop-color="#333333"/><stop offset="0.859" stop-color="#1b1c1f"/></linearGradient><path d="M29.258,10.956c-0.543,1.198-0.764,2.52-0.615,3.861c0.218,1.966,1.188,3.729,2.732,4.963 C31.56,19.928,31.78,20,31.999,20c0.294,0,0.584-0.128,0.782-0.375c0.345-0.431,0.274-1.061-0.156-1.405 c-1.127-0.901-1.836-2.188-1.995-3.623c-0.099-0.896,0.047-1.773,0.372-2.587C31.007,12.557,31.451,13,32,13c0.553,0,1-0.448,1-1 V9c0-0.321-0.154-0.623-0.415-0.811C32.322,8,31.988,7.951,31.684,8.051l-3,1c-0.523,0.175-0.807,0.741-0.632,1.265 C28.22,10.82,28.746,11.092,29.258,10.956z" fill="url(#b)"/><linearGradient gradientUnits="userSpaceOnUse" id="c" x1="17.518" x2="82.084" xlink:actuate="onLoad" xlink:show="other" xlink:type="simple" y1="-16.883" y2="48.465"><stop offset="0.161" stop-color="#333333"/><stop offset="0.859" stop-color="#1b1c1f"/></linearGradient><path d="M47.415,19.811C47.588,19.936,47.793,20,48,20c0.106,0,0.213-0.017,0.316-0.051l3-1 c0.523-0.175,0.807-0.741,0.632-1.265c-0.168-0.504-0.695-0.777-1.206-0.64c0.543-1.198,0.764-2.52,0.615-3.861 c-0.218-1.966-1.188-3.729-2.732-4.963c-0.433-0.345-1.06-0.274-1.406,0.156c-0.345,0.431-0.274,1.061,0.156,1.405 c1.127,0.901,1.836,2.188,1.995,3.623c0.099,0.896-0.047,1.773-0.372,2.587C48.993,15.443,48.549,15,48,15c-0.553,0-1,0.448-1,1v3 C47,19.321,47.154,19.623,47.415,19.811z" fill="url(#c)"/><linearGradient gradientUnits="userSpaceOnUse" id="d" x1="-5.925" x2="58.641" xlink:actuate="onLoad" xlink:show="other" xlink:type="simple" y1="6.279" y2="71.627"><stop offset="0.161" stop-color="#333333"/><stop offset="0.859" stop-color="#1b1c1f"/></linearGradient><path d="M24,30H13c-0.553,0-1,0.448-1,1s0.447,1,1,1h11c0.553,0,1-0.448,1-1S24.553,30,24,30z" fill="url(#d)"/><linearGradient gradientUnits="userSpaceOnUse" id="e" x1="-8.936" x2="55.629" xlink:actuate="onLoad" xlink:show="other" xlink:type="simple" y1="9.255" y2="74.603"><stop offset="0.161" stop-color="#333333"/><stop offset="0.859" stop-color="#1b1c1f"/></linearGradient><path d="M20,34h-7c-0.553,0-1,0.448-1,1s0.447,1,1,1h7c0.553,0,1-0.448,1-1S20.553,34,20,34z" fill="url(#e)"/><linearGradient gradientUnits="userSpaceOnUse" id="f" x1="0.094" x2="64.659" xlink:actuate="onLoad" xlink:show="other" xlink:type="simple" y1="0.333" y2="65.681"><stop offset="0.161" stop-color="#333333"/><stop offset="0.859" stop-color="#1b1c1f"/></linearGradient><path d="M62,31v-6c0-0.552-0.447-1-1-1h-5V7c0-2.757-2.243-5-5-5H7C4.243,2,2,4.243,2,7v27 c0,3.309,2.691,6,6,6h11.382l-2,4H14c-1.654,0-3,1.346-3,3v2c0,0.552,0.447,1,1,1h20.302c0.14,0.687,0.342,1.35,0.573,2H7.816 C7.402,50.839,6.302,50,5,50c-1.654,0-3,1.346-3,3s1.346,3,3,3c1.302,0,2.402-0.839,2.816-2h25.928 c0.344,0.649,0.742,1.264,1.175,1.853L31.697,58h-8.882c-0.414-1.161-1.514-2-2.816-2c-1.654,0-3,1.346-3,3s1.346,3,3,3 c1.302,0,2.402-0.839,2.816-2H32c0.197,0,0.391-0.059,0.555-0.168l3.656-2.437C38.94,60.228,42.764,62,47,62 c8.271,0,15-6.729,15-15c0-4.111-1.665-7.84-4.353-10.552l4.112-4.797C61.915,31.47,62,31.239,62,31z M5,54c-0.552,0-1-0.449-1-1 s0.448-1,1-1s1,0.449,1,1S5.552,54,5,54z M20,60c-0.552,0-1-0.449-1-1s0.448-1,1-1s1,0.449,1,1S20.552,60,20,60z M4,34V7 c0-1.654,1.346-3,3-3h44c1.654,0,3,1.346,3,3v17h-3.184c-0.414-1.161-1.514-2-2.816-2c-0.305,0-0.594,0.059-0.872,0.144 C46.242,21.422,45.143,21,44,21v-0.551c1.277-1.141,2-2.736,2-4.449v-1.785c0-3.18-2.378-5.897-5.414-6.187 c-1.692-0.161-3.373,0.398-4.621,1.532C34.716,10.695,34,12.313,34,14v2c0,1.713,0.723,3.308,2,4.449V21c-2.757,0-5,2.243-5,5v3 c0,0.417,0.259,0.79,0.648,0.937c2.693,1.009,5.522,1.514,8.352,1.514s5.658-0.505,8.352-1.514C48.741,29.79,49,29.417,49,29 v-1.184c0.847-0.302,1.514-0.969,1.816-1.816H54v7.744C51.908,32.635,49.528,32,47,32c-4.893,0-9.232,2.365-11.972,6H8 C5.794,38,4,36.206,4,34z M37.603,19.18C36.584,18.41,36,17.251,36,16v-2c0-1.125,0.478-2.204,1.311-2.96 c0.844-0.767,1.939-1.131,3.086-1.021C42.417,10.212,44,12.055,44,14.215V16c0,1.251-0.584,2.41-1.603,3.18 C42.146,19.369,42,19.664,42,19.978V22c0,0.552,0.447,1,1,1h1c0.526,0,1.022,0.151,1.467,0.409C45.175,23.871,45,24.414,45,25 c0,1.302,0.839,2.402,2,2.816v0.48c-4.541,1.541-9.459,1.541-14,0V26c0-1.654,1.346-3,3-3h1c0.553,0,1-0.448,1-1v-2.022 C38,19.664,37.854,19.369,37.603,19.18z M48,26c-0.552,0-1-0.449-1-1s0.448-1,1-1s1,0.449,1,1S48.552,26,48,26z M21.618,40h12.125 c-0.658,1.242-1.152,2.583-1.441,4H19.618L21.618,40z M13,48v-1c0-0.551,0.448-1,1-1h18.051C32.029,46.332,32,46.662,32,47 s0.029,0.668,0.051,1H13z M47,60c-7.168,0-13-5.832-13-13s5.832-13,13-13s13,5.832,13,13S54.168,60,47,60z M60,30.63l-3.86,4.503 c-0.046-0.036-0.094-0.07-0.14-0.105V26h4V30.63z" fill="url(#f)"/><linearGradient gradientUnits="userSpaceOnUse" id="g" x1="0.498" x2="65.063" xlink:actuate="onLoad" xlink:show="other" xlink:type="simple" y1="-0.066" y2="65.282"><stop offset="0.161" stop-color="#333333"/><stop offset="0.859" stop-color="#1b1c1f"/></linearGradient><path d="M47,36c-6.065,0-11,4.935-11,11s4.935,11,11,11s11-4.935,11-11S53.065,36,47,36z M47,56 c-4.963,0-9-4.038-9-9s4.037-9,9-9s9,4.038,9,9S51.963,56,47,56z" fill="url(#g)"/><linearGradient gradientUnits="userSpaceOnUse" id="h" x1="0.498" x2="65.063" xlink:actuate="onLoad" xlink:show="other" xlink:type="simple" y1="-0.066" y2="65.282"><stop offset="0.161" stop-color="#333333"/><stop offset="0.859" stop-color="#1b1c1f"/></linearGradient><path d="M52.515,43.143l-5-3c-0.316-0.19-0.713-0.19-1.029,0l-5,3C41.185,43.323,41,43.649,41,44v6 c0,0.351,0.185,0.677,0.485,0.857l5,3C46.644,53.953,46.822,54,47,54s0.356-0.047,0.515-0.143l5-3C52.815,50.677,53,50.351,53,50 v-6C53,43.649,52.815,43.323,52.515,43.143z M47,42.166L50.056,44L47,45.834L43.944,44L47,42.166z M43,45.766l3,1.8v3.667l-3-1.8 V45.766z M48,51.234v-3.667l3-1.8v3.667L48,51.234z" fill="url(#h)"/></g></g></svg>