<svg xmlns="http://www.w3.org/2000/svg"  viewBox="0 0 122.18 156.69"><defs><style>.cls-1{fill:#fff;}.red{fill:#1b1c1f;}
</style></defs><g id="Layer_2" data-name="Layer 2"><g id="Layer_2-2" data-name="Layer 2"><path class="red" d="M122.06,0V5.28c0,41.66-.07,83.31.12,125,0,4.08-1.3,5.7-5,7-17.12,6-34.11,12.34-51.21,18.37-2.38.84-5.46,1.52-7.69.74-19.46-6.78-38.81-13.91-58.29-21V0ZM6.15,6.4C6,7.78,5.85,8.9,5.85,10c0,39,0,78-.09,117,0,3.19,1.26,4.25,4,5.21,16,5.67,31.88,11.61,47.89,17.22a11.51,11.51,0,0,0,7.06-.1c15.71-5.48,31.28-11.32,47-16.8,3.39-1.18,4.51-2.79,4.5-6.4-.14-38.32-.09-76.65-.09-115V6.4Z"/><path class="cls-1" d="M6.15,6.4H116.07v4.76c0,38.33,0,76.66.09,115,0,3.61-1.11,5.22-4.5,6.4-15.71,5.48-31.28,11.32-47,16.8a11.51,11.51,0,0,1-7.06.1c-16-5.61-31.91-11.55-47.89-17.22-2.7-1-4-2-4-5.21.12-39,.08-78,.09-117C5.85,8.9,6,7.78,6.15,6.4Z"/></g></g></svg>