<svg xmlns="http://www.w3.org/2000/svg" viewBox="0 0 74.2 73.8"><defs><style>.cls-1{fill:#1e1e21;}.cls-2{fill:#373736;}.cls-3{fill:#efeee3;}.cls-4{fill:#eeede2;}.cls-5{fill:#272729;}.cls-6{fill:#edebe1;}.cls-7{fill:#e3e1d7;}.cls-8{fill:#959690;}.cls-9{fill:#3c3c3b;}.cls-10{fill:#a8a7a7;}.cls-11{fill:#3f4040;}</style></defs><g id="Layer_2" data-name="Layer 2"><g id="Layer_2-2" data-name="Layer 2"><path class="cls-1" d="M63.56,10.24c10,.26,10.62.94,10.62,11,0,9.64,0,19.29,0,28.94,0,6.33-2.07,8.31-8.37,8.35-6.48.05-13,0-19.46,0-4.14,0-4.91,1.27-2.81,4.84.63,1.07,1.92,1.74,2.84,2.66a6,6,0,0,1,1.58,6c-.67,2.35-3,1.66-4.7,1.69-4.16.07-8.32.1-12.47,0-1.68-.05-4,.91-4.73-1.51a6.1,6.1,0,0,1,1.64-6.4c.93-.87,2.16-1.25,2.73-2.69,1.21-3.08,1.42-4.83-2.94-4.64-6.8.31-13.63.15-20.45.06-5.11-.07-6.93-1.8-7-6.9C0,39.93,0,28.29,0,16.64c0-3.9,1.47-6.35,5.82-6.32q25.7.13,51.38.17c.22,2.76-1.62,3.65-3.81,4.22-13,1.06-25.93.29-38.89.48-9.36.14-9.37.06-9.38,9.43,0,4.82,0,9.65,0,14.47,0,3.2,1.42,4.38,4.54,4.42,18,.24,35.9,0,53.85,0,3.75,0,4.93-1.76,4.87-5.21-.08-4.49-.27-9,0-13.47.4-5.5-.44-9.89-6.92-10.87C60.4,11.74,60.89,10.4,63.56,10.24Z"/><path class="cls-2" d="M63.56,10.24c-1.27.69-1.72,2-2.3,3.16-2.86,6-6,11.69-12.92,13.84a4.2,4.2,0,0,1-2.91-2.1c-1.78-3.88,1.56-5.52,3.45-7.78a15.23,15.23,0,0,1,5-3.8,6.84,6.84,0,0,0,3.3-3.07L68.89.26a1,1,0,0,1,1.54.21Z"/><path class="cls-3" d="M53.93,13.56c-2.3,2.47-4.54,5-6.9,7.39C46,22,45.11,23,46.32,24.49c-2.75,2.65-4.83,5.89-7.49,8.63C35.9,34.71,32.74,36,30.89,39a5.88,5.88,0,0,1-3.32,1.5c.88-.47,2.36.11,3.86.32,6,1.38,6.67-4,9-7.21,2.78-2.24,4.87-5.22,7.78-7.32,2.06.63,2.89-1,3.91-2.18C55.17,20.59,58.2,17,61.26,13.4c9.68.63,9-1.42,9,9.35,0,6.31-.11,12.63.06,19,.07,2.64-.43,3.74-3.45,3.71-19.95-.13-39.9-.1-59.85,0-2.35,0-3.64-.27-3.57-3.16.19-8,.23-16,0-23.94-.12-3.92,1.67-4.79,5.11-4.76C23.67,13.61,38.8,13.56,53.93,13.56Z"/><path class="cls-4" d="M4.32,54.38c-2-3.83-.91-5.24,3.46-5.11,8.81.26,17.63.14,26.44.17a5.76,5.76,0,0,1,1,1.46c.36,1.75,1.22,3.93-1.82,3.88C23.72,54.63,14,55.37,4.32,54.38Z"/><path class="cls-3" d="M39.35,49.44c9.11,0,18.22-.11,27.33,0,1.34,0,3.48-1.09,3.6,1.87.1,2.71-1.34,3.51-3.64,3.52-7.62,0-15.24,0-22.86,0-1.64,0-3.27.22-4.91.34-2.35-1.41-.09-3.09-.26-4.63A2.59,2.59,0,0,1,39.35,49.44Z"/><path class="cls-5" d="M39.32,50.29c3.25,1.93-2,3.09-.45,4.86L7,55.37a3.29,3.29,0,0,1-2.7-1H35.15c-.53-1.36-2.78-2.4-.84-4A5.82,5.82,0,0,1,39.32,50.29Z"/><path class="cls-6" d="M30.3,68.68c4.52-.44,9-.85,13.49,1.38H30.21Z"/><path class="cls-7" d="M39.25,62.62c.32,2.55-1.5,1.78-2.62,1.83s-2.86.26-2.09-1.56c.63-1.48-.31-4.26,2.24-4.31S38.4,61.36,39.25,62.62Z"/><path class="cls-8" d="M39.32,50.29l-5,.08a2.42,2.42,0,0,0-.09-.93h5.13A1.31,1.31,0,0,0,39.32,50.29Z"/><path class="cls-9" d="M48.17,26.33c-.33,4.35-4.76,5.28-6.83,8.19-2,.58-3.23.18-3.13-2.18,1.53-2.08,3.13-4.1,4.55-6.25.9-1.35,1.89-2.15,3.56-1.6Z"/><path class="cls-10" d="M38.21,32.34a3.47,3.47,0,0,0,3.13,2.18c-.42.46-1.21.93-1.2,1.39.07,6.53-4.25,6.69-9,6.31-1.2-1.13-1-2.57-.92-4C31.48,34.34,34.77,33.24,38.21,32.34Z"/><path class="cls-11" d="M30.23,38.22c1.3,1.1,1.13,2.55.92,4L25,41.05Z"/></g></g></svg>