<?xml version="1.0" encoding="UTF-8" standalone="no"?><svg xmlns="http://www.w3.org/2000/svg" xmlns:xlink="http://www.w3.org/1999/xlink" fill="#1b1c1f" height="448" preserveAspectRatio="xMidYMid meet" version="1" viewBox="24.0 32.0 464.0 448.0" width="464" zoomAndPan="magnify"><g id="change1_1"><path d="M56 64H72V80H56z"/></g><g id="change1_2"><path d="M88 64H104V80H88z"/></g><g id="change1_3"><path d="M120 64H136V80H120z"/></g><g id="change1_4"><path d="M456,32H56A32.036,32.036,0,0,0,24,64V384a32.036,32.036,0,0,0,32,32H197.058l-4.364,48H168v16H344V464H319.306l-4.364-48H456a32.036,32.036,0,0,0,32-32V64A32.036,32.036,0,0,0,456,32ZM56,48H456a16.019,16.019,0,0,1,16,16V96H40V64A16.019,16.019,0,0,1,56,48Zm416,64V336H40V112ZM303.24,464H208.76l4.364-48h85.752ZM456,400H56a16.019,16.019,0,0,1-16-16V352H472v32A16.019,16.019,0,0,1,456,400Z"/></g><g id="change1_5"><path d="M248 368H264V384H248z"/></g><g id="change1_6"><path d="M64 200H80V216H64z"/></g><g id="change1_7"><path d="M96 200H216V216H96z"/></g><g id="change1_8"><path d="M64 232H80V248H64z"/></g><g id="change1_9"><path d="M96 232H304V248H96z"/></g><g id="change1_10"><path d="M64 264H80V280H64z"/></g><g id="change1_11"><path d="M96 264H248V280H96z"/></g><g id="change1_12"><path d="M64 296H80V312H64z"/></g><g id="change1_13"><path d="M96 296H328V312H96z"/></g><g id="change1_14"><path d="M66.343,165.657l16,16,11.314-11.314L83.313,160l10.344-10.343L82.343,138.343l-16,16A8,8,0,0,0,66.343,165.657Z"/></g><g id="change1_15"><path d="M146.343,170.343l11.314,11.314,16-16a8,8,0,0,0,0-11.314l-16-16-11.314,11.314L156.687,160Z"/></g><g id="change1_16"><path d="M94.702 152H145.298V168H94.702z" transform="rotate(-71.562 120 160)"/></g><g id="change1_17"><path d="M320 232H368V248H320z"/></g><g id="change1_18"><path d="M344 296H360V312H344z"/></g><g id="change1_19"><path d="M376 296H392V312H376z"/></g><g id="change1_20"><path d="M232 200H248V216H232z"/></g></svg>