<?xml version="1.0" encoding="UTF-8" standalone="no"?><svg xmlns="http://www.w3.org/2000/svg" xmlns:xlink="http://www.w3.org/1999/xlink" fill="#1b1c1f" height="378.6" preserveAspectRatio="xMidYMid meet" version="1" viewBox="212.6 210.5 375.2 378.6" width="375.2" zoomAndPan="magnify"><g id="change1_1"><path d="M326.9 356.4H518.5999999999999V451.59999999999997H326.9z" fill="#333333"/></g><g id="change2_1"><path d="m495.4 461.2h-11.6v-19.3h11.6v19.3zm-23.2 0h-11.6v-19.3h11.6v19.3zm-23.2 0h-11.6v-19.3h11.6v19.3zm-23.2 0h-11.6v-19.3h11.6v19.3zm-23.1 0h-11.6v-19.3h11.6v19.3zm-23.2 0h-11.6v-19.3h11.6v19.3zm-23.2 0h-11.6v-19.3h11.6v19.3zm-19.8-26.5h-19.3v-11.6h19.3v11.6zm191.7-12.2h-19.3v-11.6h19.3v11.6zm-191.7-11h-19.3v-11.6h19.3v11.6zm191.7-12.2h-19.3v-11.6h19.3v11.6zm-191.7-11h-19.3v-11.6h19.3v11.6zm155.5-22.3h-11.6v-19.3h11.6v19.3zm-23.2 0h-11.6v-19.3h11.6v19.3zm-23.2 0h-11.6v-19.3h11.6v19.3zm-23.2 0h-11.6v-19.3h11.6v19.3zm-23.1 0h-11.6v-19.3h11.6v19.3zm-23.2 0h-11.6v-19.3h11.6v19.3zm-23.2 0h-11.6v-19.3h11.6v19.3z" fill="inherit"/></g><g id="change2_2"><path d="M488 289H491V347H488z" fill="inherit"/></g><g id="change2_3"><path d="M488 289H549V293H488z" fill="inherit"/></g><g id="change2_4"><path d="m549.6 297.3c7 0 7-10.8 0-10.8s-7 10.8 0 10.8z" fill="inherit"/></g><g id="change2_5"><path d="M462 250H466V347H462z" fill="inherit"/></g><g id="change2_6"><path d="M462 250H509V253H462z" fill="inherit"/></g><g id="change2_7"><path d="M506 221H509V253H506z" fill="inherit"/></g><g id="change2_8"><path d="m507.1 226.6c7 0 7-10.8 0-10.8s-7 10.8 0 10.8z" fill="inherit"/></g><g id="change2_9"><path d="M437 217H441V347H437z" fill="inherit"/></g><g id="change2_10"><path d="M416 275H419V347H416z" fill="inherit"/></g><g id="change2_11"><path d="M391 304H394V347H391z" fill="inherit"/></g><g id="change2_12"><path d="M362 304H391V307H362z" fill="inherit"/></g><g id="change2_13"><path d="M358 253H362V307H358z" fill="inherit"/></g><g id="change2_14"><path d="M369 322H373V347H369z" fill="inherit"/></g><g id="change2_15"><path d="M333 322H369V325H333z" fill="inherit"/></g><g id="change2_16"><path d="M347 336H351V347H347z" fill="inherit"/></g><g id="change2_17"><path d="M283 336H347V340H283z" fill="inherit"/></g><g id="change2_18"><path d="m282.4 345.3c7 0 7-10.8 0-10.8-6.9 0-6.9 10.8 0 10.8z" fill="inherit"/></g><g id="change2_19"><path d="m331 330.3c7 0 7-10.8 0-10.8s-7 10.8 0 10.8z" fill="inherit"/></g><g id="change2_20"><path d="m358.5 260.2c7 0 7-10.8 0-10.8s-6.9 10.8 0 10.8z" fill="inherit"/></g><g id="change2_21"><path d="m415.4 281.2c7 0 7-10.8 0-10.8-6.9 0-6.9 10.8 0 10.8z" fill="inherit"/></g><g id="change2_22"><path d="m437.6 221.3c7 0 7-10.8 0-10.8s-7 10.8 0 10.8z" fill="inherit"/></g><g id="change2_23"><path d="M527 390H581V394H527z" fill="inherit"/></g><g id="change2_24"><path d="M527 415H570V419H527z" fill="inherit"/></g><g id="change2_25"><path d="M567 419H570V469H567z" fill="inherit"/></g><g id="change2_26"><path d="m580.8 398c7 0 7-10.8 0-10.8s-7 10.8 0 10.8z" fill="inherit"/></g><g id="change2_27"><path d="m568.8 475.3c7 0 7-10.8 0-10.8s-7 10.8 0 10.8z" fill="inherit"/></g><g id="change2_28"><path d="M488 462H491V523H488z" fill="inherit"/></g><g id="change2_29"><path d="M488 523H549V526H488z" fill="inherit"/></g><g id="change2_30"><path d="M466 462H470V548H466z" fill="inherit"/></g><g id="change2_31"><path d="M466 548H524V552H466z" fill="inherit"/></g><g id="change2_32"><path d="M441 462H444V548H441z" fill="inherit"/></g><g id="change2_33"><path d="M419.2 584L376 584 376 580 417.7 580 419 579.3 419 458 423 458 423 580.8z" fill="inherit"/></g><g id="change2_34"><path d="M394 458H398V555H394z" fill="inherit"/></g><g id="change2_35"><path d="M368.8 573L333 573 333 570 367.3 570 369 568.6 369 455 373 455 373 570z" fill="inherit"/></g><g id="change2_36"><path d="M347.3 512L304 512 304 509 345.8 509 347 507.5 347 455 351 455 351 508.9z" fill="inherit"/></g><g id="change2_37"><path d="m548.4 530.4c7 0 7-10.8 0-10.8s-7 10.8 0 10.8z" fill="inherit"/></g><g id="change2_38"><path d="m522.6 556.1c7 0 7-10.8 0-10.8s-6.9 10.8 0 10.8z" fill="inherit"/></g><g id="change2_39"><path d="m441.2 554.3c7 0 7-10.8 0-10.8s-7 10.8 0 10.8z" fill="inherit"/></g><g id="change2_40"><path d="m394.4 562.1c7 0 7-10.8 0-10.8-6.9 0-6.9 10.8 0 10.8z" fill="inherit"/></g><g id="change2_41"><path d="m375.3 589.1c7 0 7-10.8 0-10.8s-7 10.8 0 10.8z" fill="inherit"/></g><g id="change2_42"><path d="m331.5 577.1c7 0 7-10.8 0-10.8-6.9 0-6.9 10.8 0 10.8z" fill="inherit"/></g><g id="change2_43"><path d="m302.2 516.6c7 0 7-10.8 0-10.8s-7 10.8 0 10.8z" fill="inherit"/></g><g id="change2_44"><path d="M250 379H322V383H250z" fill="inherit"/></g><g id="change2_45"><path d="M222 404H326V408H222z" fill="inherit"/></g><g id="change2_46"><path d="M218 343H222V408H218z" fill="inherit"/></g><g id="change2_47"><path d="M258 476L254 476 254 428.4 255.9 426 326 426 326 429 257.4 429 258 429.9z" fill="inherit"/></g><g id="change2_48"><path d="m219.5 349.5c7 0 7-10.8 0-10.8-6.9 0-6.9 10.8 0 10.8z" fill="inherit"/></g><g id="change2_49"><path d="m250.7 386.6c7 0 7-10.8 0-10.8s-7 10.8 0 10.8z" fill="inherit"/></g><g id="change2_50"><path d="m254.3 483c7 0 7-10.8 0-10.8-7 0.1-7 10.8 0 10.8z" fill="inherit"/></g></svg>