<?xml version="1.0" encoding="UTF-8" standalone="no"?><svg xmlns="http://www.w3.org/2000/svg" xmlns:xlink="http://www.w3.org/1999/xlink" fill="#000000" height="60" preserveAspectRatio="xMidYMid meet" version="1" viewBox="6.0 2.0 52.0 60.0" width="52" zoomAndPan="magnify"><g><g><g><linearGradient gradientUnits="userSpaceOnUse" id="a" x1="-12.964" x2="52.254" xlink:actuate="onLoad" xlink:show="other" xlink:type="simple" y1="14.842" y2="75.363"><stop offset="0.161" stop-color="#1b1c1f"/><stop offset="0.859" stop-color="#1b1c1f"/></linearGradient><path d="M28,50h-1v-1c0-0.552-0.447-1-1-1s-1,0.448-1,1v1h-1c-0.553,0-1,0.448-1,1s0.447,1,1,1h1v1 c0,0.552,0.447,1,1,1s1-0.448,1-1v-1h1c0.553,0,1-0.448,1-1S28.553,50,28,50z" fill="url(#a)"/><linearGradient gradientUnits="userSpaceOnUse" id="b" x1="-6.06" x2="59.158" xlink:actuate="onLoad" xlink:show="other" xlink:type="simple" y1="7.402" y2="67.924"><stop offset="0.161" stop-color="#1b1c1f"/><stop offset="0.859" stop-color="#1b1c1f"/></linearGradient><circle cx="38.982" cy="49.201" fill="url(#b)" r="1"/><linearGradient gradientUnits="userSpaceOnUse" id="c" x1="-8.66" x2="56.557" xlink:actuate="onLoad" xlink:show="other" xlink:type="simple" y1="10.204" y2="70.726"><stop offset="0.161" stop-color="#1b1c1f"/><stop offset="0.859" stop-color="#1b1c1f"/></linearGradient><circle cx="35.518" cy="51.201" fill="url(#c)" r="1"/><linearGradient gradientUnits="userSpaceOnUse" id="d" x1="-7.961" x2="57.256" xlink:actuate="onLoad" xlink:show="other" xlink:type="simple" y1="9.451" y2="69.973"><stop offset="0.161" stop-color="#1b1c1f"/><stop offset="0.859" stop-color="#1b1c1f"/></linearGradient><path d="M39.25,53.665 c0.478-0.276,0.642-0.888,0.366-1.366c-0.276-0.478-0.888-0.642-1.366-0.366c-0.478,0.276-0.642,0.888-0.366,1.366 C38.16,53.777,38.772,53.941,39.25,53.665z" fill="url(#d)"/><linearGradient gradientUnits="userSpaceOnUse" id="e" x1="2.716" x2="67.933" xlink:actuate="onLoad" xlink:show="other" xlink:type="simple" y1="-2.054" y2="58.467"><stop offset="0.161" stop-color="#1b1c1f"/><stop offset="0.859" stop-color="#1b1c1f"/></linearGradient><path d="M57,2H7C6.447,2,6,2.448,6,3v30 c0,0.552,0.447,1,1,1h24v1c0,0.551-0.448,1-1,1h-5c-1.654,0-3,1.346-3,3s1.346,3,3,3h5c0.552,0,1,0.448,1,1l0,1h-5.5 c-0.108,0-0.212,0.018-0.31,0.051C21.701,44.456,19,47.464,19,51v7c0,2.206,1.794,4,4,4s4-1.794,4-4v-0.073 c1.459-0.213,2.824-0.886,3.889-1.927h2.223c1.064,1.041,2.43,1.714,3.889,1.927V58c0,2.206,1.794,4,4,4s4-1.794,4-4v-7 c0-3.532-2.695-6.538-6.179-6.947C38.721,44.019,38.612,44,38.5,44H33l0-1c0-1.654-1.346-3-3-3h-5c-0.552,0-1-0.449-1-1 s0.448-1,1-1h5c1.654,0,3-1.346,3-3v-1h7v5c0,1.654,1.346,3,3,3h12c1.654,0,3-1.346,3-3V3C58,2.448,57.553,2,57,2z M38.418,46.022C40.987,46.234,43,48.421,43,51v7c0,1.103-0.897,2-2,2s-2-0.897-2-2v-1c0-0.552-0.447-1-1-1 c-1.412,0-2.768-0.608-3.719-1.668C34.092,54.121,33.821,54,33.537,54h-3.074c-0.284,0-0.555,0.121-0.744,0.332 C28.768,55.392,27.412,56,26,56c-0.553,0-1,0.448-1,1v1c0,1.103-0.897,2-2,2s-2-0.897-2-2v-7c0-2.579,2.013-4.766,4.582-4.978 c0.048-0.004,0.095-0.011,0.14-0.022h12.554C38.322,46.011,38.369,46.018,38.418,46.022z M8,4h48v28H28.566L26,27.723V18 c0-0.552-0.447-1-1-1h-2c-1.654,0-3,1.346-3,3s1.346,3,3,3h1v4.723L21.434,32H8V4z M24,21h-1c-0.552,0-1-0.449-1-1s0.448-1,1-1h1 V21z M23.767,32l1.203-2.006C24.981,29.994,24.989,30,25,30s0.019-0.006,0.03-0.006L26.233,32H23.767z M56,39 c0,0.551-0.448,1-1,1H43c-0.552,0-1-0.449-1-1v-5h14V39z" fill="url(#e)"/><linearGradient gradientUnits="userSpaceOnUse" id="f" x1="6.261" x2="71.479" xlink:actuate="onLoad" xlink:show="other" xlink:type="simple" y1="-5.875" y2="54.647"><stop offset="0.161" stop-color="#1b1c1f"/><stop offset="0.859" stop-color="#1b1c1f"/></linearGradient><path d="M28,20c0,0.552,0.447,1,1,1h1.37 c4.707,0,9.22,1.448,13.049,4.187c0.177,0.126,0.38,0.187,0.581,0.187c0.312,0,0.619-0.146,0.814-0.418 c0.321-0.449,0.218-1.074-0.231-1.395C40.412,20.577,35.497,19,30.37,19H29C28.447,19,28,19.448,28,20z" fill="url(#f)"/><linearGradient gradientUnits="userSpaceOnUse" id="g" x1="-4.218" x2="60.999" xlink:actuate="onLoad" xlink:show="other" xlink:type="simple" y1="5.418" y2="65.939"><stop offset="0.161" stop-color="#1b1c1f"/><stop offset="0.859" stop-color="#1b1c1f"/></linearGradient><path d="M20.707,24.293 c-0.391-0.391-1.023-0.391-1.414,0l-3,3c-0.391,0.391-0.391,1.023,0,1.414C16.488,28.902,16.744,29,17,29 s0.512-0.098,0.707-0.293l3-3C21.098,25.316,21.098,24.684,20.707,24.293z" fill="url(#g)"/><linearGradient gradientUnits="userSpaceOnUse" id="h" x1="-2.686" x2="62.531" xlink:actuate="onLoad" xlink:show="other" xlink:type="simple" y1="3.767" y2="64.289"><stop offset="0.161" stop-color="#1b1c1f"/><stop offset="0.859" stop-color="#1b1c1f"/></linearGradient><path d="M16.293,23.707C16.488,23.902,16.744,24,17,24 s0.512-0.098,0.707-0.293l1-1c0.391-0.391,0.391-1.023,0-1.414s-1.023-0.391-1.414,0l-1,1 C15.902,22.684,15.902,23.316,16.293,23.707z" fill="url(#h)"/><linearGradient gradientUnits="userSpaceOnUse" id="i" x1="8.684" x2="73.901" xlink:actuate="onLoad" xlink:show="other" xlink:type="simple" y1="-8.485" y2="52.036"><stop offset="0.161" stop-color="#1b1c1f"/><stop offset="0.859" stop-color="#1b1c1f"/></linearGradient><path d="M48,25c-1.654,0-3,1.346-3,3s1.346,3,3,3 s3-1.346,3-3S49.654,25,48,25z M48,29c-0.552,0-1-0.449-1-1s0.448-1,1-1s1,0.449,1,1S48.552,29,48,29z" fill="url(#i)"/><linearGradient gradientUnits="userSpaceOnUse" id="j" x1="17.374" x2="82.591" xlink:actuate="onLoad" xlink:show="other" xlink:type="simple" y1="-17.849" y2="42.672"><stop offset="0.161" stop-color="#1b1c1f"/><stop offset="0.859" stop-color="#1b1c1f"/></linearGradient><path d="M45,15h8c0.553,0,1-0.448,1-1s-0.447-1-1-1 h-5.788c1.316-1.871,3.448-3,5.788-3c0.553,0,1-0.448,1-1s-0.447-1-1-1c-2.768,0-5.298,1.243-7,3.318V7c0-0.552-0.447-1-1-1 s-1,0.448-1,1v7C44,14.552,44.447,15,45,15z" fill="url(#j)"/><linearGradient gradientUnits="userSpaceOnUse" id="k" x1="1.464" x2="66.681" xlink:actuate="onLoad" xlink:show="other" xlink:type="simple" y1="-0.705" y2="59.816"><stop offset="0.161" stop-color="#1b1c1f"/><stop offset="0.859" stop-color="#1b1c1f"/></linearGradient><path d="M15.707,11.293L14.414,10l1.293-1.293 c0.391-0.391,0.391-1.023,0-1.414s-1.023-0.391-1.414,0L13,8.586l-1.293-1.293c-0.391-0.391-1.023-0.391-1.414,0 s-0.391,1.023,0,1.414L11.586,10l-1.293,1.293c-0.391,0.391-0.391,1.023,0,1.414C10.488,12.902,10.744,13,11,13 s0.512-0.098,0.707-0.293L13,11.414l1.293,1.293C14.488,12.902,14.744,13,15,13s0.512-0.098,0.707-0.293 C16.098,12.316,16.098,11.684,15.707,11.293z" fill="url(#k)"/><linearGradient gradientUnits="userSpaceOnUse" id="l" x1="7.479" x2="72.697" xlink:actuate="onLoad" xlink:show="other" xlink:type="simple" y1="-7.187" y2="53.334"><stop offset="0.161" stop-color="#1b1c1f"/><stop offset="0.859" stop-color="#1b1c1f"/></linearGradient><path d="M23.9,12.8c0.18,0.135,0.39,0.2,0.599,0.2 c0.305,0,0.604-0.138,0.801-0.4l3-4c0.332-0.442,0.242-1.069-0.2-1.4c-0.44-0.332-1.068-0.241-1.399,0.2L26,8.333L25.3,7.4 c-0.331-0.442-0.958-0.533-1.399-0.2c-0.442,0.331-0.532,0.958-0.2,1.4l1.05,1.4l-1.05,1.4 C23.368,11.842,23.458,12.469,23.9,12.8z" fill="url(#l)"/><linearGradient gradientUnits="userSpaceOnUse" id="m" x1="13.032" x2="78.249" xlink:actuate="onLoad" xlink:show="other" xlink:type="simple" y1="-13.171" y2="47.351"><stop offset="0.161" stop-color="#1b1c1f"/><stop offset="0.859" stop-color="#1b1c1f"/></linearGradient><path d="M36.5,9h1l-1.8,2.4 c-0.228,0.303-0.264,0.708-0.095,1.047C35.775,12.786,36.121,13,36.5,13h3c0.553,0,1-0.448,1-1s-0.447-1-1-1h-1l1.8-2.4 c0.228-0.303,0.264-0.708,0.095-1.047C40.225,7.214,39.879,7,39.5,7h-3c-0.553,0-1,0.448-1,1S35.947,9,36.5,9z" fill="url(#m)"/><linearGradient gradientUnits="userSpaceOnUse" id="n" x1="5.451" x2="70.668" xlink:actuate="onLoad" xlink:show="other" xlink:type="simple" y1="-5.002" y2="55.52"><stop offset="0.161" stop-color="#1b1c1f"/><stop offset="0.859" stop-color="#1b1c1f"/></linearGradient><path d="M19,9.5h2c0.553,0,1-0.448,1-1s-0.447-1-1-1h-2 c-0.553,0-1,0.448-1,1S18.447,9.5,19,9.5z" fill="url(#n)"/><linearGradient gradientUnits="userSpaceOnUse" id="o" x1="10.255" x2="75.473" xlink:actuate="onLoad" xlink:show="other" xlink:type="simple" y1="-10.179" y2="50.343"><stop offset="0.161" stop-color="#1b1c1f"/><stop offset="0.859" stop-color="#1b1c1f"/></linearGradient><path d="M30.5,11H31v0.5c0,0.552,0.447,1,1,1 s1-0.448,1-1V11h0.5c0.553,0,1-0.448,1-1s-0.447-1-1-1H33V8.5c0-0.552-0.447-1-1-1s-1,0.448-1,1V9h-0.5c-0.553,0-1,0.448-1,1 S29.947,11,30.5,11z" fill="url(#o)"/><linearGradient gradientUnits="userSpaceOnUse" id="p" x1="3.955" x2="69.172" xlink:actuate="onLoad" xlink:show="other" xlink:type="simple" y1="-3.39" y2="57.132"><stop offset="0.161" stop-color="#1b1c1f"/><stop offset="0.859" stop-color="#1b1c1f"/></linearGradient><path d="M19,12.5h2c0.553,0,1-0.448,1-1s-0.447-1-1-1 h-2c-0.553,0-1,0.448-1,1S18.447,12.5,19,12.5z" fill="url(#p)"/><linearGradient gradientUnits="userSpaceOnUse" id="q" x1="15.058" x2="80.275" xlink:actuate="onLoad" xlink:show="other" xlink:type="simple" y1="-15.354" y2="45.168"><stop offset="0.161" stop-color="#1b1c1f"/><stop offset="0.859" stop-color="#1b1c1f"/></linearGradient><path d="M53,17h-4c-0.553,0-1,0.448-1,1s0.447,1,1,1h4 c0.553,0,1-0.448,1-1S53.553,17,53,17z" fill="url(#q)"/><linearGradient gradientUnits="userSpaceOnUse" id="r" x1="13.526" x2="78.744" xlink:actuate="onLoad" xlink:show="other" xlink:type="simple" y1="-13.704" y2="46.818"><stop offset="0.161" stop-color="#1b1c1f"/><stop offset="0.859" stop-color="#1b1c1f"/></linearGradient><path d="M53,21h-2c-0.553,0-1,0.448-1,1s0.447,1,1,1h2 c0.553,0,1-0.448,1-1S53.553,21,53,21z" fill="url(#r)"/><linearGradient gradientUnits="userSpaceOnUse" id="s" x1="2.808" x2="68.026" xlink:actuate="onLoad" xlink:show="other" xlink:type="simple" y1="-2.154" y2="58.368"><stop offset="0.161" stop-color="#1b1c1f"/><stop offset="0.859" stop-color="#1b1c1f"/></linearGradient><circle cx="45" cy="37" fill="url(#s)" r="1"/><linearGradient gradientUnits="userSpaceOnUse" id="t" x1="5.585" x2="70.802" xlink:actuate="onLoad" xlink:show="other" xlink:type="simple" y1="-5.146" y2="55.376"><stop offset="0.161" stop-color="#1b1c1f"/><stop offset="0.859" stop-color="#1b1c1f"/></linearGradient><path d="M49,38h4c0.553,0,1-0.448,1-1s-0.447-1-1-1h-4 c-0.553,0-1,0.448-1,1S48.447,38,49,38z" fill="url(#t)"/></g></g></g></svg>