<svg xmlns="http://www.w3.org/2000/svg" viewBox="0 0 88.99 89.15"><defs><style>.cls-1{fill:#fff;}.cls-2{fill:#fefefe;}.cls-3{fill:#1d1d20;}.cls-4{fill:#4d4d4f;}</style></defs><g id="Layer_2" data-name="Layer 2"><g id="Layer_2-2" data-name="Layer 2"><path class="cls-1" d="M17.59,44.07a26.6,26.6,0,0,1,46.9-17,25.88,25.88,0,0,1,3.35,29.67c-1.54,2.82-1,4.21,1,6.15C74.44,68.14,79.81,73.58,85.25,79c.59.58,1.17,1.17,1.73,1.79,2,2.2,3,4.6.52,7s-4.8,1.35-6.91-.76C74.83,81.25,69,75.57,63.34,69.7c-2.26-2.35-3.85-3.22-7.33-1.44C38.11,77.41,17.31,64.16,17.59,44.07Z"/><path class="cls-2" d="M38.24,75.9c-10.8,0-21.28-.06-31.75,0C2.06,76-.06,74.54,0,69.54.24,48.42.2,27.3,0,6.17,0,1.73,1.2,0,5.91,0q38.4.27,76.81,0C87.29,0,89,1.88,89,6.24c-.06,21.12,0,42.24,0,63.36A12.58,12.58,0,0,1,88.39,73c-.16.55-.55,1.26-1.43,1s-.87-.85-.8-1.55c1.49-16.74.35-33.51.63-50.26C87,11,86.82,11,75.4,11c-23.11,0-46.22,0-69.33-.06-3.08,0-4.25.55-4.21,4q.28,26.94,0,53.89c0,3.83,1.34,4.89,4.88,4.82,7.64-.16,15.29,0,22.94-.07A13.9,13.9,0,0,1,38.24,75.9Z"/><path class="cls-3" d="M44,62.21A17.82,17.82,0,0,1,26.35,44.35,18.1,18.1,0,0,1,44.26,26.63,17.79,17.79,0,1,1,44,62.21Z"/><path class="cls-4" d="M20.72,4.45c-.47,1.11-1.49.93-2.38.93s-1.86,0-1.84-1C16.56,2.8,18,3.08,19.05,3.09A1.47,1.47,0,0,1,20.72,4.45Z"/><path class="cls-4" d="M13.75,4.45c-.46,1.11-1.48.93-2.38.93-.75,0-1.86,0-1.83-1C9.59,2.8,11,3.08,12.09,3.09A1.46,1.46,0,0,1,13.75,4.45Z"/><path class="cls-4" d="M7.4,4.45c-.47,1.11-1.49.93-2.38.93s-1.86,0-1.83-1C3.24,2.8,4.66,3.08,5.73,3.09A1.46,1.46,0,0,1,7.4,4.45Z"/></g></g></svg>