<svg xmlns="http://www.w3.org/2000/svg" viewBox="0 0 96.44 96.17"><defs><style>.cls-1{fill:#fff;}</style></defs><g id="Layer_2" data-name="Layer 2"><g id="Layer_2-2" data-name="Layer 2"><path class="cls-1" d="M48.37.07c26.37-1.5,48.17,23.12,48.07,48-.11,24.48-20.89,48.26-48.39,48.1C21.07,96,0,74.4,0,46.73,0,21.51,22.47-1.38,48.37.07Zm-.82,87.09A39.54,39.54,0,0,0,87.77,48.64C88.22,26.92,70.56,8.73,48.66,8.35,27.56,8,9.14,25.56,8.94,46.27,8.72,69.28,25.37,86.91,47.55,87.16Z"/><path class="cls-1" d="M40.15,35.78H32.6c-3.66-12,5.06-20.23,14.09-18.91a35.91,35.91,0,0,0,5.49,0c4.57-.05,8,2.12,10.45,5.76,4.09,6,3.08,18.49-1.83,23.86-7.3,8-7.3,8-8.25,18.22H44.37c-1.49-8.2-.53-15.64,6.7-20.91,4.69-3.41,5.32-8,4.92-13.2-.26-3.3-1.83-4.83-5-4.91-1.33,0-2.67.05-4-.05-4.38-.34-6.6,1.52-6.44,6A30.9,30.9,0,0,1,40.15,35.78Z"/><path class="cls-1" d="M52.42,79.41H44.17V70.2h8.25Z"/></g></g></svg>