<svg xmlns="http://www.w3.org/2000/svg" viewBox="0 0 182.85 183.31"><defs><style>.cls-1{fill:none;stroke:white;stroke-miterlimit:10;stroke-width:3px;}</style></defs><g id="Layer_2" data-name="Layer 2"><g id="Layer_1-2" data-name="Layer 1"><path class="cls-1" d="M84.46,126.11l-42.84-51q-.4,53.36-.82,106.71V72.23c23.57-11.39,28.9-20.44,28.7-27C69.22,36.53,59,32.13,60.8,22.66c1.13-5.93,6.25-10,12.18-14.78C76.84,4.78,83.61.31,85.15,1.79c.7.67.09,2.33,0,2.61-1.45,4.44-1.66,56.08,0,177.39"/><line class="cls-1" x1="85.15" y1="1.79" x2="177.18" y2="166.28"/><path class="cls-1" d="M85.15,125.84,125.05,77l2.18,104.78c57-.59,54.09,0,54.09,0"/><line class="cls-1" x1="40.8" y1="72.23" x2="1.38" y2="166.28"/></g></g></svg>