<?xml version="1.0" encoding="UTF-8"?><svg xmlns="http://www.w3.org/2000/svg" xmlns:xlink="http://www.w3.org/1999/xlink" height="520.4" preserveAspectRatio="xMidYMid meet" version="1.0" viewBox="7.9 7.9 520.4 520.4" width="520.4" zoomAndPan="magnify"><g id="change1_1"><path d="m7.9 255.8c0-136.9 111.1-247.9 248.1-247.9s248 111 248 247.9-111.1 247.9-248 247.9c-137 0-248.1-111-248.1-247.9" fill="#3a5a98"/></g><g id="change2_1"><path d="m431.4 80.9c96.9 96.8 96.9 253.8 0 350.6s-253.9 96.8-350.8 0z" fill="#345387"/></g><g id="change3_1"><path d="m502.4 283.7-179.4-179.3-93.2 93.1 5.5 5.5-53 53 43.4 43.4-5.7 5.7 47 47-54.2 54.1 92.6 92.5c104.4-21 185-107.6 197-215" fill="#2e4d72"/></g><g id="change4_1"><path d="m212.6 163.7v41.6h-30.5v50.8h30.5v151.1h62.6v-151.1h42s3.9-24.4 5.8-51c-5.5 0-47.6 0-47.6 0s0-29.6 0-34.8 6.8-12.2 13.6-12.2h34.1c0-6.9 0-30.8 0-52.9-17.6 0-37.6 0-46.4 0-65.6 0-64.1 50.9-64.1 58.5" fill="#fff"/></g></svg>