<?xml version="1.0" encoding="UTF-8"?><svg xmlns="http://www.w3.org/2000/svg" xmlns:xlink="http://www.w3.org/1999/xlink" height="520.4" preserveAspectRatio="xMidYMid meet" version="1.0" viewBox="7.9 7.9 520.4 520.4" width="520.4" zoomAndPan="magnify"><g id="change1_1"><path d="m7.9 256c0-137 111.1-248.1 248.1-248.1s248.1 111.1 248.1 248.1-111.1 248.1-248.1 248.1-248.1-111.1-248.1-248.1z" fill="#d42428"/></g><g id="change2_1"><path d="m431.4 80.6c96.9 96.9 96.9 254 0 350.8-96.9 96.9-254 96.9-350.8 0z" fill="#cc202d"/></g><g id="change3_1"><path d="m499.1 305.7-122.8-122.8-144.8 16.5-87.6 135.6 163.7 163.7c96.2-20.4 171.9-96.5 191.5-193" fill="#ba202e"/></g><g id="change4_1"><path d="m385.8 208.1c0-20.8-16.8-37.6-37.6-37.6h-176.6c-20.8 0-37.6 16.9-37.6 37.6v101c0 20.8 16.8 37.7 37.6 37.7h176.5c20.8 0 37.6-16.9 37.6-37.7v-101zm-151.1 93.1v-94.8l71.9 47.4z" fill="#fff" fill-rule="evenodd"/></g></svg>