<?xml version="1.0" encoding="utf-8"?>
<!-- Generator: Adobe Illustrator 24.1.2, SVG Export Plug-In . SVG Version: 6.00 Build 0)  -->
<svg version="1.1" xmlns="http://www.w3.org/2000/svg" xmlns:xlink="http://www.w3.org/1999/xlink" x="0px" y="0px"
	 viewBox="0 0 182.9 183.3" style="enable-background:new 0 0 182.9 183.3;" xml:space="preserve">
<style type="text/css">
	.st0{fill:#1C1B1B;}
	.st1{fill:none;stroke:#F9F9F9;stroke-width:2;stroke-miterlimit:10;}
</style>
<g id="Layer_2">
	<circle class="st0" cx="91.4" cy="91.7" r="87.8"/>
</g>
<g id="Layer_1">
	<g id="Layer_2_1_">
		<g id="Layer_1-2">
			<path class="st1" d="M86.6,112.8L56.5,77c-0.2,25-0.4,49.9-0.6,74.9V75c16.5-8,20.3-14.4,20.2-19c-0.2-6.1-7.4-9.2-6.1-15.8
				c0.8-4.2,4.4-7,8.6-10.4c2.7-2.2,7.5-5.3,8.5-4.3c0.5,0.5,0.1,1.6,0,1.8c-1,3.1-1.2,39.4,0,124.5"/>
			<line class="st1" x1="87.1" y1="25.6" x2="151.7" y2="141"/>
			<path class="st1" d="M87.1,112.7l28-34.3l1.5,73.6c22.5,0,33.7,0,35.4,0c0,0,2.6,0,2.6,0c0,0,0,0,0,0"/>
			<line class="st1" x1="55.9" y1="75" x2="28.2" y2="141"/>
		</g>
	</g>
</g>
</svg>
