<svg xmlns="http://www.w3.org/2000/svg" viewBox="0 0 237.86 73.24"><defs><style>.cls-1{fill:#919191;opacity:0.5;isolation:isolate;}.cls-2{fill:#262626;}.cls-3{fill:#fff;}</style></defs><g id="Layer_2" data-name="Layer 2"><g id="Layer_2-2" data-name="Layer 2"><g id="Layer_2-3" data-name="Layer 2"><path class="cls-1" d="M214.08,18.85a57.35,57.35,0,0,1-.8,10.3,93.46,93.46,0,0,1-1.8,9.2,82.58,82.58,0,0,1-5.6,11.6c-1.2,2.1-2.7,4-4,6.1a21,21,0,0,1-1.4,1.7,27.8,27.8,0,0,1-8.6,6.2,41.45,41.45,0,0,1-15.5,4.1,38.11,38.11,0,0,1-30.8-13.7,29.19,29.19,0,0,1-2.1-2.8,14.81,14.81,0,0,0-2-4.2c-.9-1.6-2-3.2-3-4.7a43,43,0,0,1-3.1-11c0-1.4-.2-2.8-.3-4.3a19.91,19.91,0,0,1,6.2-14.8c9.1-4.4,20-5.6,29.7-6a129.26,129.26,0,0,1,35.1,2.9,21.82,21.82,0,0,1,6.8,6C213.28,16.45,213.68,17.65,214.08,18.85Z"/><path class="cls-1" d="M24.88,15.35a20.63,20.63,0,0,1,6.8-6,133.36,133.36,0,0,1,35.1-2.9c9.8.5,20.6,1.6,29.7,6a19.91,19.91,0,0,1,6.2,14.8,31.08,31.08,0,0,0-.3,4.3,41.9,41.9,0,0,1-3.1,11c-1,1.6-2,3.1-3,4.7-.7,1.2-1.8,2.7-2,4.2-.7,1-1.4,1.9-2.1,2.8A38.41,38.41,0,0,1,61.38,68a42,42,0,0,1-15.5-4.1,27.8,27.8,0,0,1-8.6-6.2c-.5-.5-.9-1.1-1.4-1.7-1.3-2.1-2.7-4-4-6.1a72.84,72.84,0,0,1-5.6-11.6,93.46,93.46,0,0,1-1.8-9.2,57.35,57.35,0,0,1-.8-10.3C24.08,17.65,24.48,16.45,24.88,15.35Z"/><path class="cls-2" d="M236.58,4.45c1.9,3.8,1.5,8.3,0,12.2a1.51,1.51,0,0,1-2,.9,9,9,0,0,1-4.3,1.6c-1.3,1-2.9,1.3-4.9,1.8-2.3,6.9-3.9,14.1-6.4,20.9-4.4,12.2-12.3,22.5-24.5,27.5-11.4,4.7-24.5,5-36.3,1.7-10.4-3-18.8-9.5-23.5-19.4-3-6.3-5.6-13.1-6.6-20.1a33.32,33.32,0,0,1,1.6-15.7,13.16,13.16,0,0,1,1.3-3.8c.2-.7.6-1.5.9-2.3a1.25,1.25,0,0,1,.6-1.1h0a4.19,4.19,0,0,1,2.1-1.9,6.6,6.6,0,0,1,2.2-1.2c2-.5,4.1-1,6.1-1.3,1.1-.2,2.2-.3,3.3-.5a123,123,0,0,1,14.7-1.2,129.69,129.69,0,0,1,19.7-1.5c2.2,0,4.4-.1,6.6,0,5-.3,9.9-.6,14.9-.7a163.59,163.59,0,0,1,21,.4c.3,0,.7.1,1,.1a22.52,22.52,0,0,1,5.8,0,.35.35,0,0,1,.2.1,4.22,4.22,0,0,1,2.2.3A6.43,6.43,0,0,1,236.58,4.45Zm-23.3,24.7a57.35,57.35,0,0,0,.8-10.3c-.3-1.2-.7-2.3-1.1-3.5a20.63,20.63,0,0,0-6.8-6,133.36,133.36,0,0,0-35.1-2.9c-9.8.5-20.6,1.6-29.7,6a19.91,19.91,0,0,0-6.2,14.8,31.08,31.08,0,0,1,.3,4.3,41.9,41.9,0,0,0,3.1,11c1,1.6,2,3.1,3,4.7.7,1.2,1.8,2.7,2,4.2.7,1,1.4,1.9,2.1,2.8A38.41,38.41,0,0,0,176.48,68a42,42,0,0,0,15.5-4.1,27.8,27.8,0,0,0,8.6-6.2c.5-.5.9-1.1,1.4-1.7,1.3-2.1,2.7-4,4-6.1a72.84,72.84,0,0,0,5.6-11.6C212.28,35.25,212.78,32.15,213.28,29.15Z"/><path class="cls-3" d="M203,4.55a19.86,19.86,0,0,0-5.9-1.1,69.55,69.55,0,0,0-7.9-.3c-5.4,0-10.8.4-16.1.7s-10.4.4-15.6.7a92.18,92.18,0,0,0-14.9,2.1c-.1,0-.1.2.1.2,9.8-1.9,20-2,30-2.4,5.2-.2,10.4-.6,15.6-.7a62.62,62.62,0,0,1,7.5.2,46.72,46.72,0,0,1,7.4.9C203,4.75,203.08,4.55,203,4.55Z"/><path class="cls-3" d="M230.38,6.75h-.6c-.3-.1-.6-.1-.9-.2,0-.1,0-.1-.1-.1l1.3-.3c.2-.1.2-.4,0-.4a15.67,15.67,0,0,0-5.7.3H224v.2a18.46,18.46,0,0,0-2.3.4c-.2.1-.2.4.1.4h.2c-.1,0,0,.4.2.4a.75.75,0,0,0,.5-.1l.1.1h-.7a.15.15,0,0,0,0,.3,9.15,9.15,0,0,0,1.7-.1,6.51,6.51,0,0,0,3.9-.1l2.1-.3c.2,0,.4-.1.6-.1A.2.2,0,1,0,230.38,6.75Zm-6,.7a6.75,6.75,0,0,0,1.4-.2v.1a6.6,6.6,0,0,1-1.4.1Z"/><path class="cls-2" d="M138.08,6.15c-1.7-.4-3.2.5-4.7,1.1-2.1.7-4.2,1.3-6.3,1.9-1.9.5-3.9.9-5.8,1.2a28.25,28.25,0,0,1-2.9-.2,66.56,66.56,0,0,1-8.9-1.7c-.5-.1-1-.3-1.5-.4-1.4-.4-2.7-.7-4.1-1.1a1.61,1.61,0,0,0-.7-.4,6.6,6.6,0,0,0-2.2-1.2c-2-.5-4.1-1-6.1-1.3-1.1-.2-2.2-.3-3.3-.5a123,123,0,0,0-14.7-1.2A129.69,129.69,0,0,0,57.18.85c-2.2,0-4.4-.1-6.6,0-5-.3-9.9-.6-14.9-.7a163.59,163.59,0,0,0-21,.4c-.3,0-.7.1-1,.1a22.52,22.52,0,0,0-5.8,0,.35.35,0,0,0-.2.1,4.22,4.22,0,0,0-2.2.3,7.42,7.42,0,0,0-4.2,3.4c-1.9,3.8-1.5,8.3,0,12.2a1.51,1.51,0,0,0,2,.9,9,9,0,0,0,4.3,1.6c1.3,1,2.9,1.3,4.9,1.8,2.3,6.9,3.9,14.1,6.4,20.9,4.4,12.2,12.3,22.5,24.5,27.5,11.4,4.7,24.5,5,36.3,1.7,10.4-3,18.8-9.5,23.5-19.4,3-6.3,5.6-13.1,6.6-20.1,0-.2.1-.4.1-.6,3.8-1.8,7.3-3.5,11.8-2.5a11.73,11.73,0,0,1,5.6,2.7c1.2,1.2,2.4,3.2,4.3,2.7q.15,0,.3-.3c.3-1.2-.4-2.3-1.5-3.3h0a1.85,1.85,0,0,0,.2-.7,1.33,1.33,0,0,0,.8-1.9c-.1-.2-.3-.4-.4-.6a1.4,1.4,0,0,0,.3-2.1.83.83,0,0,0-.3-.8,12,12,0,0,0-2.1-1.3,4,4,0,0,0,1.9-2.5c.3-1.5-.6-3.4.9-4.5a1.53,1.53,0,0,0,.6-1.6,1.23,1.23,0,0,0-.1-1.3c.3-.1.6-.3.9-.4a1.52,1.52,0,0,0,.8-2.1c.6-.3,1.1-.6,1.7-.9a.87.87,0,0,0,.4-.7,5.92,5.92,0,0,0,2.8-1.8C138.58,6.65,138.38,6.25,138.08,6.15Zm-35.6,25.4a41.9,41.9,0,0,1-3.1,11c-1,1.6-2,3.1-3,4.7-.7,1.2-1.8,2.7-2,4.2-.7,1-1.4,1.9-2.1,2.8A38.41,38.41,0,0,1,61.48,68,42,42,0,0,1,46,63.85a27.8,27.8,0,0,1-8.6-6.2c-.5-.5-.9-1.1-1.4-1.7-1.3-2.1-2.7-4-4-6.1a72.84,72.84,0,0,1-5.6-11.6,93.46,93.46,0,0,1-1.8-9.2,57.35,57.35,0,0,1-.8-10.3c.3-1.2.7-2.3,1.1-3.5a20.63,20.63,0,0,1,6.8-6,133.36,133.36,0,0,1,35.1-2.9c9.8.5,20.6,1.6,29.7,6a19.91,19.91,0,0,1,6.2,14.8C102.58,28.65,102.48,30.05,102.48,31.55Z"/><path class="cls-3" d="M34.78,4.55a19.86,19.86,0,0,1,5.9-1.1,69.55,69.55,0,0,1,7.9-.3c5.4,0,10.8.4,16.1.7s10.4.4,15.6.7a92.18,92.18,0,0,1,14.9,2.1c.1,0,.1.2-.1.2-9.8-1.9-20-2-30-2.4-5.2-.2-10.4-.6-15.6-.7A62.62,62.62,0,0,0,42,4a46.72,46.72,0,0,0-7.4.9C34.78,4.75,34.68,4.55,34.78,4.55Z"/><path class="cls-3" d="M7.28,7.25c.2,0,.4.1.6.1l2.1.3a6.51,6.51,0,0,0,3.9.1c.6,0,1.2.1,1.7.1a.15.15,0,1,0,0-.3h-.7a.1.1,0,0,0,.1-.1h.5c.2,0,.3-.4.2-.4h.2a.21.21,0,0,0,.1-.4,15.72,15.72,0,0,0-2.3-.4v-.2h-.4a15.67,15.67,0,0,0-5.7-.3c-.2,0-.2.4,0,.4l1.3.3-.1.1a2.92,2.92,0,0,0-.9.2h-.6C7.08,6.75,7.08,7.15,7.28,7.25Zm6.1.2c-.4,0-.9-.1-1.3-.1v-.1a5.85,5.85,0,0,0,1.3.2Z"/><path class="cls-3" d="M128.38,10.45a38,38,0,0,1-10.6,1.3,34.48,34.48,0,0,1-11-2c-.1,0-.2.1-.1.2a32,32,0,0,0,10.6,2.3,36.94,36.94,0,0,0,5.8-.3c1.9-.4,3.5-1,5.3-1.5Z"/></g></g></g></svg>