<svg xmlns="http://www.w3.org/2000/svg" viewBox="0 0 117.4 459.59"><defs><style>.cls-1{fill:#d42425;}.cls-2{fill:#ededec;}.cls-3{fill:#fac9a3;}.cls-4{fill:#fbd2b5;}</style></defs><g id="Layer_2" data-name="Layer 2"><g id="Layer_1-2" data-name="Layer 1"><g id="Layer_1-2-2" data-name="Layer 1-2"><g id="Layer_3" data-name="Layer 3"><path class="cls-1" d="M32.5,178.87c20.89-.73,41.86-1.76,63.05-2.6a35.67,35.67,0,0,0,4.14-1.46,5.74,5.74,0,0,0,1.28,1.85c1,12.07,1.85,24.14,2.35,36.63q4.55,122.63,8.81,245.35c-28.19,1-56.17,2-84.33-1.57L17.64,177.75l5.6-.22C26.36,178.11,29.41,179.2,32.5,178.87Z"/><path class="cls-2" d="M23.38,168.53c-.05-1.3-.31-2.79,1.27-3.35.2-.11.5-.12.69-.23a3.61,3.61,0,0,0,3.13.58,3.83,3.83,0,0,0,1.47-.86c.9.06,1.61.23,2.31.21L84.61,163c2.9-.11,2.8-.11,2.89-3a2.79,2.79,0,0,1,.81-2.24,9,9,0,0,1,3.24-1.43,5.2,5.2,0,0,1-1.84,1.48,2.11,2.11,0,0,0-1.53,2.55l0,.11c.28,1.79,1.6,2.44,4,1.94s2.91,0,3,2.29c.14,3.49.27,6.79.2,10.3-21.08.83-42,1.56-62.95,2.39-3,.12-6,.14-9,.15.08-.5.37-.81.35-1.21C23.58,173.63,23.48,171,23.38,168.53Z"/><path class="cls-3" d="M43.36,63.86c.1-.11.2-.11.29-.21a13.39,13.39,0,0,1-.08,2.9c0-.1-.11-.09-.11-.19Z"/><path class="cls-3" d="M43.12,57.76c.09-.1.19-.11.29-.21a13.5,13.5,0,0,1-.08,2.91c0-.1-.11-.1-.11-.2Z"/><path class="cls-3" d="M96.19,73.58a12.73,12.73,0,0,1-1.54,1.66C94.5,73.94,95.18,73.52,96.19,73.58Z"/><path class="cls-2" d="M83.6,178a3.37,3.37,0,0,1-1-.06A1.44,1.44,0,0,1,83.6,178Z"/><path class="cls-4" d="M117.27,105.67c-.6-15.2-1.1-30.38-1.7-45.47a20.46,20.46,0,0,0-1.11-5.36,2.45,2.45,0,0,0-2.68-2,2.84,2.84,0,0,0-1.8.07,7.32,7.32,0,0,0-.69.33c-3.48.54-7,1.28-9.84,4.09-.58.73-1.15,1.35-1.63,1.87-.09.3-.18.61-.36,1.12-.34,1.41-1,2.54-.95,3.74a78.81,78.81,0,0,0-.32,9.72c0,4.9.29,9.79.48,14.69l.08,1.79c.09,2.5-1.35,3.95-3.85,3.95-1.6.07-2.14-1-2.25-3.61l-.19-4.8c0-.4.07-.8.06-1.2a4.87,4.87,0,0,0-.15-1.2Q89,48.52,87.54,13.78A11.17,11.17,0,0,0,85.82,8a11.39,11.39,0,0,0-5.88-4.59l-6.36-.23L69.47,7.8,67.89,12c.36,11.06.73,22.18,1.25,33.21v.2c.16,4,.32,8.1.38,12.1a.1.1,0,0,1-.1.1h-.2a1,1,0,0,0,.18-.51c-1.18.45-1.88.48-2.19.19l-.35-1.19-.07-1.9C66,40.11,65.91,26,65.32,11.87a3.72,3.72,0,0,0,0-.9,4.18,4.18,0,0,0-1.06-2.35C62.68,3.78,58.73.39,54.29,0a11.09,11.09,0,0,0-7.18,2.12,12.4,12.4,0,0,0-1.88,4.71,12.09,12.09,0,0,0-.06,3.73c.16,4.88.33,9.76.46,14.64l0,.3c-.29,2.81.23,6,.32,8.19,0,.1,0,.1-.09.2l.06,1.7-.09.11.1,2.6c0,.89.07,1.69.22,2.89a27.3,27.3,0,0,1,0,3c0,.9.07,1.8.21,3a23.26,23.26,0,0,1,0,3l.33,8.29c.1,2.6-.48,3-3.31,2.43l-.3-7.69a3.09,3.09,0,0,1-.24-.89l-.61-18.09a1.9,1.9,0,0,1,.17-.71l-.09-2.4a4.54,4.54,0,0,0-.25-1.09A2.23,2.23,0,0,1,42,28.68c.09-.11.09-.31.18-.41l-.57-16.89a4.54,4.54,0,0,0-.14-1.1c-.08-.22-.14-.44-.21-.66a9.89,9.89,0,0,0-5.06-7.24A9.93,9.93,0,0,0,27,2.74a5.4,5.4,0,0,0-3.06,1.88c-2.06,2.71-.65,7.52-1.53,7.71a.24.24,0,0,1-.13,0A24.74,24.74,0,0,0,22,15.65c.55,16.49,1.1,33,1.76,49.57a5.93,5.93,0,0,1,0,2.3,7.1,7.1,0,0,1-1.73,1.77,4.69,4.69,0,0,1-.87-1.76l-.79-20c-.32-7.89-.83-15.78-1.24-23.67-.23-3.19-2.2-5-5.4-4.89-2.6.11-5.2.11-7.79.31a5.46,5.46,0,0,0-4.48,3.18C0,25.23-.08,28.24,0,31.34.72,51,1.5,70.71,2.08,90.4A39,39,0,0,1,1.24,97l.08,2a3.38,3.38,0,0,0-.43,1.82c.21,5.4.45,11.3,1.07,17a26.9,26.9,0,0,0,2,7.62c.72,3.08,1.44,6.25,2.27,9.32A9.87,9.87,0,0,0,7.53,137a12.88,12.88,0,0,1,1.37,1.75,8.89,8.89,0,0,0,2.85,3.89,7.2,7.2,0,0,1,1.72,2.93c1,1,2.07,1.82,3,2.79,3.49,4.66,7.65,8.7,13,10.79.1.1.3.09.41.18.21.4.32.69.54,1.08l0-.8.21.2,0,1.19a.36.36,0,0,0,.11.2,2.56,2.56,0,0,1,.16,1.5,1.58,1.58,0,0,0,.43.68,1,1,0,0,1-.42-.48,3.6,3.6,0,0,1-.65,1.42,9,9,0,0,0,1.71.13l52.37-1.87c2.89-.11,2.89-.11,2.88-3a2.79,2.79,0,0,1,.81-2.24,12.42,12.42,0,0,1,3.25-1.43c.78-.53,1.56-1.06,2.53-1.7.78-.63,1.46-1.16,2.13-1.78a13.65,13.65,0,0,1,1.36-1.16c.1-.1.2-.11.29-.21,1.16-1,2.23-1.79,3.3-2.73l.76-.83a9.64,9.64,0,0,0,2.23-1.89,50.13,50.13,0,0,0,9.54-16.79c1.8-5.18,2.68-10.82,3.66-16.36A30.41,30.41,0,0,0,117.27,105.67Z"/><path class="cls-4" d="M104.69,134.19c0-.1.09-.11,0,0Z"/></g></g></g></g></svg>