<?xml version="1.0" encoding="utf-8"?>
<!-- Generator: Adobe Illustrator 24.1.2, SVG Export Plug-In . SVG Version: 6.00 Build 0)  -->
<svg version="1.1" xmlns="http://www.w3.org/2000/svg" xmlns:xlink="http://www.w3.org/1999/xlink" x="0px" y="0px"
	 viewBox="0 0 700 866" style="enable-background:new 0 0 700 866;" xml:space="preserve">
<style type="text/css">
	.st0{fill:#D32424;}
	.st1{fill:#FDC9A2;}
	.st2{fill:#EDEDEB;}
	.st3{fill:#EDEDEC;}
	.st4{fill:#F8CBA4;}
	.st5{fill:#F1D1B5;}
	.st6{fill:#FCF9ED;}
	.st7{fill:#EFD3BA;}
	.st8{fill:#FDF4E7;}
	.st9{fill:#FCC9A2;}
	.st10{fill:#F7CCA6;}
	.st11{fill:#FACAA2;}
	.st12{fill:#FFFFFF;}
</style>
<g id="Layer_1">
	<path class="st0" d="M634,424.9c2.6,0,5.1,0,8,0c0,136.1,0,262.7,0,395.8c-39.7,6.6-79.3,6.6-119.3,6.6
		c-0.2-115.9-0.2-231.9-0.1-347.7c0-17.6,0.6-34.7,1.4-51.9c0.8-0.8,1.3-1.7,1.7-2.7c1.8,0.7,3.6,1.3,5.9,1.9
		c30.1,0.1,59.8,0.5,89.4,0.4C625.4,427.5,629.7,425.8,634,424.9z"/>
	<path class="st0" d="M60.8,837.2c-0.3-134.1-0.3-268.1-0.3-412.3c1.4,0,2.6,0,4.3,0.4c33.6,0.3,66.8-0.2,100,1.1
		c2,0.1,4,21,6.1,21.4c2,0.4,4-12.9,6-20.2c0.4-0.8,0.8-1.6,1.5,0.9c0.7,13.1,1.2,22.9,1.6,32.8c0,120.7,0,241.5,0.1,369
		C140.4,837.2,100.7,837.2,60.8,837.2z"/>
	<path class="st1" d="M42.2,312.5c0.1-0.6,0.2-1.2,0.6-2c0.3-0.2,0.4-0.2,0.6,0c0.2,0.3,0.5,0.5,0.7,0.6c-0.1-0.3-0.1-0.5-0.2-1
		c-0.2-1-0.4-1.7-0.5-2.7c0-0.6,0-1,0.2-1.4c1.4-4,7.3-4.9,6.6-9.2c1.8-1.2,3.8-1.8,4.1-3c0.3-1.1-1.1-2.7-1.8-4.1
		c-0.4,0-0.8,0.1-1.2,0.1c-0.7,1.4-1.2,3-2.1,4.3c-0.5,0.7-1.4,1.4-2.2,1.6s-1.7-0.3-2.6-0.6c0-0.4,0-0.7,0-1.1c0-2.6,0-4.9,0.2-7.3
		c1.9-1.4,3.7-2.7,5.2-4.2c1.1-1.1,0.2-3.4-1.5-3.8c-1.3-0.3-2.6-0.4-4-0.8c0-3,0-5.7,0.2-8.4c1.8-1.1,3.4-2.2,4.9-3.4
		c0.5-0.4,0.8-1.5,0.6-2.1c-0.9-2.4,0.8-2.9,2.4-3c2-0.1,4,0.1,5.9,0.4c2.8,0.5,5.1-0.9,5.9-3.9c1.3-5,3.1-6.3,7-4.4
		c0,5.6,0,11-0.2,16.5c-1.3,1.1-2.9,2.1-0.8,3.9c0.9,1,1.6,1.8,2.5,2.6c1.5,1.2,2.9,1.5,3.7-0.7c0.6-1.6,1.6-1.6,3-0.9
		c0.6,0.3,1.4,0.4,2.3,0.5c1.5,0.2,2.8,0.4,4.2,0.7c0.4,1.1,0.9,2.1,0.9,3.1c0.1,5.3,0.1,5.4,5.2,5.3c2.4,0,3.6,0.6,3.5,3.4
		c-0.2,5.2,0,5.2,5.2,5.3c0.2,0,0.4,0,0.5,0c2-0.1,3,0.7,2.9,2.8c-0.3,6.8,1.3,6,5.5,5.8c0.2,0,0.4,0,0.5,0c1.7,0,2.5,0.7,2.6,2.6
		c0.1,5.7,0.2,5.7,5.8,6c1.8,0.1,2.8,0.7,2.8,2.7c0.1,5.5,0.1,5.6,5.9,5.9c1.6,0.1,2.6,0.5,2.7,2.5c0.2,5.7,0.3,5.8,6,6.1
		c1.9,0.1,2.7,0.9,2.6,2.8c-0.1,2.5,0.4,5-1.7,7.1c-0.4,0.4-0.5,1.4-0.5,2c0.2,2.4-0.8,3.2-3.1,3.2c-3.1,0-5.5,2.4-5.5,5.6
		c0,2.3-1,3-3.1,3c-3.1,0-5.6,2.4-5.6,5.6c0,2.3-0.9,3-3,3c-3.2,0-5.7,2.4-5.6,5.5c0,2.5-1,3.1-3.2,3.1c-2.7,0-5,2.3-5.5,4.9
		c-0.1,0.8-0.1,1.9-0.6,2.2c-2.3,1.6-4,4.4-7.5,3.6c-1.4-0.3-2.9-0.1-4.3,0c-0.7,0.1-1.8,0.3-2.1,0.9c-1.8,2.8-2.5,1.9-3.5-0.6
		c-0.6-1.4-1.7-3.8-3.6-2.5c-2.2,1.4-5.8,1.8-5.4,6c0.2,2.3-2.2,1.5-3.6,1.5c-0.5,0-1.5-1-1.5-1.6c0-3.3,0.2-6.7,0.4-10
		c0.1-1.8-0.8-2.4-2.4-2.3c-2.9,0-6.1-0.9-8,2.5c-0.1,0.2-0.6,0.1-1,0.2c0.2-0.2,0.3-0.5,0.5-0.7c-1.9-1.9-3.9-3.8-5.8-5.9
		c0-0.8,0-1.4,0.1-2.1c-0.3-0.9-0.7-2.2-1.3-2.4c-2.6-0.9-2.2-2.5-1.6-4.5c0.5,0.2,0.9,0.2,1.2,0.4c2.8,2.5,4.4,2.5,6.8-0.4
		c1.6-1.9,1-4-1.7-6c-2.1-1.6-3-0.3-4.1,1.4c-1,1.7-1.8,4.2-4.7,3.4c0-0.4,0-0.7,0.1-1.1c0.6-2.3,1.2-4.5,1.5-6.7s0.1-4-2.2-5.5
		c-1.3-0.9-2.1-3-2.5-4.6c-0.4-1.9-0.1-3.9-0.1-5.9c0-1.3-0.4-2.5-2.1-2.6c-0.2-0.8-0.3-1.4-0.5-2.2c0-4,0-7.8,0.1-11.7
		C42.4,314.5,42.3,313.5,42.2,312.5L42.2,312.5 M49.8,274.9c-0.6,2.2,0.9,2.8,2.5,3c0.6,0.1,1.9-0.6,2-1.1c0.4-2-0.9-3.2-2.7-4.1
		C51,273.3,50.5,273.9,49.8,274.9z"/>
	<path class="st2" d="M176.7,424.9c-1.9,0.4-3.9,0.9-5.9,0.9s-4-0.8-6.1-0.8c-33.2,0-66.3,0-99.7-0.1c1.1-4.1,2.4-8.1,3.7-12.1
		c0.2-0.7,0.8-1.2,0.9-1.9c0.5-3,2.6-4.4,5.2-5.4c0.8-0.3,1.3-1.6,1.8-2.5c0.4-0.8,0.5-1.8,0.9-2.5c0.2,0.6,0.2,1.1,0.2,1.5
		c0,5.7,0,5.7,5.7,5.7c5.5,0,11,0.1,16.4,0c4.1-0.1,8.2-0.4,12.3-0.5c5.2-0.1,10.5-0.1,15.7,0c4.1,0.1,8.2,0.4,12.3,0.5
		c3.9,0.1,7.8,0.1,11.7,0c2.9-0.1,5.8-0.6,8.7-1c0-0.1,0-0.2,0.1-0.2c0.2-0.2,0.7,0.1,0.9,0.2c5,3,7.4,4.4,8.3,5.6
		c2.2,3,3.8,7.3,2.6,8.8c-0.1,0.2-0.4,0.5-0.4,1c0.1,0.6,0.7,0.9,2,1.5C174.8,423.9,175.6,424.3,176.7,424.9z"/>
	<path class="st3" d="M536.5,398.3c1.6,0.4,3.3,0.8,4.6,1.8c0.8,0.6,1.2,2,1.2,3.1c0.2,4.1,0.1,4.1,4.2,4.1c24.7,0,49.5,0,74.2,0
		c1.1,0,2.1-0.2,3.6-0.4c0.8-0.1,1.2-0.1,1.6-0.1c1.9,0.2,3.8,0.1,5.5,0.6c2.3,0.7,2,2.8,2,4.7c0,3.6,0,7.3,0.1,10.9
		c0,0.5,0.3,1,0.5,1.7c-4.3,0.2-8.6,0.3-12.8,0.3c-29.7,0-59.3,0-89.2-0.1c-0.2-4.9-0.2-9.7-0.2-14.6c0-3.3,0.9-4,4.1-3.4
		c3.5,0.6,5.3-0.3,5.6-2.9c0.2-1.8-0.4-3.1-2.3-3.7C538.1,399.9,537.4,399.1,536.5,398.3z"/>
	<path class="st4" d="M71.3,252.7c-3.8-1.6-5.7-0.4-7,4.6c-0.8,3-3.1,4.4-5.9,3.9c-1.9-0.3-3.9-0.5-5.9-0.4c-1.6,0.1-3.3,0.6-2.4,3
		c0.2,0.6-0.2,1.7-0.6,2.1c-1.5,1.3-3.1,2.3-4.9,3.3c-0.2-0.1-0.2-0.4-0.2-0.5c-0.2-0.4-0.3-0.7-0.5-1.1c0-0.6,0-1,0.2-1.4
		c1.1-1.1,1.5-2-0.2-2.9c0-0.6,0-1,0.2-1.5c0.2-0.9,0.3-1.8,0.4-2.7c-0.2-0.4-0.3-0.7-0.5-1.2c0-3,0-5.7,0.2-8.4
		c0.2-0.7,0.3-1.4,0.4-2.3c-0.2-0.8-0.4-1.4-0.5-2.2c0-0.8,0-1.4,0.1-2c0-0.2,0-0.4-0.1-0.7c0-0.4,0-0.7,0.2-1
		c0.1-4.4-0.1-8.6-0.2-13c0-2.1,0-3.9,0.1-5.7c0.1,0,0.4,0,0.6,0c0.3-0.2,0.5-0.5,0.7-0.7c-0.3-0.1-0.6-0.3-0.8-0.6
		c-0.2-2.4-0.4-4.6-0.5-7c0-1.3,0-2.4,0-3.5c0.3-0.6,0.6-1.2,1.1-2c0.5-0.7,0.8-1.2,1.1-1.9c0.2-0.4,0.4-0.7,0.7-1
		c0.2-0.8,0.3-1.4,0.3-2.3c0.2-0.6,0.4-1,0.6-1.4c0.2,0,0.4,0,1,0c2.3-0.2,4.3-0.4,6.3-0.7c5.5-0.8,10.9-0.9,15.8,2.5
		c0,0.4,0,0.6-0.1,1c0.1,0.4,0.4,0.7,0.6,1.2c0,0.4,0,0.6-0.1,1c0.1,0.8,0.3,1.4,0.6,2.3c0,0.6,0,1-0.2,1.4c-0.4,1-0.8,1.9-0.8,2.8
		c0,6.6,0,13.2,0,19.8c0,1.9-0.5,3.9-0.4,5.8C70.5,243.7,70.9,248.2,71.3,252.7z"/>
	<path class="st5" d="M140.8,177.9c2.5-5,6.3-7.7,12.2-7.1c2.7,0.3,5.4,0,8.1,0.1c4.2,0,7.1,2.9,7.1,7c0.2,41.5,0.4,83,0.5,124.5
		c0,1.3-0.1,2.5,0,3.8c0.1,1.5-0.3,3.4,2.1,3.7c2.1,0.2,5-1.3,5.4-3c0.3-1.6,0.5-3.2,0.6-4.8c0.1-9.6,0-19.2,0-28.8
		c0-4.6,0.7-9.3,3.5-13c2.5-3.3,5.5-6.5,10.5-6.5c3.2,0,6.3-0.8,9.5-1c3-0.2,4.2,0.8,4.4,3.8c0.3,5.6,0.5,11.2,0.6,16.8
		c0.2,13.4,0.4,26.9,0.5,40.3c0.1,5.1,0.2,10.2-0.1,15.3c-0.3,4.1-1.2,8.1-1.8,12.1c-0.1,0.4-0.2,0.7-0.2,1.1
		c-0.5,8.6-4.4,16.2-7.5,24c-0.7,1.6-0.9,3.6-2,4.9c-5.7,7.1-9.9,15.5-18.2,20.3c-2.3,1.3-4.3,3-6.6,4.4c0.4-1,1-1.9,1.7-2.6
		c1.5-1.5,3.1-2.8,4.8-4.2c1.4,0,2.8,0.2,3.2-1.7c1.5-1.3,2.8-2.5,4.2-3.9c0.4-1,0.7-1.7,1.2-2.6c1-1.5,1.7-2.8,2.7-4.2
		c0.8-0.7,1.4-1.4,2.2-2.2c2.2-3.8,4.2-7.5,6.3-11.3c0.1-0.1,0-0.3,0-0.7c0-0.4,0-0.7,0.2-0.9c1.3-2.9,2.4-5.7,3.7-8.7
		c0.4-1.7,0.7-3.2,1.1-4.8c0.9-3.1,1.7-6.1,2.6-9.2c0.2-1.7,0.3-3.2,0.5-4.9c0.1-11.9,0.2-23.5,0.4-35.2c0-2.8,0.1-5.6,0-8.5
		c-0.1-3.5-0.6-6.9-0.6-10.4c0-5.6,0.4-11.3,0.1-16.9c-0.1-2.5-1.7-5-2.6-7.7c-1.1-0.4-2.1-0.6-3.4-0.9c-0.4,0-0.7,0-1.1,0
		c-0.6,0.4-1,0.7-1.5,1.1c-0.3,0.2-0.4,0.3-0.7,0.5c-4.1,0.1-7.9,0.5-11.2,3.3c-0.2,0.6-0.3,1-0.6,1.6c-1.7,4-3.2,7.9-4.7,12
		c0,2.2,0,4.2,0,6.5c0,3.7,0,7.1,0,10.8c0,2.1,0,3.9,0,5.9c0.2,2.2,0.2,4.1,0.5,6.1c0.8,5.3-2.9,9.9-8.6,8.5c-1-0.2-2.2-1.7-2.4-2.8
		c-0.3-1.9,0.2-4,0.2-5.9c0-0.4-0.7-0.8-1-1.5c0-0.8,0-1.4,0.2-2.1c0.2-5.2,0.3-10.3,0.4-15.4c0-0.7-0.3-1.5-0.5-2.4
		c0-0.4,0-0.6,0.1-1c0-0.8,0-1.4-0.1-2.3c0-0.8,0-1.4,0.1-2.1c0-0.9,0-1.8-0.1-2.8c0-0.8,0-1.4,0.2-2.1c0.4-6.4,0.7-12.7,0.8-19
		c0-0.6-0.6-1.2-1-2c0-0.4,0-0.7,0.2-1.1c0.2-0.5,0.4-0.9,0.4-1.2c0-19.9,0-39.8,0-59.7c0-0.7-0.3-1.3-0.5-2.2c0-1.9,0.1-3.6,0-5.3
		c-0.6-5.9-3.3-8.8-9.8-7.5c-2.7,0-5.4-0.2-7.8,0.5c-3.1,0.9-5.8,3.1-6.5,6.5c-0.5,2.3-0.6,4.8-0.6,7.2c-0.1,10.4,0,20.8,0,31.1
		c0,11.9,0,23.8,0,35.7c0,1.1,0.6,2.7-1.6,2.4c0-24.9,0-49.5,0-74.1C140.3,180.4,140.6,179.1,140.8,177.9z"/>
	<path class="st6" d="M140.6,177.9c0,1.3-0.3,2.5-0.3,3.7c0,24.6,0,49.2,0,74.3c0,0.6,0,0.9-0.2,1.1c-0.4,0.2-0.7,0.3-1.1,0.5
		c-0.6,0-1,0-1.6-0.1c-0.4-1.4-0.9-2.7-0.9-4c0-29.7,0-59.4-0.1-89.1c0-3.8,0.1-8-3.7-10.6c1.5-1.9,2.7-0.7,3.1,0.7
		c1,3.1,1.8,6.3,2.2,9.5c0.5,3.4,0.3,6.9,0.7,10.3C138.8,175.4,139.8,176.6,140.6,177.9z"/>
	<path class="st1" d="M160.7,406.5c-2.9,0.6-5.7,1.1-8.6,1.2c-3.8,0.2-7.7,0.1-11.6,0c-4.1-0.1-8.1-0.4-12.2-0.5
		c-5.2-0.1-10.4-0.1-15.5,0c-4.1,0.1-8.1,0.4-12.2,0.5c-5.4,0.1-10.8,0-16.2,0c-5.6,0-5.6,0-5.6-5.7c0-0.4,0-0.9,0-1.6
		c0-0.8,0-1.4,0-2.4c-0.5-0.8-1-1.3-1.5-1.7c-0.8-0.7-1.6-1.4-2.7-2.2c-1.3-0.8-2.2-1.4-3.2-2c-0.1-0.2-0.2-0.3-0.5-0.6
		c-0.9-0.8-1.5-1.4-2.2-2c0,0-0.2,0-0.4-0.2c-0.5-0.6-0.9-1-1.2-1.4c-0.2-0.2-0.5-0.4-1-0.7c-1.1-1-1.9-1.7-2.7-2.5
		c-3.6-5-7.5-9.8-10.7-15.1c-1.8-3-2.5-6.6-3.7-10c-0.3-0.8-0.6-1.7-1-2.9c-0.8-3-1.5-5.5-2.2-8c0-0.7-0.1-1.5-0.1-2.6
		c0-0.4,0.1-0.5,0.1-0.5c0.8-0.3,5.4,19.7,10.8,20.1c7,0.6,23.5-31.2,13.9-59.8c-5.8-17.4-19-27.2-24.8-31.1
		c-2.8,15.1-3.6,28-3.7,37.9c-0.2,22.3,3,33,6.4,40.5c0.4,0.9,0.7,1.6,1,2.1c0,0.2,0,0.5,0,1.1c0.4,1.3,0.7,2.2,1,3.1
		c0.5,1.3,1.1,2.6,1.6,4.1c0.7,1.1,1.4,2.1,2.1,3.3c0,1,0,1.7,0,2.7c1.1,1.3,2.1,2.5,3.2,3.8c0.4,1,0.7,1.7,1.1,2.7
		c0.9,1.3,1.8,2.4,2.6,3.7c0,0.1,0,0.4,0.1,0.5c0.7,0.6,1.4,1,2,1.7c0.7,0.8,1.4,1.4,2.2,2.1c0.4,0.4,0.7,0.7,1,1.1
		c2.3,2.4,4.3,5,6.9,6.6c3,1.9,6.2,3.2,6.9,7.4c0,0.4,0,0.7-0.2,1c-0.9,4.1-0.5,6.8,5,6.3c0.3,0,0.7,0,1.3,0c1.3,0,2.4,0,3.7,0
		c9.8,0,19.4,0,29.2,0c1,0,1.7,0,2.7,0c4.7,0,9.1,0,13.8,0c1.5,0,2.8,0,4.3,0c4.2,0,8.1,0,12.2,0c1.3,0,2.4,0,3.6,0.1
		c0.9-0.7,2.3-1.5,2.5-2.5c0.9-4.9,4.5-7.8,9.6-7.4c0,0.1,0,0.2-0.2,0.4c-0.5,0-3.7,0.3-5.8,3.2C160.1,402.9,160.6,406,160.7,406.5z
		"/>
	<path class="st7" d="M132.5,153.6c4,2.7,3.9,6.8,3.9,10.7c0.1,29.7,0.1,59.4,0.1,89.1c0,1.3,0.5,2.6,0.9,4.1c0.2,0.4,0.2,0.5,0,0.5
		c-0.6-0.4-1-0.7-1.4-1.3c-0.4-1.8-1-3.3-1-4.8c0-4.4,0.4-8.8,0.5-13.2c0.1-5.4,0-10.8,0-16.1c0-17.8,0-35.7,0-53.5
		c0-0.8-0.3-1.7-0.5-2.8c0-1.2,0-2.1,0-3.2c0-1,0-1.7,0-2.4c-0.1-2-3.2-5.8-5-6c-2.7-0.2-5.3-0.5-8-0.5c-5.7-0.1-10.2,3.5-11.4,9
		c-0.6,2.6-0.6,5.3-0.9,7.9c-0.1,0.8-0.7,1.6-1,2.1c0.2-3.9,0.3-7.5,0.5-11.1c0-0.2,0-0.5,0.2-1c1.5-3.3,3.1-6.1,6.3-7.6
		c0.9-0.2,1.9-0.4,3.3-0.6c3.7,0,7,0,10.2,0C130,153.2,131.1,153.4,132.5,153.6z"/>
	<path class="st8" d="M108.8,162.3c0,3.6-0.1,7.2-0.3,11.2c0,1,0,1.6,0,2.4c0,1.3,0,2.4,0,3.8c0,1.5,0,2.8,0,4.3c0,1,0,1.7,0,2.7
		c0,3,0,5.7,0,8.6c0,1.9,0,3.5,0,5.4c0,6.7,0,13.2,0,19.9c0,1.7,0,3.1,0,4.9c0,4.4,0,8.5,0,12.9c0,1.7,0,3.1,0,4.9
		c0,5.5,0,10.7,0,16c0,0.2,0,0.3,0,0.6c-0.2,0.4-0.4,0.7-0.8,0.9c-4.1,0.1-4.1,0.1-4-3.2c0.9,0.3,1.7,0.6,2.6,0.9
		c0.2-0.9,0.5-1.8,0.5-2.7c0-28.1,0-56.3,0.1-84.4C106.9,168.3,108,165.3,108.8,162.3z"/>
	<path class="st8" d="M43.1,449.2c0,1.8,0,3.6,0,5.9c0,4.6,0,8.8,0,12.9c0,0.2,0,0.5,0,1c0,0.4,0,0.5,0,0.6c0,0.6,0,1.1-0.1,2
		c-0.1,1,0,1.6,0.1,2.5c0,0.8,0,1.4,0,1.9c0,2.7,0,5.4,0,8.5c0,0.7,0,0.9,0,1.4c0,1,0,1.7,0,2.5c0,0.4,0,0.8,0,1.6
		c0,1.2,0,1.9,0,2.7c0,0.4,0,0.8,0,1.6c0,0.6,0,0.9,0,1.4c0,3.3,0,6.4,0,9.6c0,0.2,0,0.3,0,0.6c0,0.6,0,1,0,1.6c0,1.2,0,2.1,0,3.3
		c0,3.5,0,6.7,0,10.2c0,0.4,0,0.7,0,1.1c-0.3,2.8-0.7,5.3-1,7.9c-0.3-1.8-1.1-3.6-1-5.4c0.5-5.4,0.7-10.6-0.6-15.9
		c-0.3-1.3,0.9-2.9,0.8-4.3c-0.1-3.9-0.4-7.8-0.6-11.7c0-1.2,0.2-2.4,0.3-3.5c0.1-0.9,0.4-1.7,0.3-2.6c-0.1-5-0.5-10-0.5-15
		c0-6.6,0.4-13.2,0.5-19.8c0-3.6-0.5-7.1-0.4-10.7c0-1.2,1.1-2.4,1.9-3.6c0.2,1.1,0.2,2.2,0,3.7C42.9,444,43,446.6,43.1,449.2z"/>
	<path class="st7" d="M103.6,257.3c-0.1,3.5-0.1,3.5,4,3.7c-0.3,0.6-0.8,1-1.6,1.5c-1,0-1.7,0-2.6-0.1c-0.4-1.3-0.7-2.5-0.9-3.9
		c0-0.4,0-0.7,0-1.1c0-22.2,0-44.2,0-66.1c0-1-0.3-2-0.5-3.3c0-1.2,0-2.1,0-3.2c-0.2-0.8-0.3-1.4-0.3-2c0.8,1.7,1.3,3.3,1.9,4.9
		C103.6,210.7,103.6,233.9,103.6,257.3z"/>
	<path class="st9" d="M638.4,386.8c1-1.6,2.1-3.3,3.4-4.8c6.5-7.8,11.2-16.6,13.9-26.4c1.2-4.3,2.1-8.8,3.3-13.3
		c0.1,1.7,0.3,3.7,0,5.5c-0.9,5.2-2,10.5-3.1,15.7c-0.3,1.1-1.1,2.2-1.7,3.2c-0.5,0.9-1.4,1.6-1.8,2.5c-0.8,2.2-1.9,4-3.8,5.6
		c-1.5,1.3-2,3.8-3,5.7c-0.4,0.8-1,1.6-1.7,2.2C642.3,384.1,640.4,385.4,638.4,386.8z"/>
	<path class="st4" d="M42.8,303.5c0.3-2.7,0.7-5.3,1.1-8.1c0.2-0.2,0.3-0.2,0.4-0.2c0.9,0.2,1.8,0.6,2.6,0.4s1.7-0.9,2.2-1.6
		c0.8-1.3,1.4-2.9,2.1-4.3c0.4,0,0.8-0.1,1.2-0.1c0.7,1.4,2.1,3,1.8,4.1s-2.4,1.8-4.1,3c0.7,4.3-5.2,5.2-6.6,9.1
		c-0.4-0.2-0.5-0.4-0.6-0.6c0-0.1-0.1-0.4-0.1-0.4C42.8,304.6,42.8,304.2,42.8,303.5z"/>
	<path class="st4" d="M47.5,581.4c-0.4-0.5-0.8-1.2-1.1-1.9c-0.8-2.5-1.6-5-2.6-7.8c-0.2-0.4-0.2-0.7-0.2-1.1
		c-0.2-0.6-0.3-1-0.6-1.7c-0.4-2.2-0.7-4.2-0.8-6.3c1.5-1.4,0.9-2-0.7-2.1c0,0-0.1-0.3-0.1-0.6c0-1.5,0-2.5,0.1-3.6
		c0.1,0,0.4,0,0.4,0c1.7-0.1,2.1,1.1,2.1,2.4c0.1,2-0.3,4,0.1,5.9c0.4,1.7,1.2,3.8,2.5,4.6c2.2,1.5,2.5,3.4,2.2,5.5
		C48.6,576.9,48,579.1,47.5,581.4z"/>
	<path class="st8" d="M70.7,204.8c0-0.2,0-0.5,0-1.1c-0.6-1.2-1.1-2.1-1.8-2.7c-0.9-0.7-2-1.1-3-1.6c2.5-0.9,2.5-0.9,7.9,6.3
		c0.3-1.6,0.6-2.7,0.7-3.8c0.3-2.8,0.4-5.5,0.8-8.1c0.2,1.8,0.3,3.5,0.3,5.3c0,0.8,0,1.4,0,2.2c0,2.6,0,5,0,7.5c0,0.8,0,1.4-0.1,2.1
		c-0.2,1.5-0.3,2.8-0.5,4.1c-1-0.6-1.8-1.1-2.6-1.8c-0.2-0.9-0.3-1.7-0.5-2.5c0-0.4,0-0.8,0-1.6c-0.2-1-0.3-1.6-0.5-2.2
		c0-0.2,0-0.5,0-1C71.1,205.3,70.9,205.1,70.7,204.8z"/>
	<path class="st8" d="M103.7,187.5c-0.7-1.5-1.3-3.1-2.1-4.9c-0.6-0.5-0.9-0.7-1.2-1.2c-1-0.6-1.9-1.2-2.9-1.4
		c-1.6-0.3-3.2-0.2-4.8-0.5c-8-1.2-13.4,1.2-16.1,7.5c-1-3.3,0.5-4.9,3.2-6.7c5.9-3.8,12.2-1.2,18.2-1.9
		C101.1,178.1,105.5,184.2,103.7,187.5z"/>
	<path class="st10" d="M168.4,396.5c-5.4-0.4-9.1,2.6-9.9,7.4c-0.2,1-1.6,1.7-2.5,2.3c0.4-2,1-3.8,1.5-5.5c0.3-0.8,0.3-2.1,0.9-2.4
		c2.3-1.3,4.6-2.6,7.1-3.3c2.6-0.7,6.5-3.8,7.3-6.6c1.1,0.2,2.1,0.4,3,0.6c-1.5,1.4-3.1,2.8-4.6,4.2c-0.7,0.7-1.3,1.6-1.9,2.6
		C169,396.1,168.8,396.3,168.4,396.5z"/>
	<path class="st7" d="M76.6,187.2c2.7-6.4,8.1-8.9,16.1-7.6c1.6,0.2,3.2,0.2,4.8,0.5c1,0.2,1.9,0.8,2.6,1.3c-4-0.1-7.8-0.7-11.6-0.7
		c-2,0-4,1-6.1,1.5c-0.6,0.4-1,0.7-1.6,1.1c-1.3,2.2-2.5,4.3-3.6,6.6c-0.2,2.8-0.4,5.3-0.6,8c-0.4,0.4-0.7,0.7-1,0.9
		c0-1.6,0-3.3-0.1-5.2c0-0.8,0-1.4,0.2-2.3c0.2-1.2,0.3-2,0.3-2.8C76.3,188.2,76.4,187.8,76.6,187.2z"/>
	<path class="st7" d="M65.7,199.4c1.3,0.5,2.4,0.9,3.2,1.6c0.8,0.6,1.2,1.6,1.8,2.6c-4.9-3.1-10.3-3-15.8-2.1
		c-1.9,0.3-3.9,0.5-6.1,0.7c-0.2-0.2-0.2-0.5,0.1-0.9c2.1-0.7,3.9-1.2,5.7-1.8C58.2,199.4,61.8,199.4,65.7,199.4z"/>
	<path class="st8" d="M41.5,556.3c0,1.1,0,2.2,0,3.5c-0.4-0.3-1-0.8-1-1.3c-0.1-6.1-0.1-12.2,0-18.2c0-0.4,0.4-0.7,0.8-1.2
		c0.2,0,0.3-0.1,0.3,0.2c0,1.2,0,2.1,0,3c0,3.8,0,7.6,0,11.8C41.5,555.2,41.5,555.7,41.5,556.3z"/>
	<path class="st9" d="M660.6,327.5c-0.2-4.3-0.2-8.6-0.2-13.2c0.7,0.9,2.1,2.2,2,3.3C662.2,321,661.4,324.2,660.6,327.5z"/>
	<path class="st9" d="M625,399.2c-0.9-2.5,0.8-3.6,2.6-4.7c2.2-1.4,4.4-2.9,6.7-4.4c0.6,2.6,0,3.8-3.2,3.9
		C628.3,394,626.5,396.5,625,399.2z"/>
	<path class="st8" d="M115.4,153.5c-3.1,1.7-4.7,4.5-6.2,7.6c-0.4-2,2.3-7.7,4.1-8.3C113.9,152.6,114.7,153.1,115.4,153.5z"/>
	<path class="st9" d="M591.4,157.4c0,0,0-0.2,0-0.5c-0.5-0.7-1.1-1.2-1.6-1.6l0,0c0-1.4,0.5-1.9,1.9-1.2c2.4,1.2,3.2,2.8,2.4,6.3
		c-0.7-0.4-1.2-0.9-1.7-1.3c0,0,0,0,0-0.2C592.1,158.3,591.8,157.8,591.4,157.4z"/>
	<path class="st2" d="M160.9,401.8c0.3-0.6,0.6-1.4,1.2-1.7c1.9-1.1,3.8-2,5.9-3.1c0.1,2.5-1,3.9-3.7,3.8
		C163.2,400.8,162.1,401.5,160.9,401.8z"/>
	<path class="st8" d="M42.1,562.8c0.3,2,0.6,4,0.9,6.4c0.2,0.8,0.4,1.2,0.6,1.7c0,0.2,0,0.5,0.1,0.8c0,0.3,0,0.4-0.1,0.6
		c-0.4-0.2-1.1-0.4-1.2-0.8c-0.5-3-0.8-6-1-9.1C41.9,562.5,42,562.6,42.1,562.8z"/>
	<path class="st6" d="M128.9,152.9c-3.2,0.2-6.4,0.2-10,0.2c-0.1-0.3,0-0.7,0.1-0.7C122.3,152.4,125.5,152.5,128.9,152.9z"/>
	<path class="st8" d="M43.5,575.3c0.9,2.4,1.6,5,2.3,7.7c-0.5-0.1-1.3-0.3-1.4-0.7C43.9,580,43.7,577.7,43.5,575.3z"/>
	<path class="st9" d="M659.5,341c0-2.7,0.3-5.5,0.7-8.4C660.2,335.3,660,338.1,659.5,341z"/>
	<path class="st8" d="M54.4,199.3c-1.7,0.7-3.5,1.2-5.6,1.8C49.8,198.1,52.1,198.9,54.4,199.3z"/>
	<path class="st8" d="M46.6,428.7c0,0.4-0.2,0.8-0.5,1.4c-0.3,0.3-0.4,0.5-0.6,0.7c-0.7,0.8-1.3,1.5-1.9,2.2
		C43.7,431,43.4,428.8,46.6,428.7z"/>
	<path class="st9" d="M578.4,152.9c-1.4,0.3-2.9,0.4-4.5,0.3C575.2,153,576.7,152.9,578.4,152.9z"/>
	<path class="st9" d="M594.4,219.8c-0.2-1.2-0.2-2.5-0.2-4.1C596,216.8,595.4,218.3,594.4,219.8z"/>
	<path class="st9" d="M594.4,245.7c-0.2-1.2-0.2-2.5-0.2-4.1C596,242.7,595.4,244.1,594.4,245.7z"/>
	<path class="st9" d="M594.4,237.1c-0.2-1.2-0.2-2.5-0.2-4.1C596,234,595.4,235.5,594.4,237.1z"/>
	<path class="st9" d="M594.4,228.5c-0.2-1.2-0.2-2.5-0.2-4.1C596,225.4,595.4,226.9,594.4,228.5z"/>
	<path class="st2" d="M70.3,392.3c1,0.4,2,1,3.1,1.8C71.4,395.6,71,393.7,70.3,392.3z"/>
	<path class="st8" d="M625.9,406.5c-0.4,0.2-0.8,0.2-1.3,0.2c0-0.9,0.1-1.9,0.3-3C625.2,404.4,625.5,405.4,625.9,406.5z"/>
	<path class="st5" d="M42.5,536.9c-0.1,0-0.2,0-0.5,0c-0.3-0.8-0.4-1.5-0.4-2.5c0.1-0.2,0.4-0.2,0.5-0.2c0.2,0,0.3,0,0.4,0
		c0.2,0.8,0.4,1.5,0.4,2.5C42.8,536.9,42.5,536.9,42.5,536.9z"/>
	<path class="st7" d="M43.6,433.2c0.6-0.8,1.2-1.5,2-2.1c0.2,0.5,0.2,1,0.2,1.4c-0.1,0.3-0.3,0.5-0.7,1c-0.5,0.4-0.9,0.5-1.2,0.7
		C43.8,433.9,43.7,433.6,43.6,433.2z"/>
	<path class="st9" d="M522.5,260.6c-0.7-0.6-1.4-1.3-2.2-2.3C521.7,258.2,522.7,258.8,522.5,260.6z"/>
	<path class="st9" d="M592.5,159.3c0.4,0.3,0.9,0.7,1.5,1.3c0.1,0.5,0.1,1,0.1,1.7C593.5,161.4,593,160.4,592.5,159.3z"/>
	<path class="st9" d="M572.4,152.9c-0.6,0.5-1.4,0.8-2.4,1.2C569.9,152.2,571.1,152.4,572.4,152.9z"/>
	<path class="st2" d="M62.2,384.8c0.9,0.6,1.7,1.4,2.6,2.3C63.2,387.4,62.3,386.7,62.2,384.8z"/>
	<path class="st5" d="M42.2,562.7c-0.3-0.1-0.4-0.3-0.6-0.5c-0.1-0.5-0.1-0.9-0.1-1.5C43.2,560.8,43.7,561.4,42.2,562.7z"/>
	<path class="st2" d="M180,426.2c-0.5-0.2-1-0.6-1.5-1.1c1-0.2,2.1-0.2,3.1-0.2c0,0.1,0,0.3,0,0.4
		C181.2,425.5,180.7,425.8,180,426.2z"/>
	<path class="st9" d="M587.1,153.9c-0.8-0.1-1.6-0.3-2.6-0.7C585.3,153.3,586.2,153.5,587.1,153.9z"/>
	<path class="st8" d="M42,534.2c0,0-0.2,0-0.4,0c-0.1-0.9,0-1.8,0.2-2.7c0.2,0,0.2,0.2,0.2,0.6C42,533.1,42,533.6,42,534.2z"/>
	<path class="st8" d="M75.9,188.7c0.1,0.8,0.1,1.6-0.2,2.5C75.6,190.5,75.7,189.6,75.9,188.7z"/>
	<path class="st2" d="M67.5,389.7c0.7,0.4,1.3,1,2.1,1.8C69,391,68.3,390.5,67.5,389.7z"/>
	<path class="st2" d="M76.2,396.6c0.5,0.3,1,0.7,1.5,1.3C77.2,397.7,76.7,397.2,76.2,396.6z"/>
	<path class="st3" d="M525.7,424.7c-0.4,0.2-0.8,0.2-1.4,0.2C524.6,424.8,525.2,424.7,525.7,424.7z"/>
	<path class="st2" d="M65.9,388.1c0.4,0.2,0.7,0.6,1.1,1.2C66.7,389.1,66.3,388.7,65.9,388.1z"/>
	<path class="st5" d="M44,434.3c0.3-0.3,0.6-0.5,1.1-0.7c-0.1,0.4-0.4,1-0.8,1.5C44,434.9,44,434.7,44,434.3z"/>
	<path class="st9" d="M567.3,156.8c-0.1,0.1-0.4,0.1-0.5,0.1c0.1-0.3,0.4-0.7,0.8-1.1C567.6,156.1,567.5,156.4,567.3,156.8z"/>
	<path class="st9" d="M606,278.6c0.1-1,0.2-1.8,0.4-3.3c2,2.7,3.5,4.7,5,6.8c0.7-2.9,1.4-5.7,2-8.5c0.1-0.5,0-1.1-0.2-1.5
		c-1.4-1.9-2.7-4-4.3-5.7c-0.6-0.6-2.1-0.5-3.2-0.3c-1.5,0.3-3,0.9-4.5,1.4c-1-2.5-1.9-4.5,0.5-6.4c0.4-0.3,0.5-1.1,0.4-1.7
		c-0.2-2.4-0.8-4.7-0.8-7.1c-0.1-11.9,0-23.9-0.1-35.8c0-1.3-0.5-2.7-0.3-4c0.2-1.5,0.7-3.1,1.6-4.3c1-1.4,2.6-2.4,4.5-4.1
		c-1.2-0.9-2.1-1.9-3.3-2.3c-1.9-0.8-1.7-1.7-0.6-3c1.1-1.3,2.1-2.6,3-4c0.4-0.6,0.5-1.7,0.2-2.2c-0.8-1.4-1.9-2.7-0.4-4.3
		c0.2-0.2-0.7-1.2-1-1.8c-0.4-1-1.3-2.7-1-3c1.1-1,3-2.4,3.9-2c2.6,1.1,5,2.9,7.3,4.7c1.7,1.3,2,2.8,0,4.4c-0.6,0.4-0.8,1.8-0.6,2.6
		c0.1,0.5,1.4,0.8,2.2,0.9c0.6,0.1,1.2-0.3,1.8-0.4c0.1,0.7,0.3,1.3,0.5,2.6c1.3-3.4,2.3-6,3.2-8.6c2.5,4.6,4.2,9.3,2.9,14.9
		c-0.5,1.9-1.2,2.9-2.8,3.9c-3,1.8-3.2,3.2,0,4.6c3.3,1.5,2.9,4,2.5,6.5c-0.1,0.9-1.6,1.7-2.6,2.3c-2.7,1.5-2.8,1.9-0.4,3.9
		c1.1,0.9,2.1,1.8,3.1,2.7c-1.1,0.8-2.2,1.6-3.3,2.4c-1.3,0.9-0.7,2.9,1.2,4.4c0.8,0.6,1.4,1.3,2.1,2c-0.9,0.7-1.8,1.7-2.8,1.9
		c-2.6,0.5-3.6,2.3-4.4,4.5c-0.5,1.3-1.5,2.6-2.7,3.4c-3,2.3-5.1,8-3.8,11.6c0.9,2.6,1.4,5.9,3.2,7.5c2.5,2.1,3.4,6.4,7.7,6.2
		c0.4,0,1.1,0.2,1.2,0.4c1.1,4.5,5.9,1.9,8.3,4.2c1.1,1,3.1-1.2,2.9-2.9c-0.2-1-0.2-2-0.3-3.4c0.8,0.3,1.3,0.3,1.6,0.6
		c2.7,2.6,4.6,0.1,6-1.4c0.9-0.9,0.9-3.4,0.4-4.8c-0.6-1.8-0.8-3.1-0.1-5c1-2.3,1.1-5,1.6-7.5c0.4-2.2,2-2.7,3.8-2.2
		c2.1,0.5,3-0.2,3.6-2.2c0.8-2.7,2.1-5.2,3.3-7.8c0.2-0.5,1-1.2,1.5-1.1c0.5,0.1,1.1,0.8,1.3,1.4c0.3,1.3,0.6,2.6,0.5,3.9
		c-0.1,8.7-0.4,17.4-0.5,26c-0.1,5-0.1,10.1,0,15.1c0,2.4,0.4,4.8,0.4,7.2c0,2.1,0,4.4-0.5,6.4c-1.3,4.5,0.1,8.9,0.2,13.3
		c0.1,2.9-0.7,5.9-1.2,8.8c-0.2,1.3-0.9,2.4-1.1,3.7c-0.3,2.3-0.4,4.7-0.5,7c0,0.4-0.1,1.1,0.2,1.3c3.1,2,1.4,5.1,1.8,7.7
		c0.5,2.8,0.6,5.4-0.6,8.3c-1.8,4.1-2.4,8.7-3.7,13.1c-0.4,1.3-1.5,2.3-2.2,3.5c-0.9,1.5-2.1,3.1-2.5,4.7c-0.6,2.3-0.9,4.5-3.3,5.8
		c-0.7,0.4-1,1.2-1.6,1.8c-0.8,0.8-1.8,1.5-2.6,2.3s-1.5,1.8-2.6,3c-4.2,0.7-5.1,2.4-3.1,7.1c-0.5-0.1-1-0.1-1.3-0.4
		c-2-1.7-2.9-1.5-4.2,0.8c-0.6,1.1-1.3,2.4-2.3,2.9c-4.2,1.9-3.6,5.7-3.8,9.1c-0.2,4.1-0.5,4.6-4.5,4.7c-8.1,0.1-16.1,0.2-24.2,0.2
		c-7.3,0-14.6-0.2-21.9-0.2c-7.3,0-14.6,0.2-22,0.2c-1.4,0-2.9-0.2-4.2-0.7c-2.4-0.9-1.4-2.9-1-4.6c0.1-0.5,0.5-0.9,1-1.9
		c-1.6-0.3-2.9-0.4-4.2-0.8s-2.6-0.9-3.8-1.6c-1.1-0.7-2.1-1.6-2.9-2.6c-0.6-0.7-1.2-1.6-1.1-2.4c0.1-2.6-0.9-3.6-3.8-2.4
		c0.1-1,0.2-1.6,0.2-2.3c-0.1-1.8-0.4-3.1-2.6-3.8c-1.7-0.5-3.4-1.6-4.5-2.9c-2.3-2.8-2.5-3-6.1-0.5c-0.8-1.6-1.5-3.1-2.2-4.6
		c-2.6-4.9-2.5-5,2.3-7.6c2.9-1.5,5.8-3.1,8.4-4.9c1-0.7,1.5-2.1,2.1-3.2c0.5-0.9,0.7-2.1,1.4-2.7c1.7-1.4,3.2-2.6,3.3-5.1
		c0-0.6,1.3-1.3,2.1-1.8c0.2-0.2,0.8,0.1,1-0.1c2.6-2.1,5.4-4,7.5-6.4c2.2-2.5,3.1-6.5,7.6-6c0.8,0.1,1.6,0.6,2.4,1
		c-0.4,0.7-0.6,1.7-1.2,2.1c-3.1,2-3.3,2.6,0,4.4c1.7,1,3.9,1.1,5.8,1.7c0.7,0.3,1.8,0.9,1.9,1.4c1,6.1,1.6,6.7,7.8,7.2
		c0.2,0,0.3,0.1,0.8,0.3c0.1,0.7,0.1,1.6,0.2,2.5c0.4,2.3,1.6,3.7,4.1,3.7c2.8,0,6.2,2.8,6.6,5.5c0.4,3.2,1.3,5.5,5.1,5.4
		c0.5,0,1.3,1.5,1.3,2.4c0.3,3.5,1.3,4.8,4.8,5.6c2.1,0.5,3.8,1.2,4.1,3.9c0.3,2.1,2.6,3.3,5.2,3c1.5-0.2,3-0.5,4.6-0.8
		c-1-2-1.1-3.6,0.3-5.6c1.7-2.4-1.1-8.9-4-9.7c-4.3-1.1-5.7-4.5-6.7-8.2c-0.5-1.7-1.2-2.2-2.8-2.1c-1.8,0.2-2.2-0.9-2.3-2.5
		c-0.1-3.7-0.3-3.9-4-4c-3.3,0-5.7-2-6.3-5.3c-0.6-3.1-1-6.4-5.5-6.2c-0.4,0-1.3-1.3-1.4-2.1c-0.4-4.5-2.1-6.1-6.6-6.5
		c-0.7-0.1-1.9-0.8-2-1.3c-0.7-3.5-1.2-7-1.9-10.9c2.1-1.2,4.5-2.6,6.8-4c0.6-0.4,1.1-1,1.3-1.6c1.1-2.7,2.7-4.6,5.6-6
		c4.7-2.3,7.4-6.6,9.5-11.3c0.5-1.2,1.7-2.3,2.9-3c2.5-1.6,5.2-2.8,7.6-4.5c0.9-0.6,1.2-2.3,1.4-3.5c0.3-1.2,0.2-1.9,2-1.9
		C602.3,285.8,605.6,285.1,606,278.6z"/>
	<path class="st9" d="M587.9,258.1c-1-1.7-2-3.3-2.6-5.1c-0.3-0.9-0.2-2,0.1-3c0.5-1.8,1.7-3.5,1.8-5.3c0.2-8.6,0.1-17.2,0.1-25.8
		c0-4.8,0.2-9.6-0.1-14.4c-0.2-2.5-1.3-4.9-1.8-7.4c-0.2-0.9-0.4-2.4,0-2.7c2.3-1.8,1.6-3.7,0.2-5.3c-1.4-1.7-0.9-2.6,0.2-4.2
		c0.9-1.3,1.3-3.1,1.5-4.8c0.2-1.4,0.2-2.9-0.1-4.3c-0.4-1.4-1.2-2.7-1.9-4.1c-0.4-0.8-1-1.6-1.3-2.5c-0.9-2.9-2.2-3.8-4.6-3
		c-2.3,0.8-2.9,3-2.6,5.4c0.3,3,2.8,5.6,1.4,8.8c-0.2,0.5-0.2,1.2-0.6,1.4c-2,1.3-4.1,2.4-6.7,4c-0.5-2.8-1.2-5.3-1.3-7.9
		c-0.3-4-0.2-8-0.4-12.2c0-1,0.2-1.8,0.6-2.7c0.8,0.4,1.3,1,1.9,1.5c0.6,0.4,1.5,1,2,0.8c1.5-0.6,2.8-1.6,3.6-2.1
		c-0.7-1.9-1.2-3.3-1.7-4.6c2.3-0.1,4.7-0.3,4.4,3.2c0,0.3,0.3,0.7,0.6,0.8c1.9,0.7,3.9,1.3,6,2.1c0.5,2.6,2.2,2.5,4,2.5
		c0,0,0.3,0,0.4,0.2c0.7,1.5,1.2,2.8,1.7,4.1c0,27.4,0,54.8,0,82.1c0,1.9,0.8,4.4-2.8,3.7C589.2,257.1,588.6,257.8,587.9,258.1
		 M587.3,251.5c0.6,0.7,1.1,1.3,1.7,2c0.2-0.1,0.4-0.3,0.7-0.4c0-0.9,0-1.8,0-3.3C588.7,250.3,588.1,250.7,587.3,251.5z"/>
	<path class="st9" d="M590.4,215.1c-0.5-8.7-1.8-17.4-0.8-26.1c0.2-1.9-0.5-3.3-1.7-4c1.2-0.3,2.3-1,3-2.2c3.3-6,3.4-10.8,2.5-17.4
		c-0.2-1.5-1.2-2.5-2.4-3.1c0,0,0-0.1,0-0.1c0.1-0.7,0.1-1.3,0.1-2.1c0-2.6-2-4.4-4.3-4.8c-1.3-1.2-2.9-2-5.4-2.4
		c-4.2-0.8-9.2-2.1-12.3,1.5c-1.6,1.8-1.7,3.8-1,5.3c-0.1,1.1-0.2,2.1-0.3,3.2c0,0.3,0,0.6,0,0.9c-0.2,1.6-0.1,3.3,0,4.9
		c0,0.8,0.1,1.7,0.1,2.5c-0.8,0.8-1.4,1.9-1.5,3.3c-0.1,2.1-0.2,4.3-0.1,6.4c0,2.2,0.1,4.5,0.2,6.7c0,0.5,0.1,0.9,0.3,1.3
		c0.1,0.8,0.2,1.7,0.3,2.5c0.3,2.7,2.1,5,5,5c2.5,0,5.3-2.3,5-5c0,0,0,0,0-0.1c0.1-0.4,0.1-0.8,0.1-1.3c0-0.1,0-0.3,0-0.4
		c0.1-0.4,0.1-0.8,0.1-1.2c0-1,0-2.1,0-3.1c0.2-0.7,0.4-1.3,0.6-1.9c0.3-1.5,0.6-3,0.6-4.5c0-0.4,0-0.8-0.1-1.1c0-0.1,0-0.3,0.1-0.4
		c0.2-1.1,0-2-0.3-2.9c-0.1-1.5-0.1-3.1-0.2-4.6c-0.1-2.1-0.5-4.3,0.3-6.3c0.1-0.4,0.2-0.7,0.2-1.1c0.7,0.1,1.4,0.2,1.8,0.3
		c0.3,0.4,0.5,0.8,0.8,1.2c0.2,2.2,0.8,4.4,1.9,6.1c-1.4,0.7-2.4,2.1-2.2,4.3c0.2,2.4,0.6,4.8,1.1,7.1c0.3,1.3,1,2.2,2,2.8
		c0,0-0.1,0-0.1,0c-3.3-0.6-7.2,1.9-5.9,6c0.4,1.4,0.4,2.8,0.6,4.2c0,0.4,0.1,0.7,0.1,1.1c-0.8,1.4-1.1,3.1-0.1,4.9
		c0.3,0.5,0.6,0.9,0.9,1.2c0,0.9,0.1,1.8,0.2,2.7c0,0.3,0,0.5,0,0.8c0.2,1.6,0.4,3.3,0.6,4.9c0,0.3,0.1,0.5,0.2,0.8
		c0.1,0.7,0.1,1.4,0.2,2.2c0.3,3.8,0.4,7.7,0.4,11.5c0,2.4,0.7,6.9,0.3,9.8c0,0,0,0.1,0,0.1c-1.2,2.5-0.6,5.3,1.8,6.8
		c0.1,0,0.1,0.1,0.2,0.1c3,1.9,6.2-0.2,7.3-3c1.2-2.8,0.4-7,0.4-10C590.7,224.2,590.7,219.7,590.4,215.1z"/>
	<path class="st9" d="M589.8,155.5c0.5,0.2,1.1,0.7,1.6,1.3C590.9,156.6,590.4,156.1,589.8,155.5z"/>
	<path class="st9" d="M591.4,157.6c0.3,0.2,0.7,0.7,1.1,1.3C592.1,158.6,591.8,158.2,591.4,157.6z"/>
	<path class="st11" d="M176,389c-1.2-0.2-2.1-0.4-3.2-0.8c0.6-2,0.3-3.5-1.2-5c-0.7-0.7-1.1-2.1-0.9-3c0.7-2.8,5.5-4.4,7.8-2.6
		c1.5,1.2,2.4,0.5,3-0.7c1.8-3.5-0.1-6.7-4.1-6.7c-0.2,0-0.4,0-0.5,0c-2.4,0.3-3.3-0.6-3.3-3.1c0.1-5.2-0.3-5.5-5.5-5.4
		c-2.3,0-3.2-0.6-3.2-3c0.1-5.4-0.2-5.7-5.6-5.6c-2.4,0-3-0.9-3.1-3.2c0-1.6-0.4-3.5-1.2-4.8c-0.9-1.4-1.5-2.4-1-4.1
		c0.2-0.8-0.3-2.4-0.9-2.6c-0.8-0.3-2.3,0.1-3,0.7c-2,1.7-4,3.6-5.7,5.7c-1.6,1.9-3.4,3.6-3.4,6.7c0,1.9-1.8,3.5-4.2,3.7
		c-3.3,0.2-4,0.9-4.2,4.2c-0.2,2.7-2.8,4.8-5.5,4.5c-2.1-0.3-3,0.6-3.1,3.2c-0.1,3.3-1.7,5-5,5.3c-2,0.2-3.6,0.9-3.7,3.4
		c-0.1,3.6-1.8,5-5.5,5.3c-0.9,0.1-2.2,0.5-2.7,1.2c-0.9,1.2-1.7,2.8-1.8,4.3c-0.5,5.9-0.6,11.9-0.9,18c1.2,0,1.8,0,2.4,0
		c3.4,0,6.8,0,10.3,0.2c0.5,0,1,1,1.6,1.5c-9.7,0-19.4,0-29.4-0.2c-0.8-1.7-1.3-3.2-1.8-4.8c2.8-2.3,2.9-2.7,0.3-5.1
		c-1.9-1.7-1.5-2.9,0.3-4.3c0.7-0.6,1.2-1.6,1.3-2.5c0.1-1.2-0.3-2.5-0.3-3.7c0.1-1.7-0.8-2.2-2.3-2.7c-1.4-0.4-2.5-1.6-3.8-2.4
		c-0.7-0.4-1.9-1.2-2.2-1c-1.1,0.8-2.5,1.8-2.8,3c-0.7,2.6-2.8,3.1-4.8,3.6c-3.3,0.9-4.2-1.7-4.7-3.5c-1.7-0.7-2.9-1.1-4.1-1.5
		c-1.5-0.5-3-0.9-4.5-1.4c0,0,0-0.3,0.1-0.5c0.9-1.1,1.8-1.8,2.3-2.8c0.4-0.8,0.4-1.9,0.5-2.9c-1,0-2-0.3-2.8,0.1
		c-1,0.4-1.9,1.2-2.8,1.8c-0.4-0.8-0.7-1.5-0.9-2.6c0-1,0.1-2.1-0.3-2.5c-0.8-0.7-2-1-3.1-1.4c0-0.7,0-1.5,0.1-2.5
		c0.2-0.2,0.3-0.2,0.4-0.2c1.9,1.9,3.9,3.8,5.8,5.7c-0.2,0.2-0.3,0.5-0.5,0.7c0.3-0.1,0.9,0,1-0.2c1.9-3.3,5.1-2.4,8-2.5
		c1.7,0,2.5,0.5,2.4,2.3c-0.2,3.3-0.4,6.7-0.4,10c0,0.6,1,1.6,1.5,1.6c1.3,0.1,3.8,0.8,3.6-1.5c-0.3-4.2,3.2-4.6,5.4-6
		c2-1.3,3.1,1.1,3.6,2.5c1,2.5,1.7,3.4,3.5,0.6c0.3-0.5,1.4-0.8,2.1-0.9c1.4-0.1,2.9-0.3,4.3,0c3.5,0.7,5.2-2.1,7.5-3.6
		c0.5-0.3,0.5-1.5,0.6-2.2c0.4-2.7,2.8-4.9,5.5-4.9c2.2,0,3.3-0.6,3.2-3.1c-0.1-3.1,2.4-5.5,5.6-5.5c2.1,0,3-0.8,3-3
		c0-3.1,2.4-5.5,5.6-5.6c2.1,0,3.1-0.7,3.1-3c0-3.2,2.4-5.6,5.5-5.6c2.3,0,3.3-0.9,3.1-3.2c-0.1-0.7,0.1-1.6,0.5-2
		c2.1-2,1.5-4.6,1.7-7.1c0.1-2-0.8-2.7-2.6-2.8c-5.7-0.4-5.8-0.4-6-6.1c-0.1-2-1.1-2.4-2.7-2.5c-5.8-0.3-5.8-0.4-5.9-5.9
		c0-2.1-1-2.6-2.8-2.7c-5.7-0.3-5.7-0.3-5.8-6c0-1.9-0.8-2.6-2.6-2.6c-0.2,0-0.4,0-0.5,0c-4.2,0.2-5.8,1-5.5-5.8
		c0.1-2.2-0.9-2.9-2.9-2.8c-0.2,0-0.4,0-0.5,0c-5.2-0.1-5.3-0.1-5.2-5.3c0.1-2.7-1.1-3.4-3.5-3.4c-5.1,0-5.1,0-5.2-5.3
		c0-1-0.5-1.9-0.8-3.3c0.5-1.1,1.1-1.9,1.3-2.7c0.2-1,0-2.1,0.1-3.2c0.1-2.6,2.2-3,4-2.9c1.1,0,2.2,1.1,3.3,1.7
		c-0.8,0.9-1.6,1.8-2.3,2.8c-0.7,1.1-1.7,2.3-1.6,3.3c0.1,0.8,1.6,1.7,2.6,2c1.9,0.6,2.9,1.5,3.1,3.5c0.4,3.9,1,4.3,4.8,3.7
		c2.2-0.4,3.8,0.8,3.7,2.7c-0.4,5.7-0.4,5.7,5.1,5.9c2.8,0.1,3.6,0.9,3.7,3.7c0,0.7,0.1,1.4,0,2.2c-0.3,2.4,1,3,3.1,2.7
		c4-0.7,5.5,0.6,5.5,4.8c0,3.9,0,3.9,3.8,3.9c0.6,0,1.3,0,1.9,0c1.8,0.1,2.8,1.1,2.9,2.9c0,0.9,0.1,1.8,0,2.7
		c-0.3,2.4,0.8,3.1,3.1,3.1c5.4-0.1,5.5,0.2,5.5,5.6c0,0.4,0,0.7,0,1.1c0,1.8,0.4,2.6,2.5,2.1c4-0.9,6,1.1,5.5,5.2
		c0,0.4-0.3,0.8-0.2,1c0.4,0.7,0.7,1.8,1.4,2c0.9,0.4,2.1,0.3,3.2,0.2c2.1-0.2,4,0.1,5,2.1c1,1.9,1.9,4,2.8,5.9
		c-0.3,0.4,0,0.5,0.2,0.5c5.3,0.5,5.4,0.5,5.3,5.7c0,2.2,0.7,3,2.9,3c4.6,0,5.7,1,5.7,4.4c0,4.2,0,4.2,4.3,4.2
		c3.6,0,4.3,0.7,4.3,4.2c0,0.6-0.1,1.3,0,1.9c0.3,0.8,0.7,2.3,1.1,2.3c1.6,0.1,4.1,0.4,4.7-0.5c1.1-1.5,1.1-3.8,1.3-5.8
		c0.2-1.7-0.5-3.5-0.1-5.1c0.4-1.9-0.2-2.5-1.9-2.6c-2.7-0.1-4.6-1.8-6.3-3.5c-0.7-0.8-1.3-2.5-0.9-3.4c1.3-3.4,0.9-4.2-2.8-4.3
		c-3.7,0-4.8-0.7-4.7-4.2s-1.3-4-4.3-3.9c-3.4,0.1-3.9-0.6-3.9-4.1c0-3.4,0-6.7,0-10.1c0-0.9,0.1-1.7,0.1-2.9c0.9,0.6,1.5,1,2.2,1.5
		c1.7-2.6,2.4-5.9,6.3-5.7c-0.1,0.3-0.2,0.6-0.3,0.6c-3.7,2.1-4,5.6-3.9,9.3c0,0.7,0.9,2,1.3,2c3.1,0,2.9,2.1,2.9,4.2
		c-0.1,4.6,0,4.6,4.7,4.7c3.6,0,3.9,0.3,4,4.1c0,1.5,0.3,2.9,0.7,4.3c0.3,1.2,1.1,2.3,1.3,3.5c0.3,2,1.3,3,3.3,3.2
		c0.9,0.1,1.9,0.4,2.8,0.7c1.6,0.5,3.1,1.1,4.6,1.4c1.2,0.2,2.5,0,3.7,0.2c-2.3,2.5-4.9,4.7-3.1,8.5c0,0.2,0,0.5-0.2,0.9
		c-2.6,0.5-4.5,0.9-4.2,4.2c0.1,1.4-1.1,3-1.6,4.5c-0.3,1.1-0.3,2.2-0.5,3.3c-0.6,0.7-1.2,1.4-2.2,2.1c-1.7,0.7-2.9,1.4-4.2,2.1
		c0.5,0.7,1,1.5,1.5,2.2c-0.3,0.8-0.6,1.6-1.2,2.5c-1.2,0-2.3-0.5-3.1-0.2c-0.8,0.2-1.8,1-2,1.7s0.6,1.7,0.9,2.5
		C178.8,389.2,177.4,388.9,176,389 M119.5,361.8c-3.3,0.1-5.4,1.2-6.1,4.9c-0.3,1.5-0.5,4.2-3.6,4c-3.3-0.2-4.3,1.1-4.7,4.6
		c-0.1,0.8-0.7,2.1-1.3,2.2c-4,1-3.9,4.6-5.7,7.6c3.3-1.1,6-2,6.9-5.4c0.1-0.5,1.4-0.8,2.2-1c3.8-0.6,5.9-2.3,5.9-5.4
		c0-2.3,0.9-3.1,3.1-3.4c3.3-0.5,4.7-2.4,5-5.8c0.2-2.2,1.3-3.2,3.5-3.2c4.9-0.2,6.2-2.1,4.7-6.8c-4.1-1.1-5.9-0.6-6.9,1.7
		C121.7,357.8,120.8,359.7,119.5,361.8 M144,341.3c0.9-2.3,1.9-4.5,2.8-6.8c-0.2-0.2-0.4-0.5-0.7-0.7c-1.4,0.2-3.2,0-4.1,0.8
		c-1.8,1.6-2.8,3.8-3.1,6.4c-0.2,1.4-1.7,3.4-3,3.7c-4.2,0.9-6.3,3.5-5.6,8c5.2,0.7,8.2-1.6,8.4-6.5c0-0.5,0.3-1,0.7-1.3
		C140.9,343.6,142.3,342.6,144,341.3 M100.2,401.1c1.9-2.2,1.5-4.8-1.1-6.6c-1,0.8-2,1.6-3,2.6c-0.6,0.6-1.7,1.7-1.5,2.1
		c0.4,0.8,1.4,1.6,2.3,2C97.8,401.5,98.8,401.2,100.2,401.1 M92.6,396.3c2.4-0.5,3.9-1.8,4.4-4c-1-0.8-1.8-1.5-2.6-2.1
		c0.6-1,1.1-1.7,1.5-2.4c-0.2-0.2-0.4-0.4-0.6-0.5c-1.2,1.3-2.5,2.6-3.6,3.9C90.1,393,90.3,394.7,92.6,396.3z"/>
	<path class="st4" d="M173.6,314.7c-3.9-0.1-4.6,3.3-6.3,5.9c-0.7-0.5-1.3-0.9-2.2-1.5c-0.1,1.1-0.1,2-0.1,2.9c0,3.4,0,6.7,0,10.1
		c0,3.5,0.5,4.3,3.9,4.1c3-0.1,4.3,0.5,4.3,3.9c-0.1,3.6,1.1,4.2,4.7,4.2c3.8,0,4.2,0.9,2.8,4.3c-0.4,0.9,0.2,2.6,0.9,3.4
		c1.7,1.7,3.7,3.4,6.3,3.5c1.7,0.1,2.3,0.6,1.9,2.6c-0.4,1.6,0.2,3.4,0.1,5.1c-0.2,2-0.2,4.3-1.3,5.8c-0.6,0.9-3.1,0.6-4.7,0.5
		c-0.5,0-0.9-1.5-1.1-2.3c-0.2-0.6,0-1.2,0-1.9c0-3.5-0.7-4.2-4.3-4.2c-4.3,0-4.3,0-4.3-4.2c0-3.3-1.2-4.3-5.7-4.4
		c-2.3,0-2.9-0.8-2.9-3c0.1-5.3,0-5.3-5.3-5.7c-0.3,0-0.5-0.2-0.2-0.5c-0.9-2-1.8-4-2.8-5.9c-1.1-2-2.9-2.3-5-2.1
		c-1.1,0.1-2.2,0.2-3.2-0.2c-0.6-0.2-1-1.3-1.4-2c-0.1-0.2,0.2-0.7,0.2-1c0.5-4.1-1.5-6.1-5.5-5.2c-2.2,0.5-2.6-0.3-2.5-2.1
		c0-0.4,0-0.7,0-1.1c0-5.4-0.2-5.7-5.5-5.6c-2.3,0-3.4-0.7-3.1-3.1c0.1-0.9,0-1.8,0-2.7c-0.1-1.8-1.1-2.8-2.9-2.9
		c-0.6,0-1.3,0-1.9,0c-3.8,0-3.8,0-3.8-3.9c0-4.2-1.5-5.5-5.5-4.8c-2.1,0.3-3.4-0.2-3.1-2.7c0.1-0.7,0-1.4,0-2.2
		c-0.1-2.9-0.8-3.7-3.7-3.7c-5.5-0.1-5.5-0.1-5.1-5.9c0.1-1.9-1.5-3-3.7-2.7c-3.8,0.7-4.4,0.2-4.8-3.7c-0.2-2-1.3-2.9-3.1-3.5
		c-1-0.3-2.6-1.3-2.6-2c-0.1-1.1,0.9-2.3,1.6-3.3s1.5-1.9,2.3-2.8c-1.1-0.6-2.2-1.7-3.3-1.7c-1.8,0-3.9,0.3-4,2.9
		c0,1.1,0.2,2.2-0.1,3.2c-0.2,0.9-0.9,1.6-1.4,2.5c-1.4,0-2.7-0.2-4.2-0.6c0.3-1.1,0.7-2.2,1.5-2.8c1.9-1.6,2.6-3.3,1.6-5.8
		c0.4-1,0.7-1.7,1.2-2.6c2.4-5.2,7.6-6.4,11.7-9.1c0.3,0.2,0.6,0.3,0.8,0.5c-1.1,2.2-2.3,4.4-3.5,6.7c0.8,0.1,1.5,0.1,2,0.3
		c2.5,0.9,4.4,0.8,4.5-2.6c0-0.2,0.6-0.5,1-0.7c0.2,1.2,0.5,2.4,0.9,3.9c-2.1,1.9-2.4,3.8-0.8,6.1c0.6,0.8,0.7,2,0.9,3.1
		c-1.5,1.5-1.3,2.4,0.5,3.1c0.9,0.4,1.6,1.1,2.5,1.4c0.8,0.3,1.7,0.5,2.4,0.3c3.1-1.1,3.2-1.1,3.9,2.2c0.3,1.5,0.1,3.6,1,4.5
		c1,1,3.1,0.9,4.7,1.3c0.2,0,0.3,0.2,0.6,0.4c0.2,1.6,0.2,3.3,0.7,4.9c0.3,1,1.1,2.2,2.1,2.6c1.2,0.6,2.8,0.6,4.2,0.6
		c4.3,0.1,4.4,0.2,4.4,4.4c0,4.1,0.7,5.1,4.6,4.6c3.2-0.4,3.5,0.9,3.5,3.3s0.5,4.6,3.6,4.9c1.9,0.2,2.9,1.2,2.9,3.4
		c0,3.4,2.2,5.7,5.4,5.6c4.3-0.1,8.7-0.6,12.2-0.8c1.3-1.7,2.2-2.7,2.9-3.8c0.4-0.7,0.8-1.6,0.8-2.4c-0.2-4.2-0.8-8.4-0.9-12.6
		c-0.1-7.4,0-14.9,0-22.3c0-1.7,0-3.5,0-5.2c0.2,0,0.4,0,0.5,0c0,0.9,0,1.8,0,2.6c0,7.9,0,15.8,0,23.7c0,0.7,0.3,1.4,0.5,2.2
		c0.4,0.4,1,0.8,1,1.3c0,2-0.5,4-0.2,5.9c0.2,1.1,1.4,2.6,2.4,2.8c5.7,1.3,9.4-3.3,8.6-8.5c-0.3-1.9-0.4-3.9-0.3-6
		c1.2-0.1,2.8,0.4,3,0.1c0.9-1.7,1.5-3.7,2.3-5.6c0.5,0,1-0.1,1.5-0.1c2.2,0.3,3.1-0.4,3.5-2.8c0.4-2-0.4-3.2-1.3-4.7
		c-1.3-2.2-0.7-3.3,1.8-3.3c0.4,0,0.9,0,1.3,0.2c0.9,1,1.8,1.7,2.8,2.6c3.4,1.6,6.7,0.5,6.9-2.2c0.4-8.3,0.7-16.6,1.1-24.9
		c0.9,2.5,2.4,4.9,2.6,7.5c0.3,5.6-0.2,11.3-0.1,16.9c0,3.5,0.5,6.9,0.6,10.4c0.1,2.8,0,5.6,0,8.5c-0.1,11.6-0.2,23.3-0.5,35.1
		c-0.6-0.1-1-0.5-1.5-1c-0.7-1.2-1.4-2.3-2-3.3c-1.2-2.1-0.7-4.4,0.7-6c1.7-1.9,1.6-3.5,0.6-5.6c-0.4-0.8-0.7-2.2-0.2-2.9
		c1.4-2,0.8-3.8,0.2-5.9c-0.3-1.1-0.2-2.5,0-3.7c0.2-1.8,0.9-3.4-1-4.8c-1.3-0.9-1.1-2.1-0.1-3.2c3-3.4,3-3.7,0.1-7.3
		c-1.4-1.7-2.5-1.8-3.7,0.2c-1.2,1.9-2.6,3-5,3c-0.6,0-1.4,1.8-1.7,2.9c-0.2,0.6,0.5,1.4,0.9,2.2c-3.4,1.2-6.5,2.6-7,6.7
		c0,0.1,0,0.4-0.2,0.4c-0.6,0.7-1,1.4-1.4,2.3c0,0.6,0,1-0.2,1.4c-1.4,0.4-2.5,0.7-3.7,1.1c-0.6,0.2-1,0.7-1.7,1.2
		C175.6,312.6,174.6,313.6,173.6,314.7z"/>
	<path class="st11" d="M50.8,363.1c-0.5-1.3-1.1-2.6-1.6-3.9c-0.4-0.9-0.7-1.8-1.1-2.9c2.9,0.4,3.6-2.1,4.6-3.7
		c1.1-1.7,2-3.1,4.1-1.4c2.7,2.1,3.3,4.1,1.7,6c-2.3,2.8-4,2.9-6.8,0.4c-0.2-0.2-0.6-0.2-1.2-0.4c-0.6,2-0.9,3.6,1.6,4.5
		c0.7,0.2,1,1.5,1.2,2.4C52.4,363.7,51.6,363.4,50.8,363.1z"/>
	<path class="st11" d="M84.7,266.2c1,2.3,0.4,4.1-1.5,5.6c-0.8,0.6-1.1,1.7-1.7,2.8c-0.7,0-1.4,0-2-0.3c-1.4-0.7-2.4-0.7-3,0.9
		c-0.9,2.2-2.2,2-3.7,0.7c-0.9-0.7-1.7-1.6-2.3-2.6c0.8,0.1,1.5,0.3,2,0.7c1.3,1.1,1.9,0.5,2.3-0.9c1-1,1.8-1.9,2.8-3.1
		c0.2,0,0.9,0.1,1.8,0.1c0-1.5,0-2.8,0.2-4C81.4,266.2,83.1,266.2,84.7,266.2z"/>
	<path class="st7" d="M71.6,210.8c0.3,0.7,0.5,1.5,0.7,2.7c0,4.6-0.2,8.7-0.3,13.1c0,4.4,0,8.6,0,13c0,9.9,0,19.6,0,29.5
		c0,0.8,0,1.4-0.2,1.9c-0.2-0.6-0.3-1-0.4-1.5c0-5.4,0-10.8,0-16.4c-0.3-4.8-0.7-9.3-0.9-13.8c-0.1-1.9,0.4-3.9,0.4-5.8
		c0.1-6.6,0-13.2,0-19.8C70.8,212.6,71.2,211.7,71.6,210.8z"/>
	<path class="st4" d="M43.1,507.3c0-0.4,0-0.8,0.1-1.5c0.3-0.4,0.4-0.5,0.4-0.8c0-0.1,0-0.4,0-0.4c1.3,0.2,2.7,0.3,4,0.6
		c1.6,0.3,2.6,2.7,1.5,3.8c-1.6,1.5-3.4,2.8-5.2,4c-0.2-1-0.2-1.7-0.2-2.6C43.8,509.1,45.1,507.9,43.1,507.3z"/>
	<path class="st4" d="M49.9,274.7c0.6-0.8,1.1-1.4,1.7-2c1.8,0.9,3.1,2,2.7,4.1c-0.1,0.5-1.3,1.2-2,1.1
		C50.7,277.7,49.2,277.1,49.9,274.7z"/>
	<path class="st4" d="M71.1,269.4c0.3,0.4,0.4,0.9,0.7,1.6c0.4,0.3,0.5,0.5,0.6,0.8c0.7,0.6,1.4,1,2.1,1.4l0,0
		c-0.2,1.4-0.7,2-2.1,0.9c-0.5-0.4-1.2-0.6-2-0.9C68.2,271.5,69.7,270.5,71.1,269.4z"/>
	<path class="st7" d="M43.6,510.5c0,0.7,0,1.5,0,2.5c0,2.6,0,4.9-0.1,7.5c-0.2,0.3-0.3,0.3-0.4,0.2c0-3.2,0-6.5,0.1-10
		C43.4,510.5,43.5,510.5,43.6,510.5z"/>
	<path class="st7" d="M43.6,504.4c0,0.3,0,0.5-0.1,0.7c-0.2,0.1-0.3,0.1-0.4,0.1c0-3.1,0-6.1,0.1-9.4c0.2-0.3,0.3-0.3,0.4-0.3
		c0,0,0,0.3,0,0.4C43.6,498.7,43.6,501.4,43.6,504.4z"/>
	<path class="st4" d="M50.8,363.3c0.8,0.1,1.6,0.4,2.5,0.8c0.2,0.6,0.2,1.2,0.2,2c-0.1,0.2-0.2,0.2-0.4,0.2
		C52.3,365.4,51.6,364.4,50.8,363.3z"/>
	<path class="st7" d="M41.6,542.2c-0.1-0.8-0.2-1.7-0.1-2.9C41.6,540.1,41.7,541.1,41.6,542.2z"/>
	<path class="st4" d="M42.6,537.1c0-0.2,0.2-0.2,0.4-0.2c0.2,0.3,0.3,0.5,0.3,0.8C43,537.6,42.8,537.4,42.6,537.1z"/>
	<path class="st7" d="M41.6,556.3c-0.1-0.6-0.2-1.2-0.2-2c0.2,0.4,0.4,1,0.5,1.7C42,556.3,41.8,556.3,41.6,556.3z"/>
	<path class="st7" d="M42.1,534.2c-0.1-0.6-0.1-1.2-0.1-1.9c0.2-0.1,0.3,0,0.5,0.2c0,0.5,0,0.9,0,1.5
		C42.4,534.2,42.4,534.2,42.1,534.2z"/>
	<path class="st5" d="M43.1,520.9c0.1-0.2,0.2-0.2,0.4-0.2c0.1,0.2,0.1,0.5,0.1,0.9c-0.1,0.2-0.2,0.2-0.4,0.2
		C43.1,521.6,43.1,521.4,43.1,520.9z"/>
	<path class="st7" d="M43.2,449.2c-0.2-2.6-0.3-5.2-0.3-7.9c0.3,2,0.5,4.2,0.7,6.8c0,0.7,0,0.9,0,1.1
		C43.6,449.1,43.3,449.2,43.2,449.2z"/>
	<path class="st7" d="M43.2,467.8c-0.2-4-0.2-8.1-0.2-12.5C43.2,459.3,43.3,463.5,43.2,467.8z"/>
	<path class="st5" d="M43.3,492.7c-0.2-0.7-0.2-1.5-0.2-2.4C44.7,490.7,44.4,491.7,43.3,492.7z"/>
	<path class="st7" d="M71.1,207.1c0.3,0.5,0.5,1.1,0.6,1.9C71.5,208.5,71.2,207.8,71.1,207.1z"/>
	<path class="st7" d="M43.1,473.9c-0.1-0.6-0.2-1.3-0.1-2.1c0.3,0.5,0.5,1.1,0.5,1.8C43.2,473.9,43.1,473.9,43.1,473.9z"/>
	<path class="st5" d="M43.1,474.1c0.1-0.2,0.2-0.2,0.4-0.2c0.1,0.7,0,1.4-0.2,2.1C43.1,475.5,43.1,474.9,43.1,474.1z"/>
	<path class="st5" d="M45.9,432.4c-0.2-0.3-0.2-0.8-0.2-1.4c0.1-0.4,0.2-0.5,0.4-0.7C46.2,430.9,46.1,431.6,45.9,432.4z"/>
	<path class="st5" d="M43.2,488.3c-0.2-0.6-0.2-1.4,0-2.3c0.2-0.2,0.3-0.2,0.4-0.2C43.5,486.6,43.5,487.4,43.2,488.3z"/>
	<path class="st5" d="M43.8,449.1c-0.2-0.2-0.2-0.5-0.2-0.9c0.3-0.1,0.6,0.1,0.8,0.2C44.3,448.7,44.1,448.9,43.8,449.1z"/>
	<path class="st7" d="M70.6,204.9c0.3,0.2,0.5,0.4,0.6,0.8C71,205.6,70.7,205.3,70.6,204.9z"/>
	<path class="st5" d="M43.6,495.3c-0.1,0.2-0.2,0.2-0.4,0.2c-0.1-0.2-0.1-0.5-0.1-0.9C43.3,494.6,43.4,494.9,43.6,495.3z"/>
	<path class="st7" d="M43.6,485.6c-0.1,0.2-0.2,0.2-0.4,0.2c-0.1-0.2-0.1-0.5-0.1-0.9C43.3,484.9,43.4,485.2,43.6,485.6z"/>
	<path class="st7" d="M43.2,469.6c-0.1,0-0.1-0.1-0.1-0.4C43.1,469.2,43.2,469.4,43.2,469.6z"/>
	<path class="st9" d="M108.5,243c0-1.5,0-2.9,0.2-4.6c3.1-0.8,5.2-3,5.7-5.7c0.2-1.2,0.8-2.4,1.6-3.3c1.6-1.9,1.4-3.6,0-5.8
		c-2.1,2.8-4.8,2.5-7.5,1.7c0-1.5,0-2.9,0.2-4.6c1.9-1,3.5-1.7,5.2-2.5c-0.3-0.7-0.5-1-0.7-1.2c-2.7-3.6-2.7-3.6,0.2-7.2
		c0.5-0.6,0.9-1.6,0.9-2.4c0.3-4.3-1-5.7-5.8-6.9c0-1.6,0-3.3,0.2-5.1c2.8-1,6-0.7,6.8-3c-1-4.1-2.1-7.2-2.5-10.3
		c-0.3-2.1-0.3-4.8,0.9-6.3c2-2.8,4.5-5.6,8.7-5.2c0.7,1.1,1.3,2.1,2.2,3.5c-1.4,0.8-2.9,1.4-4.1,2.3c-0.8,0.6-1.3,1.6-1.9,2.5
		c1,0.4,1.9,1.2,2.8,1.2c0.7-0.1,1.6-1.1,1.9-1.9c1.3-3.2,4-5.7,7.3-2.4c0.7,0.7,1.6,1.1,2.4,1.9c-0.4,5.7-0.9,11.2-1,16.6
		c-0.1,5,0.3,9.9,0.3,14.9c0,6.6-0.3,13.3-0.3,19.9c0,4.7,0.4,9.4,0.4,14.1c0,4.5-0.3,9.1-0.5,13.9c1.2,0,2.6,0,3.9,0
		c0.4,0.4,0.8,0.7,1.6,1.1c0.8,0,1.2,0,1.8,0c0.4-0.4,0.6-0.7,0.9-1.1c0-0.2,0-0.4,0.1-0.8c2.1-0.1,1.6-1.7,1.6-2.8
		c0-11.9,0-23.8,0-35.7c0-10.4,0-20.8,0-31.1c0-2.4,0.1-4.8,0.6-7.2c0.8-3.4,3.4-5.5,6.5-6.5c2.4-0.7,5.1-0.5,7.8-0.3
		c0.1,1.2,0,2.1-0.1,3.2c1.6,0,3,0,4.4,0c2.9,0,4,1.3,3.9,4.1c-0.4,7.3-0.8,14.6-1,21.8c-0.2,6,0,11.9,0,17.9c0,5.7,0,11.4,0,17.1
		c0,5.5,0,11,0,16.6c0,17.5,0,35,0,52.5c0,1.8,0.5,3.6,0.4,5.3c0,0.9-0.7,1.9-1.3,2.7c-2,3-5,2.5-8,2.5c-4.3,0-4.3,0-5.2-4.4
		c-0.1-0.3,0-0.6-0.2-0.8c-2.5-1.9-1.9-4.6-1.9-7.2c0-1.9-0.9-2.8-2.8-2.8c-1,0-2,0-3,0c-1.9,0-2.9-0.8-2.8-2.7c0-0.8-0.1-1.6,0-2.4
		c0.2-2.6-0.9-3.6-3.5-3.5c-1.6,0-3.3-0.2-4.9-0.6c-1.4-0.3-2.7-1.2-4.1-1.4c-1.9-0.2-2.8-0.9-2.6-2.9c0.1-1,0.2-2.5-0.4-3.1
		c-2-1.7-1.8-3.8-1.7-5.9c0.1-2.5-1-3.4-3.4-3.3c-0.8,0.1-1.6,0-2.4,0c-1.9,0-3.1-0.9-2.7-2.8c0.5-2.4,1.5-4.7,2.3-7.1
		c0.4-0.1,0.7-0.2,1.1-0.2c-1.2-1-2.3-1.9-3.6-2.9c-2.8-1.6-3.4-3.6-1.4-4.3c2.7-1,2.7-2.9,2.6-5.1c-0.1-2.6,0-5,2.1-7.1
		c1.2-1.3,0.9-3.3-0.4-4.8C111.5,243.6,111.5,243.6,108.5,243 M122.5,187.1c-0.6-0.2-1.1-0.6-1.7-0.6c-0.7,0-1.8,0.1-2.1,0.6
		c-0.4,0.6-0.1,1.6-0.1,2.4c0.8-0.1,1.7,0,2.4-0.4C121.7,188.8,122.1,188,122.5,187.1z"/>
	<path class="st1" d="M202.1,333c0.4,0.3,0.9,0.7,1.4,1.1c0,1.5-0.2,3-0.5,4.7c-3.1,1-4.5,2.7-4,5c0.3,1.5,1,2.9,1.5,4.4
		c-0.3,1.5-0.5,3.1-1.1,4.7c-0.3,0.1-0.6,0.1-0.6,0.1c-1.3,0-2.6,0.2-3.8,0c-1.6-0.3-3.1-1-4.6-1.4c-0.9-0.3-1.9-0.6-2.8-0.7
		c-2-0.2-3-1.2-3.3-3.2c-0.2-1.2-1-2.3-1.3-3.5c-0.4-1.4-0.7-2.9-0.7-4.3c-0.1-3.7-0.3-4-4-4.1c-4.6,0-4.7-0.1-4.7-4.7
		c0-2.1,0.2-4.2-2.9-4.2c-0.5,0-1.3-1.3-1.3-2c-0.1-3.6,0.2-7.2,3.9-9.3c0.1-0.1,0.2-0.3,0.3-0.6c1-1.2,2-2.2,3.3-3.3
		c4.5,1.4,5.1,1.1,5.3-2.3c0-0.4,0-0.8,0.2-1.4c0.6-0.9,1-1.6,1.4-2.3c0,0,0-0.3,0.2-0.4c3.1-0.2,1.4,2.4,2.3,3.4
		c1,1.1,1.9,2.3,2.9,3.4c1.2-1.2,2.5-2.3,3.7-3.5c0.2-0.2,0-0.8,0.2-1c1.1-1.2,2.2-2.5,3.5-3.5c0.5-0.4,1.5-0.3,2.3-0.4
		c0.1,0.8,0.2,1.7,0.2,2.5c0.1,0.7,0.2,1.4,0.1,2.1c-0.2,2.2-0.7,4.3-0.8,6.5c-0.1,1.4,0.2,2.8,0.4,4.2c0.1,1.1,0.8,2.6,0.3,3.3
		c-1.7,2.6-1.6,5.2-1,7.9C198.6,332.1,199.9,333.2,202.1,333z"/>
	<path class="st11" d="M113.3,262.4c1.2,1,2.3,1.9,3.5,2.9c-0.4,0.1-0.7,0.2-1.1,0.2c-0.8,2.4-1.8,4.7-2.3,7.1
		c-0.4,1.8,0.8,2.8,2.7,2.8c0.8,0,1.6,0,2.4,0c2.4-0.2,3.5,0.8,3.4,3.3c-0.1,2.1-0.3,4.2,1.7,5.9c0.6,0.5,0.5,2,0.4,3.1
		c-0.1,2,0.8,2.6,2.6,2.9c1.4,0.2,2.7,1.1,4.1,1.4c1.6,0.4,3.3,0.7,4.9,0.6c2.5-0.1,3.7,0.9,3.5,3.5c-0.1,0.8,0,1.6,0,2.4
		c0,1.9,1,2.8,2.8,2.7c1,0,2,0,3,0c1.9,0,2.8,0.8,2.8,2.8c0,2.5-0.6,5.3,1.9,7.2c0.2,0.1,0.2,0.5,0.2,0.8c0.9,4.4,0.9,4.4,5.2,4.4
		c2.9,0,6,0.4,8-2.5c0.6-0.8,1.2-1.8,1.3-2.7c0.1-1.8-0.4-3.5-0.4-5.3c0-17.5,0-35,0-52.5c0-5.5,0-11,0-16.6c0-5.7,0-11.4,0-17.1
		c0-6-0.1-11.9,0-17.9c0.2-7.3,0.6-14.6,1-21.8c0.2-2.8-0.9-4.1-3.9-4.1c-1.4,0-2.8,0-4.4,0c0.1-1.1,0.2-1.9,0.3-3
		c6.3-1.6,9,1.3,9.7,7.2c0.2,1.7,0,3.4,0,5.6c0,21.3,0,42.2,0,63c0,0.2,0,0.5-0.2,0.7c-0.2-1-0.4-1.9-0.4-2.9c0-20.6,0-41.3,0-61.9
		c0-0.8,0-1.7,0-2.5c-0.5,0.5-0.5,1.1-0.5,1.6c0.2,28.3,0.4,56.6,0.6,84.9c0,0.8,0.3,1.5,0.5,2.2c0,0.6,0,1.1,0,2.2
		c0,1.2,0,1.9,0,2.7c0,0.6,0,1.1,0,2.1s0,1.6,0,2.2c0,0.2,0,0.5,0,1.1c0,6.2,0,11.9,0,17.7c0,0.6,0,1.1,0,1.9
		c-0.2-0.5-0.5-1.2-0.5-1.9c0-7.9,0-15.8,0-23.7c0-0.9,0-1.8,0-2.6c-0.2,0-0.4,0-0.5,0c0,1.7,0,3.5,0,5.2c0,7.4-0.1,14.9,0,22.3
		c0.1,4.2,0.6,8.4,0.9,12.6c0,0.8-0.4,1.7-0.8,2.4c-0.7,1.1-1.6,2.1-2.9,3.8c-3.5,0.3-7.9,0.8-12.2,0.8c-3.2,0-5.4-2.3-5.4-5.6
		c0-2.2-1-3.2-2.9-3.4c-3.1-0.3-3.6-2.5-3.6-4.9s-0.3-3.7-3.5-3.3c-3.9,0.5-4.6-0.5-4.6-4.6c0-4.2-0.2-4.3-4.4-4.4
		c-1.4,0-2.9-0.1-4.2-0.6c-0.9-0.4-1.7-1.6-2.1-2.6c-0.5-1.6-0.5-3.3-0.7-4.9c-0.3-0.2-0.4-0.4-0.6-0.4c-1.6-0.4-3.7-0.3-4.7-1.3
		c-0.9-0.9-0.6-3-1-4.5c-0.7-3.3-0.8-3.3-3.9-2.2c-0.7,0.3-1.7,0-2.4-0.3c-0.9-0.3-1.6-1.1-2.5-1.4c-1.7-0.7-2-1.7-0.3-3.2
		c0.7-1.1,1.1-1.9,1.6-2.8c0.8,0.3,1.4,0.6,2.1,0.9c0.6-0.7,1.1-1.3,1.8-1.9c2.1,1.1,3.7,0.4,4.1-1.8
		C113.4,264.9,113.3,263.6,113.3,262.4z"/>
	<path class="st9" d="M190.3,279.7c-0.4,0-0.9,0-1.3,0c-2.5,0.1-3.1,1.1-1.8,3.3c0.9,1.5,1.6,2.7,1.3,4.7c-0.4,2.4-1.3,3.1-3.5,2.8
		c-0.5-0.1-1.1,0.1-1.5,0.1c-0.7,1.9-1.3,3.9-2.3,5.6c-0.2,0.3-1.8-0.2-3-0.3c-0.2-1.8-0.2-3.6,0-5.7c1.8-3.2,3.5-6.1,5.1-9
		c0.1-0.2-0.4-1.2-0.8-1.3c-1.5-0.3-3-0.5-4.5-0.6c0-2,0-4,0.2-6.2c1.2-0.6,2.2-1.2,3.2-1.3c2.3-0.2,2.6-1.4,2.2-3.3
		c0.7-0.2,1.2-0.5,1.7-0.4c3,0.4,5.6,0.2,6.4-3.5c0.1-0.6,1.2-1,1.7-1.6c1.9-2.6,5-4.6,4.6-8.4c1.1,0.2,2.1,0.4,3.2,0.9
		c-0.3,8.5-0.7,16.8-1.1,25.1c-0.1,2.7-3.5,3.8-6.8,2c0.5-0.7,1-1.4,1.5-1.4c3.3,0,3.3,0.1,3.2-3.2c0-0.3,0-0.5,0.1-0.8
		c0.3-3.6,0.7-7.2,0.9-10.8c0-0.8-0.4-1.6-0.9-3.3c-1.5,1.8-2.3,3.3-3.5,4.2c-3.4,2.4-3.8,3.5-3.3,7.8
		C191.4,276.3,190.6,278,190.3,279.7 M197.7,260c0.2-0.1,0.3-0.3,0.5-0.4c-0.1-0.1-0.2-0.2-0.2-0.2
		C197.8,259.6,197.6,259.7,197.7,260z"/>
	<path class="st9" d="M197.6,254.3c0.6,3.8-2.5,5.8-4.4,8.4c-0.5,0.6-1.5,1-1.7,1.6c-0.8,3.8-3.4,3.9-6.4,3.5
		c-0.5-0.1-1,0.3-1.9,0.3c-0.4-2.5-0.5-5-0.6-7.4c0.1-0.5,0.2-0.9,0.6-1.5c3.3-0.8,6.3-1.5,9.2-2.3c0.7-0.2,1.4-0.7,2-1.1
		c0.1-0.2,0.2-0.3,0.6-0.5c0.7-0.4,1.1-0.8,1.5-1.1C197,254.3,197.2,254.3,197.6,254.3z"/>
	<path class="st4" d="M166.8,270.4c-0.3-0.6-0.7-1.4-0.7-2.1c-0.2-28.3-0.4-56.6-0.6-84.9c0-0.5,0-1.1,0.5-1.6c0,0.8,0,1.7,0,2.5
		c0,20.6,0,41.3,0,61.9c0,1,0.1,1.9,0.4,3.1c0.5,0.8,1.2,1.4,1.1,2C167.4,257.6,167.2,263.9,166.8,270.4z"/>
	<path class="st4" d="M177.9,279.4c1.5-0.1,3,0.1,4.5,0.4c0.4,0.1,0.9,1.1,0.8,1.3c-1.6,3-3.2,5.9-5.1,8.8
		C177.9,286.5,177.9,283,177.9,279.4z"/>
	<path class="st4" d="M166.8,248.3c-0.2-20.7-0.2-41.5-0.2-62.6c0.2,0.4,0.5,1.1,0.5,1.7c0,19.9,0,39.8,0,59.7
		C167.1,247.4,167,247.8,166.8,248.3z"/>
	<path class="st4" d="M182.6,260.9c0.2,2.3,0.3,4.7,0.5,7.3c0.8,2,0.4,3.2-1.8,3.4c-1,0.1-2,0.6-3.2,1
		C179.4,268.8,180.9,264.9,182.6,260.9z"/>
	<path class="st4" d="M189.4,374.4c0-1.1,0-2.2,0.3-3.3c0.4-1.5,1.7-3.1,1.6-4.5c-0.3-3.3,1.6-3.7,4.2-4c0.2,0.2,0.3,0.4,0.2,0.5
		C193.6,366.9,191.6,370.6,189.4,374.4z"/>
	<path class="st4" d="M200.7,347.9c-0.7-1.3-1.3-2.8-1.7-4.3c-0.5-2.3,0.9-3.9,4-4.7C202.4,341.8,201.6,344.8,200.7,347.9z"/>
	<path class="st4" d="M198.8,353c0.1-0.2,0.3-0.2,0.5-0.2c-1,2.8-2.1,5.7-3.4,8.6C193.9,357.7,196.5,355.5,198.8,353z"/>
	<path class="st10" d="M179.1,387.3c-0.5-0.8-1.2-1.7-1.1-2.4c0.2-0.7,1.2-1.5,2-1.7c0.9-0.2,1.9,0.2,3,0.4
		C182,384.8,180.6,386,179.1,387.3z"/>
	<path class="st4" d="M194.4,256c-0.4,0.4-1.1,0.9-1.8,1.1c-2.9,0.8-5.9,1.5-9.1,2.2C186.4,256.5,190.2,256.1,194.4,256z"/>
	<path class="st4" d="M184.5,380.8c-0.7-0.7-1.2-1.4-1.7-2.2c1.3-0.7,2.5-1.4,4-2.1C186.3,378,185.5,379.3,184.5,380.8z"/>
	<path class="st4" d="M166.8,298.3c-0.2-5.6-0.2-11.4-0.2-17.4c0.2,0.5,0.5,1.2,0.5,2C167.1,288,167,293.1,166.8,298.3z"/>
	<path class="st4" d="M196.6,254.3c-0.2,0.4-0.6,0.7-1.2,1.1C195.5,255.1,196,254.7,196.6,254.3z"/>
	<path class="st4" d="M166.7,275.2c-0.1-0.6-0.1-1.4-0.1-2.4C166.7,273.5,166.8,274.3,166.7,275.2z"/>
	<path class="st4" d="M166.7,279.5c-0.1-0.5-0.1-1-0.1-1.8C166.7,278.1,166.8,278.8,166.7,279.5z"/>
	<path class="st7" d="M140,257c-0.1,0.3-0.3,0.7-0.7,0.9c-0.2-0.2-0.2-0.3-0.2-0.4C139.4,257.3,139.6,257.2,140,257z"/>
	<path class="st5" d="M138.9,257.5c0.2,0.1,0.2,0.2,0.2,0.4c-0.4,0.2-0.8,0.2-1.4,0.1c-0.2-0.1-0.2-0.2-0.2-0.4
		C137.9,257.5,138.3,257.5,138.9,257.5z"/>
	<path class="st1" d="M118.9,406.2c-0.7-0.5-1.2-1.5-1.8-1.6c-3.4-0.2-6.8-0.1-10.3-0.2c-0.6,0-1.2,0-2.4,0c0.3-6.2,0.5-12.1,0.9-18
		c0.1-1.5,0.9-3,1.8-4.3c0.5-0.7,1.8-1.2,2.7-1.2c3.7-0.3,5.4-1.7,5.5-5.3c0.1-2.5,1.6-3.2,3.7-3.4c3.3-0.3,4.9-2,5-5.3
		c0.1-2.6,0.9-3.5,3.1-3.2c2.8,0.4,5.4-1.8,5.5-4.5c0.2-3.2,0.9-3.9,4.2-4.2c2.4-0.2,4.3-1.8,4.2-3.7c-0.1-3.1,1.8-4.8,3.4-6.7
		c1.7-2,3.7-3.9,5.7-5.7c0.7-0.6,2.1-1,3-0.7c0.6,0.2,1.1,1.9,0.9,2.6c-0.5,1.7,0.1,2.7,1,4.1c0.9,1.3,1.2,3.1,1.2,4.8
		c0,2.3,0.6,3.2,3.1,3.2c5.3-0.1,5.7,0.2,5.6,5.6c0,2.4,0.9,3.1,3.2,3c5.2-0.1,5.6,0.3,5.5,5.4c-0.1,2.6,0.9,3.5,3.3,3.1
		c0.2,0,0.4,0,0.5,0c3.9,0,5.9,3.2,4.1,6.7c-0.6,1.2-1.6,1.9-3,0.7c-2.3-1.8-7.1-0.2-7.8,2.6c-0.2,0.9,0.2,2.4,0.9,3
		c1.5,1.5,1.8,3,1,5c-0.6,3-4.5,6.1-7.1,6.8c-2.5,0.7-4.8,2-7.1,3.3c-0.6,0.3-0.6,1.6-0.9,2.4c-0.5,1.7-1.1,3.4-1.6,5.3
		c-1.1,0.2-2.2,0.2-3.6,0c-0.5-0.6-0.8-1.3-1.1-1.3c-3.6-0.1-7.2,0-10.8,0.1c-0.3,0-0.5,1-0.7,1.5c-1.3,0-2.6,0-4.1-0.2
		c-0.7-0.6-1.2-1.4-1.6-1.4c-3.9-0.1-7.7-0.1-11.6,0.1c-0.3,0-0.7,1-1,1.5C120.6,406.2,119.9,406.2,118.9,406.2z"/>
	<path class="st4" d="M60.1,380c1.4,0.3,2.9,0.8,4.4,1.3c1.2,0.4,2.3,0.9,4.1,1.5c0.5,1.8,1.3,4.3,4.7,3.5c2-0.5,4-1,4.8-3.6
		c0.3-1.2,1.7-2.2,2.8-3c0.4-0.2,1.5,0.5,2.2,1c1.3,0.8,2.5,2,3.8,2.4c1.5,0.5,2.3,1,2.3,2.7c0,1.2,0.4,2.5,0.3,3.7
		c-0.1,0.9-0.6,1.9-1.3,2.5c-1.7,1.4-2.2,2.5-0.3,4.3c2.6,2.4,2.5,2.8-0.5,5.1c-1.4,1.1-2.5,2-3.9,2.9c-2.7,0.3-3.9-0.5-3.6-3.2
		c0-0.4-0.3-0.8-0.5-1.1c0-0.2,0-0.5,0.2-0.9c1.4-1.8,1.2-3.3-0.2-4.7c-1.1-1.1-1.6-2.1-0.4-3.5s1-3.1-0.3-3.9
		c-0.5-0.3-2.5,0.7-3.2,1.6c-1.9,2.2-3,2.4-5.2,0.3c-1.5-1.4-3.2-2.7-4.8-4c-0.3-0.3-0.6-0.5-1-1.1c-0.8-0.9-1.5-1.5-2.2-2.1
		C61.5,381,60.8,380.5,60.1,380z"/>
	<path class="st10" d="M65.4,384.8c1.6,1.2,3.3,2.4,4.8,3.8c2.2,2,3.3,1.9,5.2-0.3c0.8-0.9,2.7-2,3.2-1.6c1.3,0.8,1.5,2.5,0.3,3.9
		c-1.1,1.3-0.7,2.4,0.4,3.5c1.4,1.3,1.5,2.9,0.2,4.5c-1-3.9-4.1-5.3-7.2-7.2C69.7,389.9,67.7,387.2,65.4,384.8z"/>
	<path class="st11" d="M121.6,406.2c0.1-0.5,0.4-1.5,0.7-1.5c3.9-0.1,7.7-0.2,11.6-0.1c0.5,0,0.9,0.8,1.4,1.4
		C130.9,406.2,126.4,406.2,121.6,406.2z"/>
	<path class="st11" d="M139.9,406.2c0-0.5,0.2-1.5,0.5-1.5c3.6-0.1,7.2-0.1,10.8-0.1c0.3,0,0.6,0.7,0.9,1.3
		C148.1,406.2,144.1,406.2,139.9,406.2z"/>
	<path class="st4" d="M57.3,375.7c0.9-0.8,1.8-1.6,2.8-2c0.8-0.3,1.9-0.1,2.8-0.1c-0.2,1-0.1,2-0.5,2.9c-0.5,1-1.4,1.7-2.3,2.7
		C59.1,378.1,58.2,377,57.3,375.7z"/>
	<path class="st9" d="M83.7,404c1.1-0.9,2.3-1.8,3.6-2.7c0.7,1.5,1.3,3,1.8,4.6c-1.1,0.2-2.2,0.2-3.6,0
		C84.7,405.2,84.2,404.6,83.7,404z"/>
	<path class="st10" d="M83.4,404c0.8,0.6,1.3,1.2,1.8,2c-0.3,0.2-0.7,0.1-1,0.2c-5.6,0.5-5.9-2.2-5-6.3c0.3,0.2,0.7,0.6,0.7,1
		C79.5,403.5,80.8,404.4,83.4,404z"/>
	<path class="st4" d="M53,369.2c1,0.3,2.2,0.5,3,1.2c0.5,0.4,0.3,1.4,0.3,2.3C55.1,371.7,54.1,370.5,53,369.2z"/>
	<path class="st10" d="M62.1,381.6c0.7,0.4,1.4,1,2.1,1.8C63.6,383,62.9,382.4,62.1,381.6z"/>
	<path class="st4" d="M122.4,170.3c-4.1-0.2-6.6,2.6-8.7,5.4c-1.1,1.5-1.1,4.2-0.9,6.3c0.4,3.2,1.5,6.2,2.5,10.3
		c-0.8,2.2-4,1.9-6.8,2.7c-0.2-2.7-0.2-5.4-0.1-8.4c1.1-1.3,1.4-2.3-0.2-2.9c0-1.3,0-2.5,0.2-4.1c1.1-1.6,1.5-2.9-0.2-4
		c0-0.6,0-1.1,0-1.9c0.4-1,0.9-1.8,1-2.6c0.4-2.6,0.4-5.3,0.9-7.9c1.2-5.6,5.8-9.1,11.4-9c2.7,0,5.3,0.3,8,0.5c1.8,0.2,4.9,4,5,6
		c0,0.7,0,1.4-0.2,2.4c-0.4,0-0.8-0.2-0.9-0.5c-1.2-2.1-2.3-2.6-3.9-0.3c-0.4,0.6-1.8,0.9-2.4,0.6c-1-0.4-1.7-1.4-3-2.5
		c-0.5,0.8-1.2,1.6-1.4,2.4C122.7,165.4,122.6,167.9,122.4,170.3z"/>
	<path class="st4" d="M135.9,256.8c-1.3,0.2-2.6,0.2-3.9,0.2c0.2-4.8,0.5-9.4,0.5-13.9c0-4.7-0.4-9.4-0.4-14.1
		c0-6.6,0.3-13.3,0.3-19.9c0-5-0.4-9.9-0.3-14.9c0.1-5.5,0.7-10.9,1.2-16.8c0.1-2.1,0.5-3.9,0-5.5c-0.8-2.3-0.2-3.9,1.5-5.4
		c0.2,0.8,0.5,1.7,0.5,2.5c0,17.8,0,35.7,0,53.5c0,5.4,0.1,10.8,0,16.1c-0.1,4.4-0.4,8.8-0.5,13.2
		C134.9,253.5,135.5,255.1,135.9,256.8z"/>
	<path class="st11" d="M134.8,166.3c-1.6,1.7-2.3,3.3-1.5,5.6c0.5,1.5,0.1,3.4,0,5.2c-1-0.4-1.9-0.9-2.6-1.5c-3.3-3.3-6-0.8-7.3,2.4
		c-0.3,0.8-1.2,1.8-1.9,1.9c-0.9,0.1-1.9-0.7-2.8-1.2c0.6-0.8,1.1-1.9,1.9-2.5c1.2-0.9,2.7-1.5,4.1-2.3c-0.9-1.4-1.5-2.3-2.2-3.5
		c0.1-2.6,0.2-5.1,0.5-7.6c0.1-0.9,0.9-1.7,1.4-2.4c1.2,1.1,2,2.1,3,2.5c0.7,0.3,2.1-0.1,2.4-0.6c1.6-2.3,2.7-1.8,3.9,0.3
		c0.2,0.3,0.5,0.5,0.9,0.7C134.8,164.3,134.8,165.2,134.8,166.3z"/>
	<path class="st4" d="M113.1,262.3c0.2,1.3,0.3,2.6,0.1,3.7c-0.4,2.2-2,2.9-4.1,1.6c0.8-3-2.1-3.5-2.9-5.2c0.5-0.4,1-0.9,1.6-1.5
		c0.2-0.4,0.4-0.7,0.6-1.1c0-0.4,0-0.5-0.1-0.6c0-5.2,0-10.4,0-15.9c3,0.3,3,0.3,7.6-2.3c1.3,1.5,1.6,3.5,0.4,4.8
		c-2.1,2.1-2.3,4.5-2.1,7.1c0.1,2.2,0.1,4.1-2.6,5.1C109.8,258.7,110.3,260.7,113.1,262.3z"/>
	<path class="st4" d="M108.5,200.7c4.9,0.9,6.1,2.3,5.8,6.6c-0.1,0.8-0.4,1.7-0.9,2.4c-2.9,3.6-2.9,3.6-0.2,7.2
		c0.2,0.3,0.3,0.6,0.7,1.2c-1.8,0.8-3.4,1.5-5.2,2.2C108.5,214,108.5,207.5,108.5,200.7z"/>
	<path class="st4" d="M108.5,225.5c2.7,0.5,5.4,0.9,7.5-1.9c1.4,2.2,1.6,3.9,0,5.8c-0.8,0.9-1.3,2.1-1.6,3.3c-0.6,2.8-2.6,5-5.7,5.5
		C108.5,234.1,108.5,229.9,108.5,225.5z"/>
	<path class="st7" d="M108.5,176c1.7,0.8,1.3,2.1,0.2,3.5C108.5,178.4,108.5,177.3,108.5,176z"/>
	<path class="st7" d="M108.5,184c1.6,0.4,1.3,1.4,0.2,2.4C108.5,185.8,108.4,185,108.5,184z"/>
	<path class="st7" d="M108.4,259.3c0.1,0,0.1,0.2,0.1,0.4C108.4,259.6,108.4,259.5,108.4,259.3z"/>
	<path class="st5" d="M43.6,510.3c-0.1,0.2-0.2,0.2-0.4,0.2c-0.1-0.9-0.1-1.8-0.1-3C45.1,507.9,43.8,509.1,43.6,510.3z"/>
	<path class="st5" d="M43.1,505.3c0.1-0.1,0.2-0.1,0.4-0.1c0.1,0.2,0,0.3-0.3,0.5C43.1,505.6,43.1,505.5,43.1,505.3z"/>
	<path class="st11" d="M102.5,258.5c-0.3,0.4-1,0.7-1,0.9c-0.1,3.4-2,3.5-4.5,2.6c-0.6-0.2-1.2-0.2-2-0.3c1.2-2.4,2.4-4.6,3.5-6.7
		c-0.3-0.2-0.6-0.3-0.8-0.5c-4.1,2.7-9.3,3.9-11.8,8.9c-1.9-3.4,0.3-6.7,4.4-7.3c3-0.4,5.2-2.9,5.2-5.9c0-5,0-10.1,0-15.1
		c0-1,0.4-2,0.7-3c0.3-1,1.1-2.4,0.8-2.8c-1-1.1-2.3-2.1-3.7-2.6c-0.4-0.1-1.6,1.5-2.1,2.5c-0.4,0.9-0.3,2.1-0.6,3.1
		c-0.5,1.5-1.1,3-3,1.5c1.1-2.1,2-4.1,3.2-6c0.6-1,1.6-2.3,2.6-2.6c3.6-0.9,4.6-3.7,4.9-7.1c0.1-1.8-0.4-3-2.7-3.1
		c-1.7,0-4.3-0.2-4.9-1.2c-2.2-3.6-5.8-2.7-8.9-3.5c-1-0.2-2.2,0.7-3.3,1c-0.7,0.2-1.5,0.3-2.3,0.4c-0.2-0.4-0.4-0.7-0.6-0.9
		c0-0.6,0-1.1,0.1-2c0.2-0.4,0.3-0.6,0.6-0.7c0.2-0.9,0.3-1.8,0.3-2.9c0-1,0-1.7,0.2-2.5c2.1-1.8,1.5-3.3-0.2-4.8
		c0.2-2.5,0.4-5.1,0.7-7.9c1.3-2.4,2.4-4.5,3.6-6.7c0.4-0.4,0.8-0.7,1.6-0.9c0.4,0.2,0.6,0.3,0.8,0.4c2.6,1.3,6.2,1.9,5.3,6.3
		c0,0.2,1,1.1,1.4,1c3.1-0.9,6.7-1,8.8-4.2c0.5-0.7,2.1-0.6,3.1-0.9c0,0.9,0,1.8-0.2,3.2c-0.2,0.6-0.3,0.7-0.3,0.9
		c0,22.3,0,44.6,0,66.8c0,0.6,0.7,1.2,1,1.8C102.5,257.8,102.5,258.1,102.5,258.5 M83.2,199.8c-0.7,0.8-1.3,1.6-2.3,2.8
		c2.6-0.5,4.9-0.8,7-1.5c0.7-0.2,1.5-2.3,1.4-2.4c-2.3-1.6-0.9-3.7-0.9-5.6c0-0.9-1-1.8-1.6-2.7c-0.5,0.8-1.5,1.7-1.5,2.5
		C85.5,195.4,84.9,197.5,83.2,199.8z"/>
	<path class="st4" d="M102,184.7c-1.1,0.5-2.7,0.4-3.1,1.1c-2.2,3.2-5.7,3.3-8.8,4.2c-0.4,0.1-1.4-0.7-1.4-1
		c0.9-4.4-2.7-4.9-5.3-6.3c-0.2-0.1-0.3-0.2-0.6-0.4c1.9-0.7,3.8-1.6,5.8-1.6c3.8,0,7.6,0.6,11.7,0.9c0.5,0.3,0.8,0.5,1.2,0.9
		C101.6,183.3,101.8,183.9,102,184.7z"/>
	<path class="st4" d="M102.5,257.3c-0.4-0.4-1-1-1-1.6c0-22.3,0-44.6,0-66.8c0-0.2,0.1-0.3,0.3-0.7c0.3,0.9,0.7,1.9,0.7,2.9
		C102.5,213.1,102.5,235.1,102.5,257.3z"/>
	<path class="st9" d="M106.1,262.4c1,1.7,3.9,2.2,2.9,5.2c-0.5,0.9-1.1,1.5-1.6,2.2c-0.7-0.3-1.3-0.6-2.1-0.9
		c-0.5,0.9-0.9,1.7-1.5,2.6c-0.5-0.9-0.6-2-1.2-2.9c-1.6-2.3-1.3-4.2,1-6C104.3,262.4,105.1,262.4,106.1,262.4z"/>
	<path class="st5" d="M43.6,570.7c-0.2-0.2-0.4-0.7-0.5-1.3C43.3,569.7,43.4,570.1,43.6,570.7z"/>
	<path class="st12" d="M71.9,226.3c0.1-4.2,0.3-8.3,0.4-12.7c0.8,0.3,1.6,0.8,2.6,1.6c0.2,2.4,0.2,4.6,0,6.9
		c-0.4,2.1-0.6,4.1-0.9,6.6C72.9,227.6,72.4,226.9,71.9,226.3z"/>
	<path class="st7" d="M75.1,222c0-2.2,0-4.3,0-6.7c0.1-1.6,0.1-2.9,0.4-4.4c0.3,0.1,0.5,0.3,0.7,1c-0.2,3.7-0.3,6.9-0.6,10.1
		C75.2,222,75.1,222,75.1,222z"/>
	<path class="st7" d="M76.1,208c-0.1,0.1-0.2,0.3-0.4,0.5c-0.1-2.3-0.1-4.7,0.1-7.2c0.4,0.3,0.7,0.8,0.9,1.4c0,0.7,0,1.5-0.2,2.6
		C76.3,206.4,76.2,207.2,76.1,208z"/>
	<path class="st4" d="M76.9,202.6c-0.4-0.5-0.6-1-1.1-1.6c-0.2-0.6-0.2-1.2-0.2-2c0.3-0.5,0.7-0.7,1-1.1
		C78.3,199.3,79,200.8,76.9,202.6z"/>
	<path class="st4" d="M80.8,183.3c-1,2.1-2.1,4.2-3.4,6.4C78.4,187.6,79.5,185.5,80.8,183.3z"/>
	<path class="st9" d="M587.4,251.3c0.7-0.6,1.3-0.9,2.2-1.6c0,1.5,0,2.4,0,3.3c-0.2,0.1-0.4,0.3-0.7,0.4
		C588.4,252.8,587.9,252.1,587.4,251.3z"/>
	<path class="st4" d="M119.7,361.7c1.1-2,2-3.9,2.9-5.8c1.1-2.3,2.9-2.8,6.9-1.7c1.4,4.7,0.2,6.6-4.7,6.8c-2.2,0.1-3.3,1.1-3.5,3.2
		c-0.2,3.4-1.7,5.4-5,5.8c-2.2,0.3-3.1,1.1-3.1,3.4c-0.1,3-2.2,4.7-5.9,5.4c-0.8,0.1-2.1,0.5-2.2,1c-0.9,3.4-3.6,4.3-6.9,5.4
		c1.7-3,1.6-6.6,5.7-7.6c0.6-0.1,1.2-1.4,1.3-2.2c0.3-3.6,1.3-4.8,4.7-4.6c3.1,0.2,3.4-2.5,3.6-4C114.1,363,116.3,361.9,119.7,361.7
		z"/>
	<path class="st4" d="M143.9,341.4c-1.6,1.2-3,2.3-4.4,3.4c-0.4,0.3-0.7,0.9-0.7,1.3c-0.2,4.9-3.2,7.3-8.4,6.5
		c-0.8-4.5,1.3-7.1,5.6-8c1.3-0.3,2.8-2.3,3-3.7c0.4-2.6,1.4-4.8,3.1-6.4c0.9-0.8,2.7-0.6,4.1-0.8c0.2,0.2,0.4,0.5,0.7,0.7
		C145.9,336.7,145,339,143.9,341.4z"/>
	<path class="st9" d="M100,401.2c-1.2,0.1-2.2,0.3-3.1-0.1s-1.9-1.1-2.3-2c-0.2-0.4,0.9-1.5,1.5-2.1c0.9-0.9,2-1.7,3-2.6
		C101.7,396.2,102.2,398.8,100,401.2z"/>
	<path class="st4" d="M92.5,396.2c-2.2-1.5-2.3-3.2-0.7-5.1c1.2-1.3,2.4-2.6,3.6-3.9c0.2,0.2,0.4,0.4,0.6,0.5
		c-0.4,0.7-0.9,1.4-1.5,2.4c0.8,0.7,1.6,1.3,2.6,2.1C96.6,394.5,95,395.9,92.5,396.2z"/>
	<path class="st9" d="M87.4,233.9c2.1,1.3,2.7-0.2,3.1-1.7c0.3-1,0.2-2.2,0.6-3.1c0.5-1,1.7-2.7,2.1-2.5c1.4,0.5,2.8,1.4,3.7,2.6
		c0.4,0.4-0.5,1.9-0.8,2.8c-0.3,1-0.7,2-0.7,3c-0.1,5,0,10.1,0,15.1c0,3-2.2,5.5-5.2,5.9c-4.1,0.6-6.3,3.9-4.6,7.4
		c-0.2,0.9-0.5,1.7-0.8,2.6c-1.7,0.2-3.4,0.2-5.2,0c0.5-1.4,1.4-2.5,1.7-3.8c0.4-1.8,0.3-3.6,0.4-5.5c0-0.8,0.2-1.6,0.1-2.3
		c-0.2-3-0.4-6-0.7-8.9c-0.1-0.7-0.3-1.3-0.5-2s-0.6-1.4-0.6-2.1c0-0.3,0.9-1,1-0.9c0.5,0.3,0.9,1,1.4,1.3c0.7,0.5,2,1.2,2.2,1
		c1.2-1,2.2-2.3,3-3.7c0.1-0.2-1.2-1.7-2-2c-1.6-0.4-3.4-0.4-5.6-0.6c0.6-0.8,1-1.7,1.6-1.9C83.6,234.3,85.5,234.1,87.4,233.9z"/>
	<path class="st11" d="M202.1,332.8c-2.3,0.4-3.5-0.6-3.9-2.8c-0.6-2.8-0.7-5.4,1-7.9c0.5-0.7-0.2-2.2-0.3-3.3
		c-0.2-1.4-0.5-2.8-0.4-4.2c0.1-2.2,0.5-4.3,0.8-6.5c0.1-0.7-0.1-1.4-0.1-2.1c-0.1-0.8-0.2-1.7-0.2-2.5c-0.8,0.1-1.7,0-2.3,0.4
		c-1.3,1-2.4,2.3-3.5,3.5c-0.2,0.2,0,0.8-0.2,1c-1.2,1.2-2.5,2.4-3.7,3.5c-1-1.1-1.9-2.3-2.9-3.4c-1-1,0.7-3.7-2.3-3.6
		c0.3-4,3.4-5.3,6.7-6.6c-0.4-0.9-1.1-1.7-0.9-2.2c0.3-1.1,1.1-2.9,1.7-2.9c2.4,0,3.8-1.2,5-3c1.2-1.9,2.3-1.9,3.7-0.2
		c2.9,3.7,2.9,4-0.1,7.3c-1,1.2-1.2,2.3,0.1,3.2c1.9,1.4,1.2,3.1,1,4.8c-0.2,1.2-0.3,2.5,0,3.7c0.6,2,1.3,3.8-0.2,5.9
		c-0.4,0.6-0.2,2,0.2,2.9c1,2.1,1.1,3.7-0.6,5.6c-1.4,1.6-1.9,3.8-0.7,6C200.7,330.5,201.4,331.5,202.1,332.8 M188.4,304.4
		c0.8-0.1,1.5-0.3,2.3-0.4c-0.3-0.5-0.5-1-0.8-1.5C189.4,303,188.8,303.5,188.4,304.4z"/>
	<path class="st9" d="M190.3,279.9c0.3-1.9,1.1-3.6,0.9-5.1c-0.6-4.3-0.2-5.3,3.3-7.8c1.2-0.9,2-2.4,3.5-4.2
		c0.5,1.6,0.9,2.5,0.9,3.3c-0.2,3.6-0.6,7.2-0.9,10.8c0,0.3-0.1,0.5-0.1,0.8c0.2,3.3,0.2,3.2-3.2,3.2c-0.5,0-1,0.7-1.6,1.3
		C192.1,281.6,191.2,280.8,190.3,279.9z"/>
	<path class="st11" d="M182,309.3c-0.1,3.4-0.6,3.6-5,2.1c0.3-0.4,0.8-0.8,1.3-1.1C179.5,309.9,180.6,309.7,182,309.3z"/>
	<path class="st11" d="M183.6,305.5c-0.2,0.7-0.7,1.4-1.3,2.1C182.6,307,183,306.3,183.6,305.5z"/>
	<path class="st4" d="M87.5,233.7c-2,0.4-3.9,0.5-5.8,1c-0.6,0.1-1,1.1-1.6,1.9c2.2,0.2,4,0.2,5.6,0.6c0.8,0.2,2.1,1.7,2,2
		c-0.8,1.4-1.8,2.6-3,3.7c-0.3,0.2-1.5-0.5-2.2-1c-0.5-0.4-0.9-1-1.4-1.3c-0.1-0.1-1,0.6-1,0.9c0,0.7,0.4,1.4,0.6,2.1
		c0.2,0.7,0.4,1.3,0.5,2c0.3,3,0.5,6,0.7,8.9c0,0.8-0.1,1.5-0.1,2.3c-0.1,1.8,0,3.7-0.4,5.5c-0.3,1.3-1.2,2.4-1.9,3.8
		c0,1.5,0,2.8,0,4.2c-0.9-0.1-1.6-0.1-1.8-0.1c-1,1.2-1.8,2.1-2.8,3.1c-0.2,0-0.2,0-0.2-0.2c0-0.8,0-1.4,0-1.9c0,0,0,0,0.2,0
		c0.4-0.4,0.6-0.7,0.9-1.3c0-9.4,0-18.6,0.2-27.9c0.4-2.1,0.7-4.1,0.8-6.1c0-0.4-0.6-0.8-1-1.5c0-4.2,0-8.2,0-12.1
		c0.2-3.2,0.3-6.5,0.5-10c0.8-0.4,1.5-0.5,2.3-0.8c1.1-0.3,2.3-1.2,3.3-1c3,0.7,6.7-0.1,8.9,3.5c0.6,1,3.2,1.1,4.9,1.2
		c2.3,0.1,2.8,1.2,2.7,3.1c-0.3,3.4-1.3,6.2-4.9,7.1c-1,0.3-2,1.6-2.6,2.6C89.6,229.6,88.7,231.6,87.5,233.7z"/>
	<path class="st8" d="M75.6,242c0,9.2,0,18.3-0.2,27.8c-0.4,0.6-0.6,1-0.9,1.3c0,0,0,0-0.2,0c-0.8,0.2-1.4,0.4-2,0.6
		c-0.1-0.2-0.2-0.3-0.4-0.5c-0.1-0.7-0.1-1.2,0.1-2c1.6-0.1,2.4-0.7,2.4-2.2c0-7.9,0.1-15.7-0.2-23.6c0-1.2,0.8-4.2-2.5-4
		c0-4.2,0-8.3,0-12.7c0.5,0.4,1,1,2.1,2.2c0.3-2.5,0.5-4.5,0.9-6.6c0.3-0.2,0.3-0.2,0.6-0.2c0.1,4,0.1,7.9,0.1,12.3
		C75.6,237.2,75.6,239.6,75.6,242z"/>
	<path class="st12" d="M71.9,239.5c3.3-0.4,2.4,2.6,2.5,3.8c0.3,7.8,0.2,15.7,0.2,23.6c0,1.5-0.8,2.1-2.4,2
		C71.9,259.2,71.9,249.5,71.9,239.5z"/>
	<path class="st7" d="M72.4,271.8c0.6-0.4,1.2-0.6,2-0.8c0.2,0.6,0.2,1.1,0.2,1.9C73.8,272.8,73.1,272.4,72.4,271.8z"/>
	<path class="st4" d="M122.6,187.3c-0.4,0.7-0.9,1.5-1.6,1.9c-0.7,0.3-1.6,0.3-2.4,0.4c0-0.8-0.3-1.8,0.1-2.4
		c0.3-0.5,1.4-0.6,2.1-0.6C121.3,186.5,121.9,186.9,122.6,187.3z"/>
	<path class="st4" d="M197.6,259.9c0.1-0.2,0.2-0.4,0.4-0.5c0,0,0.1,0.1,0.2,0.2C198,259.7,197.8,259.9,197.6,259.9z"/>
	<path class="st4" d="M83.3,199.6c1.5-2.1,2.2-4.2,2.1-6.7c0-0.8,1-1.7,1.5-2.5c0.6,0.9,1.5,1.8,1.6,2.7c0.1,1.9-1.4,4,0.9,5.6
		c0.1,0.1-0.7,2.1-1.4,2.4c-2.1,0.7-4.3,1-7,1.5C81.9,201.5,82.6,200.6,83.3,199.6z"/>
	<path class="st4" d="M76.3,208c-0.1-0.8,0-1.6,0.2-2.5C76.6,206.2,76.6,207.1,76.3,208z"/>
	<path class="st1" d="M188.4,304.2c0.5-0.7,1-1.2,1.6-1.7c0.3,0.5,0.5,1,0.8,1.5C190,304.1,189.2,304.2,188.4,304.2z"/>
	<path class="st7" d="M75.8,241.8c-0.2-2.2-0.2-4.6-0.2-7.2c0.4,0.2,1,0.6,1,1C76.5,237.7,76.2,239.7,75.8,241.8z"/>
	<path class="st7" d="M74.7,271c0.1-0.3,0.3-0.7,0.7-1.1C75.3,270.3,75.1,270.7,74.7,271z"/>
	<path class="st9" d="M592.3,156.5c-0.4-0.6-0.9-1-1.4-1.3c-1.5-1.4-3.8-1.8-5.8-2.4c-2.5-0.7-5.6,0.9-6.2,3.5
		c-0.5,2.2,0.4,4.5,2.3,5.6c0.2,0.1,0.4,0.3,0.6,0.4c0.6,0.3,1.2,0.6,1.8,0.8c0.2,0.6,0.3,1.2,0.4,1.9c0.4,2.4,3.3,3.9,5.5,3.6
		c2.6-0.3,4.2-2.4,4.3-4.9C593.9,161.3,593.8,158.5,592.3,156.5z"/>
	<path class="st9" d="M659.1,299.9c-0.1-27.9-0.1-55.8-0.1-83.7c0-4.3-0.2-8.5-2.5-12.4c-1.5-2.6-3.5-4.2-6.5-4.3
		c-3.6-0.1-7.3,0-11,0c-4.5,0-7.3,2.6-7.4,7.2c-0.2,11.2-0.4,22.4-0.5,33.6c-0.1,9.5,0,18.9-0.1,28.3c0,0.8-0.7,1.7-1.1,2.5
		c-0.9-0.8-2-1.4-2.5-2.4c-0.4-0.9-0.1-2.1-0.1-3.2c0-23.4,0-46.8-0.1-70.2c0-3.2-0.9-6.5-1.7-9.6c-1-3.9-4-5.8-7.7-6
		c-4.2-0.2-8.4,0-12.6,0.4c-3.1,0.3-4.3,1.8-4.8,5c-0.2,1.1-0.5,2.2-0.9,3.7c-0.2,0.8-0.2,1.2-0.2,1.6v70c-3.9,1-4.8,0.4-4.8-3.3
		v-11.8c-0.1-1.2-0.1-2.5-0.1-4.3c0.1-1.8,0.1-3,0.1-4.3c-0.1-1.2-0.1-2.5-0.1-4.3c0.1-1.8,0.1-3,0.1-4.3c-0.1-1.2-0.1-2.5-0.1-4.3
		c0.1-1.8,0.1-3,0.1-4.3c-0.1-1.3-0.1-2.6-0.1-4.4c0.1-2.1,0.1-3.7,0.1-5.3c0-12.3,0-24.7-0.1-37c0-2.3-0.2-4.6-0.2-7.3
		c0.1-1.4,0.1-2.4,0.1-3.5c-0.5-1-1-2-1.5-3.2c0-0.2,0-0.2,0-0.2c-0.4-0.4-0.7-0.8-1.1-1.4c-0.1-0.2-0.1-0.4-0.1-0.5
		c-0.5-0.5-1.1-1-1.6-1.6c0-0.2,0-0.2-0.2-0.3c-1-0.4-1.7-0.7-2.5-1.1c-0.8-0.3-1.6-0.5-2.8-0.9c-2.2-0.2-4-0.2-5.8-0.2
		c-1.6,0.1-3.1,0.2-4.9,0.2c-0.6-0.2-0.9-0.2-1.1-0.2c-0.8,0.4-1.5,0.7-2.7,1.1c-1,0.5-1.6,1.1-2.2,1.6c-0.1,0.3-0.2,0.6-0.4,1
		c-2.6,32-0.5,64-1.2,95.9v2.2c0,0.2,0,0.3,0,0.5c-0.2,0.6-0.3,1.1-0.4,1.7c-0.4,0.5-1.3,0.4-3.1-0.1c0.1,0.2,0.2,0.4,0.3,0.6
		c-0.1,0-0.2,0-0.2,0c0,0,0,0,0,0c0,0-0.1-0.1-0.1-0.1c0-5.7,0-11.4,0-17.1c0-0.1,0-0.2,0-0.3c0.1-17.8,0.1-35.6,0-53.3
		c-0.1-4.4-0.2-9-3.9-12.7c-2.3-2.3-4.9-2.5-7.5-2.8c-3.1-0.3-6.3-0.4-9.4,0.1c-2.1,0.3-3.9,1.9-6,3.2c-0.4,0.8-0.6,1.4-0.8,2
		c-0.2,39.6-0.3,79.1-0.5,118.7c-0.1,0.5-0.2,1.1-0.1,1.7c0,0.5,0.1,1.1,0.1,1.6c0,1.9,0,3.7,0,5.6v1.1c0,3.8-0.8,5.3-3,5.3
		c-3.6,0.1-5.7-1.9-5.7-5.4v-2.6c0-6.9,0.1-13.9-0.1-20.8c-0.1-4.6-0.5-9.2-1-13.8c-0.1-1.7-1-3.2-1.6-5.2c-0.2-0.8-0.4-1.2-0.5-1.6
		c-0.7-0.7-1.5-1.5-2.4-2.5c-4.2-3.8-9.1-4.7-14.2-5.3c-0.3-0.2-0.7-0.3-1-0.4c-0.8-0.2-1.7-0.2-2.6,0c-2.2-0.1-3.3,1.1-3.8,2.9
		c-0.7,2.5-1.3,5.1-1.3,7.6c-0.1,21.5-0.1,43-0.1,64.5c0,3.2-0.1,6.5,0.6,9.6c1.7,7.7,3.2,15.6,6,22.9c3.2,8.6,8,16.5,14.3,23.3
		c0.6,0.5,1.2,1.1,1.9,1.6c2.9,0.8,5.5,2.7,7.9,4.4c1.3,0.9,2.1,2.1,2.4,3.5c0.9,0.6,1.7,1.3,2.6,1.9c1.4,0.9,2.6,1.6,3.7,2.3
		c1.6,0.6,3.4,0.9,4.7,1.9c0.8,0.5,1.2,2,1.2,3.1c0.1,4.1,0.1,4.1,4.2,4.1H621c1.1,0,2.1-0.2,3.4-0.4c0.4-1,0.5-1.9,0.7-3.3v-4.3
		c-0.7-2.5,1-3.6,2.8-4.7c2.2-1.3,4.3-2.9,6.8-4.5c1.5-1.1,2.6-2.1,3.8-3.1c1.2-1.6,2.3-3.3,3.6-4.8c1.5-1.8,2.9-3.6,4.2-5.5
		c0.3-0.3,0.6-0.5,0.9-0.8c1.3-1.3,2-2.9,2.5-4.6c2.7-4.8,4.9-10,6.4-15.4c1.2-4.4,2.1-8.8,3.3-13.5c0.2-0.5,0.2-0.8,0.2-1
		c0.2-2.8,0.5-5.5,0.9-8.7c0.2-1.8,0.2-3.2,0.2-4.7v-17.8C660.1,306.2,659.1,303,659.1,299.9z M602.4,259.1
		c-0.2-2.4-0.8-4.7-0.8-7.1c-0.1-11.9-0.1-23.9-0.1-35.8c0-1.4-0.5-2.7-0.3-4c0.2-1.5,0.7-3.1,1.6-4.3c1-1.4,2.6-2.4,4.5-4.1
		c-1.3-0.9-2.2-1.8-3.3-2.3c-1.9-0.8-1.7-1.7-0.6-3c1.1-1.2,2.1-2.6,3-4c0.4-0.5,0.5-1.6,0.2-2.2c-0.1-0.3-0.3-0.5-0.4-0.7
		c0.7,0.2,1.4,0.3,2.2,0.2c2.1,1.2,4,2.4,4.9,4.6c0,0.2,0,0.3,0,0.5c0.2,4,0.5,8.1,0.7,12.3c-1.2,1-1.9,2.6-1.6,4.2
		c-0.5,0.6-0.9,1.3-1,2.2c-0.4,2.2-0.8,4.4-1.2,6.6c-0.3,1.8,0.2,3.3,1.2,4.4c0,0.6,0,1.2,0.1,1.8c-3.1-0.5-7,2-6.2,6.2
		c1.1,5.7,1.8,11.5,2.2,17.3c-0.4,0.6-0.6,1.4-0.6,2.3c-0.6,1.2-0.6,2.6,0.4,4.1c0.2,1.2,0.4,2.4,0.7,3.5c0.6,2.2,2.3,3.3,4.2,3.5
		c0.6,0.9,1.2,1.8,1.8,2.7c-0.6,0.5-1.1,1-1.7,1.6c0-2.4-1.9-4.9-4.5-5.2c-0.8-1-2-1.6-3.5-1.5c-1.2,0-2.4,0-3.7-0.1
		c0.2-0.7,0.6-1.3,1.4-2C602.4,260.5,602.5,259.7,602.4,259.1z M567.4,195.4c0-9.4,0.3-18.9,0.5-28.4c0-0.6,0.4-1.2,0.8-1.9
		c0.4-0.9,0.5-1.6,0.7-2.6c0-1.7-0.1-3.1,0-4.5c0.1-0.9,0.3-2.2,0.8-2.4c0.8-0.3,2,0,2.9,0.4c0.8,0.3,1.4,1.1,2.2,1.8
		c2.5,0.1,4.9-0.1,4.6,3.4c0,0.3,0.3,0.7,0.6,0.8c1.9,0.7,3.8,1.3,6,1.9c1-0.8,1.8-1.6,3-2.8c0.4,2.2,0.7,3.7,1,5.3
		c0,0.2,0.3,0.2,0.4,0.2c2.7,0.5,1.5,2.5,1.8,4.1v82.4c0,1.5,0.5,3.6-1.2,3.8c0-2.4-0.1-4.7-0.2-7.1c-0.1-1.6-0.7-2.8-1.6-3.6
		c0.2-8.6,0.4-17.4-1-25.7c-0.2-1.3-0.8-2.2-1.6-2.8c0-4.4,0.2-8.8-0.1-13.2c-0.1-2.5-1.2-4.9-1.8-7.4c-0.2-0.9-0.5-2.4,0-2.7
		c2.3-1.8,1.6-3.7,0.2-5.3c-1.4-1.7-0.9-2.7,0.2-4.2c0.9-1.3,1.2-3.2,1.5-4.8c0.2-1.4,0.2-2.9-0.1-4.3c-0.3-1.5-1.2-2.8-1.9-4.1
		c-0.4-0.8-1-1.6-1.3-2.5c-0.9-2.9-2.2-3.8-4.6-3c-2.3,0.8-2.8,3-2.6,5.4c0.3,3,2.8,5.6,1.4,8.8c-0.2,0.5-0.2,1.2-0.6,1.4
		c-2,1.3-4,2.4-6.7,4c-0.5-2.9-1.1-5.4-1.3-7.9c-0.3-4-0.2-8-0.6-12.2c-0.5,0.4-0.9,1.1-0.9,1.7c-0.2,9.4-0.4,18.9-0.5,28.4
		c0,3.4,0,6.9,0,10.3C567.4,202.6,567.4,199,567.4,195.4z M637.7,381.3c-0.1,0-0.2,0-0.3,0.1c-0.3-0.7-0.8-1.2-1.4-1.7
		c0.5,0,0.9,0,1.5-0.2c0.8-0.2,1.5-0.4,2.3-0.6C639,379.7,638.5,380.4,637.7,381.3z M648.7,318.1c-0.5,0.7-0.9,1.6-1,2.5
		c-0.9,1.1-1.4,2.5-0.9,4.3c0.5,1.8,0.7,3.6,0.8,5.4c0.1,1,0.3,2.7,0.3,3.9c-0.8,1.5-0.5,3.2,0.3,4.7c-0.2,0.7-0.2,1.4-0.1,2.1
		c-0.2,1.1-0.7,2.1-1,3.1c-0.1,0.4-0.3,0.8-0.4,1.2c-0.3,0.2-0.6,0.4-0.9,0.7c-1.8,1.9-1.8,4.4-0.5,6.4c0,0.4,0,0.9,0.1,1.4
		c-0.1-0.4-0.1,0.3-0.2,0.5c-0.2,0.6-0.4,1.2-0.6,1.8c-0.2,0.6-0.5,1.2-0.7,1.8c0,0,0,0,0,0c-0.6,0.7-1,1.6-1.2,2.5
		c-1.5,0.7-2.6,2.1-2.5,4.3c0,1.2,0.3,3-0.6,3.8c-1.1,1-3.5,1.1-4.9,1.5c-4.7,1.2-4.4,6.9-1.3,9c-0.1,0-0.2,0-0.3,0
		c-5,0-6.1,6.1-3.3,8.8c-0.2,0.3-0.5,0.7-0.8,1.1c-0.6,1.1-1.3,2.5-2.3,2.9c-4.2,1.9-3.6,5.7-3.8,9.1c-0.3,4.2-0.5,4.7-4.5,4.7
		c-8.1,0.1-16.1,0.2-24.2,0.2c-7.3,0-14.6-0.2-21.9-0.2c-7.4,0-14.7,0.2-22,0.2c-1.4,0-2.9-0.2-4.2-0.7c-2.3-0.9-1.3-2.9-1-4.6
		c0.1-0.5,0.5-0.9,1-1.9c-1.6-0.3-2.9-0.4-4.2-0.8c-1.3-0.4-2.6-0.9-3.8-1.6c-1.1-0.7-2.1-1.6-2.9-2.6c-0.5-0.6-1.1-1.6-1.1-2.4
		c0-2.6-0.9-3.6-3.8-2.4c0.1-1,0.2-1.7,0.2-2.3c-0.1-1.8-0.5-3.1-2.6-3.8c-1.7-0.5-3.4-1.6-4.5-2.9c-2.3-2.8-2.6-3-6.1-0.5
		c-0.7-1.6-1.4-3.1-2.2-4.6c-2.4-4.5-2.6-5,1.3-7c1.4,2.6,5.2,3.9,7.7,1.6c0.7,0.1,1.4,0.1,2.1-0.1c0.9-0.1,1.8-0.4,2.7-0.8
		c1.9-1,3.3-3.2,4.9-4.7c1.3-1.1,2.5-2.2,3.8-3.3c0.8-0.3,1.6-0.5,2.3-0.8c4.5-1.4,9.3-2.1,14-2.9c0.5,0.6,1.1,1.1,1.8,1.5
		c-0.3,1-0.4,2.1-0.2,3.2c0.3,2.1,1.3,4.3,3.7,4.8c0.5,0.1,0.9,0.2,1.4,0.2c-1.4,1.4-2.8,2.8-4,4.3c-4,4.9,2.2,11.4,7.1,7.1
		c1.5-1.3,3-2.6,4.6-3.9c0.5,0.5,1.1,0.9,1.7,1.2c0.2,0.1,0.4,0.3,0.6,0.4c0,0.2-0.1,0.3-0.1,0.5c-0.8,3.1,1.4,5.5,3.9,6.1
		c-1.2,6.2,7.6,8.6,9.7,2.5c0.5-1.6,1.1-3.2,1.7-4.7c0.5-0.3,1-0.7,1.5-1c-0.2,1.7-0.3,3.3-0.2,5c-0.7,1.3-0.7,2.9-0.1,4.2
		c-0.5,1.1-0.7,2.3-0.4,3.5c0.3,1.2,1.2,2.4,2.3,3c1.2,0.6,2.6,0.9,3.9,0.5c0.4-0.2,0.8-0.3,1.2-0.5c0,0,0.1-0.1,0.1-0.1
		c0.9,0.1,1.8,0.1,2.7-0.3c1.4-0.6,2.2-1.6,2.7-2.9c0.3-0.2,0.6-0.4,0.8-0.7c1.7,4.4,9.2,2.4,9.5-2.5c0.4-5.8,0.6-11.7,0.6-17.5
		c0-2.3-1.2-3.7-2.8-4.4c-1.4-1.6-3.7-2.1-5.7-1.3c0.2-0.6,0.5-1.2,0.8-1.7c0.2-0.4,0.3-0.8,0.4-1.2c0.1,0,0.1-0.1,0.2-0.1
		c4.5-2.9,1.8-10.7-3.6-9.2c-0.2-2.9-2.9-5.9-6.3-5c-1.4,0.4-2.9,0.7-4.3,1.1c2-2.9-0.5-8.3-5.1-8c-0.4-2.3-2.1-4.4-4.8-4.4
		c-0.9,0-1.7,0-2.6,0c-0.6-1-1.5-1.7-2.9-2c-1.8-0.4-3.7-0.8-5.5-1.2c0.3-0.5,0.5-1.1,0.7-1.7c0.5-2.1-0.3-4.4-2.2-5.6
		c0-0.1,0-0.2,0-0.2c3.7-0.1,7.3-0.1,10.9-0.5c4.6-0.5,7.3-6.7,2.5-9.3c-2.5-1.4-5.1-2.4-7.9-3.4c0,0,0.1-0.1,0.1-0.1
		c3.2-0.3,6.3-0.8,9.4-1.6c3.9-0.9,5-6.7,1.6-8.9c0.1-0.2,0.2-0.3,0.3-0.5c1,0,1.9,0,2.9,0c3.7,0.1,5.5-3.8,4.7-6.7
		c0.8,0.2,1.7,0.2,2.5-0.1c5.4-1.8,9.9-6.3,12.6-11.3c0.3-0.6,0.5-1.3,0.6-1.9c0.3,0,0.5,0.1,0.8,0.1c0.2,0,0.3,0,0.5,0.1
		c-0.5,3.6,0.1,7,3.7,8.2c3.3,1.1,8.3-0.4,11.6-0.8c0.2,0,0.5-0.1,0.7-0.1c1.4,1.6,3.3,2.8,5.6,3.7c3.6,1.4,6.1-1.9,6.1-5.1l0.6-0.1
		c1.2-0.1,2.2-0.5,2.9-1.1c2.1,1.2,4.9,1,6.3-1.1c-0.1,0.6-0.1,1.1-0.2,1.7c-0.3,2.6,1.2,4.1,3.1,4.6c0,1-0.1,2-0.1,3
		c-0.1,1,0.1,1.9,0.5,2.6c0,0.5,0,1,0.1,1.5c0.6,3.5,0,7.2,0.4,10.8c0,0.3,0.1,0.7,0.2,1c-0.5,0.8-0.8,1.7-0.7,2.7
		C648.7,314.4,648.9,316.5,648.7,318.1z"/>
	<path class="st9" d="M625,392.9c-0.2-0.7-0.5-1.2-0.9-1.7c-0.4-0.5-0.8-1-1.4-1.3c-0.6-0.4-1.2-0.6-1.9-0.6c-0.7-0.1-1.3-0.1-2,0.1
		c-0.4,0.2-0.8,0.3-1.2,0.5c-0.8,0.4-1.3,1-1.8,1.8c-0.2,0.4-0.3,0.8-0.5,1.2c0,0.2-0.1,0.3-0.1,0.5c-0.3,0.4-0.6,0.8-0.7,1.2
		c-0.3,0.6-0.5,1.2-0.4,1.9c0,0.7,0.1,1.3,0.4,1.9c0.2,0.6,0.5,1.2,1,1.6c0.3,0.3,0.7,0.5,1,0.8c0.8,0.5,1.6,0.7,2.5,0.7
		c0.4-0.1,0.9-0.1,1.3-0.2c0.8-0.2,1.6-0.7,2.2-1.3c0,0,0.1-0.1,0.1-0.1c0.5-0.5,0.8-1,1-1.6c0.1-0.1,0.1-0.3,0.2-0.4c0,0,0,0,0,0
		c0.1-0.2,0.3-0.4,0.4-0.5c0,0,0-0.1,0.1-0.1c0,0,0,0,0-0.1l0.5-1.2c0,0,0-0.1,0-0.1C625.3,394.9,625.3,393.9,625,392.9z"/>
</g>
<g id="Layer_2">
</g>
</svg>
