<?xml version="1.0" encoding="utf-8"?>
<!-- Generator: Adobe Illustrator 24.1.2, SVG Export Plug-In . SVG Version: 6.00 Build 0)  -->
<svg version="1.1" id="Layer_1" xmlns="http://www.w3.org/2000/svg" xmlns:xlink="http://www.w3.org/1999/xlink" x="0px" y="0px"
	 viewBox="0 0 600 600" style="enable-background:new 0 0 600 600;" xml:space="preserve">
<style type="text/css">
	.st0{fill:#F0C7B1;}
	.st1{fill:#D19271;}
	.st2{fill:#C27B55;}
	.st3{fill:#CA2B2B;}
	.st4{fill:#AB0202;}
	.st5{fill:#D94444;}
	.st6{fill:#E1AC8F;}
	.st7{fill:#DA7C87;}
	.st8{fill:#FFFFFF;}
	.st9{fill:#73542A;}
	.st10{fill:#6C4C22;}
	.st11{fill:#7B5C33;}
	.st12{fill:#5C3D14;}
	.st13{fill:#2A232B;}
	.st14{fill:#1B141C;}
	.st15{display:none;opacity:0.5;fill:#ECF0F1;enable-background:new    ;}
</style>
<g id="svga-group-backs-single">
</g>
<g id="svga-group-hair-back-move" transform="matrix(1,0,0,1,0,0)">
	<g id="svga-group-hair-back" transform="matrix(1.0400003000000002,0,0,1.0002003000000002,0,0)">
	</g>
</g>
<g id="svga-group-humanbody-back">
	<path id="SvgjsPath13139" class="st0" d="M530.2,544.1c-6.6-9.7-110.9-50.7-110.9-50.7l-38.2-14.8l-16-196.1H233.8l-15.7,196.4
		L180,493.7c0,0-104,41-110.9,50.7c-6.6,9.7-9.4,42.5-9.4,42.5v54.4h480.2v-54.7C539.6,586.9,537.1,553.8,530.2,544.1L530.2,544.1z"
		/>
</g>
<g id="svga-group-chinshadow-single">
	<path id="SvgjsPath13461" class="st1" d="M259.2,465.7c8.4,7.1,41,6.7,50.3,1c9.1-5.6,24.4-21.4,65.3-67.3l-9.5-116.8H233.9
		l-11.5,145.2C240.2,447.4,253.8,461.2,259.2,465.7z"/>
</g>
<g id="svga-group-humanbody-front">
	<path id="SvgjsPath13140" class="st2" d="M540.8,641.3c-0.3-18.2-0.3-36.5-0.3-54.7l-0.9-0.3c0,0,0.3-0.3,0.6,0
		c0.3,0,0.3,0.3,0.3,0.3v-1.1l-0.3-1.4l-0.3-2.6l-0.6-5.4c-0.6-3.7-1.1-7.1-1.7-10.8c-0.6-3.7-1.4-7.1-2.6-10.8
		c-1.1-3.4-2.3-7.1-4.3-10.3c-2.3-2.6-5.4-4.3-8.3-6c-2.9-1.7-6-3.1-9.1-4.8c-6-3.1-12.3-6-18.5-8.8c-12.5-5.7-24.8-11.1-37.3-16.2
		c-12.5-5.4-25.1-10.5-37.6-15.7l-37-14.8l-3.4-48.2c-1.1-16.2-2.6-32.8-3.7-49l-3.7-49l-4.3-49.3l-0.3-2.3h-2.3
		c-21.9,0-43.9,0.3-65.8,0.3l-65.8,0.6h-1.4v1.4l-3.4,49l-3.7,49c-2.3,32.5-5.1,65-8,97.5c-16,6-31.9,12-47.6,18.2
		c-16,6.3-31.9,12.8-47.9,19.7c-8,3.4-16,6.8-23.7,10.3c-8,3.7-15.7,7.1-23.4,11.7c-2,1.1-3.7,2.3-5.7,4c-0.6,0.3-1.1,1.1-1.4,1.7
		l-0.9,1.7c-0.6,1.1-1.1,2-1.4,3.1c-1.7,4.3-2.8,8.6-3.7,12.8c-1.7,8.5-3.1,17.1-4,25.9l-0.3,54.4v2.6h2.6l120,0.3H300
		c39.9,0,80.1-0.3,120-0.6l120-1.4h0.9L540.8,641.3L540.8,641.3z M300,638.5l-120-0.3l-117.4,0.3l-0.3-51.6
		c0.9-8.5,1.7-16.8,3.4-25.4c0.9-4,1.7-8.3,3.1-12c0.3-0.9,0.9-2,1.1-2.6l0.6-1.1l0.9-0.9c1.4-1.1,3.1-2.3,5.1-3.4
		c7.1-4.3,15.1-8,22.8-11.7s15.7-7.1,23.4-10.5c15.7-6.8,31.6-13.7,47.6-20.2c16-6.6,31.9-12.8,48.2-19.1l0.6-0.3v-0.6
		c2.6-32.8,4.8-65.5,7.7-98l4-49l4.3-47.6l64.4,0.6c21.1,0.3,42.2,0.3,63.6,0.3l3.7,46.7l4.3,49c1.4,16.2,2.9,32.8,4.3,49l4.6,49
		v0.9l0.9,0.3l38.2,14.3c12.5,4.8,25.4,9.7,37.9,14.8c12.5,5.1,25.1,10.5,37.6,16c6.3,2.9,12.3,5.7,18.5,8.6c3.1,1.4,6,3.1,9.1,4.6
		c2.9,1.7,6,3.4,8.3,5.7c2,3.1,3.1,6.6,4,10s1.7,7.1,2.3,10.5c0.6,3.7,1.1,7.1,1.7,10.8l0.6,5.4l0.3,2.6l0.3,1.4v1.1
		c0,18,0,35.9-0.3,53.9l-119.1-1.4C380,638.8,339.9,638.5,300,638.5L300,638.5z"/>
	<path id="SvgjsPath13141" class="st1" d="M371.5,423c0,0-5.1,65.5-25.9,93.8C345.6,516.8,368.1,445.5,371.5,423z M273.2,468.6
		c0,0,14.3,22.5,32.8,28.8C305.9,497.4,278.9,503.7,273.2,468.6z M224.1,416.2c19.1,73,19.1,73,24.2,87.5
		C248.4,503.7,249.5,467.8,224.1,416.2z"/>
</g>
<g id="svga-group-clothes-single">
	<path id="SvgjsPath15291" class="st3" d="M214.2,445l-5.1,2.6c0,0-4,8.3-6.8,14.5c-2.9,6.3-13.4,16.8-13.4,16.8s-1.7,6.3-1.7,8.3
		c0,0-35.1,12-45.3,16c-10.3,4-54.7,18-60.7,18.2s-14.5,5.1-14.5,5.1s-8.5,4.8-11.1,12.8c-2.8,8-7.4,98-7.4,104.9h501.3
		c0,0-5.1-92.3-10-99.5c-1.7-2.6-0.6-7.4-16.8-14.5s-48.4-20-59.3-24.2c-10.8-4.3-55-20.5-55-20.5s-0.6-6.6-6.6-9.7
		s-15.1-27.9-15.1-27.9l-3.7-3.7c0,0,1.1,14.5,0.6,27.4c-0.6,12.8-13.4,33.3-22.5,39.3s-25.6,16.2-32.2,18.8s-8,9.7-10.8,16.8
		s-7.4,16.8-7.4,16.8s-10.3-12.8-15.1-21.7c-4.8-9.1-11.4-15.7-23.7-14.5c-12,1.1-15.7-2.6-19.9-4.8c-4.3-2.6-30.2-43-33.9-53.3
		C214.7,458.6,214.2,445,214.2,445L214.2,445z"/>
	<path id="SvgjsPath15292" class="st4" d="M551.6,644.2c-1.1-19.7-2.3-39.3-3.7-59c-0.9-10-1.7-19.7-3.1-29.6
		c-0.3-2.6-0.9-4.8-1.4-7.4c-0.3-1.4-0.6-2.6-1.4-4.3l-0.3-0.6l-0.3-0.6l-0.9-1.7c-1.4-2.8-3.4-4.8-5.4-6.6
		c-2.3-1.7-4.3-2.8-6.6-4.3c-4.6-2.6-9.1-4-13.7-6l-13.7-5.7L473.7,507c-17.7-7.1-45-15.4-62.4-23.7c-0.3-1.7-1.1-3.1-2-4.6
		c-1.1-2-2.9-3.7-4.8-4.8l-0.9-0.3c-0.3-0.3-0.6-0.3-0.6-0.3c-0.3-0.3-0.3-0.3-0.6-0.3c-0.6-0.6-0.9-0.9-1.4-1.7
		c-1.1-1.1-2-2.8-2.9-4.3c-3.4-6.3-6.3-13.1-8.8-19.7l-0.3-0.6l-0.3-0.3l-3.7-3.7l-5.4-5.4l0.6,8c0.6,6.6,0.9,13.1,0.9,19.7v7.4
		l-0.3,2.3c-0.6,2.9-1.4,6-2.6,8.8c-2.3,6-5.7,11.7-9.4,16.8c-2,2.6-4,5.1-6.3,7.1c-1.1,1.1-2.3,2-3.4,2.9s-2.6,1.7-4,2.3
		c-11.7,6-14,10.8-26.2,15.7c-1.7,0.6-3.7,1.7-5.1,3.1c-1.4,1.4-2.6,3.1-3.4,4.6c-1.7,3.1-2.6,6.6-3.7,9.4l-2.6,6
		c-1.4,2.8-2.6,5.7-4,8.5c-3.4-4.6-7.1-9.1-10.3-14c-0.9-1.4-1.7-2.9-2.6-4.6s-2-3.1-3.1-4.8c-2.3-3.1-5.1-6-8.5-7.7
		c-3.4-2-7.4-2.6-11.4-2.6c-1.4,0.3-10,0.3-21.9-4.8c-1.4-0.6-4.3-5.4-6.6-8.3c-2-2.9-4.3-6-6.3-8.8c-4-6-8-12-11.7-18.2
		c-2-3.1-3.7-6.3-5.4-9.4s-3.1-6-4-9.7c0.3-4.6,1.1-13.1,1.4-16.2c0,0,0.3-6.3,0.3-6.8c-3.4-0.3-9.1,3.1-11.1,4l-4.3,8.6
		c-1.4,2.8-2.6,5.7-4.3,8.3c-1.7,2.6-3.7,5.1-5.7,7.4s-4.3,4.6-6.6,6.8l-0.3,0.3v0.3c-0.3,1.4-0.6,2.9-1.1,4
		c-0.3,1.1-0.6,2.3-0.6,3.7c-9.1,4-26.8,7.7-35.9,11.7s-18.8,6.8-28.5,10c-9.7,2.9-19.4,6-28.8,8.5c-2.6,0.6-4.8,1.4-7.1,2l-3.4,0.9
		c-0.6,0-0.9,0.3-1.7,0.3c-0.6,0-1.4,0.3-2,0.3c-2.6,0.6-5.1,1.4-7.7,2.3l-3.4,1.7l-1.7,0.9c-0.9,0.3-1.1,0.9-1.7,1.1
		c-4.3,3.1-8.3,7.1-10.3,12.5c-0.6,1.4-0.9,2.9-0.9,4l-0.6,3.7l-0.9,7.7c-0.9,10-1.7,20.2-2.3,30.2l-2,30.2
		c-0.6,10.3-1.1,20-1.4,30.2v2.6h2.6l62.7-0.3l62.7-0.6l62.7-0.6l62.7-0.3c20.8-0.3,41.9,0,62.7,0c20.8,0,41.9,0,62.7,0.3l125.4,0.9
		h2.3L551.6,644.2L551.6,644.2z M357.2,516.2c1.4-0.9,3.1-1.7,4.6-2.6c1.4-0.9,3.1-2,4.3-3.4c2.6-2.6,4.8-5.1,6.8-8
		c4-5.4,7.4-11.4,10.3-18c1.1-3.1,2.3-6.6,2.8-10.3l0.3-2.9v-7.7c0-2.9,0-5.7-0.3-8.6c2,4.8,4,9.4,6.6,14c0.9,1.7,2,3.4,3.1,5.1
		c0.6,0.9,1.4,1.7,2.3,2.6c0.3,0.3,1.1,0.9,1.7,1.1l1.1,0.6c1.1,0.9,2,1.7,2.9,2.8c0.6,1.1,1.1,2.9,1.4,4l0.3,1.7v0.3
		c1.4,7.7,3.1,15.1,4.8,22.8c1.7,7.4,4,15.1,6.3,22.5l6.6,22.2l3.1,11.1c0.6,2.3,1.4,4.8,2,7.1c-4-0.9-7.7-2-11.1-4
		c-2.3-1.4-4-2.8-6.6-4.8c-2.3-1.7-4.6-3.7-7.1-5.1c-4.8-3.4-10-6.3-15.4-8.6l-4-1.7c-1.1-0.6-2.6-1.1-3.7-1.7
		c-2.3-1.4-4.6-2.9-6.8-4.6c-2.3-1.7-4.3-3.4-6.3-5.4c-0.9-1.1-2-2-2.6-3.1c-0.6-0.6-0.9-1.1-1.1-1.7l-0.6-0.9l-0.9-1.1
		c-4.3-4.8-10.3-7.1-16-8c-0.9-0.3-2-0.3-2.8-0.3C348.4,520.2,353,518.2,357.2,516.2L357.2,516.2z M320.8,545.9
		c2.6-6.3,1.4-13.1,19.7-21.4c2.6-0.3,4,0,6.6,0.6c5.1,1.1,10,3.7,12.8,7.7l0.6,0.6l0.6,0.9c0.3,0.3,0.6,0.9,0.9,1.1
		c0,0-5.1,4.6-16.8,9.1c-4.8,1.4-9.4,2.6-14.3,4c-4.3,0.9-8.3,2-12.5,2.6L320.8,545.9L320.8,545.9z M307.9,563.2
		c-3.4,5.4-7.1,11.1-11.4,16l-1.1,1.1c-4.8-9.7-14.5-25.4-17.7-30.5c1.4,0.3,2.6,0.3,4,0.3c5.4,0.3,10.8,0.3,16.2-0.3
		C301.4,554.4,304.5,559,307.9,563.2z M274.3,528.8c3.4,0,6.6,0.6,9.4,2.3s5.1,4,7.1,6.8c0.9,1.4,2,2.9,2.6,4.6
		c0.9,1.7,1.7,3.1,2.8,4.8l1.7,2.6c-5.4-0.3-10.8-0.9-16-1.7c-5.7-0.9-11.4-1.7-17.1-2.9c-5.7-1.1-18.8-6.3-23.9-7.7
		c1.4-1.7,2.9-3.1,4.3-4.8c1.7-2.3,3.1-4,5.1-4.8c2-0.9,4.6-0.9,6.8-0.9C257.5,527,272.6,528.8,274.3,528.8L274.3,528.8z
		 M189.9,479.5c2.3-2.3,4.3-4.6,6.3-6.8c2-2.6,4-4.8,5.7-7.7c1.7-2.9,2.6-5.7,4-8.5l3.7-8.5c1.4-0.9,2.8-1.7,4.6-2.6v2.3l0.3,2.6
		c0.3,1.7,0.3,3.7,0.6,5.4c0.6,3.7,1.1,7.1,2,10.8c0.9,3.4,2.6,6.8,4.3,10.3c1.7,3.1,3.4,6.3,5.1,9.7c3.7,6.3,7.4,12.5,11.1,18.5
		c2,3.1,4,6,6,9.1c2.3,3.1,4,6,6.8,8.8c0.9,0.9,1.7,1.4,2.6,1.7c0,0,0.3,0,0.3,0.3c-1.4,0-2.6,0.3-4,0.6c-1.4,0.6-2.6,1.4-3.7,2.3
		c-1.1,1.1-1.7,2-2.6,2.8l-5.4,5.4c-3.7,3.7-7.4,7.1-11.1,10.5c-3.7,3.4-7.7,6.8-11.4,10.3c-3.7,3.1-8,6-12.3,8.8
		c-7.1,4.6-14.5,8.8-21.9,12.8c1.4-15.7,2.9-31.3,4-47l2-25.9c0.6-5.7,0.9-11.1,1.4-16.8l0.6-0.3v-0.6c0-1.1,0.3-2.6,0.6-4
		C189.4,482,189.7,480.6,189.9,479.5L189.9,479.5z M173.4,642.5l-62.7-0.6l-60.1-0.3c0.9-19.1,1.7-38.5,2.8-57.6
		c0.6-10,1.1-20.2,2.3-30.2c0.3-2.6,0.6-5.1,0.9-7.4l0.6-3.7c0-0.6,0.3-1.1,0.3-1.7c0.3-0.6,0.3-1.1,0.3-1.7c1.4-4,4.8-7.7,8.8-10.3
		c0.6-0.3,1.1-0.6,1.4-0.9l1.7-0.9c1.1-0.6,2.3-1.1,3.4-1.4c2.3-0.9,4.6-1.7,6.8-2.3c0.6,0,1.1-0.3,1.7-0.3l2-0.3
		c1.4-0.3,2.6-0.6,3.7-0.9c2.6-0.6,4.8-1.4,7.4-2c9.7-2.8,19.4-6,28.8-9.1s19.4-6.3,28.5-10.5c8.8-4,26.2-8,35.1-12
		c-0.9,5.4-1.7,10.5-2.6,16c-1.4,8.5-2.8,17.4-3.7,25.9c-2.3,17.4-4,34.8-6,52.2l-0.6,5.1l4.6-2.3c9.4-4.6,18.2-9.7,27.1-15.4
		c4.3-2.9,8.6-6,12.5-9.7c3.7-3.4,7.7-7.1,11.1-10.8c3.7-3.7,7.4-7.4,10.8-11.1l0.9-0.9c10.3,4.8,12.5,8,23.4,10.3
		c3.4,0.6,6.8,1.1,10,1.7l-0.3,0.3c0.3,0.3,13.7,21.9,19.1,33.1c-0.3,0.3-0.6,0.6-0.6,1.1c-1.1,2-1.7,4.3-2,6.3
		c-0.3,4,0.3,7.7,0.6,11.1l1.4,10.5l1.1,10.5c0.6,6.8,1.4,14,2.6,20.8l-60.4-0.3L173.4,642.5L173.4,642.5z M296.8,643.3
		c0.6-7.1,0.6-14,0.6-21.1c0.3-7.1,0-14.5-0.9-21.7c-0.3-3.4-0.6-7.1-0.3-10.3c0.3-1.4,0.6-2.9,1.1-4c0.3-0.6,0.9-1.1,1.1-1.7
		l0.9-0.9l1.1-1.1c2.6-2.8,4.8-6,6.8-8.8c2-3.1,3.7-6.3,5.7-9.4V564l2.6-6.8l2.6-5.7c4.3,0.3,8.8-0.3,13.1-0.9
		c2.3-0.3,4.3-0.9,6.3-1.1c-4.3,7.4-18.5,31.6-22.2,36.8c-3.7,5.1-3.1,9.4-2.6,14.3c0,1.1,0.3,2.3,0.3,3.7c0.3,6,2.3,32.8,2.8,38.8
		h-17.4L296.8,643.3z M361.5,643.3H319c-0.6-5.7-2.6-33.1-2.9-39c0-1.4-0.3-2.6-0.3-3.7c-0.6-4.8-0.9-8.3,2.3-12.5
		c4.3-6,18-29.9,18.8-31.1l4.6-8c2.9-1.1,5.1-2.3,9.7-4.3c6.3-3.4,8-5.1,11.1-8.5c0,0.3,0.3,0.3,0.3,0.3c0.9,1.1,2,2.3,2.9,3.4
		c2,2.3,4,4.3,6.3,6.3s4.6,3.7,7.4,5.1c1.1,0.9,2.6,1.4,4,2l4,1.7c5.1,2.3,9.7,5.1,14.3,8.3c2.3,1.7,4.6,3.1,6.6,5.1
		c2,1.7,4.6,4,7.1,5.4c5.4,3.1,11.1,4.8,17.4,5.4l3.7,0.3l-0.9-3.7c-0.9-4-2-7.7-3.1-11.4l-3.4-11.1l-7.1-22.2
		c-2.3-7.4-4.8-14.5-7.1-21.9c-2-6.8-4-13.7-5.7-20.2c8.3,4,26.8,8,35.1,11.7c4.6,2,8.8,4,13.7,6l13.7,5.7l27.4,11.1l13.7,5.4
		c4.6,2,9.1,3.4,13.4,5.7c4,2.3,8.3,4.8,10,8.3c0.3,0.6,0.3,0.9,0.6,1.7c0,0.3,0.3,0.6,0.6,1.1c0.3,0.3,0.6,0.9,0.6,0.9
		c0.3,0.3,0.6,1.7,0.9,2.8c0.6,2.3,0.9,4.6,1.4,7.1c1.4,9.7,2.3,19.4,3.1,29.1c1.7,18.8,3.1,37.6,4.3,56.7L423.9,643
		C403.4,643,382.3,643,361.5,643.3L361.5,643.3z M333.3,535.9c2.3,0,4.3,2,4.3,4.3s-2,4.3-4.3,4.3s-4.3-2-4.3-4.3
		S331,535.9,333.3,535.9z M304.5,588.3c2.3,0,4.3,2,4.3,4.3s-2,4.3-4.3,4.3s-4.3-2-4.3-4.3S302.2,588.3,304.5,588.3z M94.2,575.5
		c-0.6-3.4-1.4-7.4-2.6-10.8c-1.1-3.4-2.6-6.8-3.7-10.3c-2.8-6.6-5.7-13.1-8.8-19.7l3.4,10.3l3.4,10.3l3.4,10.3
		c1.1,3.4,1.7,6.8,2.3,10.3c1.1,7.1,1.7,14.2,2.6,21.4l1.1,10.8c0.6,3.4,0.9,7.1,1.4,10.8c0-7.1,0-14.5-0.6-21.7
		C95.6,589.7,95,582.6,94.2,575.5L94.2,575.5z M523.1,549.3c-1.4,1.7-2.6,3.7-3.7,5.4c-2.3,3.7-4.3,7.7-6.3,11.7
		c-4,8-7.4,16.2-10.3,24.5v0.6c-0.6,7.1-0.9,14.3-1.1,21.7c-0.3,7.1-0.6,14.2-0.6,21.7c1.1-7.1,2-14.3,2.6-21.4
		c0.9-7.1,1.4-14.3,2-21.4c3.1-8.3,6.3-16.2,9.7-24.5c1.7-4,3.4-8,5.4-12s4-8,7.1-10.8C526.2,545.9,524.5,547.6,523.1,549.3
		L523.1,549.3z"/>
	<path id="SvgjsPath15293" class="st5" d="M401.7,486c-0.3,12,2.3,24.2,4.8,35.9c0.9,3.7,12.8,39.3,12.5,39.3
		c0,0-19.4-16.5-23.1-18.8c-11.1-6.8-23.4-12.3-35.1-17.7c-0.9-0.3-1.4,0.9-0.6,1.1c20.8,11.4,44.2,23.1,61,40.2
		c0.3,0.3,1.1,0,1.1-0.6c-10.3-26.2-13.1-52.4-19.1-79.5C402.8,484.9,401.7,485.2,401.7,486L401.7,486z M526,537
		c-14.3-6.8-29.9-10.8-44.7-16.2c-18.8-6.8-47-15.1-65.3-23.4c-0.9-0.6-1.7,0.9-0.9,1.4c14.5,10,41.3,16.5,57.9,22.8
		c16.8,6.3,34.8,13.7,52.4,17.4C526.2,539,527.1,537.6,526,537L526,537z M519.1,543.6c-7.1,7.4-13.4,16.5-16,26.2
		c-0.3,0.6,0.9,1.1,1.1,0.6c4-9.7,8.5-18.2,16-25.6C520.5,543.9,519.7,543,519.1,543.6z M536.2,549.6c0-1.1-1.7-1.1-1.7,0
		c0.3,16.8,0.6,33.6,2.3,50.2c0,1.1,1.7,1.1,1.7,0C538.8,583.2,537.6,566.1,536.2,549.6z M237,523.1c-17.7,16.8-37,32.2-54.4,49
		c-0.6,0.6,0.3,2,1.1,1.4c20.5-13.4,38.5-31.1,55.6-48.4C240.1,523.9,238.1,521.9,237,523.1z"/>
</g>
<g id="svga-group-ears-left-move" transform="matrix(1,0,0,1,-3,0)">
	<g id="svga-group-ears-left">
		<path id="SvgjsPath14697" class="st0" d="M204.7,246.2c0,0-31.8-27.9-36.9-28.4c-4.4-0.4-15.3,22.8-20.1,37.5
			c-1.3,3.9-1,8.2,0.7,12c4.6,10.2,14.8,31.5,24,42.1c0,0,7.8,1.7,10.2,0.9c2.5-0.7,21.6-16.2,23.6-22.1
			C208.2,282.2,208.6,256,204.7,246.2L204.7,246.2z"/>
		<path id="SvgjsPath14698" class="st6" d="M207.5,257.1c0.5,3.7,0.8,7.5,0.9,11.3c0.1,3.8,0.2,7.6,0,11.3c-0.1,1.9-0.3,3.8-0.5,5.7
			c-0.1,1-0.3,1.9-0.6,2.9s-0.8,2-1.3,2.7c-2.1,3.2-4.6,5.6-7,8c-2.5,2.4-5.1,4.6-7.7,6.8c-1.3,1.1-2.7,2.1-4,3.2
			c-0.7,0.5-1.4,1-2.1,1.5l-1.1,0.7c-0.5,0.2-1,0.5-1.5,0.5c-1.9,0.2-3.5,0-5.2-0.3c-1.7-0.2-3.3-0.5-4.9-0.9l-0.4-0.1l-0.2-0.3
			c-4.1-5-7.5-10.5-10.7-16.1c-3.1-5.6-6-11.5-8.7-17.4l-4-8.9c-1.4-3-2-6.5-1.5-9.9c0.2-1.7,0.7-3.2,1.3-4.8c0.5-1.5,1.1-3,1.6-4.6
			c1.1-3,2.3-6,3.5-9c2.5-5.9,5-11.8,8.4-17.2c0.9-1.3,1.8-2.7,2.9-3.9c0.5-0.6,1.1-1.2,1.9-1.7c0.4-0.2,0.9-0.5,1.5-0.5
			c0.5,0,0.9,0.2,1.3,0.3c3,1.3,5.3,3.2,7.8,5c4.9,3.7,9.6,7.6,14.2,11.7c4.7,4,9.2,8.2,13.7,12.5
			C206.3,249.7,206.9,253.4,207.5,257.1L207.5,257.1z M175.8,223.8c-2.4-1.7-5-3.6-7.4-4.6c-0.3-0.1-0.6-0.2-0.7-0.2
			c-0.1,0-0.3,0.1-0.6,0.2c-0.5,0.3-1,0.7-1.5,1.3c-1,1-1.9,2.3-2.7,3.5c-3.3,5.1-6.2,10.7-8.9,16.4c-1.3,2.9-2.6,5.8-3.8,8.7
			c-0.6,1.5-1.1,3-1.7,4.5c-0.5,1.5-1.1,3-1.3,4.6c-0.4,3.2,0.2,6.5,1.6,9.3c1.3,2.9,2.8,5.8,4.2,8.7c2.9,5.8,6,11.4,9.3,16.8
			s6.7,10.8,10.7,15.4l-0.6-0.4c3.1,0.6,6.6,1.2,9.4,0.9c0.3,0,0.5-0.2,0.8-0.3l1-0.6l2-1.4c1.3-1,2.7-2,4-3.1
			c2.6-2.1,5.2-4.3,7.6-6.7c2.4-2.3,4.9-4.7,6.8-7.4c0.5-0.7,0.8-1.3,1.1-2.1c0.2-0.8,0.4-1.7,0.5-2.5c0.3-1.8,0.5-3.6,0.6-5.4
			c0.3-3.7,0.4-7.4,0.4-11.1s-0.1-7.5-0.4-11.2c-0.3-3.7-0.8-7.5-1.9-10.9C195.1,238.8,185.6,231,175.8,223.8L175.8,223.8z"/>
		<path id="SvgjsPath14699" class="st6" d="M205.5,269.9c0,0-30.6-38.7-36.4-35.5c-5.7,3.2-14.8,21.5-14.8,27.6
			c0.1,8.9,9.5,23.9,14.3,28.4s10.5,7.3,18.1,5.5C194.3,294.1,205.5,269.9,205.5,269.9L205.5,269.9z"/>
		<path id="SvgjsPath14700" class="st2" d="M182.1,269.8c-1.3-3.6-2.7-7.1-4.1-10.7c-1.4-3.5-3-7-4.7-10.4s-3.5-6.7-5.6-9.8
			l-0.2-0.3l-0.2,0.3c-2.1,3.4-4.1,6.8-6,10.3c-0.9,1.8-1.9,3.6-2.7,5.4c-0.9,1.8-1.6,3.7-2.4,5.6l-0.1,0.3l0.1,0.3
			c1.3,4,2.7,8,4.2,11.9c0.7,2,1.5,3.9,2.4,5.8s1.7,3.8,2.8,5.7l0.5,0.9l0.7-0.7c1-0.9,1.7-1.9,2.5-2.9c0.7-1.1,1.4-2.2,2-3.3
			c1.1-2.3,1.8-5.1,1.7-7.8v-0.2l-0.1-0.1c-1.4-2.8-2.9-5.6-4.4-8.4l-0.1,0.1c1.2,2.9,2.4,5.8,3.6,8.6c-0.1,2.5-0.9,4.8-1.9,6.9
			c-0.9,1.8-2.2,3.3-3.5,4.7c-0.7-1.4-1.4-2.9-2.1-4.4l-2.3-5.8c-1.5-3.8-2.9-7.6-4.3-11.4c1.3-3.7,2.7-7.4,4.3-10.9s3.5-6.9,5.6-10
			c1.9,3,3.3,6.4,4.8,9.7l4.4,10.5l4.4,10.5c1.5,3.5,3,7,4.6,10.4l0.2-0.1C184.7,277,183.5,273.4,182.1,269.8L182.1,269.8z"/>
	</g>
</g>
<g id="svga-group-ears-right-move" transform="matrix(1,0,0,1,3,0)">
	<g id="svga-group-ears-right">
		<path id="SvgjsPath14701" class="st0" d="M395.2,246.2c0,0,31.8-27.9,36.9-28.4c4.4-0.4,15.3,22.8,20.1,37.5c1.3,3.9,1,8.2-0.7,12
			c-4.6,10.2-14.8,31.5-24,42.1c0,0-7.8,1.7-10.2,0.9c-2.5-0.7-21.6-16.2-23.6-22.1C391.7,282.2,391.3,256,395.2,246.2L395.2,246.2z
			"/>
		<path id="SvgjsPath14702" class="st6" d="M395.1,246.1c4.5-4.3,9-8.5,13.7-12.5c4.6-4,9.3-8,14.2-11.7c2.5-1.8,4.8-3.7,7.8-5
			c0.5-0.1,0.8-0.3,1.3-0.3c0.6,0,1.1,0.2,1.5,0.5c0.8,0.5,1.4,1.1,1.9,1.7c1.1,1.2,2,2.5,2.9,3.9c3.4,5.4,5.9,11.3,8.4,17.2
			c1.2,3,2.3,6,3.5,9c0.5,1.5,1.1,3,1.6,4.6c0.5,1.5,1.1,3.1,1.3,4.8c0.5,3.3-0.1,6.9-1.5,9.9l-4,8.9c-2.8,5.9-5.6,11.7-8.7,17.4
			c-3.2,5.6-6.5,11.2-10.7,16.1l-0.2,0.3l-0.4,0.1c-1.7,0.4-3.3,0.7-4.9,0.9c-1.7,0.2-3.3,0.5-5.2,0.3c-0.5-0.1-1.1-0.3-1.5-0.5
			L415,311c-0.7-0.5-1.4-1-2.1-1.5c-1.4-1-2.7-2.1-4-3.2c-2.7-2.2-5.2-4.4-7.7-6.8c-2.5-2.5-5-4.8-7-8c-0.6-0.8-1-1.8-1.3-2.7
			c-0.3-1-0.4-2-0.6-2.9c-0.2-1.9-0.4-3.8-0.5-5.7c-0.2-3.8-0.2-7.6,0-11.3c0.2-3.8,0.4-7.6,0.9-11.3
			C393,253.4,393.7,249.7,395.1,246.1L395.1,246.1z M395.3,246.3c-1.1,3.4-1.6,7.2-1.9,10.9s-0.4,7.4-0.4,11.2
			c0,3.7,0.2,7.4,0.4,11.1c0.1,1.9,0.3,3.7,0.6,5.4c0.2,0.9,0.3,1.8,0.5,2.5c0.3,0.7,0.6,1.3,1.1,2.1c1.9,2.7,4.4,5.1,6.8,7.4
			c2.5,2.3,5,4.5,7.6,6.7c1.3,1.1,2.6,2.1,4,3.1l2,1.4l1,0.6c0.3,0.1,0.5,0.3,0.8,0.3c2.8,0.3,6.3-0.4,9.4-0.9l-0.6,0.4
			c4-4.6,7.4-10,10.7-15.4c3.2-5.5,6.4-11.1,9.3-16.8c1.5-2.9,2.9-5.8,4.2-8.7c1.4-2.8,2-6.1,1.6-9.3c-0.2-1.6-0.7-3-1.3-4.6
			s-1.1-3-1.7-4.5c-1.1-3-2.5-5.9-3.8-8.7c-2.7-5.7-5.6-11.3-8.9-16.4c-0.8-1.3-1.7-2.5-2.7-3.5c-0.5-0.5-1-1-1.5-1.3
			c-0.2-0.1-0.4-0.2-0.6-0.2s-0.5,0.2-0.7,0.2c-2.4,1-5,2.9-7.4,4.6C414.3,231,404.8,238.8,395.3,246.3z"/>
		<path id="SvgjsPath14703" class="st6" d="M394.5,269.9c0,0,30.6-38.7,36.4-35.5c5.7,3.2,14.8,21.5,14.8,27.6
			c-0.1,8.9-9.5,23.9-14.3,28.4s-10.5,7.3-18.1,5.5C405.7,294.1,394.5,269.9,394.5,269.9z"/>
		<path id="SvgjsPath14704" class="st2" d="M443.8,260.3c-0.7-1.9-1.5-3.8-2.4-5.6c-0.9-1.8-1.8-3.6-2.7-5.4c-1.9-3.5-3.9-7-6-10.3
			l-0.2-0.3l-0.2,0.3c-2.1,3.1-3.9,6.5-5.6,9.8c-1.7,3.4-3.2,6.8-4.7,10.4c-1.4,3.5-2.9,7.1-4.1,10.7c-1.3,3.6-2.6,7.2-3.6,10.9
			l0.2,0.1c1.6-3.4,3-7,4.6-10.4l4.4-10.5l4.4-10.5c1.5-3.3,2.9-6.7,4.8-9.7c2.1,3.1,4,6.5,5.6,10c1.7,3.5,3.1,7.2,4.3,10.9
			c-1.4,3.8-2.8,7.6-4.3,11.4l-2.3,5.8c-0.7,1.5-1.3,3-2.1,4.4c-1.3-1.4-2.6-2.9-3.5-4.7c-1.1-2.1-1.8-4.4-1.9-6.9
			c1.2-2.8,2.4-5.8,3.6-8.6L432,262c-1.5,2.8-3,5.6-4.4,8.4l-0.1,0.1v0.2c-0.1,2.7,0.6,5.5,1.7,7.8c0.6,1.2,1.2,2.3,2,3.3
			c0.7,1,1.5,2,2.5,2.9l0.7,0.7l0.5-0.9c1.1-1.9,2-3.8,2.8-5.7c0.8-1.9,1.6-3.9,2.4-5.8c1.5-3.9,2.9-7.9,4.2-11.9l0.1-0.3
			L443.8,260.3L443.8,260.3z"/>
	</g>
</g>
<g id="svga-group-faceshape-wrap" transform="matrix(1.0400003000000002,0,0,1.0002003000000002,-3.9994841890217003,-0.017880487301454195)">
	<g id="svga-group-faceshape-single">
		<path id="SvgjsPath13451" class="st0" d="M407.4,173.6c-6.3-28.5-18-45.6-43.3-59.3c-26.5-14.3-71.8-13.7-71.8-13.7
			s-45.3-0.6-71.8,13.7c-25.1,13.7-37.1,30.8-43.3,59.3c-2.6,11.4,0,38.8,0,38.8s4.6,35.1,4.8,51.9c0.6,16.5,4,51.3,6.3,71.5
			c2.8,20.2,4.2,21.9,4.2,21.9c34.9,41,64.7,72.2,73.4,79.5c8.4,7.1,41,6.7,50.3,1c9.9-6,26.9-24,75.6-78.9c0,0,0.8-3,3-23.2
			c2.3-20.2,6.1-46.5,7.2-71.8c0.6-16.5,4.8-51.9,4.8-51.9C407.1,212.1,410,185,407.4,173.6L407.4,173.6z"/>
		<path id="SvgjsPath13452" class="st2" d="M407.4,173.6c-6.3-28.5-18-45.6-43.3-59.3c-26.5-14.3-71.8-13.7-71.8-13.7
			s-45.3-0.6-71.8,13.7c-25.1,13.7-37.1,30.8-43.3,59.3c-2.6,11.4,0,38.8,0,38.8s4.6,35.1,4.8,51.9c0.6,16.5,4,51.3,6.3,71.5
			c2.8,20.2,4.2,21.9,4.2,21.9c34.9,41,64.7,72.2,73.4,79.5c8.4,7.1,41,6.7,50.3,1c9.9-6,26.9-24,75.6-78.9c0,0,0.8-3,3-23.2
			c2.3-20.2,6.1-46.5,7.2-71.8c0.6-16.5,4.8-51.9,4.8-51.9C407.1,212.1,410,185,407.4,173.6L407.4,173.6z M407.3,202.7l-0.9,9.2
			l-0.2,0.4c-1.6,12.2-3.2,24.4-4.5,36.7c-0.7,6.1-1.2,12.3-1.6,18.4c-0.5,6.1-1.1,12.2-1.8,18.3c-1.4,12.2-3.2,24.3-4.9,36.5
			c-0.9,6.1-1.7,12.3-2.5,18.3l-1.2,9.1l-0.7,4.5l-0.4,2.2l-0.2,1.2l-31,34.3c-10.6,11.5-21.1,23.3-32.3,34
			c-2.8,2.6-5.6,5.2-8.6,7.4c-0.7,0.6-1.5,1-2.2,1.5c-0.4,0.3-1.6,0.9-2,1.1c-1.5,0.6-3.2,1.1-5,1.5c-7.2,1.5-15,1.9-22.5,1.5
			c-3.8-0.3-7.5-0.7-11-1.6c-1.7-0.5-3.4-1-4.7-1.7c-0.3-0.2-1.5-1-1.8-1.3c-0.7-0.6-1.4-1.2-2.1-1.9c-5.6-5.2-11.1-10.9-16.6-16.5
			c-10.9-11.2-21.6-22.7-32.1-34.4l-15.8-17.5l-3.9-4.4l-1.9-2.2l-0.5-0.5c0,0-0.5-0.9-0.6-1.2c-1-3.5-1.7-7.5-2.4-11.3
			c-1.4-7.7-2.3-15.4-3.2-23.3c-0.9-7.8-1.9-15.6-2.6-23.4c-0.7-7.8-1.5-15.6-2-23.5c-0.6-7.8-0.7-15.7-1.4-23.5
			c-0.6-7.9-1.4-15.7-2.2-23.5c-0.8-7.9-1.9-15.6-2.2-23.4c-0.3-7.8-0.5-15.7,0.2-23.3c0.2-1.9,0.4-3.8,0.8-5.6
			c0.4-1.8,0.9-3.7,1.4-5.6c1.1-3.7,2.2-7.4,3.6-11c2.8-7.2,6.4-13.9,11.2-19.8c4.7-6,10.5-10.9,16.8-15.2c3.1-2.2,6.4-4.1,9.8-5.9
			c3.3-1.8,6.8-3.2,10.4-4.5c7.2-2.6,14.7-4.3,22.3-5.6c7.6-1.4,15.3-2.3,23.1-2.9c7.8-0.6,15.5-0.9,23.3-0.7
			c15.5,0.4,31.2,1.8,46.2,5.8c7.5,2,14.7,4.8,21.4,8.7c6.7,3.9,13.1,8.4,18.6,14c5.3,5.7,9.8,12.1,13,19.3
			c3.2,7.1,5.5,14.6,7.2,22.3c0.7,3.1,0.8,6.4,0.9,9.6c0.1,3.2,0,6.5-0.1,9.7C407.8,196.2,407.6,199.4,407.3,202.7L407.3,202.7z"/>
	</g>
</g>
<g id="svga-group-mouth-single-move" transform="matrix(1,0,0,1,-0.5,3)">
	
		<g id="svga-group-mouth-single" transform="matrix(0.7499991000000003,0,0,0.7499991000000003,25.199165461847286,31.36545410175168)">
		<path id="SvgjsPath14395" class="st7" d="M422.6,455.1c-0.6-0.9-1.7-1.7-2.6-2.3c-0.9-0.3-2.3-0.3-2.3,1.1c0,0.9,0.6,1.7,1.4,2.3
			c-1.9,3.5-6.8,4.2-10.8,4.4c-4.3,0.3-7.7,0.6-12.8-0.5c-9.7-2.6-18.6-5.2-27.4-4.6c-8.3,0.3-14.6,2.8-22.6,5.1
			c-9.4,2.6-21.8,7.8-28.4-1.9c0.9-0.6,1.7-1.1,2.3-2c1.1-1.1,0-2.9-1.4-2.6c-2.8,0.9-6.6,4.6-6.3,7.7c0,0.6,0.9,1.1,1.4,0.9
			c1.1-0.9,2-2,2.9-2.9c2.6,4.8,7.7,7.1,13.4,7.7c5.7,0.3,11.1-1.4,16.8-2.6c6.3-1.4,12.5-2,18.8-2.3c11.7-0.3,23.1,0.6,34.8,1.1
			c6.8,0.3,16.2,1.1,21.4-4.3c0.3,0.9,0.6,1.7,1.4,2.3c0.3,0.3,0.9,0,1.1-0.3C425.7,459.9,423.7,456.8,422.6,455.1L422.6,455.1z"/>
		<path id="SvgjsPath14396" class="st1" d="M381.8,473.6c-9.7,0.6-18.8,2-28.5,1.4c-0.9,0-0.9,1.1-0.3,1.1c9.1,2,19.9,2.6,29.1-0.6
			C383.2,475.3,383.2,473.6,381.8,473.6z"/>
	</g>
</g>
<g id="svga-group-eyesback-left">
	<path id="SvgjsPath13081" class="st8" d="M243.5,228.7c21.4,0,38.5,16.5,38.5,37s-17.1,37-38.5,37s-38.5-16.5-38.5-37
		S222.2,228.7,243.5,228.7z"/>
</g>
<g id="svga-group-eyesiriswrapper-left" transform="matrix(1,0,0,1,0,0)">
	<g id="svga-group-eyesiriscontrol-left" transform="matrix(1,0,0,1,0,0)">
		<g id="svga-group-eyesiris-left">
			<path id="SvgjsPath14242" class="st9" d="M231.2,263.9c8.3,0,15.1,6.8,15.1,15.1c0,8.3-6.8,15.1-15.1,15.1s-15.1-6.8-15.1-15.1
				C216.1,270.7,222.9,263.9,231.2,263.9z"/>
			<path id="SvgjsPath14243" class="st10" d="M231.2,294.9c-8.8,0-16-7.1-16-15.7c0-8.8,7.1-16,15.7-16c8.8,0,16,7.1,16,15.7
				C247.1,287.8,240,294.9,231.2,294.9z M231.2,264.7c-8,0-14.2,6.6-14.2,14.5s6.6,14.3,14.5,14.3c8,0,14.2-6.6,14.2-14.5
				C245.4,271,238.8,264.7,231.2,264.7z"/>
			<path id="SvgjsPath14244" class="st11" d="M231.2,266.2c7.1,0,12.8,5.7,12.8,12.8s-5.7,12.8-12.8,12.8s-12.8-5.7-12.8-12.8
				C218.3,271.9,224,266.2,231.2,266.2z"/>
			<path id="SvgjsPath14245" d="M231.2,270.7c4.6,0,8.3,3.7,8.3,8.3s-3.7,8.3-8.3,8.3s-8.3-3.7-8.3-8.3S226.6,270.7,231.2,270.7z"/>
			<path id="SvgjsPath14246" class="st8" d="M227.5,270.7c1.7,0,2.9,1.1,2.9,2.8s-1.1,2.9-2.9,2.9s-2.8-1.1-2.8-2.9
				S225.7,270.7,227.5,270.7z M236.9,283.8c0.6,0,1.1,0.6,1.1,1.1c0,0.6-0.6,1.1-1.1,1.1c-0.6,0-1.1-0.6-1.1-1.1
				C235.7,284.4,236.3,283.8,236.9,283.8z"/>
		</g>
	</g>
</g>
<g id="svga-group-eyesfront-left">
	<path id="SvgjsPath13089" class="st0" d="M243.5,227.2c-22.2,0-40.2,17.4-40.2,38.8s18,38.8,40.2,38.8s40.2-17.4,40.2-38.8
		S265.8,227.2,243.5,227.2z M229.6,284.8c-13.7-4.8-18.2-19.1-20.5-28.8c-2.6-10,39.3-10,49.9-1.1c10.8,8.6,15.1,20.8,15.7,27.4
		C274.9,281.9,243.2,289.6,229.6,284.8z"/>
	<path id="SvgjsPath13090" d="M274.6,280.8c-0.3-1.4-0.3-2.9-0.9-4l-0.9-2.6c-1.4-5.4-4.3-12.8-8.5-17.7
		c-3.4-3.7-11.7-12.5-25.6-12.5s-23.4,4.6-25.1,5.4c-0.6,0.3-1.4,0.9-2,1.4c-1.1,0.6-2.3,1.4-3.1,2.8c-0.3,0.6-0.3,0.9-0.3,1.4
		c-0.3,0.3-0.3,0.6-0.3,0.6h0.3c0,0.3,0,0.9,0.3,1.1c0.3,0.9,0.6,1.7,0.6,2.6l1.7,5.1c1.1,3.4,2.6,6.6,4.6,9.7s4.3,5.7,7.1,8
		c2.9,2.3,6.3,3.7,9.7,4.6c7.1,1.4,14.3,0.9,21.4,0c7.1-0.9,14-2.3,20.8-4.3C274.9,281.9,274.9,281.4,274.6,280.8L274.6,280.8z
		 M274.6,281.9c-6.8,1.1-14,2.3-20.8,3.1c-3.4,0.3-7.1,0.6-10.5,0.6s-7.1,0-10.5-0.6c-6.8-1.1-13.1-5.4-16.5-11.4
		c-2-2.9-3.4-6.3-4.6-9.4c-0.6-1.7-1.1-3.4-1.4-5.1c-0.3-0.9-0.6-1.7-0.6-2.6c0-0.6-0.3-0.9-0.3-1.1c4-1.1,18.8-5.4,29.9-5.4
		c12.8,0.3,22.5,10.3,26.5,14.5C269.2,267.7,274.3,279.1,274.6,281.9L274.6,281.9z"/>
</g>
<g id="svga-group-eyesback-right">
	<path id="SvgjsPath13082" class="st8" d="M356.4,228.7c21.4,0,38.5,16.5,38.5,37s-17.1,37-38.5,37s-38.5-16.5-38.5-37
		S335,228.7,356.4,228.7z"/>
</g>
<g id="svga-group-eyesiriswrapper-right" transform="matrix(1,0,0,1,0,0)">
	<g id="svga-group-eyesiriscontrol-right" transform="matrix(1,0,0,1,0,0)">
		<g id="svga-group-eyesiris-right">
			<path id="SvgjsPath14247" class="st10" d="M347.1,266.8c7.4,0,13.4,6,13.4,13.4s-6,13.4-13.4,13.4s-13.4-6-13.4-13.4
				C333.7,272.7,339.7,266.8,347.1,266.8z"/>
			<path id="SvgjsPath14248" class="st12" d="M347.1,294.1c-7.7,0-14-6.3-14-14s6.3-14,14-14s14,6.3,14,14
				C361,287.8,354.8,294.1,347.1,294.1z M347.1,267.6c-6.8,0-12.5,5.7-12.5,12.5s5.7,12.5,12.5,12.5s12.5-5.7,12.5-12.5
				C359.6,273.3,353.9,267.6,347.1,267.6z"/>
			<path id="SvgjsPath14249" class="st9" d="M347.1,268.7c6.3,0,11.4,5.1,11.4,11.4s-5.1,11.4-11.4,11.4s-11.4-5.1-11.4-11.4
				S340.8,268.7,347.1,268.7z"/>
			<path id="SvgjsPath14250" class="st11" d="M347.1,270.5c5.4,0,9.7,4.3,9.7,9.7s-4.3,9.7-9.7,9.7s-9.7-4.3-9.7-9.7
				S341.6,270.5,347.1,270.5z"/>
			<path id="SvgjsPath14251" d="M347.1,273c4,0,7.1,3.1,7.1,7.1s-3.1,7.1-7.1,7.1s-7.1-3.1-7.1-7.1C339.9,276.2,343.1,273,347.1,273
				z"/>
			<path id="SvgjsPath14252" class="st8" d="M343.9,273c1.4,0,2.6,1.1,2.6,2.6c0,1.4-1.1,2.6-2.6,2.6s-2.6-1.1-2.6-2.6
				C341.4,274.2,342.5,273,343.9,273z M352.2,284.4c0.6,0,0.9,0.3,0.9,0.9s-0.3,0.9-0.9,0.9s-0.9-0.3-0.9-0.9
				C351.3,284.7,351.6,284.4,352.2,284.4z"/>
		</g>
	</g>
</g>
<g id="svga-group-eyesfront-right">
	<path id="SvgjsPath13091" class="st0" d="M356.4,227.2c-22.2,0-40.2,17.4-40.2,38.8s18,38.8,40.2,38.8s40.2-17.4,40.2-38.8
		S378.6,227.2,356.4,227.2L356.4,227.2z M371.5,282.8c-12.5,5.1-42.7,0.3-42.7,0.3c0.3-5.4,3.7-16.5,13.4-24.8
		c9.7-8.3,49-10.8,47.3-2C387.5,265.1,384,278,371.5,282.8L371.5,282.8z"/>
	<path id="SvgjsPath13094" d="M390,256.9c0,0,0-3.7-2.6-4.8c-1.7-0.6-12.5-2.8-25.9-2c-7.4,0.6-13.1,3.1-17.4,6
		c-0.9,0.6-1.7,0.9-2.3,1.4c-2.6,2.3-4.8,4.6-6.8,7.4c-3.7,5.4-6.6,11.7-6.6,18.2c0,0.9,0.3,2.3,0.3,2.3s0.3-0.9,0.6-2
		c6.3,1.1,12.3,2,18.8,2.3c3.4,0.3,6.6,0.3,9.7,0.3c3.4,0,6.6-0.6,9.7-1.1c3.1-0.6,6.3-2.3,9.1-4c2.6-2,4.8-4.6,6.8-7.1
		c1.7-2.9,3.1-5.7,4.3-8.8c0.6-1.4,0.9-3.1,1.4-4.8l0.6-2.3c0-0.3,0-0.3,0.3-0.6V256.9L390,256.9z M388.9,257.2l-0.6,2.3
		c-0.3,1.7-0.9,3.1-1.1,4.8c-1.1,3.1-2.3,6-4,8.8c-3.4,5.4-9.4,9.1-15.7,10.3c-1.7,0.3-3.1,0.6-4.8,0.9c-1.7,0-3.1,0.3-4.8,0.3
		c-3.1,0.3-6.6,0.3-9.7,0c-6.3-0.3-12.5-0.6-18.8-1.1c1.1-4.3,4.3-13.1,6.8-16.2c3.4-4.3,12-12.8,24.2-14
		c10.3-0.9,24.5,2.3,28.5,3.4V257.2L388.9,257.2z"/>
</g>
<g id="svga-group-facehighlight-single">
</g>
<g id="svga-group-eyebrows-left-move" transform="matrix(1,0,0,1,0,0)">
	
		<g id="svga-group-eyebrows-left-rotate" transform="matrix(1,1.7453292519943295e-9,-1.7453292519943295e-9,1,1.2391838311032188e-7,-1.3753196981269866e-7)">
		<g id="svga-group-eyebrows-left">
			<path id="SvgjsPath13002" class="st13" d="M279.4,215.3c0,0-0.6,11.1-2.9,20.2c0,0-45.9-13.1-51.3-13.7
				c-5.4-0.6-23.9,11.7-23.9,11.7l18.5-27.9l10.8,0.9l-1.7-2.6l22.8,5.4l21.4,3.4l1.4,8l1.1-8l1.4,8L279.4,215.3L279.4,215.3z"/>
			<path id="SvgjsPath13003" class="st14" d="M279.4,215.3l-0.3,0.3c-0.3,0.9-0.6,1.4-1.1,2.3c-0.3,0.6-0.6,1.1-0.9,2l-1.1-7.1
				l-0.6-2.6l-0.6,2.6l-0.9,4.6l-0.9-4.6v-0.6h-0.6l-11.1-2l-5.4-0.9c-1.7-0.3-3.7-0.6-5.4-0.9c-7.4-1.7-14.5-3.4-21.9-5.1l-2.3-0.6
				l1.4,2.3l0.9,0.3l-8.8-0.6h-0.6L219,205c-3.1,4.8-6,9.4-9.1,14.2l-9.1,14.3l-1.1,1.7l1.7-1.1c5.4-3.7,11.1-7.1,17.1-9.7
				c1.4-0.6,3.1-1.1,4.6-1.7c0.9-0.3,1.4-0.3,2.3-0.3l1.1,0.3l1.1,0.3c3.1,0.9,6.6,1.7,9.7,2.6c6.6,2,12.8,3.7,19.4,5.4
				s12.8,3.4,19.4,5.1l0.6,0.3v-0.6c0.9-3.4,1.1-6.8,1.7-10.3c0.3-1.7,0.3-3.4,0.6-5.1c0-0.9,0-1.7,0.3-2.6v-2.3L279.4,215.3
				C279.4,215.5,279.4,215.3,279.4,215.3L279.4,215.3z M279.2,216.4l-0.3,1.1l-0.3,2.6l-0.9,5.1c-0.6,3.1-1.1,6.3-2,9.4
				c-6.3-2-12.5-3.7-18.8-5.7c-6.6-2-12.8-3.7-19.4-5.1c-3.1-0.9-6.6-1.4-9.7-2.3l-1.1-0.3l-1.1-0.3c-0.9,0-1.7,0-2.6,0.3
				c-1.7,0.6-3.1,1.1-4.6,1.7c-5.4,2.6-10.5,5.4-15.7,8.8l8.3-12c3.1-4.6,6.3-9.1,9.1-13.4l10.3,0.9l2,0.3l-1.1-2l-0.3-0.3
				c6.6,1.7,13.1,3.1,19.7,4.6l11.1,1.7l10.5,1.4l1.4,7.1l0.6,3.4l0.6-3.4l0.9-5.7l1.1,5.4l0.3,0.9l0.3-0.9l0.9-2.6
				c0.3-0.9,0.6-1.7,0.9-2.3L279.2,216.4L279.2,216.4z M270.9,229.8c0-2.3-0.3-4.8-0.6-7.1c-0.3-1.1-0.3-2.3-0.6-3.4
				c-0.3-1.1-0.6-2.3-1.1-3.4c0.3,1.1,0.3,2.3,0.3,3.4c0,1.1,0.3,2.3,0.6,3.4C269.7,224.9,270.3,227.5,270.9,229.8z M267.5,224.9
				c-0.6-0.9-0.9-2-1.4-2.9l-1.4-2.9l-2.9-5.4l-0.6-1.4v1.7c0,4.6,0,9.1,0.3,13.7l0.9-0.3c-0.9-1.1-1.7-2.6-2.6-3.7l-2.6-3.4
				c-0.9-1.1-1.7-2.3-2.9-3.4c-0.9-1.1-2-2.3-3.1-3.1c0.9,1.1,2,2.3,2.8,3.4l2.6,3.4c0.9,1.1,1.7,2.3,2.6,3.7
				c0.9,1.1,1.7,2.6,2.3,3.7l0.9,1.4v-1.7c0-4.6-0.3-9.1-0.3-13.7l-0.6,0.3l3.1,5.4l1.7,2.6C266.3,223.2,266.9,224.1,267.5,224.9
				L267.5,224.9z"/>
		</g>
	</g>
</g>
<g id="svga-group-eyebrows-right-move" transform="matrix(1,0,0,1,0,0)">
	
		<g id="svga-group-eyebrows-right-rotate" transform="matrix(1,1.7453292519943295e-9,-1.7453292519943295e-9,1,1.2705996255135688e-7,-2.123193070246998e-7)">
		<g id="svga-group-eyebrows-right">
			<path id="SvgjsPath13004" class="st13" d="M320.5,225.8c0,0,2.6,8.8,6.6,15.7c0,0,42.5-17.4,47.9-18.5s25.6,5.7,25.6,5.7
				L377.2,209l-10.3,2.3l1.1-2.3l-21.4,7.7l-20.2,5.7v6.6l-2.6-6.3v6.6L320.5,225.8L320.5,225.8z"/>
			<path id="SvgjsPath13005" class="st14" d="M400.8,228.4l-11.4-10c-3.7-3.4-7.7-6.6-11.7-10l-0.3-0.3h-0.3l-8.5,1.7l0.3-0.6l1.1-2
				l-2.3,0.9c-6.8,2.3-13.7,4.8-20.5,7.4l-5.1,1.7L337,219l-10.5,3.1h-0.6v4.3l-1.7-3.7l-0.9-2v2l0.3,5.7c-0.3-0.6-0.9-0.9-1.1-1.4
				c-0.6-0.6-0.9-1.1-1.4-1.7l-0.3-0.3v0.9l0.3,0.6l0.3,1.1c0.3,0.6,0.6,1.4,0.6,2c0.6,1.4,0.9,2.6,1.4,4c0.9,2.6,2.3,5.4,3.4,8
				l0.3,0.6l0.6-0.3c6-2.3,12-4.6,18.2-7.1c6-2.3,12-4.8,18-7.1c3.1-1.1,6-2.3,9.1-3.4l1.1-0.3l1.1-0.3c0.9-0.3,1.4-0.3,2.3-0.3
				c1.7,0,3.1,0.3,4.8,0.6c6.3,1.1,12.5,3.1,18.8,5.1l1.7,0.6L400.8,228.4L400.8,228.4z M377.2,222.4c-0.9,0-1.7,0-2.6,0.3l-1.1,0.3
				l-1.1,0.3c-3.1,0.9-6.3,2-9.1,3.1c-6.3,2.3-12.3,4.6-18.2,6.8c-6,2.3-11.7,4.8-17.4,7.4c-1.4-2.3-2.6-4.8-3.4-7.1
				c-0.6-1.1-1.1-2.6-1.7-4l-0.9-2l-0.3-0.9l-0.3-0.6v-0.3c0.6,0.6,0.9,1.1,1.1,1.7c0.6,0.6,0.9,1.1,1.4,2l0.6,0.6v-5.4l1.7,4.3
				l1.1,2.6v-8.8l10.3-2.8c3.4-0.9,7.1-2,10.5-2.9c6.3-2.3,12.3-4.3,18.5-6.6v0.3l-0.9,1.7l2-0.6l10-2.3c3.7,3.1,7.7,6.3,11.4,9.4
				l10.3,8.3c-5.7-1.7-11.1-3.4-17.1-4.6C380.3,223,378.9,222.7,377.2,222.4L377.2,222.4z M331.6,235.8c-0.6-2-0.6-3.7-0.6-5.7v-2.8
				c0-0.9,0-2,0.6-2.9c0,0.9,0.3,2,0.3,2.9s0.3,2,0.3,2.8C331.9,232.1,331.9,234.1,331.6,235.8z M334.2,231.5
				c0.3-0.9,0.6-1.7,0.9-2.3l0.9-2.3l1.7-4.8l0.6-1.1l0.3,1.1c0.9,3.7,1.4,7.4,2.3,10.8H340l1.7-3.4c0.6-1.1,1.1-2.3,2-3.1
				c0.6-1.1,1.4-2,2-3.1s1.4-2,2.3-2.8c-0.9,0.9-1.4,2-2,3.1s-1.1,2-2,3.1l-1.7,3.4l-1.7,3.4l-0.6,1.1l-0.3-1.1
				c-0.9-3.7-1.4-7.4-2.3-10.8h0.9l-2,4.6l-1.1,2.3C335,230.1,334.7,230.6,334.2,231.5L334.2,231.5z"/>
		</g>
	</g>
</g>
<g id="svga-group-beardwrap" transform="matrix(1.0400003000000002,0,0,1.0002003000000002,0,0)">
	<g id="svga-group-beard-single-move" transform="matrix(1,0,0,1,-1,0)">
		<g id="svga-group-beard-single">
		</g>
	</g>
</g>
<g id="svga-group-mustache-single-move" transform="matrix(1,0,0,1,0,0)">
	<g id="svga-group-mustache-single">
	</g>
</g>
<g id="svga-group-nose-single-move" transform="matrix(1,0,0,1,0,0)">
	<g id="svga-group-nose-single">
		<path id="SvgjsPath13191" class="st0" d="M297.4,349.2c1.9,0.3,12.9-9.4,12.9-9.4s5.9,4.5,10.3,4.1c4.4-0.5,7-3.1,8.5-5.6
			c1.6-2.5-2.5-8.8-5.1-12.6c-2.6-3.7-10.1-14.9-11.7-20c-3-9.8-8.6-13.6-14-13.2c-5.5,0.3-11.5,4.3-13.1,9.8s-2.1,12.2-5.1,16.4
			c-3.1,4.2-9.5,11.4-10.1,13.5s-0.3,8,3.5,10.1c4.9,2.8,12.3-1.5,12.3-1.5S294.9,348.8,297.4,349.2L297.4,349.2z"/>
		<path id="SvgjsPath13192" class="st2" d="M329.3,333.2c-1.2-2.9-3.1-5.3-5.2-7.4c1.6,2.5,3.1,5.1,4,7.9c0.4,1.4,0.7,2.8,0.5,4
			c-0.1,0.7-0.3,1.2-0.7,1.7c-0.4,0.6-0.8,1.1-1.3,1.5c-2,1.9-4.8,2.6-7.6,2.2c-1.4-0.2-2.8-0.6-4.2-1.1c-1.3-0.5-2.5-1.1-3.7-1.8
			c1.1-1.6,2.1-3.3,2.9-5c-2.8,2.6-5.4,5.2-8.2,7.5c-1.4,1.1-2.8,2.3-4.3,3.1c-1.5,0.9-3,1.6-4.3,1.5c-0.3,0-0.6-0.1-0.9-0.1
			c-0.3-0.1-0.5-0.2-0.9-0.5c-0.7-0.4-1.4-1-2.1-1.6c-1.4-1.1-2.8-2.3-4.2-3.5c-2.8-2.4-5.7-4.8-8.7-7.1c1.5,2.2,3.1,4.4,4.8,6.4
			c-1.4,0.6-2.9,1.2-4.4,1.5c-1.8,0.3-3.7,0.4-5.2-0.3c-3.1-1.5-4.9-5.2-4.4-8.4c0.1-0.8,0.4-1.4,0.9-2.1s1-1.5,1.6-2.3
			c1.1-1.5,2.3-2.9,3.6-4.3l1.9-2.1c0.7-0.8,1.3-1.6,1.9-2.4c1.2-1.6,2.2-3.4,3-5.2c0.9-1.9,1.4-4,1.7-5.9c0.3-1.9,0.6-3.8,0.9-5.8
			c0.4-3.8,0.8-7.7,0.9-11.5c0.3-7.7,0.1-15.4-1.5-23c0.1,7.7-0.4,15.2-1.1,22.8c-0.4,3.8-0.8,7.6-1.4,11.3
			c-0.3,1.9-0.6,3.7-0.9,5.6s-0.8,3.5-1.5,5.1c-0.7,1.7-1.6,3.2-2.7,4.7c-0.5,0.7-1.1,1.5-1.6,2.1c-0.7,0.7-1.3,1.5-1.9,2.2
			c-1.2,1.5-2.4,3-3.5,4.6c-0.6,0.8-1.1,1.6-1.6,2.5c-0.6,0.9-1,2.2-1.1,3.2c-0.4,4.5,2.4,8.7,6.4,10.1c2.1,0.7,4.2,0.3,6-0.3
			c1.5-0.5,2.9-1.3,4.2-2.2c0.7,0.8,1.3,1.6,2,2.4c1.3,1.4,2.6,2.7,4,4c0.7,0.7,1.5,1.3,2.3,1.9c0.4,0.3,1,0.6,1.6,0.9
			c0.6,0.2,1.3,0.3,1.9,0.3c2.5,0,4.4-1.1,6.1-2.2c1.7-1.2,3.1-2.5,4.4-3.9s2.4-2.8,3.4-4.4c2.1,1.9,4.7,3.6,7.6,4.1
			c1.5,0.3,3.2,0.3,4.7,0c1.6-0.4,3-1.2,4.2-2.3c0.6-0.5,1.1-1.2,1.5-1.9c0.5-0.7,0.8-1.5,0.9-2.4
			C330.3,336.2,329.9,334.6,329.3,333.2L329.3,333.2z"/>
	</g>
</g>
<g id="svga-group-hair-front" transform="matrix(1.0400003000000002,0,0,1.0002003000000002,-3.98302959783976,-0.009319438414387093)">
	<path id="SvgjsPath13228" class="st13" d="M184.8,258.6c0,0,4.3-7.7,4.8-20.8c0.6-13.1,0-31.1,0.6-40.5c0.6-9.4,2.8-23.4,4.3-28.5
		c1.1-5.1,1.7-10,5.1-15.1c3.4-5.1,6.8-10.3,14.8-12.3c8-2,21.7-8.6,24.8-12.3c0,0,8.6-1.7,10.5-2.8c0,0,15.1,7.4,20.5,8
		s23.4,1.4,35.1-2s28.8-7.4,35.3-6.3c6.6,1.1,34.8-3.1,47.3,36.2c0,0,3.1,12.3,3.4,29.6c0.3,17.4,0.9,28.8,2.3,33.9
		c1.1,5.1,3.4,16,3.4,20.8s1.7,7.1,1.7,7.1s4.8-10.8,6.3-16.5c1.4-5.7,5.4-33.1,6-37.3c0.6-4.3,1.7-18.2,2.6-24.2
		c0.9-5.7,0-27.1,0-27.1s0.3-13.4-1.7-17.4c-2-3.7-4-10-8.3-13.7c0,0,0.3-4.6-0.3-7.7s-6-15.1-23.4-30.2S342,52.7,318.3,52.7
		c0,0,8.3-1.1,13.7-1.7c0,0-15.7-2-23.1-0.9l12.3-1.7c0,0-20.5-4-35.1,0.3c0,0,2-3.4,12-7.1c0,0-22.2-6-43.9,8.8
		c0,0-16.8-0.9-33.3,19.4c0,0-10.5,3.1-13.4,5.1s-17.7,8.8-19.7,32.5c0,0-14.3,1.7-15.7,31.3l1.4,24.8c0,0-5.1,10.3-5.1,20.8
		s2.8,17.1,3.1,22.2c0.3,5.1,2,14.8,2,14.8s5.1,12,6,16.8C180.3,243.7,184.8,258.6,184.8,258.6L184.8,258.6z"/>
	<path id="SvgjsPath13229" class="st14" d="M414.8,149.7c0.3-2.9,0.3-5.7,0-8.6c-0.3-2.9-0.9-5.7-1.7-8.6c-0.9-2.8-2-5.4-3.1-8
		c-1.1-2.3-2.9-4.6-4.6-6.8c0.6-5.1-1.1-10-3.4-14.3c-2.3-4.3-5.4-8.3-8.8-12c-6.6-7.4-14.3-13.7-21.9-19.7
		c-8-5.7-16.5-10.8-25.9-14c-4.6-1.7-9.4-2.8-14.3-3.4c-4.8-0.6-9.7-0.9-14.5-0.3c9.7-0.9,19.4,1.4,28.5,4.8
		c9.1,3.4,17.4,8.5,25.1,14.5c4,2.8,7.4,6,11.1,9.4c3.7,3.1,7.1,6.6,10.3,10.3c3.1,3.7,6,7.4,8.3,11.7c2.3,4,3.7,8.8,3.1,13.1v0.6
		l0.6,0.6c1.7,2,3.1,4.3,4.6,6.6c1.1,2.3,2.3,4.8,3.1,7.4c0.9,2.6,1.4,5.1,1.4,8c0.3,2.9,0.3,5.4,0,8.3c0.6,8.8,0.6,17.7,0.3,26.5
		c-0.3,8.8-2,17.4-3.1,26.2c-1.1,8.8-2.3,17.7-3.7,26.2c-0.6,4.3-1.4,8.8-2.6,12.8c-1.4,4-3.1,8.3-4.3,12.5
		c1.4-4.3,3.1-8.3,4.8-12.3c1.4-4.3,2.3-8.6,3.1-13.1c1.7-8.8,3.1-17.4,4.3-26.2l2-13.1c0.9-4.3,1.1-8.8,1.4-13.4
		C415.4,167.4,415.4,158.5,414.8,149.7L414.8,149.7z M393.5,153.4c0.3-2.3,1.1-4.6,1.7-6.8c0.6-2.3,1.4-4.6,2.3-6.8l2.3-6.8l1.1-3.4
		l0.6-1.7l0.3-0.9l0.3-0.6V126v0.3V126c-0.3,0,0,0-0.3,0.3l-0.3,0.3l-0.6,0.9l-0.9,1.4l-1.7,3.1c-1.1,2.3-2.3,4.3-3.1,6.6
		c-2,4.6-3.7,9.1-4.6,14c-0.6,3.4-0.6,6.8-0.6,10.3c-0.3-1.4-0.9-2.9-1.1-4.3c-1.4-5.1-3.4-10.3-5.7-15.1c-2.3-4.8-4.8-9.7-8.6-14
		c-6.8-8.5-16.8-14-26.8-18c-10-3.4-18-10.8-23.4-19.7c-2.6-4.3-4.8-9.4-5.1-14.5c-0.3-2.6,0.3-5.1,1.1-7.4c1.1-2.3,2.6-4.3,4.8-5.7
		c4-3.1,9.4-4.6,14.5-4.3s10.5,2,15.1,4.6c-4.6-2.8-9.7-4.6-15.1-5.1c-5.4-0.6-11.1,0.6-15.4,4c-2.3,1.4-4.3,3.7-5.4,6.3
		c-1.1,2.6-1.7,5.4-1.4,8.3c0.3,5.7,2.3,10.8,5.1,15.4c5.4,9.4,14.3,17.1,24.2,20.8c9.7,4,19.1,9.4,25.4,17.4
		c5.1,6.3,8.5,13.7,11.4,21.4c-3.7-9.1-10.3-17.7-19.1-22.8c-5.1-3.1-11.1-4.8-17.1-5.1h-1.1c-9.1-2.8-18.8-4.6-28.5-4.8h-7.1
		l-2.3-0.3c-1.4,0-3.1-0.6-4.6-0.9c-1.4-0.6-2.9-0.9-4.3-1.7c-5.7-2.6-10.5-6.6-13.7-11.7c-3.4-5.1-5.7-11.1-6.6-17.1
		c-0.9-6.3-0.6-12.5,1.4-18.2c2-5.7,6.6-10.5,11.7-14c5.4-3.1,11.7-5.1,18-6c-6.3,0.3-12.8,1.7-18.5,4.8s-10.5,8-13.1,14.3
		c-0.6,1.4-1.1,3.1-1.4,4.8c-0.3,1.7-0.6,3.1-0.6,4.8s-0.3,3.1-0.3,4.8s0.3,3.1,0.3,4.8c0.9,6.6,3.1,12.8,6.6,18.5
		c3.7,5.4,9.1,10,15.1,12.5c6,2.8,13.1,3.1,19.4,2.6c6.3-0.3,12.5,0.3,18.8,1.4c1.7,0.3,3.7,0.6,5.4,0.9c-4.3,0-8.6,0-12.5,0.6
		c-12,1.4-23.4,5.7-34.8,7.4c-5.7,0.9-11.7,1.1-17.4,0.6c-6-0.3-11.7-1.7-16.8-4c-5.1-2.3-10-5.7-13.7-10.3c-3.7-4.3-6.3-9.7-8-15.1
		c-1.7-5.4-2.3-11.4-2-17.1s0.9-11.7,3.1-17.1c4.6-10.5,14-18.8,24.5-23.4c9.7-4.3,20.8-5.7,31.1-4c-1.4,0.6-2.9,0.9-4.3,1.7
		c-1.1,0.6-2.3,1.1-3.4,2s-2,1.7-2.6,3.1l-0.3,1.1l1.1-0.3c2.9-1.1,6-1.7,8.8-2c3.1-0.3,6-0.6,9.1-0.6s6.3,0.3,9.1,0.3
		c3.1,0.3,6.3,0.6,9.1,1.1c-3.1-0.6-6-1.1-9.1-1.4c-3.1-0.3-6.3-0.6-9.1-0.6c-3.1,0-6.3,0-9.4,0.3c-2.6,0.3-5.1,0.6-7.7,1.4
		c0.6-0.6,0.9-1.1,1.4-1.4c0.9-0.6,2-1.1,3.1-1.7c2.3-0.9,4.6-1.7,7.1-2.3l3.1-0.6l-3.1-0.9c-11.4-2.8-24.2-1.7-35.3,2.9
		c-3.7,1.4-7.4,3.4-10.5,6c-4.3,0.6-8.3,1.7-12.3,3.4c-4.8,2-9.4,4.8-13.4,8c-1.1,0.9-2,1.7-3.1,2.6c-0.9,0.9-1.7,2-2.6,2.8
		c-0.9,1.1-1.4,2.3-2.3,3.1c-8.8,1.7-17.4,6.3-23.7,13.1c-3.7,4.3-6,9.4-7.7,14.8c-0.9,3.4-1.4,6.8-1.4,10.3
		c-4.3,1.4-8,4.6-10.3,8.5c-2.6,4.3-3.7,9.4-4.3,14.3c-1.1,9.4-1.1,19.1,0,28.8v0.6c-2.6,7.7-4.6,15.7-5.1,23.9v6.3
		c0.3,2,0.6,4.3,1.1,6.3c0.9,4,1.4,8,2,12s1.1,8,2.3,12c0.6,2,1.1,4,2,6c0.9,1.7,1.4,3.7,2.3,5.7c2.6,7.7,4.8,15.4,6.8,23.4
		c-1.4-8-2.8-16-5.4-23.9c-0.6-2-1.1-4-2-6s-1.4-3.7-1.7-5.7c-0.9-4-1.1-8-1.7-12s-1.1-8-2-12c-0.6-2-0.9-4-0.9-5.7v-5.7
		c0.3-6.3,1.7-12.5,3.4-18.5c2,8.3,6.3,23.4,16.2,35.3c0,3.1,0.3,6.3,0,9.7c0,5.4-0.3,10.8-0.3,16c0,5.4-0.3,10.8-0.9,16
		c-0.3,2.6-0.3,5.4-0.9,8c-0.6,2.6-0.6,5.4-2,7.7c1.4-2.3,2-5.1,2.6-7.7c0.6-2.6,1.1-5.4,1.4-8c0.6-5.4,1.1-10.8,1.7-16
		c0.6-5.4,0.6-10.8,0.9-16.2c0.3-5.4,0-10.8,0-16c0.3-10.5,1.7-21.4,4.3-31.6c1.1-5.1,2.8-10.3,6.3-14.3c3.4-4,8-6.8,13.1-8.6
		c-5.1,1.1-10.3,4-14.3,7.7c-2,2-3.4,4.3-4.6,6.8c-1.1,2.6-2,5.1-2.9,7.7c-1.7,5.1-2.6,10.5-3.4,16c-0.9,5.4-1.4,10.8-1.7,16.2v1.7
		c-11.7-16.2-14.5-37.1-14.5-37.3h0.4c-0.6-4.6-0.9-9.1-1.1-13.7c-0.3-4.8,0-9.7,0.3-14.8c0.3-4.8,1.1-9.7,3.4-14
		c2-3.7,5.1-7.1,9.4-8.8c0,2,0,4.3,0.3,6.3c0.9,5.4,2.9,11.1,6.8,15.1c4,4.3,9.7,6.3,15.1,6.8c11.1,1.7,22.5-1.7,30.8-8.6
		c-4.6,2.8-9.4,5.1-14.8,6.3c-5.1,1.1-10.5,1.1-15.7,0.3c-5.1-1.1-10.3-2.8-13.7-6.6c-3.4-3.7-5.4-8.8-6-14
		c-1.4-10.3,1.4-21.4,7.7-29.6c3.4-4,7.7-7.4,12.3-10c2.9-1.7,6.3-2.8,9.4-4c-0.6,1.1-0.9,2-1.4,3.1c-2,4.8-3.1,10.3-3.4,15.4
		c-0.3,5.4,0,10.5,1.1,15.7c1.1,5.1,2.8,10.3,6.3,14.5c1.7,2,4,4,6.3,5.1s4.8,2,7.4,2.6c5.1,0.9,10.3,0.6,14.8-1.7
		c2.9,2.3,6.3,4.3,9.7,6c5.7,2.3,11.7,3.7,17.7,4c6,0.6,12,0.3,18-0.6c12-2,23.1-6.3,34.8-8c7.4-0.9,15.1-1.4,22.2-0.3l3.4,0.9
		c-0.6-0.3-1.1-0.3-1.7-0.6c3.7,0.9,7.1,2,10.3,3.7c10,5.4,17.4,15.4,21.4,26.2c0.3,0.6,0.6,1.4,0.6,2c1.4,5.1,2.6,10.3,3.1,15.4
		c0,0.6,0,0.9,0.3,1.4c0,1.7-0.3,3.7-0.6,5.4c0.3-0.9,0.6-1.4,0.9-2.3c0.3,3.7,0,7.4,0,11.1c0,10.5,1.1,21.4,2.6,31.9
		c0.9,5.1,2,10.5,3.1,15.7c1.1,5.1,0.6,10.5,0.3,15.7c0.3-2.6,0.9-5.1,1.1-8c0.3-2.6,0-5.4-0.3-8s-0.9-5.1-1.4-8
		c-0.6-2.8-0.9-5.1-1.1-8c-1.1-10.5-2-21.1-1.7-31.6c0.3-5.1,0.3-10.8-0.3-16c0-0.9-0.3-2-0.3-2.8c0.3-1.4,0.3-2.9,0.6-4.3
		C392.6,162.8,392.6,158,393.5,153.4L393.5,153.4z M235.3,126.6c-4.8-1.4-9.7-3.7-12.3-7.4c-2.9-4-4.3-8.8-5.4-14
		c-0.9-4.8-1.1-10-0.9-15.1c0.6-6.8,2.3-13.7,5.7-19.7c0.6,0,1.4-0.3,2.3-0.3c-0.6,0-1.4,0-2,0.3c1.7-2.6,3.4-4.8,6-6.8
		c3.7-3.4,8-6.3,12.5-8.6c3.4-1.7,7.4-3.1,11.1-4.3c-6.3,4.6-11.4,10.8-14.8,18.2c-2.6,5.7-3.1,12-3.4,18c-0.3,6,0.6,12.3,2,18
		c1.4,5.7,4.6,11.4,8.6,16.2c1.4,1.7,3.1,3.4,5.1,4.8C245,127.7,239.9,127.7,235.3,126.6L235.3,126.6z"/>
</g>
<g id="svga-group-glasses-single-move" transform="matrix(1,0,0,1,0,0)">
	<g id="svga-group-glasses-single">
	</g>
</g>
<rect id="svga-credit-rect" y="555" class="st15" width="600" height="45"/>
<g id="svga-group-eyesfront-right_1_">
	<path id="SvgjsPath13091_1_" class="st0" d="M240.4,225.9c-22.2,0-40.2,17.4-40.2,38.8s18,38.8,40.2,38.8s40.2-17.4,40.2-38.8
		S262.6,225.9,240.4,225.9L240.4,225.9z M225.3,281.5c-12.5-4.8-16-17.7-18-26.5c-1.7-8.8,37.6-6.3,47.3,2
		c9.7,8.3,13.1,19.4,13.4,24.8C268,281.8,237.8,286.6,225.3,281.5L225.3,281.5z"/>
	<path id="SvgjsPath13094_1_" d="M206.8,255.6v0.3c0.3,0.3,0.3,0.3,0.3,0.6l0.6,2.3c0.6,1.7,0.9,3.4,1.4,4.8c1.1,3.1,2.6,6,4.3,8.8
		c2,2.6,4.3,5.1,6.8,7.1c2.8,1.7,6,3.4,9.1,4s6.3,1.1,9.7,1.1c3.1,0,6.3,0,9.7-0.3c6.6-0.3,12.5-1.1,18.8-2.3c0.3,1.1,0.6,2,0.6,2
		s0.3-1.4,0.3-2.3c0-6.6-2.9-12.8-6.6-18.2c-2-2.9-4.3-5.1-6.8-7.4c-0.6-0.6-1.4-0.9-2.3-1.4c-4.3-2.9-10-5.4-17.4-6
		c-13.4-0.9-24.2,1.4-25.9,2C206.8,251.9,206.8,255.6,206.8,255.6L206.8,255.6z M207.9,255.9v-0.6c4-1.1,18.2-4.3,28.5-3.4
		c12.3,1.1,20.8,9.7,24.2,14c2.6,3.1,5.7,12,6.8,16.2c-6.3,0.6-12.5,0.9-18.8,1.1c-3.1,0.3-6.6,0.3-9.7,0c-1.7,0-3.1-0.3-4.8-0.3
		c-1.7-0.3-3.1-0.6-4.8-0.9c-6.3-1.1-12.3-4.8-15.7-10.3c-1.7-2.9-2.9-5.7-4-8.8c-0.3-1.7-0.9-3.1-1.1-4.8L207.9,255.9L207.9,255.9z
		"/>
</g>
</svg>
