<?xml version="1.0" encoding="utf-8"?>
<!-- Generator: Adobe Illustrator 24.1.2, SVG Export Plug-In . SVG Version: 6.00 Build 0)  -->
<svg version="1.1" xmlns="http://www.w3.org/2000/svg" xmlns:xlink="http://www.w3.org/1999/xlink" x="0px" y="0px"
	 viewBox="0 0 600 600" style="enable-background:new 0 0 600 600;" xml:space="preserve">
<style type="text/css">
	.st0{fill:#F0C7B1;}
	.st1{fill:#D19271;}
	.st2{fill:#C27B55;}
	.st3{fill:#CA2B2B;}
	.st4{fill:#AB0202;}
	.st5{fill:#D94444;}
	.st6{fill:#E1AC8F;}
	.st7{fill:#DA7C87;}
	.st8{fill:#FFFFFF;}
	.st9{fill:#6C4C22;}
	.st10{fill:#5C3D14;}
	.st11{fill:#73542A;}
	.st12{fill:#7B5C33;}
	.st13{fill:#2A232B;}
	.st14{fill:#1B141C;}
	.st15{display:none;opacity:0.5;fill:#ECF0F1;enable-background:new    ;}
	.st16{fill:#D32424;}
	.st17{fill:#EDEDEC;}
	.st18{fill:#FCC9A2;}
	.st19{fill:#FCD1B4;}
</style>
<g id="Layer_1">
	<g id="svga-group-backs-single">
	</g>
	<g id="svga-group-hair-back-move" transform="matrix(1,0,0,1,0,0)">
		<g id="svga-group-hair-back" transform="matrix(1.0400003000000002,0,0,1.0002003000000002,0,0)">
		</g>
	</g>
	<g id="svga-group-humanbody-back">
		<path id="SvgjsPath13139" class="st0" d="M530.2,544.1c-6.6-9.7-110.9-50.7-110.9-50.7l-38.2-14.8l-16-196.1H233.8l-15.7,196.4
			L180,493.7c0,0-104,41-110.9,50.7c-6.6,9.7-9.4,42.5-9.4,42.5v54.4h480.2v-54.7C539.6,586.9,537.1,553.8,530.2,544.1L530.2,544.1z
			"/>
	</g>
	<g id="svga-group-chinshadow-single">
		<path id="SvgjsPath13461" class="st1" d="M259.2,465.7c8.4,7.1,41,6.7,50.3,1c9.1-5.6,24.4-21.4,65.3-67.3l-9.5-116.8H233.9
			l-11.5,145.2C240.2,447.4,253.8,461.2,259.2,465.7z"/>
	</g>
	<g id="svga-group-humanbody-front">
		<path id="SvgjsPath13140" class="st2" d="M540.8,641.3c-0.3-18.2-0.3-36.5-0.3-54.7l-0.9-0.3c0,0,0.3-0.3,0.6,0
			c0.3,0,0.3,0.3,0.3,0.3v-1.1l-0.3-1.4l-0.3-2.6l-0.6-5.4c-0.6-3.7-1.1-7.1-1.7-10.8c-0.6-3.7-1.4-7.1-2.6-10.8
			c-1.1-3.4-2.3-7.1-4.3-10.3c-2.3-2.6-5.4-4.3-8.3-6c-2.9-1.7-6-3.1-9.1-4.8c-6-3.1-12.3-6-18.5-8.8c-12.5-5.7-24.8-11.1-37.3-16.2
			c-12.5-5.4-25.1-10.5-37.6-15.7l-37-14.8l-3.4-48.2c-1.1-16.2-2.6-32.8-3.7-49l-3.7-49l-4.3-49.3l-0.3-2.3h-2.3
			c-21.9,0-43.9,0.3-65.8,0.3l-65.8,0.6h-1.4v1.4l-3.4,49l-3.7,49c-2.3,32.5-5.1,65-8,97.5c-16,6-31.9,12-47.6,18.2
			c-16,6.3-31.9,12.8-47.9,19.7c-8,3.4-16,6.8-23.7,10.3c-8,3.7-15.7,7.1-23.4,11.7c-2,1.1-3.7,2.3-5.7,4c-0.6,0.3-1.1,1.1-1.4,1.7
			l-0.9,1.7c-0.6,1.1-1.1,2-1.4,3.1c-1.7,4.3-2.8,8.6-3.7,12.8c-1.7,8.5-3.1,17.1-4,25.9l-0.3,54.4v2.6h2.6l120,0.3H300
			c39.9,0,80.1-0.3,120-0.6l120-1.4h0.9L540.8,641.3L540.8,641.3z M300,638.5l-120-0.3l-117.4,0.3l-0.3-51.6
			c0.9-8.5,1.7-16.8,3.4-25.4c0.9-4,1.7-8.3,3.1-12c0.3-0.9,0.9-2,1.1-2.6l0.6-1.1l0.9-0.9c1.4-1.1,3.1-2.3,5.1-3.4
			c7.1-4.3,15.1-8,22.8-11.7s15.7-7.1,23.4-10.5c15.7-6.8,31.6-13.7,47.6-20.2c16-6.6,31.9-12.8,48.2-19.1l0.6-0.3v-0.6
			c2.6-32.8,4.8-65.5,7.7-98l4-49l4.3-47.6l64.4,0.6c21.1,0.3,42.2,0.3,63.6,0.3l3.7,46.7l4.3,49c1.4,16.2,2.9,32.8,4.3,49l4.6,49
			v0.9l0.9,0.3l38.2,14.3c12.5,4.8,25.4,9.7,37.9,14.8c12.5,5.1,25.1,10.5,37.6,16c6.3,2.9,12.3,5.7,18.5,8.6c3.1,1.4,6,3.1,9.1,4.6
			c2.9,1.7,6,3.4,8.3,5.7c2,3.1,3.1,6.6,4,10s1.7,7.1,2.3,10.5c0.6,3.7,1.1,7.1,1.7,10.8l0.6,5.4l0.3,2.6l0.3,1.4v1.1
			c0,18,0,35.9-0.3,53.9l-119.1-1.4C380,638.8,339.9,638.5,300,638.5L300,638.5z"/>
		<path id="SvgjsPath13141" class="st1" d="M371.5,423c0,0-5.1,65.5-25.9,93.8C345.6,516.8,368.1,445.5,371.5,423z M273.2,468.6
			c0,0,14.3,22.5,32.8,28.8C305.9,497.4,278.9,503.7,273.2,468.6z M224.1,416.2c19.1,73,19.1,73,24.2,87.5
			C248.4,503.7,249.5,467.8,224.1,416.2z"/>
	</g>
	<g id="svga-group-clothes-single">
		<path id="SvgjsPath15291" class="st3" d="M214.2,445l-5.1,2.6c0,0-4,8.3-6.8,14.5c-2.9,6.3-13.4,16.8-13.4,16.8s-1.7,6.3-1.7,8.3
			c0,0-35.1,12-45.3,16c-10.3,4-54.7,18-60.7,18.2s-14.5,5.1-14.5,5.1s-8.5,4.8-11.1,12.8c-2.8,8-7.4,98-7.4,104.9h501.3
			c0,0-5.1-92.3-10-99.5c-1.7-2.6-0.6-7.4-16.8-14.5s-48.4-20-59.3-24.2c-10.8-4.3-55-20.5-55-20.5s-0.6-6.6-6.6-9.7
			s-15.1-27.9-15.1-27.9l-3.7-3.7c0,0,1.1,14.5,0.6,27.4c-0.6,12.8-13.4,33.3-22.5,39.3s-25.6,16.2-32.2,18.8s-8,9.7-10.8,16.8
			s-7.4,16.8-7.4,16.8s-10.3-12.8-15.1-21.7c-4.8-9.1-11.4-15.7-23.7-14.5c-12,1.1-15.7-2.6-19.9-4.8c-4.3-2.6-30.2-43-33.9-53.3
			C214.7,458.6,214.2,445,214.2,445L214.2,445z"/>
		<path id="SvgjsPath15292" class="st4" d="M551.6,644.2c-1.1-19.7-2.3-39.3-3.7-59c-0.9-10-1.7-19.7-3.1-29.6
			c-0.3-2.6-0.9-4.8-1.4-7.4c-0.3-1.4-0.6-2.6-1.4-4.3l-0.3-0.6l-0.3-0.6l-0.9-1.7c-1.4-2.8-3.4-4.8-5.4-6.6
			c-2.3-1.7-4.3-2.8-6.6-4.3c-4.6-2.6-9.1-4-13.7-6l-13.7-5.7L473.7,507c-17.7-7.1-45-15.4-62.4-23.7c-0.3-1.7-1.1-3.1-2-4.6
			c-1.1-2-2.9-3.7-4.8-4.8l-0.9-0.3c-0.3-0.3-0.6-0.3-0.6-0.3c-0.3-0.3-0.3-0.3-0.6-0.3c-0.6-0.6-0.9-0.9-1.4-1.7
			c-1.1-1.1-2-2.8-2.9-4.3c-3.4-6.3-6.3-13.1-8.8-19.7l-0.3-0.6l-0.3-0.3l-3.7-3.7l-5.4-5.4l0.6,8c0.6,6.6,0.9,13.1,0.9,19.7v7.4
			l-0.3,2.3c-0.6,2.9-1.4,6-2.6,8.8c-2.3,6-5.7,11.7-9.4,16.8c-2,2.6-4,5.1-6.3,7.1c-1.1,1.1-2.3,2-3.4,2.9s-2.6,1.7-4,2.3
			c-11.7,6-14,10.8-26.2,15.7c-1.7,0.6-3.7,1.7-5.1,3.1c-1.4,1.4-2.6,3.1-3.4,4.6c-1.7,3.1-2.6,6.6-3.7,9.4l-2.6,6
			c-1.4,2.8-2.6,5.7-4,8.5c-3.4-4.6-7.1-9.1-10.3-14c-0.9-1.4-1.7-2.9-2.6-4.6s-2-3.1-3.1-4.8c-2.3-3.1-5.1-6-8.5-7.7
			c-3.4-2-7.4-2.6-11.4-2.6c-1.4,0.3-10,0.3-21.9-4.8c-1.4-0.6-4.3-5.4-6.6-8.3c-2-2.9-4.3-6-6.3-8.8c-4-6-8-12-11.7-18.2
			c-2-3.1-3.7-6.3-5.4-9.4s-3.1-6-4-9.7c0.3-4.6,1.1-13.1,1.4-16.2c0,0,0.3-6.3,0.3-6.8c-3.4-0.3-9.1,3.1-11.1,4l-4.3,8.6
			c-1.4,2.8-2.6,5.7-4.3,8.3c-1.7,2.6-3.7,5.1-5.7,7.4s-4.3,4.6-6.6,6.8l-0.3,0.3v0.3c-0.3,1.4-0.6,2.9-1.1,4
			c-0.3,1.1-0.6,2.3-0.6,3.7c-9.1,4-26.8,7.7-35.9,11.7s-18.8,6.8-28.5,10c-9.7,2.9-19.4,6-28.8,8.5c-2.6,0.6-4.8,1.4-7.1,2
			l-3.4,0.9c-0.6,0-0.9,0.3-1.7,0.3c-0.6,0-1.4,0.3-2,0.3c-2.6,0.6-5.1,1.4-7.7,2.3l-3.4,1.7l-1.7,0.9c-0.9,0.3-1.1,0.9-1.7,1.1
			c-4.3,3.1-8.3,7.1-10.3,12.5c-0.6,1.4-0.9,2.9-0.9,4l-0.6,3.7l-0.9,7.7c-0.9,10-1.7,20.2-2.3,30.2l-2,30.2
			c-0.6,10.3-1.1,20-1.4,30.2v2.6h2.6l62.7-0.3l62.7-0.6l62.7-0.6l62.7-0.3c20.8-0.3,41.9,0,62.7,0c20.8,0,41.9,0,62.7,0.3
			l125.4,0.9h2.3L551.6,644.2L551.6,644.2z M357.2,516.2c1.4-0.9,3.1-1.7,4.6-2.6c1.4-0.9,3.1-2,4.3-3.4c2.6-2.6,4.8-5.1,6.8-8
			c4-5.4,7.4-11.4,10.3-18c1.1-3.1,2.3-6.6,2.8-10.3l0.3-2.9v-7.7c0-2.9,0-5.7-0.3-8.6c2,4.8,4,9.4,6.6,14c0.9,1.7,2,3.4,3.1,5.1
			c0.6,0.9,1.4,1.7,2.3,2.6c0.3,0.3,1.1,0.9,1.7,1.1l1.1,0.6c1.1,0.9,2,1.7,2.9,2.8c0.6,1.1,1.1,2.9,1.4,4l0.3,1.7v0.3
			c1.4,7.7,3.1,15.1,4.8,22.8c1.7,7.4,4,15.1,6.3,22.5l6.6,22.2l3.1,11.1c0.6,2.3,1.4,4.8,2,7.1c-4-0.9-7.7-2-11.1-4
			c-2.3-1.4-4-2.8-6.6-4.8c-2.3-1.7-4.6-3.7-7.1-5.1c-4.8-3.4-10-6.3-15.4-8.6l-4-1.7c-1.1-0.6-2.6-1.1-3.7-1.7
			c-2.3-1.4-4.6-2.9-6.8-4.6c-2.3-1.7-4.3-3.4-6.3-5.4c-0.9-1.1-2-2-2.6-3.1c-0.6-0.6-0.9-1.1-1.1-1.7l-0.6-0.9l-0.9-1.1
			c-4.3-4.8-10.3-7.1-16-8c-0.9-0.3-2-0.3-2.8-0.3C348.4,520.2,353,518.2,357.2,516.2L357.2,516.2z M320.8,545.9
			c2.6-6.3,1.4-13.1,19.7-21.4c2.6-0.3,4,0,6.6,0.6c5.1,1.1,10,3.7,12.8,7.7l0.6,0.6l0.6,0.9c0.3,0.3,0.6,0.9,0.9,1.1
			c0,0-5.1,4.6-16.8,9.1c-4.8,1.4-9.4,2.6-14.3,4c-4.3,0.9-8.3,2-12.5,2.6L320.8,545.9L320.8,545.9z M307.9,563.2
			c-3.4,5.4-7.1,11.1-11.4,16l-1.1,1.1c-4.8-9.7-14.5-25.4-17.7-30.5c1.4,0.3,2.6,0.3,4,0.3c5.4,0.3,10.8,0.3,16.2-0.3
			C301.4,554.4,304.5,559,307.9,563.2z M274.3,528.8c3.4,0,6.6,0.6,9.4,2.3s5.1,4,7.1,6.8c0.9,1.4,2,2.9,2.6,4.6
			c0.9,1.7,1.7,3.1,2.8,4.8l1.7,2.6c-5.4-0.3-10.8-0.9-16-1.7c-5.7-0.9-11.4-1.7-17.1-2.9c-5.7-1.1-18.8-6.3-23.9-7.7
			c1.4-1.7,2.9-3.1,4.3-4.8c1.7-2.3,3.1-4,5.1-4.8c2-0.9,4.6-0.9,6.8-0.9C257.5,527,272.6,528.8,274.3,528.8L274.3,528.8z
			 M189.9,479.5c2.3-2.3,4.3-4.6,6.3-6.8c2-2.6,4-4.8,5.7-7.7c1.7-2.9,2.6-5.7,4-8.5l3.7-8.5c1.4-0.9,2.8-1.7,4.6-2.6v2.3l0.3,2.6
			c0.3,1.7,0.3,3.7,0.6,5.4c0.6,3.7,1.1,7.1,2,10.8c0.9,3.4,2.6,6.8,4.3,10.3c1.7,3.1,3.4,6.3,5.1,9.7c3.7,6.3,7.4,12.5,11.1,18.5
			c2,3.1,4,6,6,9.1c2.3,3.1,4,6,6.8,8.8c0.9,0.9,1.7,1.4,2.6,1.7c0,0,0.3,0,0.3,0.3c-1.4,0-2.6,0.3-4,0.6c-1.4,0.6-2.6,1.4-3.7,2.3
			c-1.1,1.1-1.7,2-2.6,2.8l-5.4,5.4c-3.7,3.7-7.4,7.1-11.1,10.5c-3.7,3.4-7.7,6.8-11.4,10.3c-3.7,3.1-8,6-12.3,8.8
			c-7.1,4.6-14.5,8.8-21.9,12.8c1.4-15.7,2.9-31.3,4-47l2-25.9c0.6-5.7,0.9-11.1,1.4-16.8l0.6-0.3v-0.6c0-1.1,0.3-2.6,0.6-4
			C189.4,482,189.7,480.6,189.9,479.5L189.9,479.5z M173.4,642.5l-62.7-0.6l-60.1-0.3c0.9-19.1,1.7-38.5,2.8-57.6
			c0.6-10,1.1-20.2,2.3-30.2c0.3-2.6,0.6-5.1,0.9-7.4l0.6-3.7c0-0.6,0.3-1.1,0.3-1.7c0.3-0.6,0.3-1.1,0.3-1.7
			c1.4-4,4.8-7.7,8.8-10.3c0.6-0.3,1.1-0.6,1.4-0.9l1.7-0.9c1.1-0.6,2.3-1.1,3.4-1.4c2.3-0.9,4.6-1.7,6.8-2.3c0.6,0,1.1-0.3,1.7-0.3
			l2-0.3c1.4-0.3,2.6-0.6,3.7-0.9c2.6-0.6,4.8-1.4,7.4-2c9.7-2.8,19.4-6,28.8-9.1s19.4-6.3,28.5-10.5c8.8-4,26.2-8,35.1-12
			c-0.9,5.4-1.7,10.5-2.6,16c-1.4,8.5-2.8,17.4-3.7,25.9c-2.3,17.4-4,34.8-6,52.2l-0.6,5.1l4.6-2.3c9.4-4.6,18.2-9.7,27.1-15.4
			c4.3-2.9,8.6-6,12.5-9.7c3.7-3.4,7.7-7.1,11.1-10.8c3.7-3.7,7.4-7.4,10.8-11.1l0.9-0.9c10.3,4.8,12.5,8,23.4,10.3
			c3.4,0.6,6.8,1.1,10,1.7l-0.3,0.3c0.3,0.3,13.7,21.9,19.1,33.1c-0.3,0.3-0.6,0.6-0.6,1.1c-1.1,2-1.7,4.3-2,6.3
			c-0.3,4,0.3,7.7,0.6,11.1l1.4,10.5l1.1,10.5c0.6,6.8,1.4,14,2.6,20.8l-60.4-0.3L173.4,642.5L173.4,642.5z M296.8,643.3
			c0.6-7.1,0.6-14,0.6-21.1c0.3-7.1,0-14.5-0.9-21.7c-0.3-3.4-0.6-7.1-0.3-10.3c0.3-1.4,0.6-2.9,1.1-4c0.3-0.6,0.9-1.1,1.1-1.7
			l0.9-0.9l1.1-1.1c2.6-2.8,4.8-6,6.8-8.8c2-3.1,3.7-6.3,5.7-9.4V564l2.6-6.8l2.6-5.7c4.3,0.3,8.8-0.3,13.1-0.9
			c2.3-0.3,4.3-0.9,6.3-1.1c-4.3,7.4-18.5,31.6-22.2,36.8c-3.7,5.1-3.1,9.4-2.6,14.3c0,1.1,0.3,2.3,0.3,3.7c0.3,6,2.3,32.8,2.8,38.8
			h-17.4L296.8,643.3z M361.5,643.3H319c-0.6-5.7-2.6-33.1-2.9-39c0-1.4-0.3-2.6-0.3-3.7c-0.6-4.8-0.9-8.3,2.3-12.5
			c4.3-6,18-29.9,18.8-31.1l4.6-8c2.9-1.1,5.1-2.3,9.7-4.3c6.3-3.4,8-5.1,11.1-8.5c0,0.3,0.3,0.3,0.3,0.3c0.9,1.1,2,2.3,2.9,3.4
			c2,2.3,4,4.3,6.3,6.3s4.6,3.7,7.4,5.1c1.1,0.9,2.6,1.4,4,2l4,1.7c5.1,2.3,9.7,5.1,14.3,8.3c2.3,1.7,4.6,3.1,6.6,5.1
			c2,1.7,4.6,4,7.1,5.4c5.4,3.1,11.1,4.8,17.4,5.4l3.7,0.3l-0.9-3.7c-0.9-4-2-7.7-3.1-11.4l-3.4-11.1l-7.1-22.2
			c-2.3-7.4-4.8-14.5-7.1-21.9c-2-6.8-4-13.7-5.7-20.2c8.3,4,26.8,8,35.1,11.7c4.6,2,8.8,4,13.7,6l13.7,5.7l27.4,11.1l13.7,5.4
			c4.6,2,9.1,3.4,13.4,5.7c4,2.3,8.3,4.8,10,8.3c0.3,0.6,0.3,0.9,0.6,1.7c0,0.3,0.3,0.6,0.6,1.1c0.3,0.3,0.6,0.9,0.6,0.9
			c0.3,0.3,0.6,1.7,0.9,2.8c0.6,2.3,0.9,4.6,1.4,7.1c1.4,9.7,2.3,19.4,3.1,29.1c1.7,18.8,3.1,37.6,4.3,56.7L423.9,643
			C403.4,643,382.3,643,361.5,643.3L361.5,643.3z M333.3,535.9c2.3,0,4.3,2,4.3,4.3s-2,4.3-4.3,4.3s-4.3-2-4.3-4.3
			S331,535.9,333.3,535.9z M304.5,588.3c2.3,0,4.3,2,4.3,4.3s-2,4.3-4.3,4.3s-4.3-2-4.3-4.3S302.2,588.3,304.5,588.3z M94.2,575.5
			c-0.6-3.4-1.4-7.4-2.6-10.8c-1.1-3.4-2.6-6.8-3.7-10.3c-2.8-6.6-5.7-13.1-8.8-19.7l3.4,10.3l3.4,10.3l3.4,10.3
			c1.1,3.4,1.7,6.8,2.3,10.3c1.1,7.1,1.7,14.2,2.6,21.4l1.1,10.8c0.6,3.4,0.9,7.1,1.4,10.8c0-7.1,0-14.5-0.6-21.7
			C95.6,589.7,95,582.6,94.2,575.5L94.2,575.5z M523.1,549.3c-1.4,1.7-2.6,3.7-3.7,5.4c-2.3,3.7-4.3,7.7-6.3,11.7
			c-4,8-7.4,16.2-10.3,24.5v0.6c-0.6,7.1-0.9,14.3-1.1,21.7c-0.3,7.1-0.6,14.2-0.6,21.7c1.1-7.1,2-14.3,2.6-21.4
			c0.9-7.1,1.4-14.3,2-21.4c3.1-8.3,6.3-16.2,9.7-24.5c1.7-4,3.4-8,5.4-12s4-8,7.1-10.8C526.2,545.9,524.5,547.6,523.1,549.3
			L523.1,549.3z"/>
		<path id="SvgjsPath15293" class="st5" d="M401.7,486c-0.3,12,2.3,24.2,4.8,35.9c0.9,3.7,12.8,39.3,12.5,39.3
			c0,0-19.4-16.5-23.1-18.8c-11.1-6.8-23.4-12.3-35.1-17.7c-0.9-0.3-1.4,0.9-0.6,1.1c20.8,11.4,44.2,23.1,61,40.2
			c0.3,0.3,1.1,0,1.1-0.6c-10.3-26.2-13.1-52.4-19.1-79.5C402.8,484.9,401.7,485.2,401.7,486L401.7,486z M526,537
			c-14.3-6.8-29.9-10.8-44.7-16.2c-18.8-6.8-47-15.1-65.3-23.4c-0.9-0.6-1.7,0.9-0.9,1.4c14.5,10,41.3,16.5,57.9,22.8
			c16.8,6.3,34.8,13.7,52.4,17.4C526.2,539,527.1,537.6,526,537L526,537z M519.1,543.6c-7.1,7.4-13.4,16.5-16,26.2
			c-0.3,0.6,0.9,1.1,1.1,0.6c4-9.7,8.5-18.2,16-25.6C520.5,543.9,519.7,543,519.1,543.6z M536.2,549.6c0-1.1-1.7-1.1-1.7,0
			c0.3,16.8,0.6,33.6,2.3,50.2c0,1.1,1.7,1.1,1.7,0C538.8,583.2,537.6,566.1,536.2,549.6z M237,523.1c-17.7,16.8-37,32.2-54.4,49
			c-0.6,0.6,0.3,2,1.1,1.4c20.5-13.4,38.5-31.1,55.6-48.4C240.1,523.9,238.1,521.9,237,523.1z"/>
	</g>
	<g id="svga-group-ears-left">
		<path id="SvgjsPath14697" class="st0" d="M201.7,246.2c0,0-31.8-27.9-36.9-28.4c-4.4-0.4-15.3,22.8-20.1,37.5
			c-1.3,3.9-1,8.2,0.7,12c4.6,10.2,14.8,31.5,24,42.1c0,0,7.8,1.7,10.2,0.9c2.5-0.7,21.6-16.2,23.6-22.1
			C205.2,282.2,205.6,256,201.7,246.2L201.7,246.2z"/>
		<path id="SvgjsPath14698" class="st6" d="M204.5,257.1c0.5,3.7,0.8,7.5,0.9,11.3c0.1,3.8,0.2,7.6,0,11.3c-0.1,1.9-0.3,3.8-0.5,5.7
			c-0.1,1-0.3,1.9-0.6,2.9s-0.8,2-1.3,2.7c-2.1,3.2-4.6,5.6-7,8c-2.5,2.4-5.1,4.6-7.7,6.8c-1.3,1.1-2.7,2.1-4,3.2
			c-0.7,0.5-1.4,1-2.1,1.5l-1.1,0.7c-0.5,0.2-1,0.5-1.5,0.5c-1.9,0.2-3.5,0-5.2-0.3c-1.7-0.2-3.3-0.5-4.9-0.9l-0.4-0.1l-0.2-0.3
			c-4.1-5-7.5-10.5-10.7-16.1c-3.1-5.6-6-11.5-8.7-17.4l-4-8.9c-1.4-3-2-6.5-1.5-9.9c0.2-1.7,0.7-3.2,1.3-4.8c0.5-1.5,1.1-3,1.6-4.6
			c1.1-3,2.3-6,3.5-9c2.5-5.9,5-11.8,8.4-17.2c0.9-1.3,1.8-2.7,2.9-3.9c0.5-0.6,1.1-1.2,1.9-1.7c0.4-0.2,0.9-0.5,1.5-0.5
			c0.5,0,0.9,0.2,1.3,0.3c3,1.3,5.3,3.2,7.8,5c4.9,3.7,9.6,7.6,14.2,11.7c4.7,4,9.2,8.2,13.7,12.5
			C203.3,249.7,203.9,253.4,204.5,257.1L204.5,257.1z M172.8,223.8c-2.4-1.7-5-3.6-7.4-4.6c-0.3-0.1-0.6-0.2-0.7-0.2
			c-0.1,0-0.3,0.1-0.6,0.2c-0.5,0.3-1,0.7-1.5,1.3c-1,1-1.9,2.3-2.7,3.5c-3.3,5.1-6.2,10.7-8.9,16.4c-1.3,2.9-2.6,5.8-3.8,8.7
			c-0.6,1.5-1.1,3-1.7,4.5c-0.5,1.5-1.1,3-1.3,4.6c-0.4,3.2,0.2,6.5,1.6,9.3c1.3,2.9,2.8,5.8,4.2,8.7c2.9,5.8,6,11.4,9.3,16.8
			s6.7,10.8,10.7,15.4l-0.6-0.4c3.1,0.6,6.6,1.2,9.4,0.9c0.3,0,0.5-0.2,0.8-0.3l1-0.6l2-1.4c1.3-1,2.7-2,4-3.1
			c2.6-2.1,5.2-4.3,7.6-6.7c2.4-2.3,4.9-4.7,6.8-7.4c0.5-0.7,0.8-1.3,1.1-2.1c0.2-0.8,0.4-1.7,0.5-2.5c0.3-1.8,0.5-3.6,0.6-5.4
			c0.3-3.7,0.4-7.4,0.4-11.1s-0.1-7.5-0.4-11.2c-0.3-3.7-0.8-7.5-1.9-10.9C192.1,238.8,182.6,231,172.8,223.8L172.8,223.8z"/>
		<path id="SvgjsPath14699" class="st6" d="M202.5,269.9c0,0-30.6-38.7-36.4-35.5c-5.7,3.2-14.8,21.5-14.8,27.6
			c0.1,8.9,9.5,23.9,14.3,28.4s10.5,7.3,18.1,5.5C191.3,294.1,202.5,269.9,202.5,269.9L202.5,269.9z"/>
		<path id="SvgjsPath14700" class="st2" d="M179.1,269.8c-1.3-3.6-2.7-7.1-4.1-10.7c-1.4-3.5-3-7-4.7-10.4s-3.5-6.7-5.6-9.8
			l-0.2-0.3l-0.2,0.3c-2.1,3.4-4.1,6.8-6,10.3c-0.9,1.8-1.9,3.6-2.7,5.4c-0.9,1.8-1.6,3.7-2.4,5.6l-0.1,0.3l0.1,0.3
			c1.3,4,2.7,8,4.2,11.9c0.7,2,1.5,3.9,2.4,5.8s1.7,3.8,2.8,5.7l0.5,0.9l0.7-0.7c1-0.9,1.7-1.9,2.5-2.9c0.7-1.1,1.4-2.2,2-3.3
			c1.1-2.3,1.8-5.1,1.7-7.8v-0.2l-0.1-0.1c-1.4-2.8-2.9-5.6-4.4-8.4l-0.1,0.1c1.2,2.9,2.4,5.8,3.6,8.6c-0.1,2.5-0.9,4.8-1.9,6.9
			c-0.9,1.8-2.2,3.3-3.5,4.7c-0.7-1.4-1.4-2.9-2.1-4.4l-2.3-5.8c-1.5-3.8-2.9-7.6-4.3-11.4c1.3-3.7,2.7-7.4,4.3-10.9s3.5-6.9,5.6-10
			c1.9,3,3.3,6.4,4.8,9.7l4.4,10.5l4.4,10.5c1.5,3.5,3,7,4.6,10.4l0.2-0.1C181.7,277,180.5,273.4,179.1,269.8L179.1,269.8z"/>
	</g>
	<g id="svga-group-ears-right">
		<path id="SvgjsPath14701" class="st0" d="M398.2,246.2c0,0,31.8-27.9,36.9-28.4c4.4-0.4,15.3,22.8,20.1,37.5c1.3,3.9,1,8.2-0.7,12
			c-4.6,10.2-14.8,31.5-24,42.1c0,0-7.8,1.7-10.2,0.9c-2.5-0.7-21.6-16.2-23.6-22.1C394.7,282.2,394.3,256,398.2,246.2L398.2,246.2z
			"/>
		<path id="SvgjsPath14702" class="st6" d="M398.1,246.1c4.5-4.3,9-8.5,13.7-12.5c4.6-4,9.3-8,14.2-11.7c2.5-1.8,4.8-3.7,7.8-5
			c0.5-0.1,0.8-0.3,1.3-0.3c0.6,0,1.1,0.2,1.5,0.5c0.8,0.5,1.4,1.1,1.9,1.7c1.1,1.2,2,2.5,2.9,3.9c3.4,5.4,5.9,11.3,8.4,17.2
			c1.2,3,2.3,6,3.5,9c0.5,1.5,1.1,3,1.6,4.6c0.5,1.5,1.1,3.1,1.3,4.8c0.5,3.3-0.1,6.9-1.5,9.9l-4,8.9c-2.8,5.9-5.6,11.7-8.7,17.4
			c-3.2,5.6-6.5,11.2-10.7,16.1l-0.2,0.3l-0.4,0.1c-1.7,0.4-3.3,0.7-4.9,0.9c-1.7,0.2-3.3,0.5-5.2,0.3c-0.5-0.1-1.1-0.3-1.5-0.5
			L418,311c-0.7-0.5-1.4-1-2.1-1.5c-1.4-1-2.7-2.1-4-3.2c-2.7-2.2-5.2-4.4-7.7-6.8c-2.5-2.5-5-4.8-7-8c-0.6-0.8-1-1.8-1.3-2.7
			c-0.3-1-0.4-2-0.6-2.9c-0.2-1.9-0.4-3.8-0.5-5.7c-0.2-3.8-0.2-7.6,0-11.3c0.2-3.8,0.4-7.6,0.9-11.3
			C396,253.4,396.7,249.7,398.1,246.1L398.1,246.1z M398.3,246.3c-1.1,3.4-1.6,7.2-1.9,10.9s-0.4,7.4-0.4,11.2
			c0,3.7,0.2,7.4,0.4,11.1c0.1,1.9,0.3,3.7,0.6,5.4c0.2,0.9,0.3,1.8,0.5,2.5c0.3,0.7,0.6,1.3,1.1,2.1c1.9,2.7,4.4,5.1,6.8,7.4
			c2.5,2.3,5,4.5,7.6,6.7c1.3,1.1,2.6,2.1,4,3.1l2,1.4l1,0.6c0.3,0.1,0.5,0.3,0.8,0.3c2.8,0.3,6.3-0.4,9.4-0.9l-0.6,0.4
			c4-4.6,7.4-10,10.7-15.4c3.2-5.5,6.4-11.1,9.3-16.8c1.5-2.9,2.9-5.8,4.2-8.7c1.4-2.8,2-6.1,1.6-9.3c-0.2-1.6-0.7-3-1.3-4.6
			s-1.1-3-1.7-4.5c-1.1-3-2.5-5.9-3.8-8.7c-2.7-5.7-5.6-11.3-8.9-16.4c-0.8-1.3-1.7-2.5-2.7-3.5c-0.5-0.5-1-1-1.5-1.3
			c-0.2-0.1-0.4-0.2-0.6-0.2s-0.5,0.2-0.7,0.2c-2.4,1-5,2.9-7.4,4.6C417.3,231,407.8,238.8,398.3,246.3z"/>
		<path id="SvgjsPath14703" class="st6" d="M397.5,269.9c0,0,30.6-38.7,36.4-35.5c5.7,3.2,14.8,21.5,14.8,27.6
			c-0.1,8.9-9.5,23.9-14.3,28.4s-10.5,7.3-18.1,5.5C408.7,294.1,397.5,269.9,397.5,269.9z"/>
		<path id="SvgjsPath14704" class="st2" d="M446.8,260.3c-0.7-1.9-1.5-3.8-2.4-5.6c-0.9-1.8-1.8-3.6-2.7-5.4c-1.9-3.5-3.9-7-6-10.3
			l-0.2-0.3l-0.2,0.3c-2.1,3.1-3.9,6.5-5.6,9.8c-1.7,3.4-3.2,6.8-4.7,10.4c-1.4,3.5-2.9,7.1-4.1,10.7c-1.3,3.6-2.6,7.2-3.6,10.9
			l0.2,0.1c1.6-3.4,3-7,4.6-10.4l4.4-10.5l4.4-10.5c1.5-3.3,2.9-6.7,4.8-9.7c2.1,3.1,4,6.5,5.6,10c1.7,3.5,3.1,7.2,4.3,10.9
			c-1.4,3.8-2.8,7.6-4.3,11.4l-2.3,5.8c-0.7,1.5-1.3,3-2.1,4.4c-1.3-1.4-2.6-2.9-3.5-4.7c-1.1-2.1-1.8-4.4-1.9-6.9
			c1.2-2.8,2.4-5.8,3.6-8.6L435,262c-1.5,2.8-3,5.6-4.4,8.4l-0.1,0.1v0.2c-0.1,2.7,0.6,5.5,1.7,7.8c0.6,1.2,1.2,2.3,2,3.3
			c0.7,1,1.5,2,2.5,2.9l0.7,0.7l0.5-0.9c1.1-1.9,2-3.8,2.8-5.7c0.8-1.9,1.6-3.9,2.4-5.8c1.5-3.9,2.9-7.9,4.2-11.9l0.1-0.3
			L446.8,260.3L446.8,260.3z"/>
	</g>
	<g id="svga-group-faceshape-single">
		<path id="SvgjsPath13451" class="st0" d="M419.7,173.6c-6.5-28.5-18.7-45.6-45.1-59.3c-27.6-14.3-74.7-13.7-74.7-13.7
			s-47.1-0.6-74.7,13.7c-26.1,13.7-38.5,30.8-45.1,59.3c-2.7,11.4,0,38.8,0,38.8s4.7,35.1,5,51.9c0.6,16.5,4.1,51.3,6.5,71.5
			c2.9,20.2,4.3,21.9,4.3,21.9c36.3,41,67.3,72.2,76.3,79.5c8.7,7.1,42.7,6.7,52.3,1c10.3-6,28-24,78.6-78.9c0,0,0.8-3,3.2-23.2
			s6.3-46.5,7.5-71.8c0.6-16.5,5-51.9,5-51.9C419.4,212.1,422.4,185,419.7,173.6L419.7,173.6z"/>
		<path id="SvgjsPath13452" class="st2" d="M419.7,173.6c-6.5-28.5-18.7-45.6-45.1-59.3c-27.6-14.3-74.7-13.7-74.7-13.7
			s-47.1-0.6-74.7,13.7c-26.1,13.7-38.5,30.8-45.1,59.3c-2.7,11.4,0,38.8,0,38.8s4.7,35.1,5,51.9c0.6,16.5,4.1,51.3,6.5,71.5
			c2.9,20.2,4.3,21.9,4.3,21.9c36.3,41,67.3,72.2,76.3,79.5c8.7,7.1,42.7,6.7,52.3,1c10.3-6,28-24,78.6-78.9c0,0,0.8-3,3.2-23.2
			s6.3-46.5,7.5-71.8c0.6-16.5,5-51.9,5-51.9C419.4,212.1,422.4,185,419.7,173.6L419.7,173.6z M419.6,202.7l-1,9.2l-0.2,0.4
			c-1.6,12.2-3.3,24.4-4.7,36.7c-0.7,6.1-1.2,12.3-1.7,18.4s-1.2,12.2-1.9,18.3c-1.5,12.2-3.4,24.3-5.1,36.5
			c-0.9,6.1-1.8,12.3-2.5,18.3l-1.3,9.1l-0.7,4.5l-0.4,2.2l-0.2,1.2l-32.2,34.3c-11,11.5-22,23.3-33.6,34c-2.9,2.6-5.9,5.2-8.9,7.4
			c-0.7,0.6-1.5,1-2.3,1.5c-0.4,0.3-1.7,0.9-2.1,1.1c-1.6,0.6-3.4,1.1-5.2,1.5c-7.5,1.5-15.6,1.9-23.4,1.5
			c-3.9-0.3-7.8-0.7-11.4-1.6c-1.8-0.5-3.5-1-4.9-1.7c-0.3-0.2-1.5-1-1.9-1.3c-0.7-0.6-1.5-1.2-2.2-1.9
			c-5.9-5.2-11.6-10.9-17.3-16.5c-11.4-11.2-22.5-22.7-33.4-34.4L204.9,364l-4-4.4l-2-2.2l-0.5-0.5c0,0-0.5-0.9-0.6-1.2
			c-1.1-3.5-1.8-7.5-2.5-11.3c-1.5-7.7-2.3-15.4-3.3-23.3c-0.9-7.8-1.9-15.6-2.7-23.4s-1.5-15.6-2.1-23.5
			c-0.6-7.8-0.7-15.7-1.4-23.5c-0.6-7.9-1.4-15.7-2.3-23.5c-0.8-7.9-2-15.6-2.3-23.4c-0.4-7.8-0.5-15.7,0.2-23.3
			c0.2-1.9,0.4-3.8,0.8-5.6c0.4-1.8,1-3.7,1.5-5.6c1.1-3.7,2.3-7.4,3.8-11c2.9-7.2,6.7-13.9,11.6-19.8c4.9-6,10.9-10.9,17.4-15.2
			c3.3-2.2,6.7-4.1,10.2-5.9c3.4-1.8,7.1-3.2,10.8-4.5c7.5-2.6,15.3-4.3,23.2-5.6c7.9-1.4,15.9-2.3,24-2.9s16.1-0.9,24.2-0.7
			c16.2,0.4,32.4,1.8,48,5.8c7.8,2,15.3,4.8,22.3,8.8c7,3.9,13.6,8.4,19.3,14c5.5,5.7,10.2,12.1,13.5,19.3
			c3.4,7.1,5.8,14.7,7.5,22.3c0.7,3.1,0.9,6.4,1,9.6c0.1,3.2,0,6.5-0.1,9.7C420.1,196.2,419.9,199.5,419.6,202.7L419.6,202.7z"/>
	</g>
	
		<g id="svga-group-mouth-single" transform="matrix(0.7499991000000003,0,0,0.7499991000000003,25.199165461847286,31.36545410175168)">
		<path id="SvgjsPath14395" class="st7" d="M421.9,459.1c-0.6-0.9-1.7-1.7-2.6-2.3c-0.9-0.3-2.3-0.3-2.3,1.1c0,0.9,0.6,1.7,1.4,2.3
			c-1.9,3.5-6.8,4.2-10.8,4.4c-4.3,0.3-7.7,0.6-12.8-0.5c-9.7-2.6-18.6-5.2-27.4-4.6c-8.3,0.3-14.6,2.8-22.6,5.1
			c-9.4,2.6-21.8,7.8-28.4-1.9c0.9-0.6,1.7-1.1,2.3-2c1.1-1.1,0-2.9-1.4-2.6c-2.9,0.9-6.6,4.6-6.3,7.7c0,0.6,0.9,1.1,1.4,0.9
			c1.1-0.9,2-2,2.9-2.9c2.6,4.8,7.7,7.1,13.4,7.7c5.7,0.3,11.1-1.4,16.8-2.6c6.3-1.4,12.5-2,18.8-2.3c11.7-0.3,23.1,0.6,34.8,1.1
			c6.8,0.3,16.2,1.1,21.4-4.3c0.3,0.9,0.6,1.7,1.4,2.3c0.3,0.3,0.9,0,1.1-0.3C425,463.9,423.1,460.8,421.9,459.1L421.9,459.1z"/>
		<path id="SvgjsPath14396" class="st1" d="M381.2,477.6c-9.7,0.6-18.8,2-28.5,1.4c-0.9,0-0.9,1.1-0.3,1.1c9.1,2,20,2.6,29.1-0.6
			C382.6,479.3,382.6,477.6,381.2,477.6z"/>
	</g>
	<g id="svga-group-eyesback-right">
		<path id="SvgjsPath13082" class="st8" d="M356.4,228.7c21.4,0,38.5,16.5,38.5,37s-17.1,37-38.5,37s-38.5-16.5-38.5-37
			S335,228.7,356.4,228.7z"/>
	</g>
	<g id="svga-group-eyesiriswrapper-right" transform="matrix(1,0,0,1,0,0)">
		<g id="svga-group-eyesiriscontrol-right" transform="matrix(1,0,0,1,0,0)">
			<g id="svga-group-eyesiris-right">
				<path id="SvgjsPath14247" class="st9" d="M344.8,257c7,2.4,10.7,10,8.3,17c-2.4,7-10,10.7-17,8.3s-10.7-10-8.3-17
					C330.1,258.3,337.8,254.6,344.8,257z"/>
				<path id="SvgjsPath14248" class="st10" d="M335.8,282.9c-7.3-2.5-11.2-10.5-8.7-17.8c2.5-7.3,10.5-11.2,17.8-8.7
					c7.3,2.5,11.2,10.5,8.7,17.8C351.1,281.5,343.1,285.4,335.8,282.9z M344.5,257.9c-6.4-2.2-13.7,1.3-15.9,7.7
					c-2.2,6.4,1.3,13.7,7.7,15.9s13.7-1.3,15.9-7.7C354.4,267.3,350.9,260.1,344.5,257.9z"/>
				<path id="SvgjsPath14249" class="st11" d="M344.1,258.9c6,2.1,9.1,8.5,7.1,14.5c-2.1,6-8.5,9.1-14.5,7.1
					c-6-2.1-9.1-8.5-7.1-14.5C331.7,260,338.2,256.9,344.1,258.9z"/>
				<path id="SvgjsPath14250" class="st12" d="M343.6,260.5c5.1,1.8,7.8,7.2,6,12.3s-7.2,7.8-12.3,6c-5.1-1.8-7.8-7.2-6-12.3
					C333,261.4,338.5,258.8,343.6,260.5z"/>
				<path id="SvgjsPath14251" d="M342.7,263c3.8,1.3,5.7,5.2,4.4,9c-1.3,3.8-5.2,5.7-9,4.4s-5.7-5.2-4.4-9S338.9,261.7,342.7,263z"
					/>
				<path id="SvgjsPath14252" class="st8" d="M339.7,261.9c1.3,0.5,2.1,1.9,1.6,3.3c-0.5,1.3-1.9,2.1-3.3,1.6
					c-1.4-0.5-2.1-1.9-1.6-3.3C337,262.2,338.4,261.5,339.7,261.9z M343.8,275.4c0.6,0.2,0.8,0.6,0.6,1.1s-0.6,0.8-1.1,0.6
					c-0.6-0.2-0.8-0.6-0.6-1.1C343,275.5,343.3,275.2,343.8,275.4z"/>
			</g>
		</g>
	</g>
	<g id="svga-group-eyesfront-right">
		<path id="SvgjsPath13091" class="st0" d="M355.4,227.2c-22.2,0-40.2,17.4-40.2,38.8s18,38.8,40.2,38.8s40.2-17.4,40.2-38.8
			S377.6,227.2,355.4,227.2L355.4,227.2z M370.5,282.8c-12.5,5.1-42.7,0.3-42.7,0.3c0.3-5.4,3.7-16.5,13.4-24.8
			c9.7-8.3,49-10.8,47.3-2C386.5,265.1,383,278,370.5,282.8L370.5,282.8z"/>
		<path id="SvgjsPath13094" d="M389,256.9c0,0,0-3.7-2.6-4.8c-1.7-0.6-12.5-2.8-25.9-2c-7.4,0.6-13.1,3.1-17.4,6
			c-0.9,0.6-1.7,0.9-2.3,1.4c-2.6,2.3-4.8,4.6-6.8,7.4c-3.7,5.4-6.6,11.7-6.6,18.2c0,0.9,0.3,2.3,0.3,2.3s0.3-0.9,0.6-2
			c6.3,1.1,12.3,2,18.8,2.3c3.4,0.3,6.6,0.3,9.7,0.3c3.4,0,6.6-0.6,9.7-1.1c3.1-0.6,6.3-2.3,9.1-4c2.6-2,4.8-4.6,6.8-7.1
			c1.7-2.9,3.1-5.7,4.3-8.8c0.6-1.4,0.9-3.1,1.4-4.8l0.6-2.3c0-0.3,0-0.3,0.3-0.6V256.9L389,256.9z M387.9,257.2l-0.6,2.3
			c-0.3,1.7-0.9,3.1-1.1,4.8c-1.1,3.1-2.3,6-4,8.8c-3.4,5.4-9.4,9.1-15.7,10.3c-1.7,0.3-3.1,0.6-4.8,0.9c-1.7,0-3.1,0.3-4.8,0.3
			c-3.1,0.3-6.6,0.3-9.7,0c-6.3-0.3-12.5-0.6-18.8-1.1c1.1-4.3,4.3-13.1,6.8-16.2c3.4-4.3,12-12.8,24.2-14
			c10.3-0.9,24.5,2.3,28.5,3.4V257.2L387.9,257.2z"/>
	</g>
	
		<g id="svga-group-eyebrows-left-rotate" transform="matrix(1,1.7453292519943295e-9,-1.7453292519943295e-9,1,1.2391838311032188e-7,-1.3753196981269866e-7)">
		<g id="svga-group-eyebrows-left">
			<path id="SvgjsPath13002" class="st13" d="M279.4,215.3c0,0-0.6,11.1-2.9,20.2c0,0-45.9-13.1-51.3-13.7
				c-5.4-0.6-23.9,11.7-23.9,11.7l18.5-27.9l10.8,0.9l-1.7-2.6l22.8,5.4l21.4,3.4l1.4,8l1.1-8l1.4,8L279.4,215.3L279.4,215.3z"/>
			<path id="SvgjsPath13003" class="st14" d="M279.4,215.3l-0.3,0.3c-0.3,0.9-0.6,1.4-1.1,2.3c-0.3,0.6-0.6,1.1-0.9,2l-1.1-7.1
				l-0.6-2.6l-0.6,2.6l-0.9,4.6l-0.9-4.6v-0.6h-0.6l-11.1-2l-5.4-0.9c-1.7-0.3-3.7-0.6-5.4-0.9c-7.4-1.7-14.5-3.4-21.9-5.1l-2.3-0.6
				l1.4,2.3l0.9,0.3l-8.8-0.6h-0.6L219,205c-3.1,4.8-6,9.4-9.1,14.2l-9.1,14.3l-1.1,1.7l1.7-1.1c5.4-3.7,11.1-7.1,17.1-9.7
				c1.4-0.6,3.1-1.1,4.6-1.7c0.9-0.3,1.4-0.3,2.3-0.3l1.1,0.3l1.1,0.3c3.1,0.9,6.6,1.7,9.7,2.6c6.6,2,12.8,3.7,19.4,5.4
				s12.8,3.4,19.4,5.1l0.6,0.3v-0.6c0.9-3.4,1.1-6.8,1.7-10.3c0.3-1.7,0.3-3.4,0.6-5.1c0-0.9,0-1.7,0.3-2.6v-2.3L279.4,215.3
				C279.4,215.5,279.4,215.3,279.4,215.3L279.4,215.3z M279.2,216.4l-0.3,1.1l-0.3,2.6l-0.9,5.1c-0.6,3.1-1.1,6.3-2,9.4
				c-6.3-2-12.5-3.7-18.8-5.7c-6.6-2-12.8-3.7-19.4-5.1c-3.1-0.9-6.6-1.4-9.7-2.3l-1.1-0.3l-1.1-0.3c-0.9,0-1.7,0-2.6,0.3
				c-1.7,0.6-3.1,1.1-4.6,1.7c-5.4,2.6-10.5,5.4-15.7,8.8l8.3-12c3.1-4.6,6.3-9.1,9.1-13.4l10.3,0.9l2,0.3l-1.1-2l-0.3-0.3
				c6.6,1.7,13.1,3.1,19.7,4.6l11.1,1.7l10.5,1.4l1.4,7.1l0.6,3.4l0.6-3.4l0.9-5.7l1.1,5.4l0.3,0.9l0.3-0.9l0.9-2.6
				c0.3-0.9,0.6-1.7,0.9-2.3L279.2,216.4L279.2,216.4z M270.9,229.8c0-2.3-0.3-4.8-0.6-7.1c-0.3-1.1-0.3-2.3-0.6-3.4
				c-0.3-1.1-0.6-2.3-1.1-3.4c0.3,1.1,0.3,2.3,0.3,3.4c0,1.1,0.3,2.3,0.6,3.4C269.7,224.9,270.3,227.5,270.9,229.8z M267.5,224.9
				c-0.6-0.9-0.9-2-1.4-2.9l-1.4-2.9l-2.9-5.4l-0.6-1.4v1.7c0,4.6,0,9.1,0.3,13.7l0.9-0.3c-0.9-1.1-1.7-2.6-2.6-3.7l-2.6-3.4
				c-0.9-1.1-1.7-2.3-2.9-3.4c-0.9-1.1-2-2.3-3.1-3.1c0.9,1.1,2,2.3,2.8,3.4l2.6,3.4c0.9,1.1,1.7,2.3,2.6,3.7
				c0.9,1.1,1.7,2.6,2.3,3.7l0.9,1.4v-1.7c0-4.6-0.3-9.1-0.3-13.7l-0.6,0.3l3.1,5.4l1.7,2.6C266.3,223.2,266.9,224.1,267.5,224.9
				L267.5,224.9z"/>
		</g>
	</g>
	
		<g id="svga-group-eyebrows-right-rotate" transform="matrix(1,1.7453292519943295e-9,-1.7453292519943295e-9,1,1.2705996255135688e-7,-2.123193070246998e-7)">
		<g id="svga-group-eyebrows-right">
			<path id="SvgjsPath13004" class="st13" d="M320.5,225.8c0,0,2.6,8.8,6.6,15.7c0,0,42.5-17.4,47.9-18.5s25.6,5.7,25.6,5.7
				L377.2,209l-10.3,2.3l1.1-2.3l-21.4,7.7l-20.2,5.7v6.6l-2.6-6.3v6.6L320.5,225.8L320.5,225.8z"/>
			<path id="SvgjsPath13005" class="st14" d="M400.8,228.4l-11.4-10c-3.7-3.4-7.7-6.6-11.7-10l-0.3-0.3h-0.3l-8.5,1.7l0.3-0.6l1.1-2
				l-2.3,0.9c-6.8,2.3-13.7,4.8-20.5,7.4l-5.1,1.7L337,219l-10.5,3.1h-0.6v4.3l-1.7-3.7l-0.9-2v2l0.3,5.7c-0.3-0.6-0.9-0.9-1.1-1.4
				c-0.6-0.6-0.9-1.1-1.4-1.7l-0.3-0.3v0.9l0.3,0.6l0.3,1.1c0.3,0.6,0.6,1.4,0.6,2c0.6,1.4,0.9,2.6,1.4,4c0.9,2.6,2.3,5.4,3.4,8
				l0.3,0.6l0.6-0.3c6-2.3,12-4.6,18.2-7.1c6-2.3,12-4.8,18-7.1c3.1-1.1,6-2.3,9.1-3.4l1.1-0.3l1.1-0.3c0.9-0.3,1.4-0.3,2.3-0.3
				c1.7,0,3.1,0.3,4.8,0.6c6.3,1.1,12.5,3.1,18.8,5.1l1.7,0.6L400.8,228.4L400.8,228.4z M377.2,222.4c-0.9,0-1.7,0-2.6,0.3l-1.1,0.3
				l-1.1,0.3c-3.1,0.9-6.3,2-9.1,3.1c-6.3,2.3-12.3,4.6-18.2,6.8c-6,2.3-11.7,4.8-17.4,7.4c-1.4-2.3-2.6-4.8-3.4-7.1
				c-0.6-1.1-1.1-2.6-1.7-4l-0.9-2l-0.3-0.9l-0.3-0.6v-0.3c0.6,0.6,0.9,1.1,1.1,1.7c0.6,0.6,0.9,1.1,1.4,2l0.6,0.6v-5.4l1.7,4.3
				l1.1,2.6v-8.8l10.3-2.8c3.4-0.9,7.1-2,10.5-2.9c6.3-2.3,12.3-4.3,18.5-6.6v0.3l-0.9,1.7l2-0.6l10-2.3c3.7,3.1,7.7,6.3,11.4,9.4
				l10.3,8.3c-5.7-1.7-11.1-3.4-17.1-4.6C380.3,223,378.9,222.7,377.2,222.4L377.2,222.4z M331.6,235.8c-0.6-2-0.6-3.7-0.6-5.7v-2.8
				c0-0.9,0-2,0.6-2.9c0,0.9,0.3,2,0.3,2.9s0.3,2,0.3,2.8C331.9,232.1,331.9,234.1,331.6,235.8z M334.2,231.5
				c0.3-0.9,0.6-1.7,0.9-2.3l0.9-2.3l1.7-4.8l0.6-1.1l0.3,1.1c0.9,3.7,1.4,7.4,2.3,10.8H340l1.7-3.4c0.6-1.1,1.1-2.3,2-3.1
				c0.6-1.1,1.4-2,2-3.1s1.4-2,2.3-2.8c-0.9,0.9-1.4,2-2,3.1s-1.1,2-2,3.1l-1.7,3.4l-1.7,3.4l-0.6,1.1l-0.3-1.1
				c-0.9-3.7-1.4-7.4-2.3-10.8h0.9l-2,4.6l-1.1,2.3C335,230.1,334.7,230.6,334.2,231.5L334.2,231.5z"/>
		</g>
	</g>
	<g id="svga-group-beard-single-move" transform="matrix(1,0,0,1,-1,0)">
		<g id="svga-group-beard-single">
		</g>
	</g>
	<g id="svga-group-mustache-single">
	</g>
	<g id="svga-group-nose-single">
		<path id="SvgjsPath13191" class="st0" d="M297.4,349.2c1.9,0.3,12.9-9.4,12.9-9.4s5.9,4.5,10.3,4.1c4.4-0.5,7-3.1,8.5-5.6
			c1.6-2.5-2.5-8.8-5.1-12.6c-2.6-3.7-10.1-14.9-11.7-20c-3-9.8-8.6-13.6-14-13.2c-5.5,0.3-11.5,4.3-13.1,9.8s-2.1,12.2-5.1,16.4
			c-3.1,4.2-9.5,11.4-10.1,13.5s-0.3,8,3.5,10.1c4.9,2.8,12.3-1.5,12.3-1.5S294.9,348.8,297.4,349.2L297.4,349.2z"/>
		<path id="SvgjsPath13192" class="st2" d="M329.3,333.2c-1.2-2.9-3.1-5.3-5.2-7.4c1.6,2.5,3.1,5.1,4,7.9c0.4,1.4,0.7,2.8,0.5,4
			c-0.1,0.7-0.3,1.2-0.7,1.7c-0.4,0.6-0.8,1.1-1.3,1.5c-2,1.9-4.8,2.6-7.6,2.2c-1.4-0.2-2.8-0.6-4.2-1.1c-1.3-0.5-2.5-1.1-3.7-1.8
			c1.1-1.6,2.1-3.3,2.9-5c-2.8,2.6-5.4,5.2-8.2,7.5c-1.4,1.1-2.8,2.3-4.3,3.1c-1.5,0.9-3,1.6-4.3,1.5c-0.3,0-0.6-0.1-0.9-0.1
			c-0.3-0.1-0.5-0.2-0.9-0.5c-0.7-0.4-1.4-1-2.1-1.6c-1.4-1.1-2.8-2.3-4.2-3.5c-2.8-2.4-5.7-4.8-8.7-7.1c1.5,2.2,3.1,4.4,4.8,6.4
			c-1.4,0.6-2.9,1.2-4.4,1.5c-1.8,0.3-3.7,0.4-5.2-0.3c-3.1-1.5-4.9-5.2-4.4-8.4c0.1-0.8,0.4-1.4,0.9-2.1s1-1.5,1.6-2.3
			c1.1-1.5,2.3-2.9,3.6-4.3l1.9-2.1c0.7-0.8,1.3-1.6,1.9-2.4c1.2-1.6,2.2-3.4,3-5.2c0.9-1.9,1.4-4,1.7-5.9c0.3-1.9,0.6-3.8,0.9-5.8
			c0.4-3.8,0.8-7.7,0.9-11.5c0.3-7.7,0.1-15.4-1.5-23c0.1,7.7-0.4,15.2-1.1,22.8c-0.4,3.8-0.8,7.6-1.4,11.3
			c-0.3,1.9-0.6,3.7-0.9,5.6s-0.8,3.5-1.5,5.1c-0.7,1.7-1.6,3.2-2.7,4.7c-0.5,0.7-1.1,1.5-1.6,2.1c-0.7,0.7-1.3,1.5-1.9,2.2
			c-1.2,1.5-2.4,3-3.5,4.6c-0.6,0.8-1.1,1.6-1.6,2.5c-0.6,0.9-1,2.2-1.1,3.2c-0.4,4.5,2.4,8.7,6.4,10.1c2.1,0.7,4.2,0.3,6-0.3
			c1.5-0.5,2.9-1.3,4.2-2.2c0.7,0.8,1.3,1.6,2,2.4c1.3,1.4,2.6,2.7,4,4c0.7,0.7,1.5,1.3,2.3,1.9c0.4,0.3,1,0.6,1.6,0.9
			c0.6,0.2,1.3,0.3,1.9,0.3c2.5,0,4.4-1.1,6.1-2.2c1.7-1.2,3.1-2.5,4.4-3.9s2.4-2.8,3.4-4.4c2.1,1.9,4.7,3.6,7.6,4.1
			c1.5,0.3,3.2,0.3,4.7,0c1.6-0.4,3-1.2,4.2-2.3c0.6-0.5,1.1-1.2,1.5-1.9c0.5-0.7,0.8-1.5,0.9-2.4
			C330.3,336.2,329.9,334.6,329.3,333.2L329.3,333.2z"/>
	</g>
	<path id="SvgjsPath13228" class="st13" d="M188.3,258.6c0,0,4.4-7.7,5-20.8s0-31.1,0.6-40.5s3-23.4,4.4-28.5
		c1.2-5.1,1.8-10,5.3-15.1c3.6-5.1,7.1-10.3,15.4-12.3c8.3-2,22.5-8.6,25.8-12.3c0,0,8.9-1.7,11-2.9c0,0,15.7,7.4,21.3,8
		s24.3,1.4,36.5-2s29.9-7.4,36.8-6.3c6.8,1.1,36.2-3.1,49.2,36.2c0,0,3.3,12.3,3.6,29.6c0.3,17.4,0.9,28.8,2.4,33.9
		c1.2,5.1,3.6,16,3.6,20.8s1.8,7.1,1.8,7.1s5-10.8,6.5-16.5s5.6-33.1,6.2-37.3c0.6-4.3,1.8-18.2,2.7-24.2c0.9-5.7,0-27.1,0-27.1
		s0.3-13.4-1.8-17.4c-2.1-3.7-4.1-10-8.6-13.7c0,0,0.3-4.6-0.3-7.7c-0.6-3.1-6.2-15.1-24.3-30.2s-39.4-26.8-64-26.8
		c0,0,8.6-1.1,14.2-1.7c0,0-16.3-2-24-0.9l12.7-1.7c0,0-21.3-4-36.5,0.3c0,0,2.1-3.4,12.4-7.1c0,0-23.1-6-45.6,8.8
		c0,0-17.5-0.9-34.7,19.4c0,0-11,3.1-13.9,5.1c-3,2-18.4,8.8-20.5,32.5c0,0-14.8,1.7-16.3,31.4l1.5,24.8c0,0-5.3,10.3-5.3,20.8
		s3,17.1,3.3,22.2c0.3,5.1,2.1,14.8,2.1,14.8s5.3,12,6.2,16.8C183.5,243.8,188.3,258.6,188.3,258.6L188.3,258.6z"/>
	<path id="SvgjsPath13229" class="st14" d="M427.5,149.7c0.3-2.9,0.3-5.7,0-8.6s-0.9-5.7-1.8-8.6s-2.1-5.4-3.3-8
		c-1.2-2.3-3-4.6-4.7-6.8c0.6-5.1-1.2-10-3.6-14.3s-5.6-8.3-9.2-12c-6.8-7.4-14.8-13.7-22.8-19.7c-8.3-5.7-17.2-10.8-27-14
		c-4.7-1.7-9.8-2.9-14.8-3.4s-10.1-0.9-15.1-0.3c10.1-0.9,20.2,1.4,29.6,4.8c9.5,3.4,18.1,8.6,26.1,14.5c4.1,2.9,7.7,6,11.6,9.4
		c3.9,3.1,7.4,6.6,10.7,10.3c3.3,3.7,6.2,7.4,8.6,11.7c2.4,4,3.9,8.8,3.3,13.1v0.6l0.6,0.6c1.8,2,3.3,4.3,4.7,6.6
		c1.2,2.3,2.4,4.8,3.3,7.4c0.9,2.6,1.5,5.1,1.5,8c0.3,2.9,0.3,5.4,0,8.3c0.6,8.8,0.6,17.7,0.3,26.5c-0.3,8.8-2.1,17.4-3.3,26.2
		c-1.2,8.8-2.4,17.7-3.9,26.2c-0.6,4.3-1.5,8.8-2.7,12.8c-1.5,4-3.3,8.3-4.4,12.5c1.5-4.3,3.3-8.3,5-12.3c1.5-4.3,2.4-8.6,3.3-13.1
		c1.8-8.8,3.3-17.4,4.4-26.2L426,189c0.9-4.3,1.2-8.8,1.5-13.4C428,167.4,428,158.5,427.5,149.7L427.5,149.7z M405.2,153.4
		c0.3-2.3,1.2-4.6,1.8-6.8c0.6-2.3,1.5-4.6,2.4-6.8l2.4-6.8l1.2-3.4l0.6-1.7l0.3-0.9l0.3-0.6V126v0.3V126c-0.3,0,0,0-0.3,0.3
		l-0.3,0.3l-0.6,0.9l-0.9,1.4l-1.8,3.1c-1.2,2.3-2.4,4.3-3.3,6.6c-2.1,4.6-3.9,9.1-4.7,14c-0.6,3.4-0.6,6.8-0.6,10.3
		c-0.3-1.4-0.9-2.9-1.2-4.3c-1.5-5.1-3.6-10.3-5.9-15.1c-2.4-4.8-5-9.7-8.9-14c-7.1-8.6-17.5-14-27.9-18
		c-10.4-3.4-18.7-10.8-24.3-19.7c-2.7-4.3-5-9.4-5.3-14.5c-0.3-2.6,0.3-5.1,1.2-7.4c1.2-2.3,2.7-4.3,5-5.7c4.1-3.1,9.8-4.6,15.1-4.3
		s11,2,15.7,4.6c-4.7-2.9-10.1-4.6-15.7-5.1c-5.6-0.6-11.6,0.6-16,4c-2.4,1.4-4.4,3.7-5.6,6.3s-1.8,5.4-1.5,8.3
		c0.3,5.7,2.4,10.8,5.3,15.4c5.6,9.4,14.8,17.1,25.2,20.8c10.1,4,19.9,9.4,26.4,17.4c5.3,6.3,8.9,13.7,11.9,21.4
		c-3.9-9.1-10.7-17.7-19.9-22.8c-5.3-3.1-11.6-4.8-17.8-5.1h-1.2c-9.5-2.9-19.6-4.6-29.6-4.8h-7.4l-2.4-0.3c-1.5,0-3.3-0.6-4.7-0.9
		c-1.5-0.6-3-0.9-4.4-1.7c-5.9-2.6-11-6.6-14.2-11.7c-3.6-5.1-5.9-11.1-6.8-17.1c-0.9-6.3-0.6-12.5,1.5-18.2
		c2.1-5.7,6.8-10.5,12.2-14c5.6-3.1,12.2-5.1,18.7-6c-6.5,0.3-13.3,1.7-19.3,4.8c-5.9,3.1-11,8-13.6,14.3c-0.6,1.4-1.2,3.1-1.5,4.8
		c-0.3,1.7-0.6,3.1-0.6,4.8s-0.3,3.1-0.3,4.8s0.3,3.1,0.3,4.8c0.9,6.6,3.3,12.8,6.8,18.5c3.9,5.4,9.5,10,15.7,12.5
		c6.2,2.9,13.6,3.1,20.2,2.6c6.5-0.3,13,0.3,19.6,1.4c1.8,0.3,3.9,0.6,5.6,0.9c-4.4,0-8.9,0-13,0.6c-12.4,1.4-24.3,5.7-36.2,7.4
		c-5.9,0.9-12.2,1.1-18.1,0.6c-6.2-0.3-12.2-1.7-17.5-4s-10.4-5.7-14.2-10.3c-3.9-4.3-6.5-9.7-8.3-15.1s-2.4-11.4-2.1-17.1
		C243,81,243.6,75,246,69.6c4.7-10.5,14.5-18.8,25.5-23.4c10.1-4.3,21.6-5.7,32.3-4c-1.5,0.6-3,0.9-4.4,1.7c-1.2,0.6-2.4,1.1-3.6,2
		s-2.1,1.7-2.7,3.1l-0.3,1.1l1.2-0.3c3-1.1,6.2-1.7,9.2-2c3.3-0.3,6.2-0.6,9.5-0.6s6.5,0.3,9.5,0.3c3.3,0.3,6.5,0.6,9.5,1.1
		c-3.3-0.6-6.2-1.1-9.5-1.4c-3.3-0.3-6.5-0.6-9.5-0.6c-3.3,0-6.5,0-9.8,0.3c-2.7,0.3-5.3,0.6-8,1.4c0.6-0.6,0.9-1.1,1.5-1.4
		c0.9-0.6,2.1-1.1,3.3-1.7c2.4-0.9,4.7-1.7,7.4-2.3l3.3-0.6l-3.3-0.9c-11.9-2.9-25.2-1.7-36.8,2.9c-3.9,1.4-7.7,3.4-11,6
		c-4.4,0.6-8.6,1.7-12.7,3.4c-5,2-9.8,4.8-13.9,8c-1.2,0.9-2.1,1.7-3.3,2.6c-0.9,0.9-1.8,2-2.7,2.9c-0.9,1.1-1.5,2.3-2.4,3.1
		c-9.2,1.7-18.1,6.3-24.6,13.1c-3.9,4.3-6.2,9.4-8,14.8c-0.9,3.4-1.5,6.8-1.5,10.3c-4.4,1.4-8.3,4.6-10.7,8.6
		c-2.7,4.3-3.9,9.4-4.4,14.3c-1.2,9.4-1.2,19.1,0,28.8v0.6c-2.7,7.7-4.7,15.7-5.3,23.9v6.3c0.3,2,0.6,4.3,1.2,6.3
		c0.9,4,1.5,8,2.1,12s1.2,8,2.4,12c0.6,2,1.2,4,2.1,6c0.9,1.7,1.5,3.7,2.4,5.7c2.7,7.7,5,15.4,7.1,23.4c-1.5-8-3-16-5.6-23.9
		c-0.6-2-1.2-4-2.1-6c-0.9-2-1.5-3.7-1.8-5.7c-0.9-4-1.2-8-1.8-12s-1.2-8-2.1-12c-0.6-2-0.9-4-0.9-5.7v-5.7
		c0.3-6.3,1.8-12.5,3.6-18.5c2.1,8.3,6.5,23.4,16.9,35.3c0,3.1,0.3,6.3,0,9.7c0,5.4-0.3,10.8-0.3,16c0,5.4-0.3,10.8-0.9,16
		c-0.3,2.6-0.3,5.4-0.9,8s-0.6,5.4-2.1,7.7c1.5-2.3,2.1-5.1,2.7-7.7c0.6-2.6,1.2-5.4,1.5-8c0.6-5.4,1.2-10.8,1.8-16
		c0.6-5.4,0.6-10.8,0.9-16.2c0.3-5.4,0-10.8,0-16c0.3-10.5,1.8-21.4,4.4-31.6c1.2-5.1,3-10.3,6.5-14.3s8.3-6.8,13.6-8.6
		c-5.3,1.1-10.7,4-14.8,7.7c-2.1,2-3.6,4.3-4.7,6.8s-2.1,5.1-3,7.7c-1.8,5.1-2.7,10.5-3.6,16c-0.9,5.4-1.5,10.8-1.8,16.2v1.7
		c-12.2-16.2-15.1-37.1-15.1-37.3H177c-0.6-4.6-0.9-9.1-1.2-13.7c-0.3-4.8,0-9.7,0.3-14.8c0.3-4.8,1.2-9.7,3.6-14
		c2.1-3.7,5.3-7.1,9.8-8.8c0,2,0,4.3,0.3,6.3c0.9,5.4,3,11.1,7.1,15.1c4.1,4.3,10.1,6.3,15.7,6.8c11.6,1.7,23.4-1.7,32-8.6
		c-4.7,2.9-9.8,5.1-15.4,6.3c-5.3,1.1-11,1.1-16.3,0.3c-5.3-1.1-10.7-2.9-14.2-6.6c-3.6-3.7-5.6-8.8-6.2-14
		c-1.5-10.3,1.5-21.4,8-29.6c3.6-4,8-7.4,12.7-10c3-1.7,6.5-2.9,9.8-4c-0.6,1.1-0.9,2-1.5,3.1c-2.1,4.8-3.3,10.3-3.6,15.4
		c-0.3,5.4,0,10.5,1.2,15.7c1.2,5.1,3,10.3,6.5,14.5c1.8,2,4.1,4,6.5,5.1s5,2,7.7,2.6c5.3,0.9,10.7,0.6,15.4-1.7
		c3,2.3,6.5,4.3,10.1,6c5.9,2.3,12.2,3.7,18.4,4c6.2,0.6,12.4,0.3,18.7-0.6c12.4-2,24-6.3,36.2-8c7.7-0.9,15.7-1.4,23.1-0.3l3.6,0.9
		c-0.6-0.3-1.2-0.3-1.8-0.6c3.9,0.9,7.4,2,10.7,3.7c10.4,5.4,18.1,15.4,22.2,26.2c0.3,0.6,0.6,1.4,0.6,2c1.5,5.1,2.7,10.3,3.3,15.4
		c0,0.6,0,0.9,0.3,1.4c0,1.7-0.3,3.7-0.6,5.4c0.3-0.9,0.6-1.4,0.9-2.3c0.3,3.7,0,7.4,0,11.1c0,10.5,1.2,21.4,2.7,31.9
		c0.9,5.1,2.1,10.5,3.3,15.7c1.2,5.1,0.6,10.5,0.3,15.7c0.3-2.6,0.9-5.1,1.2-8c0.3-2.6,0-5.4-0.3-8s-0.9-5.1-1.5-8s-0.9-5.1-1.2-8
		c-1.2-10.5-2.1-21.1-1.8-31.6c0.3-5.1,0.3-10.8-0.3-16c0-0.9-0.3-2-0.3-2.9c0.3-1.4,0.3-2.9,0.6-4.3
		C404.3,162.8,404.3,158,405.2,153.4L405.2,153.4z M240.7,126.6c-5-1.4-10.1-3.7-12.7-7.4c-3-4-4.4-8.8-5.6-14
		c-0.9-4.8-1.2-10-0.9-15.1c0.6-6.8,2.4-13.7,5.9-19.7c0.6,0,1.5-0.3,2.4-0.3c-0.6,0-1.5,0-2.1,0.3c1.8-2.6,3.6-4.8,6.2-6.8
		c3.9-3.4,8.3-6.3,13-8.6c3.6-1.7,7.7-3.1,11.6-4.3c-6.5,4.6-11.9,10.8-15.4,18.2c-2.7,5.7-3.3,12-3.6,18s0.6,12.3,2.1,18
		s4.7,11.4,8.9,16.2c1.5,1.7,3.3,3.4,5.3,4.8C250.8,127.8,245.5,127.8,240.7,126.6L240.7,126.6z"/>
	<g id="svga-group-glasses-single">
	</g>
	<rect id="svga-credit-rect" y="555" class="st15" width="600" height="45"/>
	<g id="svga-group-eyesback-right_1_">
		<path id="SvgjsPath13082_1_" class="st8" d="M280,264.7c0,20.5-17.1,37-38.5,37s-38.5-16.5-38.5-37s17.1-37,38.5-37
			S280,244.2,280,264.7z"/>
	</g>
	<g id="svga-group-eyesiriswrapper-right_1_" transform="matrix(1,0,0,1,0,0)">
		<g id="svga-group-eyesiriscontrol-right_1_" transform="matrix(1,0,0,1,0,0)">
			<g id="svga-group-eyesiris-right_1_">
				<path id="SvgjsPath14247_1_" class="st9" d="M231.9,266.7c0,7.4-6,13.4-13.4,13.4s-13.4-6-13.4-13.4s6-13.4,13.4-13.4
					C225.9,253.3,231.9,259.3,231.9,266.7z"/>
				<path id="SvgjsPath14248_1_" class="st10" d="M204.6,266.7c0-7.7,6.3-14,14-14s14,6.3,14,14c0,7.7-6.3,14-14,14
					C210.8,280.6,204.6,274.4,204.6,266.7z M206,266.7c0,6.8,5.7,12.5,12.5,12.5s12.5-5.7,12.5-12.5s-5.7-12.5-12.5-12.5
					C211.7,254.1,206,259.8,206,266.7z"/>
				<path id="SvgjsPath14249_1_" class="st11" d="M229.9,266.7c0,6.3-5.1,11.4-11.4,11.4s-11.4-5.1-11.4-11.4s5.1-11.4,11.4-11.4
					S229.9,260.4,229.9,266.7z"/>
				<path id="SvgjsPath14250_1_" class="st12" d="M228.2,266.7c0,5.4-4.3,9.7-9.7,9.7s-9.7-4.3-9.7-9.7c0-5.4,4.3-9.7,9.7-9.7
					C223.9,257,228.2,261.3,228.2,266.7z"/>
				<path id="SvgjsPath14251_1_" d="M225.6,266.7c0,4-3.1,7.1-7.1,7.1s-7.1-3.1-7.1-7.1s3.1-7.1,7.1-7.1
					C222.5,259.5,225.6,262.7,225.6,266.7z"/>
				<path id="SvgjsPath14252_1_" class="st8" d="M224.2,262.1c0,1.4-1.1,2.6-2.6,2.6s-2.6-1.1-2.6-2.6s1.1-2.6,2.6-2.6
					S224.2,260.7,224.2,262.1z M214.2,271.8c0,0.6-0.3,0.9-0.9,0.9s-0.9-0.3-0.9-0.9s0.3-0.9,0.9-0.9
					C214,270.9,214.2,271.2,214.2,271.8z"/>
			</g>
		</g>
	</g>
	<g id="svga-group-eyesfront-right_1_">
		<path id="SvgjsPath13091_1_" class="st0" d="M241.5,226.2c-22.2,0-40.2,17.4-40.2,38.8s18,38.8,40.2,38.8s40.2-17.4,40.2-38.8
			S263.8,226.2,241.5,226.2L241.5,226.2z M226.4,281.8c-12.5-4.8-16-17.7-18-26.5c-1.7-8.8,37.6-6.3,47.3,2
			c9.7,8.3,13.1,19.4,13.4,24.8C269.2,282.1,239,286.9,226.4,281.8L226.4,281.8z"/>
		<path id="SvgjsPath13094_1_" d="M207.9,255.8v0.3c0.3,0.3,0.3,0.3,0.3,0.6l0.6,2.3c0.6,1.7,0.9,3.4,1.4,4.8c1.1,3.1,2.6,6,4.3,8.8
			c2,2.6,4.3,5.1,6.8,7.1c2.9,1.7,6,3.4,9.1,4s6.3,1.1,9.7,1.1c3.1,0,6.3,0,9.7-0.3c6.6-0.3,12.5-1.1,18.8-2.3c0.3,1.1,0.6,2,0.6,2
			s0.3-1.4,0.3-2.3c0-6.6-2.9-12.8-6.6-18.2c-2-2.9-4.3-5.1-6.8-7.4c-0.6-0.6-1.4-0.9-2.3-1.4c-4.3-2.8-10-5.4-17.4-6
			c-13.4-0.9-24.2,1.4-25.9,2C207.9,252.1,207.9,255.8,207.9,255.8L207.9,255.8z M209,256.1v-0.6c4-1.1,18.2-4.3,28.5-3.4
			c12.3,1.1,20.8,9.7,24.2,14c2.6,3.1,5.7,12,6.8,16.2c-6.3,0.6-12.5,0.9-18.8,1.1c-3.1,0.3-6.6,0.3-9.7,0c-1.7,0-3.1-0.3-4.8-0.3
			c-1.7-0.3-3.1-0.6-4.8-0.9c-6.3-1.1-12.3-4.8-15.7-10.3c-1.7-2.8-2.8-5.7-4-8.8c-0.3-1.7-0.9-3.1-1.1-4.8L209,256.1L209,256.1z"/>
	</g>
</g>
<g id="Layer_2">
	<g>
		<path class="st16" d="M107.9,330.3c0,1.8,0,3.6,0,5.6c-96.1,0.3-185.5,0.6-279.5,0.9c-4.8-28-4.8-56-4.9-84.2
			c81.8-0.4,163.8-0.7,245.5-0.9c12.4,0,24.5,0.3,36.7,0.9c0.6,0.6,1.2,0.9,1.9,1.2c-0.5,1.3-0.9,2.5-1.3,4.2
			c0,21.3-0.2,42.2-0.1,63.1C106.1,324.2,107.3,327.3,107.9,330.3z"/>
		<path class="st17" d="M117,329.9c1.3,0,2.8,0.2,3.3-1.4c0.1-0.2,0.1-0.5,0.2-0.7c-0.7-0.8-0.9-1.8-0.7-3.1c0.1-0.5,0.4-1,0.8-1.5
			c-0.1-0.9-0.3-1.6-0.3-2.3l-0.2-52.4c0-2.9,0-2.8,2.9-3c0.8,0,1.8-0.3,2.2-0.9c0.7-0.9,1-2.1,1.3-3.3c-0.6,0.6-1.1,1.1-1.4,1.9
			c-0.4,1.3-1.3,1.8-2.6,1.6c-1.8-0.2-2.5-1.5-2.1-3.9c0.4-2.3-0.1-2.9-2.4-2.9c-3.5,0-6.8,0-10.3,0.2c0,21.1,0.1,42,0.1,63
			c0,3,0.1,6,0.2,9c0.5-0.1,0.8-0.4,1.2-0.4C111.8,329.9,114.4,329.9,117,329.9z"/>
		<path class="st18" d="M220.7,305.8c0.1-0.1,0.1-0.2,0.2-0.3c-1.1,0-2,0-2.9,0.2c0.1,0,0.1,0.1,0.2,0.1L220.7,305.8z"/>
		<path class="st18" d="M226.8,305.8c0.1-0.1,0.1-0.2,0.2-0.3c-1.1,0-2,0-2.9,0.2c0.1,0,0.1,0.1,0.2,0.1L226.8,305.8z"/>
		<path class="st18" d="M207.4,254.9c0.4-0.5,0.9-1,1.6-1.6C209,254.4,208.6,255.1,207.4,254.9z"/>
		<path class="st18" d="M279,304.1c-0.2,0.3-0.5,0.6-0.9,1.1c-0.4,0.1-0.7,0.1-1.2,0.1C277.6,304.8,278.3,304.5,279,304.1z"/>
		<path class="st17" d="M105.3,271c-0.1-0.3-0.1-0.6-0.1-1C105.3,270.2,105.3,270.6,105.3,271z"/>
		<path class="st19" d="M185.9,349.4c0.7,0,1.3-0.2,1.8-0.5l2,0c2.2-0.4,4.4-1.1,6.6-1.1c19.7-0.1,39.4-0.2,59.1-0.3
			c3,0,6-0.2,8.8-1.8c1.8-1.1,3-2.5,3-4.6c0.1-2.5,0-5.2,0-7.8c0-3.2-1.9-5.1-5.1-5.2c-7.9-0.1-15.8-0.2-23.7-0.3
			c-6.7,0-13.3,0-20,0c-0.6,0-1.2-0.5-1.8-0.8c0.6-0.6,1-1.4,1.7-1.8c0.6-0.3,1.5-0.1,2.3-0.1c16.5-0.1,33-0.1,49.6-0.2
			c2.3,0,4.6-0.7,6.8-1.2c2.8-0.7,4.1-2.8,4.2-5.5c0.1-3,0-5.9-0.3-8.9c-0.2-2.2-1.3-3-3.5-3.4c-0.8-0.1-1.6-0.3-2.6-0.6
			c-0.6-0.1-0.8-0.1-1.1-0.1l-16.9,0.1c-0.1,0.1-0.3,0.2-0.4,0.2c-0.4,0.2-0.9,0.1-1.4-0.1c0,0,0,0,0,0c-0.3-0.1-0.7-0.1-1.1-0.2
			l-1.2,0c-0.2,0-0.5,0-0.7,0c-0.1,0-0.1,0-0.2,0l-0.3,0c-0.2,0.1-0.4,0.2-0.7,0.2l-18.1,0.1c-0.3,0-0.6-0.1-0.9-0.2l-7.7,0
			c-0.7-2.8-0.3-3.4,2.3-3.4l8.3,0c0.8-0.1,1.8-0.1,3-0.1c1.3,0.1,2.1,0.1,3,0.1c0.8-0.1,1.8-0.1,3-0.1c1.2,0.1,2,0.1,2.9,0.1
			c0,0,0.1,0,0.1,0l2.5,0c0,0,0.1-0.1,0.1-0.1c0.2,0,0.3,0,0.5,0c0.5,0,0.9,0,1.2,0c0.1,0,0.1,0,0.2-0.1c2.3,0.1,5.5,0.5,8.2,0
			c0.1,0,0.2,0,0.3,0c8.7,0,17.4-0.1,26.1-0.2c1.6,0,3.2-0.2,5.2-0.2c1,0.1,1.7,0.1,2.5,0.1c0.3-0.1,0.6-0.3,0.9-0.4
			c1.1-0.1,2.2-0.4,3-1c0.4-0.3,0.7-0.6,0.9-1c1-1.1,1.3-2.7,1.7-4.1c0.1-0.4,0.1-0.8,0.1-1.3c0-0.8,0.1-1.5,0.1-2.2
			c0.5-2.7,1-5.7-1.1-7.7c-0.3-0.4-0.5-0.7-0.8-1c-0.2-0.1-0.4-0.1-0.7-0.3c-4.5-0.4-9.1-0.6-13.6-0.7c-0.7,0-1.5-0.1-2.2-0.1
			c-17.3-0.4-34.6,0.5-51.9,0.1l-1.6,0c-0.1,0-0.2,0-0.3,0c-0.4-0.1-0.8-0.2-1.2-0.3c-0.4-0.3-0.3-0.9,0.1-2.2
			c-0.1,0.1-0.3,0.1-0.5,0.2c0-0.1,0-0.1,0-0.2c0,0,0,0,0,0c0,0,0.1,0,0.1-0.1c4,0,8.1,0,12.1-0.1c0.1,0,0.1,0,0.2,0
			c12.5,0,25.1,0,37.6-0.1c3.1-0.1,6.4-0.2,9-2.8c1.6-1.6,1.8-3.5,2-5.3c0.2-2.2,0.3-4.4-0.1-6.6c-0.2-1.5-1.4-2.7-2.3-4.2
			c-0.6-0.3-1-0.4-1.4-0.6c-28,0-55.9,0-83.8-0.1c-0.4-0.1-0.8-0.1-1.2-0.1c-0.4,0-0.8,0.1-1.2,0.1c-1.3,0-2.6,0-4,0l-0.8,0
			c-2.7,0-3.7-0.6-3.7-2.1c-0.1-2.5,1.3-4,3.8-4l1.8,0c4.9,0,9.8,0,14.7-0.1c3.2-0.1,6.5-0.4,9.7-0.7c1.2-0.1,2.3-0.7,3.7-1.1
			c0.6-0.1,0.8-0.3,1.1-0.4c0.5-0.5,1.1-1.1,1.8-1.7c2.7-3,3.3-6.5,3.7-10c0.1-0.2,0.2-0.5,0.3-0.7c0.1-0.6,0.1-1.2,0-1.8
			c0-1.5-0.8-2.3-2.1-2.6c-1.8-0.5-3.6-0.9-5.4-0.9c-15.2,0-30.4,0-45.5,0.1c-2.3,0-4.6-0.1-6.8,0.4c-5.4,1.2-11,2.3-16.2,4.3
			c-6.1,2.3-11.6,5.7-16.4,10.2c-0.6,0.7-1.3,1.5-1.8,2.3c-0.4,0.4-0.6,0.6-0.8,0.8c-0.9,1.1-1.7,2.3-2.6,3.4
			c-0.1,0.1-0.1,0.2-0.2,0.3c-0.3,0.5-0.7,1-1.1,1.4c-0.6,0.7-1.1,1.5-1.7,2.2c-0.6,1-1.1,1.8-1.6,2.6c-0.4,1.1-0.6,2.4-1.3,3.3
			c-0.4,0.6-1.4,0.9-2.2,0.9c-2.9,0.1-2.9,0.1-2.9,3l0.2,52.4c0,0.6,0.1,1.1,0.2,1.7c0.4-0.3,0.9-0.5,1.4-0.7
			c-0.2-0.1-0.3-0.2-0.5-0.4c0.2,0.2,0.4,0.3,0.7,0.4c0.5-0.1,1-0.1,1.5,0.1c0.1,0,0.2,0.1,0.2,0.1c0.1,0,0.2,0,0.4,0
			c0.3,0,0.5,0,0.8,0c0,0,0,0,0,0c0.1,0.1,0.1,0.1,0.2,0.2c0,0,0,0,0,0c-0.3,0-0.5,0-0.8,0c0,0,0,0,0,0c0.4,0.2,0.7,0.3,1.1,0.5
			c0.1,0.1,0.1,0.3,0.2,0.4c0,0,0,0,0,0c0,0,0,0,0,0c2.3,5.3,6.5,9.3,11.3,12.6c1,0.9,2,1.9,2.9,2.9c1.1,0.4,2.3,0.8,3,1.6
			c1.1,1.3,2.4,2.1,4,2.7c0.6,0.3,1.1,0.9,1.8,1.3c0.7,0.4,1.5,1,2.3,1.2c3.1,0.6,6.3,1.3,9.4,1.9c2.4,0.9,4.8,1.5,7.7,1.7
			C174.2,349.7,180.1,349.7,185.9,349.4z M146.8,245.3c0.4,0.3,0.8,0.9,1.3,1.9c0,0-0.1,0-0.1,0
			C147.6,246.3,147.2,245.7,146.8,245.3z"/>
		<path class="st18" d="M130,323.1"/>
	</g>
</g>
<g id="Layer_3">
	<g>
		<path class="st16" d="M503.3,321.1c0.1-20.9-0.1-41.9-0.1-63.1c-0.4-1.6-0.8-2.9-1.3-4.2c0.7-0.3,1.3-0.6,1.9-1.2
			c12.1-0.5,24.2-0.9,36.7-0.9c81.8,0.2,163.7,0.5,245.5,0.9c-0.1,28.2-0.2,56.2-4.9,84.2c-94-0.3-183.4-0.6-279.5-0.9
			c0-2,0-3.8,0-5.6C502.2,327.3,503.5,324.2,503.3,321.1z"/>
		<path class="st17" d="M492.6,329.9c-1.3,0-2.8,0.2-3.3-1.4c-0.1-0.2-0.1-0.5-0.2-0.7c0.7-0.8,0.9-1.8,0.7-3.1
			c-0.1-0.5-0.4-1-0.8-1.5c0.1-0.9,0.3-1.6,0.3-2.3l0.2-52.4c0-2.9,0-2.8-2.9-3c-0.8,0-1.8-0.3-2.2-0.9c-0.7-0.9-1-2.1-1.3-3.3
			c0.6,0.6,1.1,1.1,1.4,1.9c0.4,1.3,1.3,1.8,2.6,1.6c1.8-0.2,2.5-1.5,2.1-3.9c-0.4-2.3,0.1-2.9,2.4-2.9c3.5,0,6.8,0,10.3,0.2
			c0,21.1-0.1,42-0.1,63c0,3-0.1,6-0.2,9c-0.5-0.1-0.8-0.4-1.2-0.4C497.7,329.9,495.1,329.9,492.6,329.9z"/>
		<path class="st18" d="M388.8,305.8c-0.1-0.1-0.1-0.2-0.2-0.3c1.1,0,2,0,2.9,0.2c-0.1,0-0.1,0.1-0.2,0.1L388.8,305.8z"/>
		<path class="st18" d="M382.7,305.8c-0.1-0.1-0.1-0.2-0.2-0.3c1.1,0,2,0,2.9,0.2c-0.1,0-0.1,0.1-0.2,0.1L382.7,305.8z"/>
		<path class="st18" d="M400.6,253.4c0.7,0.6,1.2,1.1,1.6,1.6C400.9,255.1,400.5,254.4,400.6,253.4z"/>
		<path class="st18" d="M332.6,305.3c-0.5,0-0.8,0-1.2-0.1c-0.4-0.4-0.7-0.8-0.9-1.1C331.3,304.5,332,304.8,332.6,305.3z"/>
		<path class="st17" d="M504.4,270c0,0.4,0,0.7-0.1,1C504.2,270.6,504.3,270.2,504.4,270z"/>
		<path class="st19" d="M441.1,349.2c2.8-0.2,5.3-0.8,7.7-1.7c3.1-0.6,6.3-1.2,9.4-1.9c0.8-0.2,1.6-0.8,2.3-1.2
			c0.6-0.4,1.1-1,1.8-1.3c1.6-0.6,2.8-1.3,4-2.7c0.7-0.8,1.9-1.2,3-1.6c1-1,1.9-2,2.9-2.9c4.8-3.3,9-7.3,11.3-12.6c0,0,0,0,0,0
			c0,0,0,0,0,0c0.1-0.1,0.1-0.3,0.2-0.4c0.4-0.2,0.7-0.3,1.1-0.5c0,0,0,0,0,0c-0.3,0-0.5,0-0.8,0c0,0,0,0,0,0
			c0.1-0.1,0.1-0.1,0.2-0.2c0,0,0,0,0,0c0.3,0,0.5,0,0.8,0c0.1,0,0.3,0,0.4,0c0.1,0,0.2-0.1,0.2-0.1c0.5-0.2,1-0.2,1.5-0.1
			c0.3-0.1,0.5-0.2,0.7-0.4c-0.1,0.2-0.3,0.3-0.5,0.4c0.5,0.1,1,0.4,1.4,0.7c0.1-0.6,0.2-1.1,0.2-1.7l0.2-52.4c0-2.9,0-2.9-2.9-3
			c-0.8,0-1.8-0.3-2.2-0.9c-0.7-0.9-0.9-2.2-1.3-3.3c-0.5-0.8-1-1.6-1.6-2.6c-0.6-0.8-1.1-1.5-1.7-2.2c-0.4-0.5-0.8-0.9-1.1-1.4
			c-0.1-0.1-0.1-0.2-0.2-0.3c-0.9-1.2-1.7-2.3-2.6-3.4c-0.2-0.2-0.4-0.4-0.8-0.8c-0.4-0.8-1.1-1.6-1.8-2.3
			c-4.8-4.5-10.4-7.9-16.4-10.2c-5.1-2-10.7-3.1-16.2-4.3c-2.2-0.5-4.5-0.4-6.8-0.4c-15.2,0-30.4-0.1-45.5-0.1
			c-1.8,0-3.6,0.4-5.4,0.9c-1.3,0.3-2.1,1.1-2.1,2.6c-0.2,0.6-0.2,1.2,0,1.8c0.1,0.3,0.2,0.5,0.3,0.7c0.4,3.5,1,7,3.7,10
			c0.7,0.6,1.3,1.2,1.8,1.7c0.3,0.1,0.6,0.2,1.1,0.4c1.4,0.4,2.5,1.1,3.7,1.1c3.2,0.4,6.5,0.7,9.7,0.7c4.9,0.2,9.8,0.1,14.7,0.1
			l1.8,0c2.5,0,3.9,1.5,3.8,4c0,1.6-1.1,2.1-3.7,2.1l-0.8,0c-1.3,0-2.6,0-4,0c-0.4,0-0.8-0.1-1.2-0.1c-0.4,0-0.8,0-1.2,0.1
			c-28,0-55.9,0-83.8,0.1c-0.4,0.1-0.8,0.3-1.4,0.6c-0.9,1.5-2.1,2.7-2.3,4.2c-0.4,2.2-0.3,4.4-0.1,6.6c0.2,1.8,0.3,3.7,2,5.3
			c2.6,2.6,5.9,2.7,9,2.8c12.5,0.1,25.1,0.2,37.6,0.1c0.1,0,0.1,0,0.2,0c4,0,8.1,0,12.1,0.1c0,0,0.1,0,0.1,0.1c0,0,0,0,0,0
			c0,0.1,0,0.1,0,0.2c-0.2-0.1-0.3-0.2-0.5-0.2c0.4,1.2,0.4,1.9,0.1,2.2c-0.4,0.1-0.8,0.2-1.2,0.3c-0.1,0-0.2,0-0.3,0l-1.6,0
			c-17.3,0.3-34.6-0.5-51.9-0.1c-0.7,0-1.5,0-2.2,0.1c-4.5,0.1-9.1,0.3-13.6,0.7c-0.3,0.1-0.5,0.2-0.7,0.3c-0.2,0.3-0.5,0.6-0.8,1
			c-2.2,2-1.7,5-1.1,7.7c0,0.7,0,1.4,0.1,2.2c0,0.4,0,0.9,0.1,1.3c0.4,1.4,0.7,3,1.7,4.1c0.2,0.4,0.5,0.7,0.9,1c0.8,0.6,1.9,0.9,3,1
			c0.3,0.1,0.6,0.3,0.9,0.4c0.8,0,1.5,0,2.5-0.1c1.9,0,3.5,0.2,5.2,0.2c8.7,0.1,17.4,0.1,26.1,0.2c0.1,0,0.2,0,0.3,0
			c2.8,0.4,6,0,8.2,0c0.1,0,0.1,0,0.2,0.1c0.4,0,0.8,0,1.2,0c0.2,0,0.3,0,0.5,0c0,0,0.1,0.1,0.1,0.1l2.5,0c0,0,0.1,0,0.1,0
			c0.9,0,1.7,0,2.9-0.1c1.3,0,2.2,0,3,0.1c0.9,0,1.8,0,3-0.1c1.3,0,2.2,0,3,0.1l8.3,0c2.6,0,3,0.6,2.3,3.4l-7.7,0
			c-0.3,0.1-0.6,0.2-0.9,0.2l-18.1-0.1c-0.2,0-0.5-0.1-0.7-0.2l-0.3,0c-0.1,0-0.1,0-0.2,0c-0.2,0-0.5,0-0.7,0l-1.2,0
			c-0.4,0-0.7,0.1-1.1,0.2c0,0,0,0,0,0c-0.4,0.2-0.9,0.2-1.4,0.1c-0.1-0.1-0.3-0.1-0.4-0.2l-16.9-0.1c-0.3,0-0.6,0-1.1,0.1
			c-1.1,0.3-1.8,0.5-2.6,0.6c-2.3,0.3-3.3,1.2-3.5,3.4c-0.3,3-0.4,5.9-0.3,8.9c0.1,2.6,1.5,4.7,4.2,5.5c2.2,0.6,4.5,1.2,6.8,1.2
			c16.5,0.1,33,0.2,49.6,0.2c0.8,0,1.6-0.2,2.3,0.1c0.7,0.4,1.1,1.1,1.7,1.8c-0.6,0.3-1.2,0.8-1.8,0.8c-6.6,0-13.3,0-20,0
			c-7.9,0-15.8,0.2-23.7,0.3c-3.2,0.1-5.1,2-5.1,5.2c0,2.6-0.1,5.2,0,7.8c0.1,2.1,1.2,3.5,3,4.6c2.7,1.6,5.7,1.8,8.8,1.8
			c19.7,0.1,39.4,0.1,59.1,0.3c2.2,0,4.4,0.7,6.6,1.1l2,0c0.5,0.3,1.1,0.5,1.8,0.5C429.5,349.7,435.4,349.7,441.1,349.2z
			 M461.5,247.2C461.4,247.2,461.4,247.2,461.5,247.2c0.5-1,0.8-1.6,1.3-1.9C462.3,245.7,462,246.3,461.5,247.2z"/>
		<path class="st18" d="M479.5,323.1"/>
	</g>
</g>
</svg>
