<svg xmlns="http://www.w3.org/2000/svg" viewBox="0 0 476.71 116.2"><defs><style>.cls-1{fill:#d32424;}.cls-2{fill:#ededec;}.cls-3{fill:#fcc9a2;}.cls-4{fill:#fcd1b4;}</style></defs><g id="Layer_2" data-name="Layer 2"><g id="Layer_1-2" data-name="Layer 1"><g id="Layer_3" data-name="Layer 3"><path class="cls-1" d="M194,87.7c.1-20.9-.1-41.9-.1-63.1a34.94,34.94,0,0,0-1.3-4.2,5.54,5.54,0,0,0,1.9-1.2c12.1-.5,24.2-.9,36.7-.9q122.7.3,245.5.9c-.1,28.2-.2,56.2-4.9,84.2l-279.5-.9V96.9C193,93.8,194.21,90.8,194,87.7Z"/><path class="cls-2" d="M183.31,96.4c-1.3,0-2.8.2-3.3-1.4-.1-.2-.1-.5-.2-.7a3.58,3.58,0,0,0,.7-3.1,3.68,3.68,0,0,0-.8-1.5c.1-.9.3-1.6.3-2.3l.2-52.4c0-2.9,0-2.8-2.9-3a2.79,2.79,0,0,1-2.2-.9,8.78,8.78,0,0,1-1.3-3.3,5.22,5.22,0,0,1,1.4,1.9,2.1,2.1,0,0,0,2.6,1.6q2.7-.3,2.1-3.9c-.4-2.3.1-2.9,2.4-2.9,3.5,0,6.8,0,10.3.2,0,21.1-.1,42-.1,63,0,3-.1,6-.2,9-.5-.1-.8-.4-1.2-.4C188.41,96.4,185.81,96.4,183.31,96.4Z"/><path class="cls-3" d="M79.51,72.3c-.1-.1-.1-.2-.2-.3a13.22,13.22,0,0,1,2.9.2c-.1,0-.1.1-.2.1Z"/><path class="cls-3" d="M73.41,72.3c-.1-.1-.1-.2-.2-.3a13.22,13.22,0,0,1,2.9.2c-.1,0-.1.1-.2.1Z"/><path class="cls-3" d="M91.31,19.9a12,12,0,0,1,1.6,1.6C91.61,21.6,91.21,20.9,91.31,19.9Z"/><path class="cls-3" d="M23.31,71.8a4.48,4.48,0,0,1-1.2-.1,7.29,7.29,0,0,1-.9-1.1A19.61,19.61,0,0,1,23.31,71.8Z"/><path class="cls-2" d="M195.11,36.6a3.08,3.08,0,0,1-.1,1A1.55,1.55,0,0,1,195.11,36.6Z"/><path class="cls-4" d="M131.81,115.8a27.06,27.06,0,0,0,7.7-1.7c3.1-.6,6.3-1.2,9.4-1.9a10.08,10.08,0,0,0,2.3-1.2,11.8,11.8,0,0,1,1.8-1.3,8.92,8.92,0,0,0,4-2.7,7.21,7.21,0,0,1,3-1.6c1-1,1.9-2,2.9-2.9,4.8-3.3,9-7.3,11.3-12.6h0c.1-.1.1-.3.2-.4.4-.2.7-.3,1.1-.5h-.8l.2-.2h1.2a.35.35,0,0,0,.2-.1,2.57,2.57,0,0,1,1.5-.1,1.61,1.61,0,0,0,.7-.4,1,1,0,0,1-.5.4,3.69,3.69,0,0,1,1.4.7,9.85,9.85,0,0,0,.2-1.7l.2-52.4c0-2.9,0-2.9-2.9-3a2.79,2.79,0,0,1-2.2-.9,12,12,0,0,1-1.3-3.3c-.5-.8-1-1.6-1.6-2.6-.6-.8-1.1-1.5-1.7-2.2a13.44,13.44,0,0,1-1.1-1.4c-.1-.1-.1-.2-.2-.3-.9-1.2-1.7-2.3-2.6-3.4l-.8-.8a9.59,9.59,0,0,0-1.8-2.3,50.16,50.16,0,0,0-16.4-10.2c-5.1-2-10.7-3.1-16.2-4.3a30.72,30.72,0,0,0-6.8-.4C109,.1,93.81,0,78.71,0a20.35,20.35,0,0,0-5.4.9,2.44,2.44,0,0,0-2.1,2.6,2.78,2.78,0,0,0,0,1.8,4.88,4.88,0,0,0,.3.7c.4,3.5,1,7,3.7,10,.7.6,1.3,1.2,1.8,1.7.3.1.6.2,1.1.4,1.4.4,2.5,1.1,3.7,1.1a79.1,79.1,0,0,0,9.7.7c4.9.2,9.8.1,14.7.1H108c2.5,0,3.9,1.5,3.8,4,0,1.6-1.1,2.1-3.7,2.1h-4.8c-.4,0-.8-.1-1.2-.1a4.87,4.87,0,0,0-1.2.1q-42,0-83.8.1a7.26,7.26,0,0,0-1.4.6c-.9,1.5-2.1,2.7-2.3,4.2a24.32,24.32,0,0,0-.1,6.6c.2,1.8.3,3.7,2,5.3,2.6,2.6,5.9,2.7,9,2.8,12.5.1,25.1.2,37.6.1h.2c4,0,8.1,0,12.1.1a.1.1,0,0,1,.1.1h0v.2c-.2-.1-.3-.2-.5-.2.4,1.2.4,1.9.1,2.2l-1.2.3h-1.9c-17.3.3-34.6-.5-51.9-.1a16.2,16.2,0,0,0-2.2.1c-4.5.1-9.1.3-13.6.7a4.88,4.88,0,0,0-.7.3c-.2.3-.5.6-.8,1-2.2,2-1.7,5-1.1,7.7a17,17,0,0,0,.1,2.2,5.7,5.7,0,0,0,.1,1.3c.4,1.4.7,3,1.7,4.1a2.84,2.84,0,0,0,.9,1,6,6,0,0,0,3,1c.3.1.6.3.9.4a22.63,22.63,0,0,0,2.5-.1c1.9,0,3.5.2,5.2.2,8.7.1,17.4.1,26.1.2h.3c2.8.4,6,0,8.2,0,.1,0,.1,0,.2.1h1.7l.1.1h2.6c.9,0,1.7,0,2.9-.1a25.38,25.38,0,0,1,3,.1c.9,0,1.8,0,3-.1a25.38,25.38,0,0,1,3,.1h8.3c2.6,0,3,.6,2.3,3.4h-7.7a2.92,2.92,0,0,1-.9.2l-18.1-.1a1.85,1.85,0,0,1-.7-.2h-2.4a4.25,4.25,0,0,0-1.1.2h0a2.2,2.2,0,0,1-1.4.1c-.1-.1-.3-.1-.4-.2L27,72a4.91,4.91,0,0,0-1.1.1,18.48,18.48,0,0,1-2.6.6c-2.3.3-3.3,1.2-3.5,3.4a66.2,66.2,0,0,0-.3,8.9,5.64,5.64,0,0,0,4.2,5.5,26.24,26.24,0,0,0,6.8,1.2c16.5.1,33,.2,49.6.2a5.86,5.86,0,0,1,2.3.1,7.37,7.37,0,0,1,1.7,1.8,4.76,4.76,0,0,1-1.8.8h-20c-7.9,0-15.8.2-23.7.3-3.2.1-5.1,2-5.1,5.2,0,2.6-.1,5.2,0,7.8a5.47,5.47,0,0,0,3,4.6c2.7,1.6,5.7,1.8,8.8,1.8,19.7.1,39.4.1,59.1.3a37.89,37.89,0,0,1,6.6,1.1h2a3.45,3.45,0,0,0,1.8.5C120.21,116.2,126.11,116.2,131.81,115.8Zm20.4-102c-.1,0-.1-.1,0,0,.5-1,.8-1.6,1.3-1.9C153,12.2,152.71,12.8,152.21,13.8Z"/></g></g></g></svg>