<svg xmlns="http://www.w3.org/2000/svg" viewBox="0 0 477.04 116.39"><defs><style>.cls-1{fill:#d32424;}.cls-2{fill:#ededec;}.cls-3{fill:#fcc9a2;}.cls-4{fill:#fcd1b4;}</style></defs><g id="Layer_2" data-name="Layer 2"><g id="Layer_1-2" data-name="Layer 1"><g id="Layer_2-2" data-name="Layer 2"><path class="cls-1" d="M284.4,97.2v5.6l-279.5.9C.1,75.7.1,47.7,0,19.5c81.8-.4,163.8-.7,245.5-.9,12.4,0,24.5.3,36.7.9a5.54,5.54,0,0,0,1.9,1.2,30.07,30.07,0,0,0-1.3,4.2c0,21.3-.2,42.2-.1,63.1C282.5,91.1,283.7,94.1,284.4,97.2Z"/><path class="cls-2" d="M293.4,96.7c1.3,0,2.8.2,3.3-1.4.1-.2.1-.5.2-.7a3.58,3.58,0,0,1-.7-3.1A3.68,3.68,0,0,1,297,90c-.1-.9-.3-1.6-.3-2.3l-.2-52.4c0-2.9,0-2.8,2.9-3a2.79,2.79,0,0,0,2.2-.9,8.78,8.78,0,0,0,1.3-3.3,5.22,5.22,0,0,0-1.4,1.9,2.1,2.1,0,0,1-2.6,1.6q-2.7-.3-2.1-3.9c.4-2.3-.1-2.9-2.4-2.9-3.5,0-6.8,0-10.3.2,0,21.1.1,42,.1,63,0,3,.1,6,.2,9,.5-.1.8-.4,1.2-.4C288.3,96.7,290.9,96.7,293.4,96.7Z"/><path class="cls-3" d="M397.2,72.6c.1-.1.1-.2.2-.3a13.22,13.22,0,0,0-2.9.2c.1,0,.1.1.2.1Z"/><path class="cls-3" d="M403.3,72.6c.1-.1.1-.2.2-.3a13.22,13.22,0,0,0-2.9.2c.1,0,.1.1.2.1Z"/><path class="cls-3" d="M383.8,21.8a12,12,0,0,1,1.6-1.6C385.5,21.2,385.1,21.9,383.8,21.8Z"/><path class="cls-3" d="M455.5,71c-.2.3-.5.6-.9,1.1a4.48,4.48,0,0,1-1.2.1A7.19,7.19,0,0,1,455.5,71Z"/><path class="cls-2" d="M281.8,37.8a3.08,3.08,0,0,1-.1-1C281.7,37.1,281.8,37.5,281.8,37.8Z"/><path class="cls-4" d="M362.3,116.2a3.45,3.45,0,0,0,1.8-.5h2a37.89,37.89,0,0,1,6.6-1.1l59.1-.3c3,0,6-.2,8.8-1.8,1.8-1.1,3-2.5,3-4.6.1-2.5,0-5.2,0-7.8,0-3.2-1.9-5.1-5.1-5.2l-23.7-.3h-20a4.76,4.76,0,0,1-1.8-.8c.6-.6,1-1.4,1.7-1.8a5.77,5.77,0,0,1,2.3-.1c16.5-.1,33-.1,49.6-.2a31.27,31.27,0,0,0,6.8-1.2c2.8-.7,4.1-2.8,4.2-5.5a66.2,66.2,0,0,0-.3-8.9c-.2-2.2-1.3-3-3.5-3.4a15.79,15.79,0,0,1-2.6-.6,5.38,5.38,0,0,0-1.1-.1l-16.9.1a.76.76,0,0,1-.4.2,1.74,1.74,0,0,1-1.4-.1h0c-.3-.1-.7-.1-1.1-.2h-2.4a1.45,1.45,0,0,1-.7.2l-18.1.1a2.92,2.92,0,0,1-.9-.2h-7.7c-.7-2.8-.3-3.4,2.3-3.4h8.3a26.28,26.28,0,0,1,3-.1c1.3.1,2.1.1,3,.1a26.28,26.28,0,0,1,3-.1c1.2.1,2,.1,2.9.1h2.6l.1-.1h1.7c.1,0,.1,0,.2-.1,2.3.1,5.5.5,8.2,0h.3c8.7,0,17.4-.1,26.1-.2,1.6,0,3.2-.2,5.2-.2a22.63,22.63,0,0,0,2.5.1c.3-.1.6-.3.9-.4a6,6,0,0,0,3-1,2.84,2.84,0,0,0,.9-1c1-1.1,1.3-2.7,1.7-4.1a5.28,5.28,0,0,0,.1-1.3c0-.8.1-1.5.1-2.2.5-2.7,1-5.7-1.1-7.7a8.74,8.74,0,0,0-.8-1,3.63,3.63,0,0,1-.7-.3c-4.5-.4-9.1-.6-13.6-.7-.7,0-1.5-.1-2.2-.1-17.3-.4-34.6.5-51.9.1h-1.9l-1.2-.3c-.4-.3-.3-.9.1-2.2-.1.1-.3.1-.5.2V46h0a.1.1,0,0,0,.1-.1c4,0,8.1,0,12.1-.1h.2c12.5,0,25.1,0,37.6-.1,3.1-.1,6.4-.2,9-2.8,1.6-1.6,1.8-3.5,2-5.3a24.32,24.32,0,0,0-.1-6.6c-.2-1.5-1.4-2.7-2.3-4.2-.6-.3-1-.4-1.4-.6q-42,0-83.8-.1A4.87,4.87,0,0,0,375,26c-.4,0-.8.1-1.2.1H369c-2.7,0-3.7-.6-3.7-2.1-.1-2.5,1.3-4,3.8-4h1.8c4.9,0,9.8,0,14.7-.1,3.2-.1,6.5-.4,9.7-.7a21.52,21.52,0,0,0,3.7-1.1,4.33,4.33,0,0,0,1.1-.4c.5-.5,1.1-1.1,1.8-1.7,2.7-3,3.3-6.5,3.7-10,.1-.2.2-.5.3-.7a5.44,5.44,0,0,0,0-1.8A2.44,2.44,0,0,0,403.8.9a20.35,20.35,0,0,0-5.4-.9C383.2,0,368,0,352.9.1a30.72,30.72,0,0,0-6.8.4c-5.4,1.2-11,2.3-16.2,4.3A49.15,49.15,0,0,0,313.5,15a20.28,20.28,0,0,0-1.8,2.3l-.8.8c-.9,1.1-1.7,2.3-2.6,3.4-.1.1-.1.2-.2.3a7.55,7.55,0,0,1-1.1,1.4c-.6.7-1.1,1.5-1.7,2.2-.6,1-1.1,1.8-1.6,2.6a12,12,0,0,1-1.3,3.3,2.79,2.79,0,0,1-2.2.9c-2.9.1-2.9.1-2.9,3l.2,52.4a9.85,9.85,0,0,0,.2,1.7,6.11,6.11,0,0,1,1.4-.7,1.76,1.76,0,0,1-.5-.4,1.61,1.61,0,0,0,.7.4,2.57,2.57,0,0,1,1.5.1.35.35,0,0,1,.2.1h1.2l.2.2h-.8c.4.2.7.3,1.1.5.1.1.1.3.2.4h0c2.3,5.3,6.5,9.3,11.3,12.6a39.67,39.67,0,0,1,2.9,2.9,7.21,7.21,0,0,1,3,1.6,9.19,9.19,0,0,0,4,2.7c.6.3,1.1.9,1.8,1.3a10.08,10.08,0,0,0,2.3,1.2c3.1.6,6.3,1.3,9.4,1.9a26.31,26.31,0,0,0,7.7,1.7A95.44,95.44,0,0,0,362.3,116.2Zm-39-104.1a5.47,5.47,0,0,1,1.3,1.9h-.1A9,9,0,0,0,323.3,12.1Z"/></g></g></g></svg>